# This file uses centimeters as units for non-parametric coordinates.

mtllib Door_Moving.mtl
g default
v -1.233639 0.055718 16.725750
v 1.233639 0.055718 16.725750
v -1.233639 16.663624 16.725750
v 1.233639 16.663624 16.725750
v -1.233639 16.663624 -0.529391
v 1.233639 16.663624 -0.529392
v -1.233639 0.055718 -0.529391
v 1.233639 0.055718 -0.529392
v -1.233639 13.342044 16.725750
v -1.233639 13.342044 0.117854
v 1.233639 13.342044 0.117854
v 1.233639 13.342044 16.725750
v -1.233639 4.041616 16.725750
v -1.233639 4.041616 0.117854
v 1.233639 4.041616 0.117854
v 1.233639 4.041616 16.725750
v -1.233639 16.663624 5.100222
v -1.233639 13.342044 5.100222
v -1.233639 4.041616 5.100222
v -1.233639 0.055718 5.100222
v 1.233639 0.055718 5.100222
v 1.233639 4.041616 5.100222
v 1.233639 13.342044 5.100222
v 1.233639 16.663624 5.100222
v -1.233639 16.663624 12.075538
v -1.233639 13.342044 12.075538
v -1.233639 4.041616 12.075538
v -1.233639 0.055718 12.075538
v 1.233639 0.055718 12.075538
v 1.233639 4.041616 12.075538
v 1.233639 13.342044 12.075538
v 1.233639 16.663624 12.075538
v 0.605772 0.055718 16.725750
v 0.381139 0.055718 16.725750
v 0.381139 4.041616 16.725750
v 0.605772 4.041616 16.725750
v 0.381139 13.342044 16.725750
v 0.605772 13.342044 16.725750
v 0.605772 16.663624 16.725750
v 0.381139 16.663624 16.725750
v 0.605772 16.663624 12.075538
v 0.381139 16.663624 12.075538
v 0.605772 16.663624 -0.529392
v 0.381139 16.663624 0.117854
v 0.605772 13.342044 0.117854
v 0.381139 13.342044 0.117854
v 0.605772 4.041616 0.117854
v 0.381139 4.041616 0.117854
v 0.605772 0.055718 -0.529392
v 0.381139 0.055718 0.117854
v 0.381139 0.055718 5.100222
v 0.605772 0.055718 5.100222
v -0.407722 0.055718 16.725750
v -0.677880 0.055718 16.725750
v -0.677880 4.041616 16.725750
v -0.407722 4.041616 16.725750
v -0.677880 13.342044 16.725750
v -0.407722 13.342044 16.725750
v -0.677880 16.663624 16.725750
v -0.407722 16.663624 16.725750
v -0.407722 16.663624 12.075538
v -0.677880 16.663624 12.075538
v -0.407722 16.663624 0.117854
v -0.677880 16.663624 -0.529391
v -0.677880 13.342044 0.117854
v -0.407722 13.342044 0.117854
v -0.677880 4.041616 0.117854
v -0.407722 4.041616 0.117854
v -0.677880 0.055718 -0.529391
v -0.407722 0.055718 0.117854
v -0.677880 0.055718 5.100222
v -0.407722 0.055718 5.100222
v -0.677880 0.055718 12.075538
v -0.407722 0.055718 12.075538
v 0.381139 0.055718 12.075538
v 0.605772 0.055718 12.075538
v 0.605772 16.663624 5.100222
v 0.381139 16.663624 5.100222
v -0.407722 16.663624 5.100222
v -0.677880 16.663624 5.100222
v -1.233639 10.221978 -2.289379
v -1.233639 10.760272 -1.757831
v -1.233639 10.806177 5.100222
v -1.233639 10.250469 5.100222
v 1.233639 10.250469 16.725750
v 1.233639 10.806177 16.725750
v 1.233639 10.250469 12.075538
v 1.233639 10.806177 12.075538
v -1.233639 7.589331 16.725750
v -1.233639 7.041696 16.725750
v -1.233639 7.589331 12.075538
v -1.233639 7.041696 12.075538
v 1.233639 7.611449 -2.289379
v 1.233639 7.077575 -1.815108
v 1.233639 7.041696 5.100222
v 1.233639 7.589331 5.100222
v -1.233639 10.806177 12.075538
v -1.233639 10.250469 12.075538
v -1.233639 7.077575 -1.815108
v -1.233639 7.611449 -2.289379
v -1.233639 7.589331 5.100222
v -1.233639 7.041696 5.100222
v 1.233639 7.041696 12.075538
v 1.233639 7.589331 12.075538
v 1.233639 10.760272 -1.757831
v 1.233639 10.221978 -2.289379
v 1.233639 10.250469 5.100222
v 1.233639 10.806177 5.100222
v -1.233639 10.806177 16.725750
v -1.233639 10.250469 16.725750
v 1.233639 7.041696 16.725750
v 1.233639 7.589331 16.725750
v 0.381139 7.041696 16.725750
v 0.381139 7.589331 16.725750
v 0.605772 7.589331 16.725750
v 0.605772 7.041696 16.725750
v 0.605772 10.806177 16.725750
v 0.605772 10.250469 16.725750
v 0.381139 10.250469 16.725750
v 0.381139 10.806177 16.725750
v 0.381139 10.806177 0.117854
v 0.381139 10.250469 0.117854
v 0.605772 10.222072 -2.289379
v 0.605772 10.760200 -1.757995
v 0.605772 7.077631 -1.815222
v 0.605772 7.611378 -2.289379
v 0.381139 7.589331 0.117854
v 0.381139 7.041696 0.117854
v -0.677880 7.041696 16.725750
v -0.677880 7.589331 16.725750
v -0.407722 7.589331 16.725750
v -0.407722 7.041696 16.725750
v -0.677880 10.250469 16.725750
v -0.677880 10.806177 16.725750
v -0.407722 10.806177 16.725750
v -0.407722 10.250469 16.725750
v -0.677880 10.760169 -1.758067
v -0.677880 10.222113 -2.289379
v -0.407722 10.250469 0.117854
v -0.407722 10.806177 0.117854
v -0.677880 7.611346 -2.289379
v -0.677880 7.077657 -1.815272
v -0.407722 7.041696 0.117854
v -0.407722 7.589331 0.117854
v -1.536650 10.221978 -2.289379
v -1.536650 10.760272 -1.757831
v -1.536650 10.250469 5.100222
v -1.536650 10.806177 5.100222
v -1.536650 10.250469 12.075538
v -1.536650 10.806177 12.075538
v -1.536650 10.250469 16.725750
v -1.536650 10.806177 16.725750
v 1.536650 10.250469 16.725750
v 1.536650 10.806177 16.725750
v 1.536650 10.250469 12.075538
v 1.536650 10.806177 12.075538
v 1.536650 10.250469 5.100222
v 1.536650 10.806177 5.100222
v 1.536650 10.760272 -1.757831
v 1.536650 10.221978 -2.289379
v -1.536650 7.589331 16.725750
v -1.536650 7.041696 16.725750
v -1.536650 7.589331 12.075538
v -1.536650 7.041696 12.075538
v -1.536650 7.589331 5.100222
v -1.536650 7.041696 5.100222
v -1.536650 7.077575 -1.815108
v -1.536650 7.611449 -2.289379
v 1.536650 7.611449 -2.289379
v 1.536650 7.077575 -1.815108
v 1.536650 7.589331 5.100222
v 1.536650 7.041696 5.100222
v 1.536650 7.589331 12.075538
v 1.536650 7.041696 12.075538
v 1.536650 7.589331 16.725750
v 1.536650 7.041696 16.725750
v -1.233639 0.055718 0.063609
v -1.233639 4.041616 0.642677
v -1.233639 7.073795 -1.086676
v -1.536650 7.073795 -1.086676
v -1.536650 7.609119 -1.510988
v -1.233639 7.609119 -1.510988
v -1.233639 10.224979 -1.510988
v -1.536650 10.224979 -1.510988
v -1.536650 10.765107 -1.035431
v -1.233639 10.765107 -1.035431
v -1.233639 13.342044 0.642677
v -1.233639 16.663624 0.063609
v -0.677880 16.663624 0.063609
v -0.407722 16.663624 0.642677
v 0.381139 16.663624 0.642677
v 0.605772 16.663624 0.063609
v 1.233639 16.663624 0.063609
v 1.233639 13.342044 0.642677
v 1.233639 10.765107 -1.035431
v 1.536650 10.765107 -1.035431
v 1.536650 10.224979 -1.510988
v 1.233639 10.224979 -1.510988
v 1.233639 7.609119 -1.510988
v 1.536650 7.609119 -1.510988
v 1.536650 7.073795 -1.086676
v 1.233639 7.073795 -1.086676
v 1.233639 4.041616 0.642677
v 1.233639 0.055718 0.063609
v 0.605772 0.055718 0.063609
v 0.381139 0.055718 0.642677
v -0.407722 0.055718 0.642677
v -0.677880 0.055718 0.063609
vt 1.214239 0.933130
vt 1.214239 0.699868
vt 1.414178 0.699868
vt 1.414178 0.933130
vt 1.214239 0.349975
vt 1.414178 0.349975
vt 1.564667 0.699868
vt 1.564667 0.933130
vt 1.214239 0.097330
vt 1.414178 0.126377
vt 1.564667 0.349975
vt 1.214239 0.067584
vt 1.414178 0.100051
vt 1.566277 0.039630
vt 1.566467 0.003091
vt -0.588823 0.235653
vt -0.788762 0.235653
vt -0.788762 0.002391
vt -0.588823 0.002391
vt -0.588823 0.585547
vt -0.788762 0.585547
vt -0.438334 0.235653
vt -0.438334 0.002391
vt -0.588823 0.809144
vt -0.788762 0.838191
vt -0.438334 0.585547
vt -0.788762 0.867937
vt -0.588823 0.835470
vt -0.436724 0.895891
vt -0.436534 0.932431
vt -0.133629 0.235171
vt -0.300245 0.235171
vt -0.300245 0.001909
vt -0.133629 0.001909
vt -0.133629 0.585064
vt -0.300245 0.585064
vt -0.427448 0.235171
vt -0.427448 0.001909
vt -0.133629 0.837709
vt -0.300245 0.808662
vt -0.427448 0.585064
vt -0.300245 0.834988
vt -0.133629 0.867455
vt -0.429508 0.892839
vt -0.429750 0.929076
vt 1.703554 0.931205
vt 1.703554 0.697943
vt 1.870169 0.697943
vt 1.870169 0.931205
vt 1.576350 0.931205
vt 1.576350 0.697943
vt 1.703554 0.348050
vt 1.870169 0.348050
vt 1.576350 0.348050
vt 1.703554 0.124452
vt 1.870169 0.095405
vt 1.574290 0.040275
vt 1.703554 0.098126
vt 1.870169 0.065659
vt 1.574048 0.004039
vt -0.971013 0.929711
vt -0.998015 0.956375
vt -0.997864 0.917329
vt -0.970770 0.893475
vt -0.996586 0.585700
vt -0.968710 0.585700
vt -0.996586 0.235807
vt -0.968710 0.235807
vt -0.996586 0.002545
vt -0.968710 0.002545
vt 1.031296 0.959988
vt 1.003421 0.959988
vt 1.003421 0.726726
vt 1.031296 0.726726
vt 1.003421 0.376833
vt 1.031296 0.376833
vt 1.002142 0.045204
vt 1.029236 0.069059
vt 1.001992 0.006159
vt 1.028994 0.032822
vt -0.961088 0.002671
vt -0.933617 0.002671
vt -0.933617 0.235933
vt -0.961088 0.235933
vt -0.933617 0.585827
vt -0.961088 0.585827
vt -0.932625 0.917456
vt -0.959478 0.896171
vt -0.932508 0.956501
vt -0.959288 0.932711
vt 1.040177 0.025706
vt 1.066957 0.001916
vt 1.066840 0.040961
vt 1.039987 0.062246
vt 1.065847 0.372591
vt 1.038377 0.372591
vt 1.065847 0.722484
vt 1.038377 0.722484
vt 1.065847 0.955746
vt 1.038377 0.955746
vt -0.005382 0.515473
vt -0.005382 0.543348
vt -0.099478 0.541042
vt -0.126133 0.514048
vt -0.005382 0.670551
vt -0.005382 0.670551
vt -0.126133 0.383091
vt -0.005382 0.381986
vt -0.005382 0.837167
vt -0.037849 0.837167
vt -0.102348 0.356318
vt -0.005382 0.354515
vt -0.005382 0.204026
vt -0.005382 0.204026
vt -0.037849 0.004087
vt -0.005382 0.004087
vt 1.998008 0.514920
vt 1.971357 0.541910
vt 1.877257 0.544218
vt 1.877257 0.516343
vt 1.877257 0.671421
vt 1.877257 0.671421
vt 1.877257 0.382856
vt 1.998008 0.383960
vt 1.909724 0.838037
vt 1.877257 0.838037
vt 1.974226 0.357189
vt 1.877257 0.355385
vt 1.877257 0.204897
vt 1.877257 0.204897
vt 1.877257 0.004957
vt 1.909724 0.004957
vt -0.794777 0.235849
vt -0.928264 0.235849
vt -0.928264 0.002587
vt -0.794777 0.002587
vt -0.794777 0.585742
vt -0.928264 0.585742
vt -0.796055 0.917371
vt -0.927271 0.917371
vt -0.927154 0.956416
vt -0.796206 0.956416
vt 1.072741 0.958857
vt 1.072741 0.725594
vt 1.206228 0.725594
vt 1.206228 0.958857
vt 1.072741 0.375701
vt 1.206228 0.375701
vt 1.073734 0.044072
vt 1.204949 0.044072
vt 1.073851 0.005027
vt 1.204799 0.005027
vt 0.233395 -0.131708
vt 0.222127 -0.131708
vt 0.222127 -0.364970
vt 0.233395 -0.364970
vt 0.182556 -0.131708
vt 0.182556 -0.364970
vt 0.222127 -0.714863
vt 0.233395 -0.714863
vt 0.264890 -0.364970
vt 0.264890 -0.131708
vt 0.169005 -0.131708
vt 0.169005 -0.364970
vt 0.182556 -0.714863
vt 0.222127 -0.938461
vt 0.233395 -0.967508
vt 0.264890 -0.714863
vt 0.141127 -0.364970
vt 0.141127 -0.131708
vt 0.169005 -0.714863
vt 0.182556 -0.938461
vt 0.222127 -0.964787
vt 0.233395 -0.997254
vt 0.264890 -0.967508
vt 0.141127 -0.714863
vt 0.169005 -0.967508
vt 0.182556 -0.964787
vt 0.264890 -0.997254
vt 0.141127 -0.967508
vt 0.169005 -0.997254
vt 0.141127 -0.997254
vt 0.225377 1.001908
vt 0.236645 1.001908
vt 0.236645 1.235170
vt 0.225377 1.235170
vt 0.268140 1.235170
vt 0.268140 1.001908
vt 0.236645 1.585063
vt 0.225377 1.585063
vt 0.185806 1.235170
vt 0.185806 1.001908
vt 0.268140 1.585063
vt 0.236645 1.837708
vt 0.225377 1.808661
vt 0.185806 1.585063
vt 0.172255 1.001908
vt 0.172255 1.235170
vt 0.268140 1.837708
vt 0.236645 1.867454
vt 0.225377 1.834987
vt 0.185806 1.808661
vt 0.172255 1.585063
vt 0.144377 1.001908
vt 0.144377 1.235170
vt 0.268140 1.867454
vt 0.185806 1.834987
vt 0.172255 1.837708
vt 0.144377 1.585063
vt 0.172255 1.867454
vt 0.144377 1.837708
vt 0.144377 1.867454
vt 0.116890 -0.998092
vt 0.116890 -0.959047
vt 0.101691 -0.959047
vt 0.101691 -0.998092
vt 0.116890 -0.627418
vt 0.101691 -0.627418
vt 0.116890 -0.277525
vt 0.101691 -0.277525
vt 0.116890 -0.044263
vt 0.101691 -0.044263
vt 0.000535 1.892837
vt 0.015735 1.892837
vt 0.015735 1.929074
vt 0.000535 1.929074
vt 0.015735 1.585063
vt 0.000535 1.585063
vt 0.015735 1.955737
vt 0.000535 1.955737
vt 0.015735 1.235170
vt 0.000535 1.235170
vt 0.043612 1.929086
vt 0.043612 1.955737
vt 0.015735 1.001908
vt 0.000535 1.001908
vt 0.015735 1.834987
vt 0.043612 1.834987
vt 0.122266 -0.044263
vt 0.122266 -0.277525
vt 0.137466 -0.277525
vt 0.137466 -0.044263
vt 0.122266 -0.627418
vt 0.137466 -0.627418
vt 0.122266 -0.959047
vt 0.137466 -0.959047
vt 0.122266 -0.998092
vt 0.137466 -0.998092
vt 0.081690 1.235170
vt 0.081690 1.001908
vt 0.096889 1.001908
vt 0.096889 1.235170
vt 0.081690 1.585063
vt 0.096889 1.585063
vt 0.096889 1.892837
vt 0.081690 1.892837
vt 0.081690 1.929074
vt 0.096889 1.929074
vt 0.081690 1.955737
vt 0.096889 1.955737
vt 0.050195 1.955737
vt 0.050195 1.929082
vt 0.050195 1.834987
vt 0.081690 1.834987
vt 0.118479 1.001908
vt 0.118479 1.235170
vt 0.103279 1.235170
vt 0.103279 1.001908
vt 0.118479 1.585063
vt 0.103279 1.585063
vt 0.118479 1.916692
vt 0.103279 1.916692
vt 0.118479 1.955737
vt 0.103279 1.955737
vt 0.067167 -0.277525
vt 0.067167 -0.044263
vt 0.051967 -0.044263
vt 0.051967 -0.277525
vt 0.067167 -0.627418
vt 0.051967 -0.627418
vt 0.051967 -0.937763
vt 0.067167 -0.937763
vt 0.067167 -0.974302
vt 0.051967 -0.974302
vt 0.067167 -0.998092
vt 0.051967 -0.998092
vt 0.095044 -0.998092
vt 0.095044 -0.974310
vt 0.095044 -0.877342
vt 0.067167 -0.877342
vt 0.123828 1.955737
vt 0.123828 1.916692
vt 0.139028 1.916692
vt 0.139028 1.955737
vt 0.123828 1.585063
vt 0.139028 1.585063
vt 0.123828 1.235170
vt 0.139028 1.235170
vt 0.123828 1.001908
vt 0.139028 1.001908
vt 0.047223 -0.937763
vt 0.032024 -0.937763
vt 0.032024 -0.974302
vt 0.047223 -0.974302
vt 0.032024 -0.627418
vt 0.047223 -0.627418
vt 0.032024 -0.998092
vt 0.047223 -0.998092
vt 0.032024 -0.277525
vt 0.047223 -0.277525
vt 0.000529 -0.974308
vt 0.000529 -0.998092
vt 0.032024 -0.044263
vt 0.047223 -0.044263
vt 0.000529 -0.877342
vt 0.032024 -0.877342
vt 0.096508 0.001666
vt 0.107776 0.001666
vt 0.107776 0.201605
vt 0.096508 0.201605
vt 0.139271 0.001666
vt 0.139271 0.201605
vt 0.107776 0.352094
vt 0.096508 0.352094
vt 0.056937 0.201605
vt 0.056937 0.001666
vt 0.139271 0.352094
vt 0.096508 0.379564
vt 0.107776 0.379564
vt 0.056937 0.352094
vt 0.043386 0.001666
vt 0.043386 0.201605
vt 0.139271 0.379564
vt 0.056937 0.379564
vt 0.107776 0.513051
vt 0.096508 0.513051
vt 0.043386 0.352094
vt 0.015508 0.001666
vt 0.015508 0.201605
vt 0.154470 0.352094
vt 0.154470 0.379564
vt 0.139271 0.513051
vt 0.056937 0.513051
vt 0.043386 0.379564
vt 0.107776 0.540927
vt 0.096508 0.540927
vt 0.015508 0.352094
vt 0.139271 0.540927
vt 0.043386 0.513051
vt 0.056937 0.540927
vt 0.015508 0.379564
vt 0.107776 0.668130
vt 0.096508 0.668130
vt 0.154470 0.513051
vt 0.154470 0.540927
vt 0.139271 0.668130
vt 0.043386 0.540927
vt 0.015508 0.513051
vt 0.056937 0.668130
vt 0.000308 0.379564
vt 0.000308 0.352094
vt 0.107776 0.834746
vt 0.096508 0.834746
vt 0.139271 0.834746
vt 0.015508 0.540927
vt 0.043386 0.668130
vt 0.056937 0.834746
vt 0.000308 0.540927
vt 0.000308 0.513051
vt 0.015508 0.668130
vt 0.043386 0.834746
vt 0.015508 0.834746
vt 0.044474 2.002275
vt 0.072351 2.002275
vt 0.072351 2.202214
vt 0.044474 2.202214
vt 0.111216 2.001666
vt 0.139093 2.001666
vt 0.139093 2.168282
vt 0.111216 2.168282
vt 0.143070 2.168282
vt 0.143070 2.001666
vt 0.174565 2.001666
vt 0.174565 2.168282
vt 0.076328 2.202214
vt 0.076328 2.002275
vt 0.107823 2.002275
vt 0.107823 2.202214
vt 0.000485 2.168282
vt 0.000485 2.001666
vt 0.040055 2.001666
vt 0.040055 2.168282
vt 0.000485 2.295485
vt 0.040055 2.295485
vt 0.040055 2.323360
vt 0.000485 2.323360
vt 0.000485 2.456847
vt 0.040055 2.456847
vt 0.040055 2.484318
vt 0.000485 2.484318
vt 0.000485 2.634806
vt 0.040055 2.634806
vt 0.000485 2.834746
vt 0.040055 2.834746
vt 0.177957 2.003215
vt 0.205835 2.003208
vt 0.205835 2.134168
vt 0.177957 2.134163
vt 0.211328 2.134164
vt 0.211328 2.003207
vt 0.242823 2.003212
vt 0.242823 2.134161
vn 1.000000 0.000000 0.000000
vn 1.000000 0.000000 0.000000
vn 1.000000 0.000000 0.000000
vn 1.000000 0.000000 0.000000
vn -1.000000 0.000000 0.000000
vn -1.000000 0.000000 0.000000
vn -1.000000 0.000000 0.000000
vn -1.000000 0.000000 0.000000
vn -1.000000 0.000000 0.000000
vn -1.000000 0.000000 0.000000
vn -1.000000 0.000000 0.000000
vn -1.000000 0.000000 0.000000
vn 1.000000 0.000000 0.000000
vn 1.000000 0.000000 0.000000
vn 1.000000 0.000000 0.000000
vn 1.000000 0.000000 0.000000
vn -1.000000 0.000000 0.000000
vn -1.000000 -0.000000 0.000000
vn -1.000000 -0.000000 0.000000
vn -1.000000 -0.000000 0.000000
vn -1.000000 0.000000 0.000000
vn -1.000000 0.000000 0.000000
vn -1.000000 0.000000 0.000000
vn -1.000000 0.000000 0.000000
vn 1.000000 -0.000000 0.000000
vn 1.000000 -0.000000 0.000000
vn 1.000000 -0.000000 0.000000
vn 1.000000 -0.000000 0.000000
vn 1.000000 0.000000 0.000000
vn 1.000000 -0.000000 0.000000
vn 1.000000 0.000000 0.000000
vn 1.000000 0.000000 0.000000
vn -1.000000 0.000000 0.000000
vn -1.000000 -0.000000 0.000000
vn -1.000000 0.000000 0.000000
vn -1.000000 0.000000 0.000000
vn 1.000000 0.000000 0.000000
vn 1.000000 0.000000 0.000000
vn 1.000000 -0.000000 0.000000
vn 1.000000 0.000000 0.000000
vn 0.000000 -1.000000 0.000000
vn 0.000000 -1.000000 0.000000
vn 0.000000 -1.000000 0.000000
vn 0.000000 -1.000000 0.000000
vn 0.000000 0.000000 1.000000
vn 0.000000 0.000000 1.000000
vn 0.000000 0.000000 1.000000
vn 0.000000 0.000000 1.000000
vn 0.000000 0.000000 1.000000
vn 0.000000 0.000000 1.000000
vn 0.000000 0.000000 1.000000
vn 0.000000 0.000000 1.000000
vn 0.000000 1.000000 0.000000
vn 0.000000 1.000000 0.000000
vn 0.000000 1.000000 0.000000
vn 0.000000 1.000000 0.000000
vn 0.000000 1.000000 0.000000
vn 0.000000 1.000000 -0.000000
vn 0.000000 1.000000 0.000000
vn 0.000000 1.000000 0.000001
vn 0.000000 1.000000 0.000000
vn 0.000000 1.000000 0.000000
vn -0.304119 -0.020567 -0.952412
vn -0.322990 -0.159922 -0.932793
vn -0.710841 -0.055245 -0.701179
vn -0.502404 0.020075 -0.864400
vn -0.508962 -0.017544 -0.860610
vn -0.716046 0.044772 -0.696616
vn -0.328946 0.133274 -0.934897
vn -0.304139 0.017140 -0.952474
vn 0.000000 -1.000000 0.000000
vn 0.000000 -1.000000 0.000000
vn 0.000000 -1.000000 0.000000
vn 0.000000 -1.000000 0.000000
vn 0.000000 -1.000000 0.000000
vn 0.000000 -1.000000 0.000000
vn 0.000000 -1.000000 0.000000
vn 0.000000 -1.000000 0.000000
vn 0.000000 -1.000000 0.000000
vn 0.000000 -1.000000 0.000000
vn 0.000000 0.000000 1.000000
vn 0.000000 0.000000 1.000000
vn 0.000000 0.000000 1.000000
vn 0.000000 0.000000 1.000000
vn 0.000000 0.000000 1.000000
vn 0.000000 0.000000 1.000000
vn 0.000000 0.000000 1.000000
vn 0.000000 0.000000 1.000000
vn 0.000000 1.000000 0.000000
vn 0.000000 1.000000 0.000000
vn 0.000000 1.000000 0.000000
vn 0.000000 1.000000 0.000000
vn 0.000000 1.000000 -0.000000
vn 0.000000 1.000000 0.000000
vn 0.000000 1.000000 0.000001
vn 0.000000 1.000000 -0.000000
vn 0.000000 1.000000 -0.000000
vn 0.000000 1.000000 0.000000
vn 0.335435 -0.153825 -0.929420
vn 0.292163 -0.023763 -0.956073
vn 0.485923 0.023353 -0.873690
vn 0.708477 -0.039746 -0.704614
vn 0.713729 0.031689 -0.699705
vn 0.492427 -0.020415 -0.870114
vn 0.292189 0.019804 -0.956156
vn 0.340969 0.128118 -0.931304
vn 0.000000 -1.000000 0.000000
vn 0.000000 -1.000000 0.000000
vn 0.000000 -1.000000 0.000000
vn 0.000000 -1.000000 0.000000
vn 0.000000 -1.000000 0.000000
vn 0.000000 -1.000000 0.000000
vn 0.000000 0.000000 1.000000
vn 0.000000 0.000000 1.000000
vn 0.000000 1.000000 0.000000
vn 0.000000 1.000000 0.000000
vn 0.000000 0.160284 -0.987071
vn 0.000000 0.160284 -0.987071
vn 0.000000 -1.000000 0.000000
vn 0.000000 -1.000000 0.000000
vn 0.000000 -0.191263 -0.981539
vn 0.000000 -0.191263 -0.981539
vn 0.000000 0.000000 1.000000
vn 0.000000 0.000000 1.000000
vn 0.000000 0.000000 1.000000
vn 0.000000 0.000000 1.000000
vn 0.000000 0.000000 1.000000
vn 0.000000 0.000000 1.000000
vn 0.000000 1.000000 0.000000
vn 0.000000 1.000000 0.000000
vn 0.000000 -0.191264 -0.981539
vn 0.000000 -0.191264 -0.981539
vn 0.000000 0.160285 -0.987071
vn 0.000000 0.160285 -0.987071
vn 0.000000 -1.000000 0.000000
vn 0.000000 -1.000000 0.000000
vn 0.000000 -1.000000 0.000000
vn 0.000000 -1.000000 0.000000
vn 0.000000 -1.000000 0.000000
vn 0.000000 -1.000000 0.000000
vn 0.000000 1.000000 0.000000
vn 0.000000 1.000000 0.000000
vn 0.000000 1.000000 0.000000
vn 0.000000 1.000000 0.000000
vn 0.000000 -1.000000 0.000000
vn 0.000000 -1.000000 0.000000
vn 0.000000 1.000000 0.000000
vn 0.000000 1.000000 0.000000
vn -0.000041 0.166382 -0.986061
vn -0.000128 0.610854 -0.791743
vn -0.000128 0.610873 -0.791728
vn -0.000041 0.166453 -0.986049
vn -1.000000 0.000000 0.000000
vn -1.000000 0.000000 0.000000
vn -1.000000 0.000000 0.000000
vn -1.000000 0.000000 0.000000
vn -1.000000 -0.000000 0.000000
vn -1.000000 -0.000000 0.000000
vn -1.000000 -0.000000 -0.000000
vn -1.000000 -0.000000 -0.000000
vn 0.000000 0.000000 1.000000
vn 0.000000 0.000000 1.000000
vn 0.000000 0.000000 1.000000
vn 0.000000 0.000000 1.000000
vn 1.000000 0.000000 -0.000000
vn 1.000000 0.000000 -0.000000
vn 1.000000 -0.000000 -0.000000
vn 1.000000 -0.000000 -0.000000
vn 1.000000 -0.000000 0.000000
vn 1.000000 -0.000000 0.000000
vn 0.000000 0.000000 1.000000
vn 0.000000 0.000000 1.000000
vn 0.000000 0.000000 1.000000
vn 0.000000 0.000000 1.000000
vn -1.000000 0.000000 -0.000000
vn -1.000000 0.000000 -0.000000
vn -1.000000 0.000000 -0.000000
vn -1.000000 0.000000 -0.000000
vn -1.000000 0.000000 0.000000
vn -1.000000 0.000000 0.000000
vn 0.000017 -0.149110 -0.988821
vn 0.000056 -0.559089 -0.829108
vn 0.000056 -0.559097 -0.829102
vn 0.000017 -0.149140 -0.988816
vn 1.000000 0.000000 0.000000
vn 1.000000 0.000000 0.000000
vn 1.000000 0.000000 0.000000
vn 1.000000 0.000000 0.000000
vn 1.000000 0.000000 0.000000
vn 1.000000 0.000000 0.000000
vn 1.000000 0.000000 -0.000000
vn 1.000000 0.000000 -0.000000
vn -1.000000 0.000000 -0.000000
vn -1.000000 0.000000 -0.000000
vn -0.000091 -0.559088 -0.829108
vn -0.000027 -0.149092 -0.988823
vn -0.000027 -0.149142 -0.988816
vn -0.000091 -0.559102 -0.829099
vn -1.000000 0.000000 0.000000
vn -1.000000 0.000000 0.000000
vn -1.000000 0.000000 0.000000
vn -1.000000 0.000000 0.000000
vn 1.000000 0.000000 -0.000000
vn 1.000000 0.000000 -0.000000
vn 0.000078 0.610855 -0.791743
vn 0.000025 0.166407 -0.986057
vn 0.000025 0.166451 -0.986050
vn 0.000078 0.610867 -0.791733
vn 1.000000 0.000000 0.000000
vn 1.000000 0.000000 0.000000
vn 1.000000 0.000000 0.000000
vn 1.000000 0.000000 0.000000
vn 0.000000 0.000000 1.000000
vn 0.000000 0.000000 1.000000
vn 0.000000 0.000000 1.000000
vn 0.000000 0.000000 1.000000
vn 0.000000 0.000000 1.000000
vn 0.000000 0.000000 1.000000
vn 0.000000 0.000000 1.000000
vn 0.000000 0.000000 1.000000
vn 0.000000 0.000000 1.000000
vn 0.000000 0.000000 1.000000
vn 0.000000 0.000000 1.000000
vn 0.000000 0.000000 1.000000
vn 0.000000 0.000000 1.000000
vn 0.000000 0.000000 1.000000
vn 0.000000 0.000000 1.000000
vn 0.000000 0.000000 1.000000
vn 0.000000 0.000000 -1.000000
vn 0.000000 0.000000 -1.000000
vn 0.000000 0.000000 -1.000000
vn 0.000000 0.000000 -1.000000
vn -0.995461 0.008015 -0.094837
vn -0.978194 0.074962 -0.193695
vn -0.984273 0.066840 -0.163521
vn -0.995569 0.004255 -0.093935
vn -0.995577 -0.004044 -0.093860
vn -0.983930 -0.059750 -0.168259
vn -0.979012 -0.065234 -0.193081
vn -0.995492 -0.007127 -0.094582
vn 0.000000 0.000000 -1.000000
vn 0.000000 0.000000 -1.000000
vn 0.000000 0.000000 -1.000000
vn 0.000000 0.000000 -1.000000
vn 0.993610 0.005118 -0.112752
vn 0.977456 0.079869 -0.195449
vn 0.968911 0.089297 -0.230732
vn 0.993454 0.009618 -0.113827
vn 0.976978 -0.071377 -0.201046
vn 0.993621 -0.004862 -0.112662
vn 0.993499 -0.008553 -0.113522
vn 0.970061 -0.077736 -0.230083
vn -1.000000 0.000000 0.000000
vn -1.000000 0.000000 0.000000
vn 1.000000 0.000000 0.000000
vn 1.000000 0.000000 0.000000
vn -1.000000 0.000000 0.000000
vn -1.000000 0.000000 0.000000
vn 1.000000 0.000000 0.000000
vn 1.000000 0.000000 0.000000
vn -1.000000 0.000000 -0.000000
vn -1.000000 0.000000 -0.000000
vn -1.000000 0.000000 -0.000000
vn -1.000000 0.000000 -0.000000
vn 1.000000 0.000000 -0.000000
vn 1.000000 0.000000 -0.000000
vn 1.000000 0.000000 -0.000000
vn 1.000000 0.000000 -0.000000
vn -1.000000 0.000000 0.000000
vn -1.000000 0.000000 0.000000
vn -1.000000 0.000000 0.000000
vn -1.000000 0.000000 0.000000
vn -1.000000 0.000000 0.000000
vn -1.000000 0.000000 0.000000
vn -1.000000 0.000000 0.000000
vn -1.000000 0.000000 0.000000
vn 1.000000 0.000000 0.000000
vn 1.000000 0.000000 0.000000
vn 1.000000 0.000000 0.000000
vn 1.000000 0.000000 0.000000
vn 1.000000 0.000000 0.000000
vn 1.000000 0.000000 0.000000
vn 1.000000 -0.000000 0.000000
vn 1.000000 0.000000 0.000000
vn -1.000000 -0.000000 0.000000
vn -1.000000 0.000000 0.000000
vn -1.000000 0.000000 0.000000
vn -1.000000 0.000000 0.000000
vn 1.000000 0.000000 0.000000
vn 1.000000 0.000000 0.000000
vn 1.000000 0.000000 0.000000
vn 1.000000 -0.000000 0.000000
vn -0.000117 0.587785 -0.809017
vn -0.000117 0.587785 -0.809017
vn -0.000085 -0.537082 -0.843530
vn -0.000085 -0.537082 -0.843530
vn 0.000072 0.587780 -0.809021
vn 0.000072 0.587780 -0.809021
vn 0.000051 -0.537079 -0.843532
vn 0.000051 -0.537079 -0.843532
vn 0.000000 0.702635 -0.711551
vn 0.000000 0.702635 -0.711551
vn 0.000000 0.702635 -0.711551
vn 0.000000 0.702635 -0.711551
vn 0.000000 -0.999993 0.003856
vn 0.000000 -0.999993 0.003856
vn 0.000000 -0.999993 0.003856
vn 0.000000 -0.999993 0.003856
vn 0.000000 0.999978 -0.006693
vn 0.000000 0.999978 -0.006693
vn 0.000000 0.999978 -0.006693
vn 0.000000 0.999978 -0.006693
vn 0.000000 -1.000000 0.000000
vn 0.000000 -1.000000 0.000000
vn 0.000000 -1.000000 0.000000
vn 0.000000 -1.000000 0.000000
vn 0.000000 1.000000 0.000000
vn 0.000000 1.000000 0.000000
vn 0.000000 1.000000 0.000000
vn 0.000000 1.000000 0.000000
vn 0.000000 -1.000000 0.000000
vn 0.000000 -1.000000 0.000000
vn 0.000000 -1.000000 0.000000
vn 0.000000 -1.000000 0.000000
vn 0.000000 0.000000 1.000000
vn 0.000000 0.000000 1.000000
vn 0.000000 0.000000 1.000000
vn 0.000000 0.000000 1.000000
vn 0.000000 1.000000 0.000000
vn 0.000000 1.000000 0.000000
vn 0.000000 1.000000 0.000000
vn 0.000000 1.000000 0.000000
vn 0.000000 0.000000 1.000000
vn 0.000000 0.000000 1.000000
vn 0.000000 0.000000 1.000000
vn 0.000000 0.000000 1.000000
vn 0.000000 -1.000000 0.000000
vn 0.000000 -1.000000 0.000000
vn 0.000000 -1.000000 0.000000
vn 0.000000 -1.000000 0.000000
vn 0.000000 1.000000 0.000000
vn 0.000000 1.000000 0.000000
vn 0.000000 1.000000 0.000000
vn 0.000000 1.000000 0.000000
vn 0.000000 -1.000000 0.000000
vn 0.000000 -1.000000 0.000000
vn 0.000000 -1.000000 0.000000
vn 0.000000 -1.000000 0.000000
vn 0.000000 1.000000 0.000000
vn 0.000000 1.000000 0.000000
vn 0.000000 1.000000 0.000000
vn 0.000000 1.000000 0.000000
vn 0.000000 0.702635 -0.711551
vn 0.000000 0.702635 -0.711551
vn 0.000000 0.702635 -0.711551
vn 0.000000 0.702635 -0.711551
vn 0.000000 0.999978 -0.006693
vn 0.000000 0.999978 -0.006693
vn 0.000000 0.999978 -0.006693
vn 0.000000 0.999978 -0.006693
vn 0.000000 -0.999993 0.003856
vn 0.000000 -0.999993 0.003856
vn 0.000000 -0.999993 0.003856
vn 0.000000 -0.999993 0.003856
vn 0.000000 0.000000 1.000000
vn 0.000000 0.000000 1.000000
vn 0.000000 0.000000 1.000000
vn 0.000000 0.000000 1.000000
vn 0.000000 1.000000 0.000000
vn 0.000000 1.000000 0.000000
vn 0.000000 1.000000 0.000000
vn 0.000000 1.000000 0.000000
vn 0.000000 -1.000000 0.000000
vn 0.000000 -1.000000 0.000000
vn 0.000000 -1.000000 0.000000
vn 0.000000 -1.000000 0.000000
vn 0.000000 1.000000 0.000000
vn 0.000000 1.000000 0.000000
vn 0.000000 1.000000 0.000000
vn 0.000000 1.000000 0.000000
vn 0.000000 -1.000000 0.000000
vn 0.000000 -1.000000 0.000000
vn 0.000000 -1.000000 0.000000
vn 0.000000 -1.000000 0.000000
vn 0.000000 -0.664142 -0.747607
vn 0.000000 -0.664142 -0.747607
vn 0.000000 -0.664142 -0.747607
vn 0.000000 -0.664142 -0.747607
vn 0.000000 -0.999987 -0.005188
vn 0.000000 -0.999987 -0.005188
vn 0.000000 -0.999987 -0.005188
vn 0.000000 -0.999987 -0.005188
vn 0.000000 0.999996 0.002993
vn 0.000000 0.999996 0.002993
vn 0.000000 0.999996 0.002993
vn 0.000000 0.999996 0.002993
vn 0.000000 -0.664142 -0.747607
vn 0.000000 -0.664142 -0.747607
vn 0.000000 -0.664142 -0.747607
vn 0.000000 -0.664142 -0.747607
vn 0.000000 0.999996 0.002993
vn 0.000000 0.999996 0.002993
vn 0.000000 0.999996 0.002993
vn 0.000000 0.999996 0.002993
vn 0.000000 -0.999987 -0.005188
vn 0.000000 -0.999987 -0.005188
vn 0.000000 -0.999987 -0.005188
vn 0.000000 -0.999987 -0.005188
vn 0.000000 1.000000 0.000000
vn 0.000000 1.000000 0.000000
vn 0.000000 1.000000 0.000000
vn 0.000000 1.000000 0.000000
vn 0.000000 -1.000000 0.000000
vn 0.000000 -1.000000 0.000000
vn 0.000000 -1.000000 0.000000
vn 0.000000 -1.000000 0.000000
vn 0.000000 1.000000 0.000000
vn 0.000000 1.000000 0.000000
vn 0.000000 1.000000 0.000000
vn 0.000000 1.000000 0.000000
vn 0.000000 0.000000 1.000000
vn 0.000000 0.000000 1.000000
vn 0.000000 0.000000 1.000000
vn 0.000000 0.000000 1.000000
vn 0.000000 -1.000000 0.000000
vn 0.000000 -1.000000 0.000000
vn 0.000000 -1.000000 0.000000
vn 0.000000 -1.000000 0.000000
vn 0.000000 -0.999987 -0.005188
vn 0.000000 -0.999987 -0.005188
vn 0.000000 0.999996 0.002993
vn 0.000000 0.999996 0.002993
vn 0.000000 -0.999993 0.003856
vn 0.000000 -0.999993 0.003856
vn 0.000000 0.999978 -0.006693
vn 0.000000 0.999978 -0.006693
vn 0.000000 0.999978 -0.006693
vn 0.000000 0.999978 -0.006693
vn 0.000000 -0.999993 0.003856
vn 0.000000 -0.999993 0.003856
vn 0.000000 0.999996 0.002993
vn 0.000000 0.999996 0.002993
vn 0.000000 -0.999987 -0.005188
vn 0.000000 -0.999987 -0.005188
s 1
g pCube1
usemtl initialShadingGroup
f 2/1/1 29/2/2 30/3/3 16/4/4
s 2
f 27/16/5 28/17/6 1/18/7 13/19/8
s 3
f 25/31/9 26/32/10 9/33/11 3/34/12
s 4
f 12/46/13 31/47/14 32/48/15 4/49/16
s 3
usemtl phongE1SG
f 10/42/17 187/40/18 188/39/19 5/43/20
s 2
f 7/27/21 177/25/22 178/24/23 14/28/24
s 1
f 203/10/25 204/9/26 8/12/27 15/13/28
s 4
f 193/56/29 194/55/30 11/58/31 6/59/32
s 3
usemtl initialShadingGroup
f 17/35/33 18/36/34 26/32/10 25/31/9
s 2
f 19/20/35 20/21/36 28/17/6 27/16/5
s 1
f 30/3/3 29/2/2 21/5/37 22/6/38
s 4
f 32/48/15 31/47/14 23/52/39 24/53/40
s 9
f 33/153/41 34/154/42 75/155/43 76/156/44
s 10
f 34/317/45 33/318/46 36/319/47 35/320/48
f 37/353/49 38/352/50 39/362/51 40/363/52
s 12
f 40/183/53 39/184/54 41/185/55 42/186/56
f 42/186/56 41/185/55 77/189/57 78/190/58
f 43/200/59 44/201/60 191/195/61 192/194/62
s 14
f 44/109/63 43/110/64 45/106/65 46/105/66
f 48/114/67 47/113/68 49/115/69 50/116/70
s 9
f 50/173/71 49/174/72 205/167/73 206/166/74
f 51/159/75 52/160/76 76/156/44 75/155/43
f 53/157/77 54/163/78 73/164/79 74/158/80
s 10
f 54/331/81 53/326/82 56/325/83 55/332/84
f 57/366/85 58/359/86 60/367/87 59/371/88
s 12
f 59/197/89 60/192/90 61/191/91 62/198/92
f 62/198/92 61/191/91 79/196/93 80/203/94
f 63/207/95 64/210/96 189/208/97 190/202/98
s 14
f 64/125/99 63/126/100 66/122/101 65/121/102
f 67/130/103 68/129/104 70/131/105 69/132/106
s 9
f 69/181/107 70/178/108 207/172/109 208/177/110
f 71/171/111 72/165/112 74/158/80 73/164/79
s 10
f 1/338/113 54/331/81 55/332/84 13/339/114
s 12
f 3/204/115 59/197/89 62/198/92 25/205/116
s 14
usemtl phongE5SG
f 14/373/117 67/374/103 69/375/106 7/376/118
s 9
usemtl initialShadingGroup
f 28/169/119 73/164/79 54/163/78 1/170/120
s 14
usemtl phongE5SG
f 5/377/121 64/378/99 65/379/102 10/380/122
s 10
usemtl initialShadingGroup
f 9/370/123 57/366/85 59/371/88 3/372/124
f 36/319/47 33/318/46 2/321/125 16/322/126
f 39/362/51 38/352/50 12/356/127 4/364/128
s 12
f 32/187/129 41/185/55 39/184/54 4/188/130
s 14
usemtl phongE5SG
f 45/381/65 43/382/64 6/383/131 11/384/132
f 49/385/69 47/386/68 15/387/133 8/388/134
s 9
usemtl initialShadingGroup
f 33/153/41 76/156/44 29/161/135 2/162/136
s 10
f 56/325/83 53/326/82 34/317/45 35/320/48
f 60/367/87 58/359/86 37/353/49 40/363/52
s 12
f 42/186/56 61/191/91 60/192/90 40/183/53
s 14
f 66/389/101 63/390/100 44/391/63 46/392/66
f 70/403/105 68/401/104 48/402/67 50/404/70
s 9
f 53/157/77 74/158/80 75/155/43 34/154/42
f 7/182/137 69/181/107 208/177/110 177/180/138
f 206/166/74 207/172/109 70/178/108 50/173/71
f 204/175/139 205/167/73 49/174/72 8/179/140
s 12
f 43/200/59 192/194/62 193/199/141 6/206/142
f 63/207/95 190/202/98 191/195/61 44/201/60
f 188/211/143 189/208/97 64/210/96 5/212/144
s 9
f 20/176/145 71/171/111 73/164/79 28/169/119
f 75/155/43 74/158/80 72/165/112 51/159/75
f 29/161/135 76/156/44 52/160/76 21/168/146
s 12
f 24/193/147 77/189/57 41/185/55 32/187/129
f 78/190/58 79/196/93 61/191/91 42/186/56
f 25/205/116 62/198/92 80/203/94 17/209/148
s 21
usemtl phongE5SG
f 81/229/149 82/225/150 137/233/151 138/234/152
s 22
usemtl phongE1SG
f 146/61/153 145/62/154 184/63/155 185/64/156
usemtl blinn1SG
f 148/66/157 147/65/158 149/67/159 150/68/160
s 10
usemtl initialShadingGroup
f 85/342/161 86/348/162 117/345/163 118/335/164
s 23
usemtl blinn1SG
f 154/71/165 153/72/166 155/73/167 156/74/168
f 156/74/168 155/73/167 157/75/169 158/76/170
s 10
f 89/351/171 90/347/172 129/337/173 130/344/174
s 24
f 162/81/175 161/82/176 163/83/177 164/84/178
f 164/84/178 163/83/177 165/85/179 166/86/180
s 25
f 93/307/181 94/303/182 125/311/183 126/312/184
s 26
f 170/91/185 169/92/186 200/93/187 201/94/188
f 172/96/189 171/95/190 173/97/191 174/98/192
s 22
f 150/68/160 149/67/159 151/69/193 152/70/194
s 21
f 99/283/195 100/285/196 141/287/197 142/288/198
s 24
f 168/89/199 167/90/200 180/88/201 181/87/202
s 26
f 174/98/192 173/97/191 175/99/203 176/100/204
s 25
usemtl phongE5SG
f 105/257/205 106/259/206 123/261/207 124/262/208
s 23
usemtl phongE1SG
f 160/79/209 159/80/210 196/78/211 197/77/212
s 10
usemtl initialShadingGroup
f 109/365/213 110/358/214 133/349/215 134/357/216
usemtl blinn1SG
f 111/327/217 112/333/218 115/329/219 116/323/220
f 113/324/221 114/328/222 131/334/223 132/330/224
f 114/328/222 113/324/221 116/323/220 115/329/219
usemtl initialShadingGroup
f 118/335/164 117/345/163 120/346/225 119/336/226
f 119/336/226 120/346/225 135/350/227 136/343/228
s 14
f 121/394/229 122/395/230 139/396/231 140/393/232
f 122/101/233 121/102/234 124/103/235 123/104/236
usemtl blinn1SG
f 126/107/237 125/111/238 128/112/239 127/108/240
f 127/398/241 128/399/242 143/400/243 144/397/244
s 10
f 130/344/174 129/337/173 132/330/224 131/334/223
usemtl initialShadingGroup
f 134/357/216 133/349/215 136/343/228 135/350/227
s 14
f 138/117/245 137/118/246 140/119/247 139/120/248
usemtl blinn1SG
f 142/127/249 141/124/250 144/123/251 143/128/252
s 3
usemtl initialShadingGroup
f 26/32/10 97/37/253 109/38/254 9/33/11
s 4
f 86/50/255 88/51/256 31/47/14 12/46/13
s 2
f 92/22/257 27/16/5 13/19/8 90/23/258
s 1
f 16/4/4 30/3/3 103/7/259 111/8/260
s 28
f 98/133/261 91/134/262 89/135/263 110/136/264
s 29
f 112/143/265 104/144/266 87/145/267 85/146/268
s 3
usemtl phongE1SG
f 82/45/269 186/44/270 187/40/18 10/42/17
s 28
f 100/141/271 182/140/272 183/139/273 81/142/274
s 2
f 14/28/24 178/24/23 179/29/275 99/30/276
s 1
f 202/14/277 203/10/25 15/13/28 94/15/278
s 29
f 198/150/279 199/149/280 93/151/281 106/152/282
s 4
f 194/55/30 195/57/283 105/60/284 11/58/31
s 3
usemtl initialShadingGroup
f 18/36/34 83/41/285 97/37/253 26/32/10
s 28
f 84/137/286 101/138/287 91/134/262 98/133/261
s 2
f 102/26/288 19/20/35 27/16/5 92/22/257
s 1
f 103/7/259 30/3/3 22/6/38 95/11/289
s 29
f 87/145/267 104/144/266 96/147/290 107/148/291
s 4
f 31/47/14 88/51/256 108/54/292 23/52/39
s 10
f 35/320/48 36/319/47 116/323/220 113/324/221
f 114/328/222 115/329/219 118/335/164 119/336/226
f 120/346/225 117/345/163 38/352/50 37/353/49
s 14
f 46/105/66 45/106/65 124/103/235 121/102/234
f 122/101/233 123/104/236 126/107/237 127/108/240
f 128/112/239 125/111/238 47/113/68 48/114/67
s 10
f 55/332/84 56/325/83 132/330/224 129/337/173
f 130/344/174 131/334/223 136/343/228 133/349/215
f 134/357/216 135/350/227 58/359/86 57/366/85
s 14
f 65/121/102 66/122/101 140/119/247 137/118/246
f 138/117/245 139/120/248 144/123/251 141/124/250
f 142/127/249 143/128/252 68/129/104 67/130/103
s 21
usemtl phongE5SG
f 10/237/293 65/238/294 137/233/151 82/225/150
s 10
usemtl initialShadingGroup
f 109/365/213 134/357/216 57/366/85 9/370/123
f 13/339/114 55/332/84 129/337/173 90/347/172
s 21
usemtl phongE5SG
f 99/283/195 142/288/198 67/289/295 14/290/296
f 81/405/149 138/406/152 141/407/197 100/408/196
s 10
usemtl initialShadingGroup
f 89/351/171 130/344/174 133/349/215 110/358/214
f 116/323/220 36/319/47 16/322/126 111/327/217
f 118/335/164 115/329/219 112/333/218 85/342/161
f 38/352/50 117/345/163 86/348/162 12/356/127
s 25
usemtl phongE5SG
f 124/262/208 45/263/297 11/264/298 105/257/205
f 126/409/184 123/410/207 106/411/206 93/412/181
f 47/315/299 125/311/183 94/303/182 15/316/300
s 10
usemtl initialShadingGroup
f 132/330/224 56/325/83 35/320/48 113/324/221
f 136/343/228 131/334/223 114/328/222 119/336/226
f 58/359/86 135/350/227 120/346/225 37/353/49
s 14
f 140/393/232 66/389/101 46/392/66 121/394/229
f 144/397/244 139/396/231 122/395/230 127/398/241
f 68/401/104 143/400/243 128/399/242 48/402/67
s off
usemtl phongE2SG
f 82/225/301 81/229/302 145/230/303 146/226/304
s 32
f 81/213/305 183/214/306 184/215/307 145/216/308
s 33
f 185/223/309 186/224/310 82/225/311 146/226/312
s off
usemtl initialShadingGroup
f 84/217/313 98/219/314 149/220/315 147/218/316
f 97/231/317 83/227/318 148/228/319 150/232/320
f 98/219/321 110/221/322 151/222/323 149/220/324
f 110/358/325 109/365/326 152/368/327 151/369/328
f 109/235/329 97/231/330 150/232/331 152/236/332
f 86/348/333 85/342/334 153/354/335 154/355/336
f 85/239/337 87/240/338 155/241/339 153/242/340
f 88/249/341 86/250/342 154/251/343 156/252/344
f 87/240/345 107/243/346 157/244/347 155/241/348
f 108/253/349 88/249/350 156/252/351 158/254/352
usemtl phongE2SG
f 106/259/353 105/257/354 159/258/355 160/260/356
s 34
f 105/257/357 195/256/358 196/255/359 159/258/360
s 35
f 197/246/361 198/245/362 106/247/363 160/248/364
s off
usemtl blinn1SG
f 90/347/365 89/351/366 161/360/367 162/361/368
usemtl initialShadingGroup
f 89/265/369 91/266/370 163/267/371 161/268/372
f 92/275/373 90/276/374 162/277/375 164/278/376
f 91/266/377 101/269/378 165/270/379 163/267/380
f 102/279/381 92/275/382 164/278/383 166/280/384
usemtl blinn1SG
f 100/285/385 99/283/386 167/284/387 168/286/388
s 36
usemtl phongE2SG
f 99/283/389 179/282/390 180/281/391 167/284/392
s 37
f 181/272/393 182/271/394 100/273/395 168/274/396
s off
usemtl blinn1SG
f 94/303/397 93/307/398 169/308/399 170/304/400
s 38
usemtl phongE2SG
f 93/291/401 199/292/402 200/293/403 169/294/404
s 39
f 201/301/405 202/302/406 94/303/407 170/304/408
s off
usemtl initialShadingGroup
f 96/295/409 104/297/410 173/298/411 171/296/412
f 103/309/413 95/305/414 172/306/415 174/310/416
f 104/297/417 112/299/418 175/300/419 173/298/420
usemtl blinn1SG
f 112/333/421 111/327/422 176/340/423 175/341/424
usemtl initialShadingGroup
f 111/313/425 103/309/426 174/310/427 176/314/428
s 2
f 178/24/23 177/25/22 20/21/36 19/20/35
f 179/29/275 178/24/23 19/20/35 102/26/288
s 36
f 180/281/391 179/282/390 102/279/429 166/280/430
s 24
usemtl blinn1SG
f 181/87/202 180/88/201 166/86/180 165/85/179
s 37
usemtl initialShadingGroup
f 101/269/431 182/271/394 181/272/393 165/270/432
s 28
f 183/139/273 182/140/272 101/138/287 84/137/286
s 32
f 184/215/307 183/214/306 84/217/433 147/218/434
s 22
usemtl blinn1SG
f 185/64/156 184/63/155 147/65/158 148/66/157
s 33
usemtl initialShadingGroup
f 83/227/435 186/224/310 185/223/309 148/228/436
s 3
f 187/40/18 186/44/270 83/41/285 18/36/34
f 188/39/19 187/40/18 18/36/34 17/35/33
s 12
f 17/209/148 80/203/94 189/208/97 188/211/143
f 190/202/98 189/208/97 80/203/94 79/196/93
f 191/195/61 190/202/98 79/196/93 78/190/58
f 192/194/62 191/195/61 78/190/58 77/189/57
f 193/199/141 192/194/62 77/189/57 24/193/147
s 4
f 24/53/40 23/52/39 194/55/30 193/56/29
f 23/52/39 108/54/292 195/57/283 194/55/30
s 34
f 196/255/359 195/256/358 108/253/437 158/254/438
s 23
usemtl blinn1SG
f 197/77/212 196/78/211 158/76/170 157/75/169
s 35
usemtl initialShadingGroup
f 107/243/439 198/245/362 197/246/361 157/244/440
s 29
f 107/148/291 96/147/290 199/149/280 198/150/279
s 38
f 200/293/403 199/292/402 96/295/441 171/296/442
s 26
usemtl blinn1SG
f 201/94/188 200/93/187 171/95/190 172/96/189
s 39
usemtl initialShadingGroup
f 95/305/443 202/302/406 201/301/405 172/306/444
s 1
f 95/11/289 22/6/38 203/10/25 202/14/277
f 22/6/38 21/5/37 204/9/26 203/10/25
s 9
f 21/168/146 52/160/76 205/167/73 204/175/139
f 206/166/74 205/167/73 52/160/76 51/159/75
f 51/159/75 72/165/112 207/172/109 206/166/74
f 208/177/110 207/172/109 72/165/112 71/171/111
f 177/180/138 208/177/110 71/171/111 20/176/145
