# This file uses centimeters as units for non-parametric coordinates.

mtllib LampOverHang.mtl
g default
v 13.921306 -4.958779 8.533745
v 68.050826 6.251298 5.996163
v 13.921306 -4.958779 -8.533745
v 68.050826 6.251298 -5.996163
v 42.475422 7.971095 2.424319
v 42.475422 7.971095 -2.424319
v 35.555810 6.452639 2.424319
v 35.555810 6.452639 -2.424319
v 49.438630 8.650990 2.424319
v 49.438630 8.650990 -2.424319
v 21.498310 -0.321333 2.424319
v 21.498310 -0.321333 -2.424319
v 66.749132 6.437711 5.996161
v 66.749132 6.437711 -5.996161
v 13.575412 1.694348 8.533745
v 13.575412 1.694348 -8.533745
v 21.372445 2.099716 -2.424319
v 35.429941 8.873689 -2.424319
v 42.349552 10.392144 -2.424319
v 49.312755 11.072035 -2.424319
v 66.517518 10.892773 -5.996161
v 67.819198 10.706344 -5.996163
v 67.819198 10.706344 5.996163
v 66.517518 10.892773 5.996161
v 49.312755 11.072035 2.424319
v 42.349552 10.392144 2.424319
v 35.429941 8.873689 2.424319
v 21.372445 2.099716 2.424319
v 53.309271 6.630145 5.996161
v 53.077658 11.085188 5.996161
v 53.077658 11.085188 -5.996161
v 53.309271 6.630145 -5.996161
v 29.436642 3.856161 2.424319
v 29.310771 6.277210 2.424319
v 29.310771 6.277210 -2.424319
v 29.436642 3.856161 -2.424319
v 66.749132 6.437711 -4.750147
v 53.309271 6.630145 -4.750147
v 66.749132 6.437711 4.928903
v 53.309271 6.630145 4.928903
v 66.314516 14.797305 4.928903
v 52.874651 14.989738 4.928903
v 52.874651 14.989738 -4.750147
v 66.314516 14.797305 -4.750147
v 13.507861 2.993651 8.533745
v 13.449542 4.115396 7.107465
v 21.246574 4.520765 1.212281
v 21.309503 3.310362 2.424319
v 13.507861 2.993651 -8.533745
v 13.449542 4.115396 -7.107465
v 21.246574 4.520765 -1.212281
v 21.309503 3.310362 -2.424319
v 42.223677 12.813193 1.301058
v 42.399260 11.701735 2.424319
v 49.186893 13.493084 1.287233
v 49.245987 12.356363 2.424319
v 42.223677 12.813193 -1.301058
v 42.399260 11.701735 -2.424319
v 49.186893 13.493084 -1.287233
v 49.245987 12.356363 -2.424319
v 35.646766 10.219948 2.424319
v 35.304073 11.294738 1.301058
v 35.304073 11.294738 -1.301058
v 35.646766 10.219948 -2.424319
v 52.905186 14.402585 5.996161
v 52.846044 15.540243 4.859466
v 52.846044 15.540243 -4.859466
v 52.905186 14.402585 -5.996161
v 29.666662 7.682480 2.424319
v 29.184901 8.698257 1.301058
v 29.184901 8.698257 -1.301058
v 29.666662 7.682480 -2.424319
v 67.647022 14.018154 5.996163
v 67.587580 15.161389 4.872902
v 66.197881 14.225699 5.996162
v 66.285905 15.347816 4.872902
v 67.587580 15.161389 -4.872902
v 67.647022 14.018154 -5.996163
v 66.285905 15.347816 -4.872902
v 66.197881 14.225699 -5.996162
vt 0.375000 0.000000
vt 0.625000 0.000000
vt 0.375000 0.750000
vt 0.625000 0.750000
vt 0.375000 1.000000
vt 0.625000 1.000000
vt 0.875000 0.000000
vt 0.125000 0.000000
vt 0.500000 0.000000
vt 0.500000 1.000000
vt 0.500000 0.750000
vt 0.475000 0.000000
vt 0.475000 1.000000
vt 0.475000 0.750000
vt 0.525000 0.000000
vt 0.525000 1.000000
vt 0.525000 0.750000
vt 0.395000 0.000000
vt 0.395000 1.000000
vt 0.395000 0.750000
vt 0.605000 0.000000
vt 0.605000 1.000000
vt 0.605000 0.750000
vt 0.125000 0.125000
vt 0.625000 0.625000
vt 0.625000 0.125000
vt 0.565000 0.000000
vt 0.565000 1.000000
vt 0.565000 0.750000
vt 0.435000 0.000000
vt 0.435000 1.000000
vt 0.435000 0.750000
vt 0.605000 0.775975
vt 0.565000 0.775975
vt 0.605000 0.977751
vt 0.565000 0.977751
vt 0.605000 0.977751
vt 0.565000 0.977751
vt 0.565000 0.775975
vt 0.605000 0.775975
vt 0.354108 0.250000
vt 0.145892 0.250000
vt 0.125000 0.192084
vt 0.875000 0.125000
vt 0.875000 0.217923
vt 0.851584 0.250000
vt 0.648416 0.250000
vt 0.375000 0.192084
vt 0.375000 0.479108
vt 0.625000 0.273416
vt 0.625000 0.532077
vt 0.375000 0.270892
vt 0.395000 0.312494
vt 0.500000 0.442084
vt 0.525000 0.308629
vt 0.475000 0.442084
vt 0.500000 0.307916
vt 0.525000 0.441371
vt 0.565000 0.273696
vt 0.395000 0.437506
vt 0.435000 0.307916
vt 0.605000 0.476584
vt 0.625000 0.476583
vt 0.375000 0.557916
vt 0.395000 0.562494
vt 0.375000 0.625000
vt 0.437743 0.561640
vt 0.395000 0.625000
vt 0.475000 0.625000
vt 0.500421 0.557976
vt 0.500000 0.625000
vt 0.525000 0.558690
vt 0.565000 0.531920
vt 0.525000 0.625000
vt 0.605000 0.625000
vt 0.604564 0.218457
vt 0.625000 0.217923
vt 0.525000 0.191310
vt 0.565000 0.125000
vt 0.500421 0.192024
vt 0.525000 0.125000
vt 0.476025 0.191295
vt 0.500000 0.125000
vt 0.395000 0.187506
vt 0.435000 0.125000
vt 0.375000 0.125000
vt 0.395000 0.125000
vt 0.565000 0.218080
vt 0.605000 0.125000
vt 0.565000 0.476304
vt 0.605000 0.273416
vt 0.565000 0.625000
vt 0.604564 0.531543
vt 0.437743 0.188360
vt 0.475000 0.125000
vt 0.435000 0.442084
vt 0.475000 0.307916
vt 0.435000 0.625000
vt 0.476025 0.558705
vn 0.615425 0.031996 0.787546
vn 0.509002 0.026463 0.860359
vn 0.414220 0.021535 0.909922
vn 0.615425 0.031996 0.787546
vn 0.615425 0.031996 -0.787546
vn 0.414220 0.021535 -0.909922
vn 0.509002 0.026463 -0.860359
vn 0.615425 0.031996 -0.787546
vn 0.522028 -0.852928 0.000000
vn 0.508474 -0.861077 0.000000
vn 0.508474 -0.861077 0.000000
vn 0.522028 -0.852928 0.000000
vn 0.998651 0.051922 0.000000
vn 0.998651 0.051922 0.000000
vn 0.998651 0.051921 0.000000
vn 0.998651 0.051921 0.000000
vn -0.998651 -0.051920 0.000000
vn -0.998651 -0.051920 0.000000
vn -0.998651 -0.051920 0.000000
vn -0.998651 -0.051920 0.000000
vn -0.396853 -0.020632 0.917651
vn 0.000000 0.000000 1.000000
vn 0.000000 0.000000 1.000000
vn -0.416325 -0.021645 0.908958
vn 0.000000 0.000000 -1.000000
vn 0.000000 0.000000 -1.000000
vn -0.396853 -0.020632 -0.917651
vn -0.416325 -0.021645 -0.908958
vn 0.156402 -0.987693 0.000000
vn 0.156402 -0.987693 0.000000
vn -0.253841 -0.967246 0.000000
vn -0.253841 -0.967246 0.000000
vn 0.000000 0.000000 1.000000
vn 0.000000 0.000000 1.000000
vn 0.000000 0.000000 -1.000000
vn 0.000000 0.000000 -1.000000
vn 0.300960 -0.953637 0.000000
vn 0.300960 -0.953637 0.000000
vn -0.125707 -0.006536 0.992046
vn -0.162158 -0.008431 0.986729
vn -0.162158 -0.008431 -0.986729
vn -0.125707 -0.006536 -0.992046
vn -0.269559 -0.962984 0.000000
vn -0.385906 -0.922538 0.000000
vn -0.395426 -0.918498 0.000000
vn -0.286846 -0.957977 0.000000
vn 0.000000 0.000000 1.000000
vn 0.000000 0.000000 1.000000
vn 0.000000 0.000000 -1.000000
vn 0.000000 0.000000 -1.000000
vn 0.434104 -0.900863 0.000000
vn 0.434104 -0.900863 0.000000
vn -0.000001 -0.000000 1.000000
vn -0.000000 -0.000000 1.000000
vn -0.000000 -0.000000 1.000000
vn -0.000001 -0.000000 1.000000
vn -0.000000 -0.000000 -1.000000
vn -0.000000 -0.000000 -1.000000
vn -0.000001 -0.000000 -1.000000
vn -0.000001 -0.000000 -1.000000
vn -0.081219 -0.996696 0.000000
vn -0.102097 -0.994774 0.000000
vn -0.097740 -0.995212 0.000000
vn -0.076278 -0.997087 0.000000
vn -0.141762 -0.989901 0.000000
vn -0.141762 -0.989901 0.000000
vn -0.998651 -0.051921 0.000000
vn -0.998651 -0.051921 0.000000
vn -0.998651 -0.051921 0.000000
vn -0.998651 -0.051921 0.000000
vn 0.998651 0.051920 0.000000
vn 0.998651 0.051920 0.000000
vn 0.998651 0.051920 0.000000
vn 0.998651 0.051920 0.000000
vn -0.014317 -0.999898 0.000000
vn -0.014317 -0.999898 0.000000
vn -0.014317 -0.999898 0.000000
vn -0.014317 -0.999898 0.000000
vn 0.000000 0.000000 -1.000000
vn 0.000000 0.000000 -1.000000
vn 0.000000 0.000000 -1.000000
vn 0.000000 0.000000 -1.000000
vn 0.998651 0.051920 0.000000
vn 0.998651 0.051920 0.000000
vn 0.998651 0.051920 0.000000
vn 0.998651 0.051920 0.000000
vn 0.000000 0.000000 1.000000
vn 0.000000 0.000000 1.000000
vn 0.000000 0.000000 1.000000
vn 0.000000 0.000000 1.000000
vn -0.998651 -0.051920 0.000000
vn -0.998651 -0.051920 0.000000
vn -0.998651 -0.051920 0.000000
vn -0.998651 -0.051920 0.000000
vn 0.421812 0.688858 0.589533
vn 0.421812 0.688858 0.589533
vn 0.421812 0.688858 0.589533
vn 0.421812 0.688858 0.589533
vn -0.339537 0.639998 0.689288
vn -0.339537 0.639998 0.689288
vn -0.313542 0.644863 0.697025
vn -0.313628 0.644847 0.697001
vn 0.421812 0.688858 -0.589533
vn 0.421812 0.688858 -0.589533
vn 0.421812 0.688858 -0.589533
vn 0.421812 0.688858 -0.589533
vn -0.339537 0.639998 -0.689288
vn -0.339537 0.639998 -0.689288
vn -0.313628 0.644847 -0.697001
vn -0.313542 0.644862 -0.697025
vn -0.109576 0.697916 0.707748
vn -0.109576 0.697915 0.707748
vn -0.067313 0.703901 0.707101
vn -0.067313 0.703901 0.707101
vn -0.212376 0.672867 0.708623
vn -0.212376 0.672867 0.708623
vn -0.738967 0.456744 0.495290
vn -0.738967 0.456744 0.495290
vn -0.738967 0.456744 0.495290
vn -0.738967 0.456744 0.495290
vn -0.109576 0.697916 -0.707748
vn -0.109576 0.697915 -0.707748
vn -0.212376 0.672866 -0.708623
vn -0.212376 0.672866 -0.708623
vn -0.067313 0.703901 -0.707101
vn -0.067313 0.703901 -0.707101
vn -0.738967 0.456744 -0.495290
vn -0.738967 0.456744 -0.495290
vn -0.738967 0.456744 -0.495290
vn -0.738967 0.456744 -0.495290
vn 0.009412 0.707043 0.707107
vn 0.009412 0.707044 0.707107
vn 0.017922 0.706630 0.707356
vn 0.017922 0.706630 0.707357
vn 0.009412 0.707044 -0.707107
vn 0.009412 0.707043 -0.707107
vn 0.017922 0.706630 -0.707357
vn 0.017922 0.706630 -0.707356
vn 0.100249 0.699965 0.707107
vn 0.100249 0.699964 0.707107
vn 0.100249 0.699965 -0.707107
vn 0.100249 0.699965 -0.707107
vn -0.051920 0.998651 0.000000
vn -0.135993 0.990710 0.000000
vn -0.135993 0.990710 0.000000
vn -0.051920 0.998651 0.000000
vn -0.156595 0.987663 0.000000
vn -0.156595 0.987663 0.000000
vn -0.367295 0.930105 0.000000
vn -0.367295 0.930105 0.000000
vn -0.300960 0.953637 0.000000
vn -0.300960 0.953637 0.000000
vn -0.488246 0.872706 0.000000
vn -0.488246 0.872706 0.000000
vn -0.433350 0.901226 0.000000
vn -0.433350 0.901226 0.000000
vn 0.025712 0.999669 0.000000
vn 0.025712 0.999669 0.000000
vn 0.141774 0.989899 0.000000
vn 0.141774 0.989899 0.000000
vn 0.615425 0.031996 -0.787546
vn 0.615425 0.031996 -0.787546
vn 0.000000 0.000000 -1.000000
vn 0.000000 0.000000 -1.000000
vn 0.000000 0.000000 -1.000000
vn 0.000000 0.000000 -1.000000
vn 0.000000 0.000000 -1.000000
vn -0.687756 -0.035756 -0.725061
vn -0.687756 -0.035756 -0.725061
vn -0.000000 -0.000000 -1.000000
vn -0.000001 -0.000000 -1.000000
vn -0.000000 -0.000000 1.000000
vn -0.000001 -0.000000 1.000000
vn -0.687756 -0.035756 0.725061
vn -0.687756 -0.035756 0.725061
vn 0.000000 0.000000 1.000000
vn 0.000000 0.000000 1.000000
vn 0.000000 0.000000 1.000000
vn 0.000000 0.000000 1.000000
vn 0.000000 0.000000 1.000000
vn 0.615425 0.031996 0.787546
vn 0.615425 0.031996 0.787546
vn -0.000000 -0.000000 1.000000
vn 0.014316 0.999898 0.000000
vn 0.014316 0.999898 0.000000
vn 0.000000 -0.000000 -1.000000
s 1
g pCube1
usemtl lambert2SG
f 1/1/1 11/18/2 28/87/3 15/86/4
s 2
f 16/66/5 17/68/6 12/20/7 3/3/8
s 3
f 3/3/9 12/20/10 11/19/11 1/5/12
s 4
f 2/2/13 4/7/14 22/44/15 23/26/16
s 5
f 3/8/17 1/1/18 15/86/19 16/24/20
s 1
f 25/81/21 26/83/22 5/9/23 9/15/24
s 2
f 6/11/25 19/71/26 20/74/27 10/17/28
s 3
f 5/10/29 6/11/30 10/17/31 9/16/32
s 1
f 26/83/22 27/95/33 7/12/34 5/9/23
s 2
f 8/14/35 18/69/36 19/71/26 6/11/25
s 3
f 7/13/37 8/14/38 6/11/30 5/10/29
s 1
f 29/27/39 30/79/40 25/81/21 9/15/24
s 2
f 10/17/28 20/74/27 31/92/41 32/29/42
s 3
f 9/16/32 10/17/31 32/29/43 38/34/44 40/36/45 29/28/46
s 1
f 33/30/47 34/85/48 28/87/3 11/18/2
s 2
f 12/20/7 17/68/6 35/98/49 36/32/50
s 3
f 11/19/11 12/20/10 36/32/51 33/31/52
s 1
f 23/26/53 24/89/54 13/21/55 2/2/56
s 2
f 14/23/57 21/75/58 22/25/59 4/4/60
s 3
f 13/22/61 39/35/62 37/33/63 14/23/64 4/4/65 2/6/66
s 5
f 16/24/20 15/86/19 45/48/67 46/41/68 50/42/69 49/43/70
s 4
f 23/26/16 22/44/15 78/45/71 77/46/72 74/47/73 73/77/74
s 1
f 24/89/54 30/79/40 29/27/39 13/21/55
s 2
f 32/29/42 31/92/41 21/75/58 14/23/57
s 3
f 37/33/63 38/34/44 32/29/43 14/23/64
s 1
f 27/95/33 34/85/48 33/30/47 7/12/34
s 2
f 36/32/50 35/98/49 18/69/36 8/14/35
s 3
f 33/31/52 36/32/51 8/14/38 7/13/37
s off
f 41/37/75 42/38/76 43/39/77 44/40/78
s 3
f 29/28/46 40/36/45 39/35/62 13/22/61
s off
f 39/35/79 40/36/80 42/38/81 41/37/82
f 40/36/83 38/34/84 43/39/85 42/38/86
f 38/34/87 37/33/88 44/40/89 43/39/90
f 37/33/91 39/35/92 41/37/93 44/40/94
f 46/52/95 45/48/96 48/84/97 47/53/98
s 10
f 47/53/99 48/84/100 69/94/101 70/61/102
s off
f 49/64/103 50/49/104 51/60/105 52/65/106
s 11
f 52/65/107 51/60/108 71/96/109 72/67/110
s 10
f 53/57/111 54/80/112 56/78/113 55/55/114
f 54/80/112 53/57/111 62/97/115 61/82/116
s off
f 55/55/117 56/78/118 65/88/119 66/59/120
s 11
f 57/54/121 58/70/122 64/99/123 63/56/124
f 58/70/122 57/54/121 59/58/125 60/72/126
s off
f 60/72/127 59/58/128 67/90/129 68/73/130
s 10
f 61/82/116 62/97/115 70/61/102 69/94/101
s 11
f 63/56/124 64/99/123 72/67/110 71/96/109
s 14
f 66/59/131 65/88/132 75/76/133 76/91/134
s 15
f 68/73/135 67/90/136 79/62/137 80/93/138
s 14
f 73/77/139 74/50/140 76/91/134 75/76/133
s 15
f 77/63/141 78/51/142 80/93/138 79/62/137
s 16
f 46/52/143 47/53/144 51/60/145 50/49/146
f 57/54/147 53/57/148 55/55/149 59/58/150
f 63/56/151 62/97/152 53/57/148 57/54/147
f 59/58/150 55/55/149 66/59/153 67/90/154
f 51/60/145 47/53/144 70/61/155 71/96/156
s 18
f 79/62/157 76/91/158 74/50/159 77/63/160
s 2
f 49/64/161 52/65/162 17/68/6 16/66/5
f 72/67/163 35/98/49 17/68/6 52/65/164
f 19/71/26 18/69/36 64/99/165 58/70/166
f 20/74/27 19/71/26 58/70/166 60/72/167
f 68/73/168 31/92/41 20/74/27 60/72/169
f 22/25/59 21/75/58 80/93/170 78/51/171
s 1
f 75/76/172 24/89/54 23/26/53 73/77/173
f 56/78/174 25/81/21 30/79/40 65/88/175
f 54/80/176 26/83/22 25/81/21 56/78/177
f 61/82/178 27/95/33 26/83/22 54/80/176
f 48/84/179 28/87/3 34/85/48 69/94/180
f 15/86/4 28/87/3 48/84/181 45/48/182
f 65/88/183 30/79/40 24/89/54 75/76/172
s 18
f 67/90/184 66/59/185 76/91/158 79/62/157
s 2
f 21/75/58 31/92/41 68/73/186 80/93/170
s 1
f 69/94/180 34/85/48 27/95/33 61/82/178
s 16
f 71/96/156 70/61/155 62/97/152 63/56/151
s 2
f 18/69/36 35/98/49 72/67/163 64/99/165
