# This file uses centimeters as units for non-parametric coordinates.

mtllib LampWide.mtl
g default
v -34.570774 12.820305 0.558564
v -35.332474 12.820305 0.633415
v -35.818146 12.820305 1.224944
v -35.743298 12.820305 1.986642
v -35.151768 12.820305 2.472316
v -34.390068 12.820305 2.397465
v -33.904396 12.820305 1.805936
v -33.979244 12.820305 1.044238
v -34.861271 12.820305 1.515440
v -34.570774 5.307679 0.558564
v -33.633583 4.991031 -2.528486
v -33.979244 5.307679 1.044238
v -33.904396 5.307679 1.805936
v -32.869892 4.991031 5.243031
v -34.390068 5.307679 2.397465
v -36.088959 4.991031 5.559366
v -35.151768 5.307679 2.472316
v -38.588863 4.991031 3.506821
v -35.743298 5.307679 1.986642
v -38.905197 4.991031 0.287752
v -35.818146 5.307679 1.224944
v -36.852650 4.991031 -2.212151
v -35.332474 5.307679 0.633415
v -21.533928 12.820305 -0.956876
v -22.295626 12.820305 -0.882025
v -22.781301 12.820305 -0.290496
v -22.706450 12.820305 0.471202
v -22.114922 12.820305 0.956876
v -21.353224 12.820305 0.882025
v -20.867548 12.820305 0.290496
v -20.942400 12.820305 -0.471202
v -21.824425 12.820305 0.000000
v -21.533928 5.307679 -0.956876
v -20.596737 4.991031 -4.043926
v -18.096834 4.991031 -1.991382
v -20.942400 5.307679 -0.471202
v -17.780499 4.991031 1.227688
v -20.867548 5.307679 0.290496
v -19.833046 4.991031 3.727591
v -21.353224 5.307679 0.882025
v -23.052113 4.991031 4.043926
v -22.114922 5.307679 0.956876
v -22.706450 5.307679 0.471202
v -22.781301 5.307679 -0.290496
v -23.815805 4.991031 -3.727591
v -22.295626 5.307679 -0.882025
v -27.961002 4.991031 4.643478
v -28.252495 5.307679 1.677171
v -28.305424 5.307679 1.138569
v -28.380272 5.307679 0.376871
v -28.407400 5.307679 -0.161731
v -28.698893 4.991031 -3.128038
v -29.924557 4.991031 4.883299
v -30.707523 5.307679 1.965289
v -30.545013 5.307679 1.405516
v -30.619862 5.307679 0.643818
v -30.862429 5.307679 0.126387
v -30.662449 4.991031 -2.888217
v -31.397224 4.991031 5.063165
v -32.548798 5.307679 2.181377
v -32.224705 5.307679 1.605726
v -32.299553 5.307679 0.844028
v -32.729500 5.307679 0.342476
v -32.160915 4.991031 -2.708352
v -25.997448 4.991032 4.403657
v -25.797466 5.307679 1.389053
v -26.065834 5.307679 0.871622
v -26.140686 5.307679 0.109924
v -25.978172 5.307679 -0.449849
v -26.761139 4.991032 -3.367859
v -24.524780 4.991032 4.223792
v -23.956194 5.307679 1.172964
v -24.386143 5.307679 0.671412
v -24.460995 5.307679 -0.090286
v -24.136898 5.307679 -0.665937
v -25.288471 4.991032 -3.547725
v -34.269100 3.565826 2.623901
v -35.215008 3.565826 2.680626
v -36.724880 3.565826 2.511031
v -36.883030 3.565826 0.901658
v -35.435051 3.565826 0.441400
v -34.490784 3.565826 0.295077
v -32.682625 3.565826 0.090959
v -32.453857 3.565826 2.418958
v -28.457232 3.565826 -0.406280
v -28.228464 3.565826 1.921720
v -26.042721 3.565826 -0.690416
v -25.813951 3.565826 1.637584
v -30.871742 3.565826 -0.122144
v -30.642975 3.565826 2.205856
v -24.231836 3.565826 -0.903518
v -24.003069 3.565826 1.424482
v -22.416595 3.565826 -1.108461
v -21.470688 3.565826 -1.165186
v -19.960815 3.565826 -0.995591
v -19.802666 3.565826 0.613782
v -21.250643 3.565826 1.074040
v -22.194912 3.565826 1.220363
v -34.526985 2.418703 -3.083399
v -34.782421 2.130798 -2.164423
v -38.289627 2.413097 -2.713647
v -38.314491 2.119058 -1.822427
v -40.688770 2.533282 0.208393
v -40.198231 2.308078 0.555344
v -40.319019 2.536017 3.971038
v -39.906559 2.306678 3.553534
v -37.396976 2.411747 6.370178
v -37.592709 2.119577 5.516030
v -33.634335 2.413698 6.000426
v -34.089130 2.122730 5.170736
v -19.288717 2.411747 -4.854738
v -19.092985 2.119577 -4.000590
v -23.051363 2.413698 -4.484987
v -22.596567 2.122730 -3.655297
v -22.158712 2.418703 4.598839
v -21.903271 2.130798 3.679863
v -18.396069 2.413098 4.229087
v -18.371202 2.119058 3.337866
v -15.996925 2.533282 1.307048
v -16.487467 2.308078 0.960096
v -16.366678 2.536017 -2.455599
v -16.779137 2.306678 -2.038095
v -32.805641 2.438240 -3.293637
v -33.300808 2.121571 -2.369983
v -31.912991 2.428773 5.790188
v -32.573288 2.118021 5.002462
v -28.777267 2.417227 -3.784193
v -28.702995 2.127095 -2.907241
v -26.494049 2.419404 -4.064510
v -26.076771 2.123387 -3.234469
v -27.896523 2.416323 5.299633
v -27.982594 2.126724 4.423769
v -25.601400 2.424883 5.019316
v -25.353922 2.125489 4.110941
v -31.072292 2.425797 -3.503876
v -31.331850 2.125859 -2.594398
v -30.191647 2.419404 5.579950
v -30.608925 2.123387 4.749909
v -24.772705 2.428773 -4.274749
v -24.112410 2.118021 -3.487022
v -23.880056 2.438240 4.809077
v -23.384886 2.121571 3.885423
vt 0.610485 0.733265
vt 0.500000 0.687500
vt 0.389515 0.733265
vt 0.343750 0.843750
vt 0.389515 0.954235
vt 0.500000 1.000000
vt 0.610485 0.954235
vt 0.656250 0.843750
vt 0.500000 0.843750
vt 0.375000 0.460348
vt 0.625000 0.460349
vt 0.625000 0.687500
vt 0.593750 0.687500
vt 0.593750 0.460348
vt 0.562500 0.687500
vt 0.562500 0.460348
vt 0.531250 0.687500
vt 0.531250 0.460348
vt 0.500000 0.687500
vt 0.500000 0.460349
vt 0.468750 0.687500
vt 0.468750 0.460348
vt 0.437500 0.687500
vt 0.437500 0.460348
vt 0.406250 0.687500
vt 0.406250 0.460348
vt 0.375000 0.687500
vt 0.610485 0.954235
vt 0.500000 1.000000
vt 0.500000 0.843750
vt 0.389515 0.954235
vt 0.343750 0.843750
vt 0.389515 0.733265
vt 0.500000 0.687500
vt 0.610485 0.733265
vt 0.656250 0.843750
vt 0.375000 0.460348
vt 0.406250 0.460348
vt 0.625000 0.361789
vt 0.625000 0.460349
vt 0.593750 0.460348
vt 0.562500 0.460348
vt 0.531250 0.460348
vt 0.500000 0.460349
vt 0.468750 0.460348
vt 0.437500 0.460348
vt 0.625000 0.687500
vt 0.593750 0.687500
vt 0.562500 0.687500
vt 0.531250 0.687500
vt 0.500000 0.687500
vt 0.468750 0.687500
vt 0.437500 0.687500
vt 0.406250 0.687500
vt 0.375000 0.687500
vt 0.515625 0.460348
vt 0.515625 0.460348
vt 0.515625 0.460348
vt 0.390625 0.460348
vt 0.515625 0.460348
vt 0.521875 0.460348
vt 0.534375 0.460348
vt 0.546875 0.460348
vt 0.384375 0.460348
vt 0.559375 0.460348
vt 0.526563 0.460348
vt 0.548437 0.460348
vt 0.570312 0.460348
vt 0.379687 0.460348
vt 0.592188 0.460349
vt 0.509375 0.460348
vt 0.496875 0.460348
vt 0.484375 0.460348
vt 0.396875 0.460348
vt 0.471875 0.460348
vt 0.504688 0.460349
vt 0.482813 0.460348
vt 0.460938 0.460348
vt 0.401563 0.460348
vt 0.439063 0.460348
vt 0.600613 0.055637
vt 0.504088 0.015068
vt 0.375000 0.320066
vt 0.378772 0.319946
vt 0.497697 0.012453
vt 0.402711 0.058961
vt 0.408194 0.064444
vt 0.362454 0.156250
vt 0.396682 0.256316
vt 0.402914 0.258971
vt 0.500000 0.298662
vt 0.531215 0.319969
vt 0.527333 0.319879
vt 0.597086 0.053529
vt 0.500000 0.013838
vt 0.603318 0.056184
vt 0.406215 0.319969
vt 0.402333 0.319879
vt 0.399387 0.256863
vt 0.495912 0.297432
vt 0.500000 0.320066
vt 0.503772 0.319946
vt 0.502303 0.300048
vt 0.597289 0.253539
vt 0.591806 0.248056
vt 0.637546 0.156250
vt 0.379687 0.318730
vt 0.383820 0.320050
vt 0.526563 0.325796
vt 0.522292 0.319981
vt 0.390543 0.320074
vt 0.384375 0.319418
vt 0.390625 0.319975
vt 0.396875 0.322599
vt 0.397292 0.319981
vt 0.401563 0.325796
vt 0.515555 0.320045
vt 0.509375 0.319405
vt 0.515625 0.319962
vt 0.521875 0.322595
vt 0.508817 0.320021
vt 0.504688 0.318730
vt 0.582641 0.072059
vt 0.500000 0.111229
vt 0.500000 0.037355
vt 0.444763 0.101013
vt 0.417136 0.073386
vt 0.421883 0.156250
vt 0.382718 0.156250
vt 0.468166 0.188084
vt 0.415964 0.240286
vt 0.500000 0.202714
vt 0.406250 0.331878
vt 0.375000 0.361789
vt 0.437500 0.334177
vt 0.406250 0.361789
vt 0.468750 0.334229
vt 0.437500 0.361789
vt 0.500000 0.331852
vt 0.468750 0.361789
vt 0.531250 0.331889
vt 0.500000 0.361789
vt 0.584036 0.072214
vt 0.500000 0.109786
vt 0.417359 0.240441
vt 0.500000 0.201271
vt 0.500000 0.275145
vt 0.555237 0.211487
vt 0.582864 0.239114
vt 0.578117 0.156250
vt 0.617282 0.156250
vt 0.531834 0.124416
vt 0.375000 0.331852
vt 0.406250 0.331889
vt 0.375000 0.361789
vt 0.531250 0.331878
vt 0.500000 0.361789
vt 0.562500 0.334177
vt 0.531250 0.361789
vt 0.593750 0.334229
vt 0.562500 0.361789
vt 0.625000 0.331852
vt 0.593750 0.361789
vt 0.375000 0.331985
vt 0.379687 0.361789
vt 0.531250 0.361789
vt 0.526563 0.332178
vt 0.515625 0.361789
vt 0.509375 0.332103
vt 0.390625 0.331957
vt 0.396875 0.361789
vt 0.521875 0.361789
vt 0.515625 0.331940
vt 0.384375 0.332121
vt 0.390625 0.361789
vt 0.526563 0.361789
vt 0.521875 0.331999
vt 0.379687 0.332359
vt 0.384375 0.361789
vt 0.509375 0.361789
vt 0.504688 0.332359
vt 0.396875 0.331999
vt 0.401563 0.361789
vt 0.504688 0.361789
vt 0.500000 0.331985
vt 0.401563 0.332178
vt 0.406250 0.361789
vt 0.498983 0.274928
vt 0.495036 0.200999
vt 0.533342 0.122908
vt 0.571678 0.066684
vt 0.516548 0.116299
vt 0.525261 0.047630
vt 0.458010 0.257623
vt 0.476832 0.193459
vt 0.523168 0.119041
vt 0.541978 0.054907
vt 0.474739 0.264870
vt 0.483452 0.196201
vt 0.528132 0.121097
vt 0.558827 0.061769
vt 0.487315 0.270589
vt 0.490071 0.198943
vt 0.509929 0.113557
vt 0.512685 0.041911
vt 0.441156 0.250759
vt 0.471868 0.191403
vt 0.504964 0.111501
vt 0.501017 0.037572
vt 0.428322 0.245816
vt 0.466658 0.189592
vn 0.000000 1.000000 0.000001
vn 0.000000 1.000000 -0.000000
vn 0.000000 1.000000 -0.000000
vn 0.000000 1.000000 -0.000001
vn 0.000000 1.000000 0.000000
vn 0.000000 1.000000 -0.000001
vn 0.000000 1.000000 -0.000000
vn 0.000000 1.000000 0.000001
vn 0.000000 1.000000 0.000000
vn -0.064553 0.751206 -0.656904
vn -0.010332 0.994404 -0.105136
vn -0.010332 0.994404 -0.105136
vn -0.064553 0.751206 -0.656904
vn 0.010332 0.994404 0.105136
vn 0.064553 0.751206 0.656904
vn 0.064553 0.751206 0.656904
vn 0.010332 0.994404 0.105136
vn -0.067037 0.994404 0.081647
vn -0.418854 0.751208 0.510145
vn -0.418854 0.751208 0.510145
vn -0.067037 0.994404 0.081647
vn -0.105135 0.994404 0.010331
vn -0.656900 0.751209 0.064551
vn -0.656902 0.751208 0.064551
vn -0.105135 0.994404 0.010331
vn -0.081647 0.994404 -0.067036
vn -0.510146 0.751208 -0.418853
vn -0.510146 0.751209 -0.418852
vn -0.081647 0.994404 -0.067036
vn 0.634564 0.000000 -0.772871
vn 0.634564 0.000000 -0.772871
vn 0.634564 0.000000 -0.772871
vn 0.634564 0.000000 -0.772871
vn 0.995207 0.000000 -0.097794
vn 0.995207 0.000000 -0.097794
vn 0.995207 0.000000 -0.097794
vn 0.995207 0.000000 -0.097794
vn 0.772872 0.000000 0.634562
vn 0.772872 0.000000 0.634562
vn 0.772872 0.000000 0.634562
vn 0.772872 0.000000 0.634562
vn 0.097797 0.000000 0.995206
vn 0.097797 0.000000 0.995206
vn -0.634564 0.000000 0.772871
vn -0.634564 0.000000 0.772871
vn -0.995207 0.000000 0.097794
vn -0.995207 0.000000 0.097794
vn -0.772872 0.000000 -0.634562
vn -0.772872 0.000000 -0.634562
vn -0.097797 0.000000 -0.995206
vn -0.097797 0.000000 -0.995206
vn 0.000000 1.000000 0.000001
vn 0.000000 1.000000 0.000001
vn 0.000000 1.000000 -0.000000
vn 0.000000 1.000000 0.000001
vn 0.000000 1.000000 -0.000001
vn 0.000000 1.000000 -0.000001
vn 0.000000 1.000000 -0.000001
vn 0.000000 1.000000 -0.000001
vn 0.000000 1.000000 0.000001
vn -0.064553 0.751208 -0.656902
vn -0.010332 0.994404 -0.105136
vn -0.010332 0.994404 -0.105136
vn -0.064553 0.751208 -0.656902
vn 0.067037 0.994404 -0.081647
vn 0.418854 0.751208 -0.510145
vn 0.418855 0.751208 -0.510145
vn 0.067037 0.994404 -0.081647
vn 0.105136 0.994404 -0.010332
vn 0.656902 0.751207 -0.064554
vn 0.656902 0.751208 -0.064554
vn 0.105136 0.994404 -0.010332
vn 0.081648 0.994404 0.067037
vn 0.510145 0.751207 0.418855
vn 0.510146 0.751207 0.418856
vn 0.081648 0.994404 0.067037
vn 0.010332 0.994404 0.105136
vn 0.064553 0.751207 0.656902
vn 0.064553 0.751207 0.656902
vn 0.010332 0.994404 0.105136
vn 0.634565 0.000000 -0.772870
vn 0.634565 0.000000 -0.772870
vn 0.995206 -0.000000 -0.097799
vn 0.995206 -0.000000 -0.097799
vn 0.772869 -0.000000 0.634565
vn 0.772869 -0.000000 0.634565
vn 0.097797 0.000000 0.995206
vn 0.097797 0.000000 0.995206
vn -0.634565 0.000000 0.772870
vn -0.634565 0.000000 0.772870
vn -0.634565 0.000000 0.772870
vn -0.634565 0.000000 0.772870
vn -0.995206 0.000000 0.097799
vn -0.995206 0.000000 0.097799
vn -0.995206 0.000000 0.097799
vn -0.995206 0.000000 0.097799
vn -0.772869 0.000000 -0.634565
vn -0.772869 0.000000 -0.634565
vn -0.772869 0.000000 -0.634565
vn -0.772869 0.000000 -0.634565
vn -0.097797 0.000000 -0.995206
vn -0.097797 0.000000 -0.995206
vn -0.012628 0.994319 -0.105690
vn -0.012628 0.994319 -0.105690
vn -0.012534 0.994333 -0.105568
vn -0.012491 0.994340 -0.105511
vn 0.000000 1.000000 0.000001
vn 0.000000 1.000000 0.000001
vn 0.000000 1.000000 0.000000
vn 0.000000 1.000000 0.000001
vn 0.000000 1.000000 0.000000
vn 0.000000 1.000000 0.000000
vn 0.000000 1.000000 0.000000
vn 0.000000 1.000000 0.000000
vn 0.000000 1.000000 0.000000
vn 0.000000 1.000000 0.000000
vn 0.000000 1.000000 0.000000
vn 0.000000 1.000000 0.000000
vn 0.012445 0.994483 0.104158
vn 0.012445 0.994483 0.104158
vn 0.012464 0.994466 0.104314
vn 0.012458 0.994471 0.104269
vn 0.012536 0.994402 0.104921
vn 0.012535 0.994402 0.104916
vn 0.012571 0.994370 0.105217
vn 0.012576 0.994366 0.105253
vn 0.000000 1.000000 0.000000
vn 0.000000 1.000000 0.000000
vn 0.000000 1.000000 0.000000
vn 0.000000 1.000000 0.000000
vn 0.000000 1.000000 -0.000000
vn 0.000000 1.000000 -0.000000
vn 0.000000 1.000000 -0.000000
vn 0.000000 1.000000 -0.000000
vn 0.000000 1.000000 0.000000
vn 0.000000 1.000000 0.000000
vn 0.000000 1.000000 0.000001
vn 0.000000 1.000000 0.000000
vn -0.012609 0.994403 -0.104904
vn -0.012607 0.994402 -0.104909
vn -0.012572 0.994438 -0.104575
vn -0.012588 0.994435 -0.104601
vn 0.012497 0.994437 0.104590
vn 0.012500 0.994434 0.104618
vn 0.000000 1.000000 0.000000
vn 0.000000 1.000000 0.000000
vn 0.000000 1.000000 0.000000
vn 0.000000 1.000000 0.000000
vn 0.000000 1.000000 0.000000
vn 0.000000 1.000000 0.000000
vn -0.012498 0.994372 -0.105209
vn -0.012480 0.994368 -0.105243
vn 0.012609 0.994337 0.105526
vn 0.012615 0.994331 0.105579
vn 0.000000 1.000000 0.000001
vn 0.000000 1.000000 0.000000
vn 0.000000 1.000000 0.000000
vn 0.000000 1.000000 0.000000
vn 0.000000 1.000000 0.000000
vn 0.000000 1.000000 0.000000
vn -0.012458 0.994471 -0.104269
vn -0.012463 0.994466 -0.104314
vn 0.012628 0.994319 0.105690
vn 0.012628 0.994319 0.105690
vn 0.000000 1.000000 0.000001
vn 0.000000 1.000000 0.000001
vn 0.000000 1.000000 0.000000
vn 0.000000 1.000000 0.000000
vn 0.000000 1.000000 0.000000
vn 0.000000 1.000000 0.000000
vn -0.012445 0.994483 -0.104158
vn -0.012445 0.994483 -0.104158
vn -0.028267 -0.958883 -0.282391
vn 0.032956 -0.958375 0.283606
vn 0.033239 -0.959315 0.280375
vn -0.033141 -0.959292 -0.280464
vn 0.034151 -0.956863 0.288525
vn -0.034712 -0.956817 -0.288611
vn 0.034355 -0.957086 0.287761
vn -0.034343 -0.957085 -0.287766
vn 0.034727 -0.956818 0.288608
vn -0.034166 -0.956862 -0.288528
vn 0.033141 -0.959292 0.280464
vn -0.033259 -0.959313 -0.280380
vn 0.028267 -0.958883 0.282391
vn -0.032956 -0.958375 -0.283606
vn 0.017849 -0.959725 -0.280375
vn 0.203477 -0.960358 -0.190552
vn 0.238062 -0.959743 0.149065
vn 0.073664 -0.959135 0.273191
vn -0.017849 -0.959725 0.280375
vn -0.203477 -0.960358 0.190552
vn -0.238062 -0.959743 -0.149065
vn -0.073664 -0.959135 -0.273191
vn -0.032596 -0.948051 -0.316443
vn -0.030346 -0.949189 -0.313241
vn -0.202221 -0.938809 -0.278828
vn -0.101321 -0.949171 -0.298008
vn -0.040696 -0.942561 -0.331547
vn -0.039959 -0.943609 -0.328642
vn -0.410948 -0.906802 -0.093977
vn -0.394228 -0.906835 -0.149112
vn -0.387377 -0.905003 0.175810
vn -0.363054 -0.904323 0.224482
vn -0.147927 -0.935850 0.319847
vn -0.043718 -0.946769 0.318932
vn 0.033726 -0.947592 0.317699
vn 0.035604 -0.947006 0.319235
vn 0.040580 -0.944879 0.324895
vn 0.040311 -0.944428 0.326238
vn 0.043717 -0.946769 -0.318932
vn 0.147927 -0.935850 -0.319847
vn -0.033726 -0.947592 -0.317699
vn -0.035604 -0.947007 -0.319235
vn 0.363052 -0.904324 -0.224482
vn 0.387376 -0.905003 -0.175809
vn -0.040580 -0.944879 -0.324894
vn -0.040311 -0.944428 -0.326237
vn 0.032596 -0.948051 0.316444
vn 0.030347 -0.949188 0.313242
vn 0.202221 -0.938809 0.278827
vn 0.101321 -0.949171 0.298008
vn 0.041086 -0.942576 0.331454
vn 0.040147 -0.943618 0.328593
vn 0.410945 -0.906804 0.093977
vn 0.394224 -0.906837 0.149111
vn -0.040130 -0.945772 -0.322344
vn -0.040517 -0.944411 -0.326262
vn 0.039466 -0.946185 0.321210
vn 0.039200 -0.947101 0.318534
vn -0.039403 -0.948034 -0.315720
vn -0.039412 -0.948014 -0.315780
vn -0.039493 -0.947039 -0.318681
vn -0.039672 -0.946141 -0.321314
vn 0.039143 -0.948183 0.315305
vn 0.039154 -0.948172 0.315336
vn 0.040771 -0.944551 0.325824
vn 0.040253 -0.945916 0.321905
vn 0.186072 -0.897921 0.398892
vn 0.057402 -0.867631 0.493883
vn 0.318601 -0.939574 0.125277
vn 0.285147 -0.940231 -0.186165
vn 0.101360 -0.900884 -0.422059
vn -0.048650 -0.871679 -0.487656
vn -0.100697 0.243114 -0.964757
vn -0.095104 0.241139 -0.965820
vn -0.095104 0.241139 -0.965820
vn -0.104704 0.244525 -0.963974
vn -0.667694 0.491513 -0.559106
vn -0.667694 0.491513 -0.559106
vn -0.667694 0.491513 -0.559106
vn -0.667694 0.491513 -0.559106
vn -0.807876 0.584012 0.079160
vn -0.807876 0.584012 0.079160
vn -0.807876 0.584012 0.079160
vn -0.807876 0.584012 0.079160
vn -0.543119 0.498831 0.675418
vn -0.543119 0.498831 0.675418
vn -0.543119 0.498831 0.675418
vn -0.543118 0.498831 0.675418
vn 0.094502 0.254698 0.962392
vn 0.099589 0.253322 0.962242
vn 0.103291 0.252317 0.962116
vn 0.094502 0.254698 0.962392
vn 0.048650 -0.871680 0.487656
vn -0.101360 -0.900884 0.422059
vn -0.186072 -0.897921 -0.398892
vn -0.057402 -0.867631 -0.493883
vn -0.318601 -0.939574 -0.125277
vn -0.285147 -0.940231 0.186165
vn -0.094502 0.254698 -0.962392
vn -0.099589 0.253322 -0.962242
vn -0.103291 0.252317 -0.962116
vn -0.094502 0.254698 -0.962392
vn 0.100697 0.243114 0.964757
vn 0.095104 0.241139 0.965820
vn 0.095104 0.241139 0.965820
vn 0.104704 0.244525 0.963974
vn 0.667694 0.491513 0.559106
vn 0.667694 0.491513 0.559106
vn 0.667694 0.491513 0.559106
vn 0.667694 0.491513 0.559106
vn 0.807875 0.584014 -0.079160
vn 0.807875 0.584014 -0.079160
vn 0.807875 0.584014 -0.079160
vn 0.807875 0.584014 -0.079160
vn 0.543118 0.498832 -0.675418
vn 0.543118 0.498832 -0.675418
vn 0.543118 0.498832 -0.675418
vn 0.543118 0.498832 -0.675418
vn -0.116737 0.249409 -0.961336
vn -0.117252 0.249429 -0.961269
vn 0.117074 0.248683 0.961483
vn 0.117342 0.248658 0.961457
vn 0.117281 0.248249 0.961570
vn 0.117284 0.248248 0.961570
vn 0.116684 0.248762 0.961510
vn 0.116725 0.248699 0.961522
vn -0.117757 0.248724 -0.961390
vn -0.117756 0.248724 -0.961390
vn -0.118421 0.248476 -0.961372
vn -0.118384 0.248490 -0.961373
vn 0.117825 0.248307 0.961489
vn 0.117868 0.248343 0.961474
vn -0.116073 0.249182 -0.961476
vn -0.116212 0.249158 -0.961465
vn 0.117814 0.249375 0.961214
vn 0.117473 0.249339 0.961265
vn -0.117342 0.248658 -0.961457
vn -0.117074 0.248683 -0.961483
vn -0.057653 -0.869667 -0.490261
vn 0.058767 -0.866814 0.495157
vn 0.058890 -0.867917 0.493207
vn 0.059202 -0.868685 0.491814
vn -0.058862 -0.867945 -0.493159
vn -0.058482 -0.867480 -0.494022
vn 0.058462 -0.867450 0.494078
vn -0.059176 -0.868696 -0.491798
vn 0.057653 -0.869667 0.490261
vn -0.058793 -0.866824 -0.495135
s 1
g pasted__pasted__pCylinder1
usemtl lambert2SG
f 1/7/1 2/6/2 9/9/3
f 2/6/2 3/5/4 9/9/3
f 3/5/4 4/4/5 9/9/3
f 4/4/5 5/3/6 9/9/3
f 5/3/6 6/2/7 9/9/3
f 6/2/7 7/1/8 9/9/3
f 7/1/8 8/8/9 9/9/3
f 8/8/9 1/7/1 9/9/3
s 2
f 10/10/10 11/134/11 22/136/12 23/26/13
s 3
f 14/166/14 15/18/15 17/20/16 16/142/17
s 4
f 16/142/18 17/20/19 19/22/20 18/140/21
s 5
f 18/140/22 19/22/23 21/24/24 20/138/25
s 6
f 20/138/26 21/24/27 23/26/28 22/136/29
s off
f 12/14/30 10/11/31 1/12/32 8/13/33
f 13/16/34 12/14/35 8/13/36 7/15/37
f 15/18/38 13/16/39 7/15/40 6/17/41
s 3
f 17/20/16 15/18/15 6/17/42 5/19/43
s 4
f 19/22/20 17/20/19 5/19/44 4/21/45
s 5
f 21/24/24 19/22/23 4/21/46 3/23/47
s 6
f 23/26/28 21/24/27 3/23/48 2/25/49
s 2
f 10/10/10 23/26/13 2/25/50 1/27/51
s 7
f 24/28/52 25/29/53 32/30/54
f 25/29/53 26/31/55 32/30/54
f 26/31/55 27/32/56 32/30/54
f 27/32/56 28/33/57 32/30/54
f 28/33/57 29/34/58 32/30/54
f 29/34/58 30/35/59 32/30/54
f 30/35/59 31/36/60 32/30/54
f 31/36/60 24/28/52 32/30/54
s 8
f 33/37/61 34/155/62 45/187/63 46/38/64
s 9
f 34/39/65 33/40/66 36/41/67 35/163/68
s 10
f 35/163/69 36/41/70 38/42/71 37/161/72
s 11
f 37/161/73 38/42/74 40/43/75 39/159/76
s 12
f 39/159/77 40/43/78 42/44/79 41/157/80
s 9
f 36/41/67 33/40/66 24/47/81 31/48/82
s 10
f 38/42/71 36/41/70 31/48/83 30/49/84
s 11
f 40/43/75 38/42/74 30/49/85 29/50/86
s 12
f 42/44/79 40/43/78 29/50/87 28/51/88
s off
f 43/45/89 42/44/90 28/51/91 27/52/92
f 44/46/93 43/45/94 27/52/95 26/53/96
f 46/38/97 44/46/98 26/53/99 25/54/100
s 8
f 33/37/61 46/38/64 25/54/101 24/55/102
s 13
f 11/134/103 10/10/104 63/69/105 64/165/106
s 14
f 10/11/107 12/14/108 62/68/109 63/70/110
s 15
f 12/14/111 13/16/112 61/67/113 62/68/114
s 16
f 13/16/115 15/18/116 60/66/117 61/67/118
s 17
f 15/18/119 14/166/120 59/176/121 60/66/122
f 48/56/123 47/168/124 65/180/125 66/71/126
s 16
f 49/57/127 48/56/128 66/71/129 67/72/130
s 15
f 50/58/131 49/57/132 67/72/133 68/73/134
s 14
f 51/60/135 50/58/136 68/73/137 69/75/138
s 13
f 52/175/139 51/59/140 69/74/141 70/171/142
s 17
f 54/61/143 53/172/144 47/168/124 48/56/123
s 16
f 55/62/145 54/61/146 48/56/128 49/57/127
s 15
f 56/63/147 55/62/148 49/57/132 50/58/131
s 14
f 57/65/149 56/63/150 50/58/136 51/60/135
s 13
f 58/179/151 57/64/152 51/59/140 52/175/139
s 17
f 60/66/122 59/176/121 53/172/144 54/61/143
s 16
f 61/67/118 60/66/117 54/61/146 55/62/145
s 15
f 62/68/114 61/67/113 55/62/148 56/63/147
s 14
f 63/70/110 62/68/109 56/63/150 57/65/149
s 13
f 64/165/106 63/69/105 57/64/152 58/179/151
s 17
f 66/71/126 65/180/125 71/184/153 72/76/154
s 16
f 67/72/130 66/71/129 72/76/155 73/77/156
s 15
f 68/73/134 67/72/133 73/77/157 74/78/158
s 14
f 69/75/138 68/73/137 74/78/159 75/80/160
s 13
f 70/171/142 69/74/141 75/79/161 76/183/162
s 17
f 72/76/154 71/184/153 41/157/163 42/44/164
s 16
f 73/77/156 72/76/155 42/44/165 43/45/166
s 15
f 74/78/158 73/77/157 43/45/167 44/46/168
s 14
f 75/80/160 74/78/159 44/46/169 46/38/170
s 13
f 76/183/162 75/79/161 46/38/171 45/187/172
s 23
f 77/132/173 82/190/174 83/200/175 84/189/176
f 84/189/176 83/200/175 89/196/177 90/203/178
f 85/192/179 86/199/180 90/203/178 89/196/177
f 86/199/180 85/192/179 87/204/181 88/195/182
f 88/195/182 87/204/181 91/208/183 92/207/184
f 92/207/184 91/208/183 93/144/185 98/211/186
f 77/132/173 78/130/187 79/128/188 80/126/189 81/124/190 82/190/174
f 93/144/185 94/152/191 95/150/192 96/148/193 97/146/194 98/211/186
s 24
f 99/81/195 100/123/196 102/125/197 101/82/198
f 100/83/196 99/164/195 123/178/199 124/84/200
f 101/85/198 102/125/197 104/127/201 103/86/202
f 103/87/202 104/127/201 106/129/203 105/88/204
f 105/88/204 106/129/203 108/131/205 107/89/206
f 107/90/206 108/131/205 110/188/207 109/91/208
f 109/141/208 110/92/207 126/93/209 125/167/210
f 111/94/211 112/143/212 114/209/213 113/95/214
f 112/143/212 111/96/211 121/106/215 122/151/216
f 113/154/214 114/97/213 140/98/217 139/186/218
f 115/99/219 116/145/220 118/147/221 117/100/222
f 116/101/220 115/185/219 141/181/223 142/102/224
f 117/103/222 118/147/221 120/149/225 119/104/226
f 119/105/226 120/149/225 122/151/216 121/106/215
f 124/107/200 123/178/199 135/174/227 136/108/228
f 125/167/210 126/109/209 138/110/229 137/177/230
f 127/170/231 128/111/232 136/112/228 135/174/227
f 128/113/232 127/170/231 129/182/233 130/114/234
f 130/115/234 129/182/233 139/186/218 140/116/217
f 131/173/235 132/117/236 134/118/237 133/169/238
f 132/119/236 131/173/235 137/177/230 138/120/229
f 133/169/238 134/121/237 142/122/224 141/181/223
s 23
f 102/125/239 100/123/240 82/190/174 81/124/190
f 104/127/241 102/125/239 81/124/190 80/126/189
f 106/129/242 104/127/241 80/126/189 79/128/188
f 108/131/243 106/129/242 79/128/188 78/130/187
f 110/188/244 108/131/243 78/130/187 77/132/173
s 27
f 99/164/245 101/133/246 22/136/247 11/134/248
s off
f 101/133/249 103/135/250 20/138/251 22/136/252
f 103/135/253 105/137/254 18/140/255 20/138/256
f 105/137/257 107/139/258 16/142/259 18/140/260
s 28
f 107/139/261 109/141/262 14/166/263 16/142/264
s 23
f 114/209/265 112/143/266 94/152/191 93/144/185
f 118/147/267 116/145/268 98/211/186 97/146/194
f 120/149/269 118/147/267 97/146/194 96/148/193
f 122/151/270 120/149/269 96/148/193 95/150/192
f 112/143/266 122/151/270 95/150/192 94/152/191
s 27
f 111/153/271 113/154/272 45/187/273 34/155/274
s 28
f 115/185/275 117/156/276 39/159/277 41/157/278
s off
f 117/156/279 119/158/280 37/161/281 39/159/282
f 119/158/283 121/160/284 35/163/285 37/161/286
f 121/160/287 111/162/288 34/39/289 35/163/290
s 27
f 99/164/245 11/134/248 64/165/291 123/178/292
s 28
f 14/166/263 109/141/262 125/167/293 59/176/294
f 47/168/295 131/173/296 133/169/297 65/180/298
s 27
f 127/170/299 52/175/300 70/171/301 129/182/302
s 28
f 53/172/303 137/177/304 131/173/296 47/168/295
s 27
f 135/174/305 58/179/306 52/175/300 127/170/299
s 28
f 59/176/294 125/167/293 137/177/304 53/172/303
s 27
f 123/178/292 64/165/291 58/179/306 135/174/305
s 28
f 65/180/298 133/169/297 141/181/307 71/184/308
s 27
f 129/182/302 70/171/301 76/183/309 139/186/310
s 28
f 71/184/308 141/181/307 115/185/275 41/157/278
s 27
f 139/186/310 76/183/309 45/187/273 113/154/272
s 23
f 110/188/244 77/132/173 84/189/176 126/202/311
f 83/200/175 82/190/174 100/123/240 124/191/312
f 85/192/179 128/197/313 130/193/314 87/204/181
f 132/194/315 86/199/180 88/195/182 134/206/316
f 89/196/177 136/201/317 128/197/313 85/192/179
f 138/198/318 90/203/178 86/199/180 132/194/315
f 83/200/175 124/191/312 136/201/317 89/196/177
f 126/202/311 84/189/176 90/203/178 138/198/318
f 87/204/181 130/193/314 140/205/319 91/208/183
f 134/206/316 88/195/182 92/207/184 142/210/320
f 91/208/183 140/205/319 114/209/265 93/144/185
f 142/210/320 92/207/184 98/211/186 116/145/268
