# This file uses centimeters as units for non-parametric coordinates.

mtllib WallCurved.mtl
g default
v -52.196902 2.210492 72.348229
v 52.196902 2.210492 72.348229
v -52.196902 54.954032 72.348229
v 52.196902 54.954032 72.348229
v -52.196902 54.954032 59.590077
v 52.196902 54.954032 59.590077
v -52.196902 2.210492 59.590077
v 52.196902 2.210492 59.590077
v -52.196902 16.310301 64.824793
v -52.196902 16.310301 52.066641
v 52.196902 16.310301 52.066641
v 52.196902 16.310301 64.824793
v -52.196902 41.505296 52.066641
v -52.196902 41.505286 64.824793
v 52.196902 41.505286 64.824793
v 52.196902 41.505296 52.066641
vt 0.375000 0.000000
vt 0.625000 0.000000
vt 0.375000 0.250000
vt 0.625000 0.250000
vt 0.375000 0.500000
vt 0.625000 0.500000
vt 0.375000 0.750000
vt 0.625000 0.750000
vt 0.375000 1.000000
vt 0.625000 1.000000
vt 0.875000 0.000000
vt 0.875000 0.250000
vt 0.125000 0.000000
vt 0.125000 0.250000
vt 0.375000 0.125000
vt 0.125000 0.125000
vt 0.375000 0.625000
vt 0.625000 0.625000
vt 0.875000 0.125000
vt 0.625000 0.125000
vt 0.125000 0.137500
vt 0.375000 0.612500
vt 0.375000 0.137500
vt 0.625000 0.137500
vt 0.625000 0.612500
vt 0.875000 0.137500
vn 0.000000 0.470761 0.882261
vn 0.000000 0.470761 0.882261
vn 0.000000 0.188046 0.982160
vn 0.000000 0.188046 0.982160
vn 0.000000 1.000000 0.000000
vn 0.000000 1.000000 0.000000
vn 0.000000 1.000000 0.000000
vn 0.000000 1.000000 0.000000
vn 0.000000 -0.188046 -0.982160
vn 0.000000 -0.188046 -0.982160
vn 0.000000 -0.470761 -0.882261
vn 0.000000 -0.470761 -0.882261
vn 0.000000 -1.000000 0.000000
vn 0.000000 -1.000000 0.000000
vn 0.000000 -1.000000 0.000000
vn 0.000000 -1.000000 0.000000
vn 1.000000 0.000000 0.000000
vn 1.000000 0.000000 0.000000
vn 1.000000 0.000000 0.000000
vn 1.000000 0.000000 0.000000
vn -1.000000 0.000000 0.000000
vn -1.000000 0.000000 0.000000
vn -1.000000 0.000000 0.000000
vn -1.000000 0.000000 0.000000
vn -1.000000 0.000000 0.000000
vn -1.000000 0.000000 0.000000
vn -1.000000 0.000000 0.000000
vn -1.000000 0.000000 0.000000
vn 0.000000 0.488215 -0.872723
vn 0.000000 0.488215 -0.872723
vn 0.000000 0.191099 -0.981571
vn 0.000000 0.191099 -0.981571
vn 1.000000 -0.000000 0.000000
vn 1.000000 -0.000000 0.000000
vn 1.000000 -0.000000 0.000000
vn 1.000000 -0.000000 0.000000
vn 0.000000 -0.191099 0.981571
vn 0.000000 -0.191099 0.981571
vn 0.000000 -0.488215 0.872723
vn 0.000000 -0.488215 0.872723
s 1
g pasted__pCube2 group12
usemtl initialShadingGroup
f 1/1/1 2/2/2 12/20/3 9/15/4
s off
f 3/3/5 4/4/6 6/6/7 5/5/8
s 2
f 10/17/9 11/18/10 8/8/11 7/7/12
s off
f 7/7/13 8/8/14 2/10/15 1/9/16
s 3
f 2/2/17 8/11/18 11/19/19 12/20/20
s 4
f 7/13/21 1/1/22 9/15/23 10/16/24
f 13/21/25 14/23/26 3/3/27 5/14/28
s 2
f 5/5/29 6/6/30 16/25/31 13/22/32
s 3
f 15/24/33 16/26/34 6/12/35 4/4/36
s 1
f 14/23/37 15/24/38 4/4/39 3/3/40
s 4
f 10/16/24 9/15/23 14/23/26 13/21/25
s 1
f 9/15/4 12/20/3 15/24/38 14/23/37
s 3
f 12/20/20 11/19/19 16/26/34 15/24/33
s 2
f 13/22/32 16/25/31 11/18/10 10/17/9
