# This file uses centimeters as units for non-parametric coordinates.

mtllib Env_Tree.mtl
g default
v 20.875658 274.308746 -151.907852
v 11.962646 273.284912 -155.669037
v 2.273965 274.832916 -152.152695
v -1.609771 277.948608 -143.395218
v 2.211566 280.847351 -134.536285
v 11.499491 281.830780 -130.765396
v 20.813255 280.323273 -134.291458
v 24.591808 277.221680 -143.049637
v 29.065687 277.658875 -161.360291
v 11.903843 275.841461 -168.328033
v -5.305760 278.627289 -161.812683
v -12.481969 284.384491 -145.630981
v -5.421056 289.740448 -129.261871
v 11.740789 291.557892 -122.294128
v 28.950392 288.772064 -128.809464
v 36.126606 283.014832 -144.991196
v 34.768982 284.968658 -169.406815
v 12.345947 282.594177 -178.510559
v -10.139483 286.233917 -169.997864
v -19.515650 293.756042 -148.855392
v -10.290126 300.754059 -127.468109
v 12.132912 303.128540 -118.364410
v 34.618336 299.488678 -126.877075
v 43.994507 291.966583 -148.019562
v 37.117249 295.125366 -174.822342
v 12.846736 292.555115 -184.676163
v -11.491311 296.494934 -175.462143
v -21.639999 304.636719 -152.577698
v -11.654366 312.211304 -129.428268
v 12.616149 314.781433 -119.574463
v 36.954201 310.841736 -128.788498
v 47.102898 302.699829 -151.672958
v 35.753002 306.582550 -176.782455
v 13.329979 304.208038 -185.886246
v -9.155450 307.847809 -177.373581
v -18.531624 315.369965 -156.231125
v -9.306090 322.368011 -134.843826
v 13.116941 324.742462 -125.740044
v 35.602371 321.102600 -134.252777
v 44.978546 313.580475 -155.395203
v 30.883944 317.596039 -174.988815
v 13.722097 315.778717 -181.956512
v -3.487504 318.564545 -175.441162
v -10.663714 324.321716 -159.259491
v -3.602801 329.677673 -142.890335
v 13.559048 331.494995 -135.922653
v 30.768646 328.709320 -142.437912
v 37.944851 322.952148 -158.619690
v 23.251322 326.489288 -169.714371
v 13.963398 325.505646 -173.485199
v 4.649627 327.013397 -169.959167
v 0.765893 330.129181 -161.201675
v 4.587232 333.027802 -152.342728
v 13.875156 334.011414 -148.571884
v 23.188927 332.503784 -152.097961
v 27.072657 329.387909 -160.855408
v 14.139434 333.560852 -155.084930
v 93.303635 356.288483 -49.000854
v 49.382202 356.288483 -80.911606
v -4.907648 356.288483 -80.911560
v -48.829128 356.288483 -49.000805
v -65.605499 356.288483 2.631888
v -48.829113 356.288483 54.264610
v -4.907621 356.288483 86.175369
v 49.382210 356.288483 86.175369
v 93.303604 356.288483 54.264599
v 110.080055 356.288483 2.631882
v 180.664917 391.186340 -112.472610
v 82.751312 391.186340 -183.611130
v -38.276772 391.186340 -183.611130
v -136.190430 391.186340 -112.472610
v -173.590012 391.186340 2.631888
v -136.190430 391.186340 117.736328
v -38.276737 391.186340 188.874817
v 82.751312 391.186340 188.874817
v 180.664917 391.186340 117.736313
v 218.064529 391.186340 2.631879
v 227.044250 463.286163 -146.168945
v 100.466476 463.286163 -238.133240
v -55.991997 463.286163 -238.133179
v -182.569778 463.286163 -146.168915
v -230.918076 463.286163 2.631898
v -182.569672 463.286163 151.432770
v -55.991913 463.286163 243.396912
v 100.466476 463.286163 243.396973
v 227.044327 463.286163 151.432770
v 275.392426 463.286163 2.631883
v 237.583923 529.414307 -153.826660
v 104.492279 529.414307 -250.523544
v -60.017899 529.414307 -250.523346
v -193.109406 529.414307 -153.826553
v -243.946136 529.414307 2.631898
v -193.109375 529.414307 159.090393
v -60.017719 529.414307 255.787170
v 104.492310 529.414307 255.787247
v 237.583923 529.414307 159.090317
v 288.420685 529.414307 2.631883
v 227.044250 595.542480 -146.168945
v 100.466476 595.542480 -238.133240
v -55.991997 595.542480 -238.133179
v -182.569778 595.542480 -146.168915
v -230.918076 595.542480 2.631898
v -182.569672 595.542480 151.432770
v -55.991913 595.542480 243.396912
v 100.466476 595.542480 243.396973
v 227.044327 595.542480 151.432770
v 275.392426 595.542480 2.631883
v 196.456451 655.197510 -123.945831
v 88.783150 655.197510 -202.175186
v -44.308601 655.197510 -202.175186
v -151.981964 655.197510 -123.945824
v -193.109406 655.197510 2.631896
v -151.981964 655.197510 129.209564
v -44.308563 655.197510 207.438873
v 88.783150 655.197510 207.438873
v 196.456451 655.197510 129.209534
v 237.583923 655.197510 2.631883
v 148.814911 702.540100 -89.332153
v 70.585617 702.540100 -146.169006
v -26.111057 702.540100 -146.168915
v -104.340431 702.540100 -89.332077
v -134.221161 702.540100 2.631892
v -104.340401 702.540100 94.595901
v -26.111017 702.540100 151.432770
v 70.585632 702.540100 151.432770
v 148.814850 702.540100 94.595886
v 178.695709 702.540100 2.631883
v 88.783150 732.935913 -45.716469
v 47.655495 732.935913 -75.597374
v -3.180953 732.935913 -75.597321
v -44.308590 732.935913 -45.716450
v -60.017731 732.935913 2.631888
v -44.308586 732.935913 50.980225
v -3.180932 732.935913 80.861115
v 47.655495 732.935913 80.861115
v 88.783150 732.935913 50.980225
v 104.492310 732.935913 2.631883
v 22.237276 743.409546 2.631883
v 83.158386 -15.549946 -43.604645
v 39.357475 -15.549946 -73.273270
v -22.924316 -15.549946 -70.553764
v -77.738876 -15.549946 -41.981571
v -74.184631 -15.549946 0.000007
v -83.819740 -15.549946 63.227077
v -46.727432 -15.549946 90.176216
v 13.229118 -15.549946 84.546654
v 71.125793 -15.549946 39.439461
v 97.326378 -15.549946 0.000002
v 39.784386 95.724640 -43.548416
v 7.630077 96.586372 -55.420540
v -25.369823 96.996727 -46.123882
v -46.610474 96.799019 -19.209488
v -47.978672 96.068695 15.042274
v -28.951817 95.084686 43.548416
v 3.202494 94.222954 55.420536
v 36.202385 93.812599 46.123878
v 65.291298 94.010307 19.209488
v 66.659492 94.740631 -15.042271
v 0.000000 -15.549946 0.000000
v 76.563217 39.927361 -38.812981
v 89.174301 39.927361 0.000001
v 56.520004 50.176529 48.323238
v 23.503721 50.176529 72.310959
v -49.347626 39.927361 89.288177
v -82.363907 39.927361 65.300446
v -66.032578 39.927361 0.000005
v -53.421490 39.927361 -38.812969
v -20.405191 39.927361 -62.800694
v 20.405178 39.927361 -62.800713
v 61.342793 159.685883 -41.429718
v 29.749685 159.903519 -55.782715
v -4.246984 159.689972 -48.828583
v -27.661657 159.126556 -23.223587
v -31.550720 158.428665 11.252015
v -14.428679 157.862823 41.429714
v 17.164406 157.645187 51.774078
v 51.161068 157.858734 48.828560
v 74.575745 158.422150 23.223614
v 78.464798 159.120026 -11.251978
v 73.473282 211.348145 -32.116238
v 46.153584 211.348145 -51.965160
v -14.935119 211.348145 -32.116222
v -25.370304 211.348145 0.000020
v -14.935105 211.348145 32.116245
v 12.384592 211.348145 51.965160
v 46.153587 211.348145 51.965141
v 73.473282 211.348145 32.116222
v 83.908470 211.348145 0.000002
v 74.772049 274.564911 -31.577135
v 47.910923 274.564911 -51.092918
v 14.708740 274.564911 -51.092899
v -12.152391 274.564911 -31.577126
v -22.412418 274.564911 0.000020
v -12.152381 274.564911 31.577175
v 14.708750 274.564911 51.092945
v 47.910923 274.564911 51.092899
v 85.032082 274.564911 0.000036
v 72.901161 341.653564 -30.217888
v 47.196320 341.653564 -48.893612
v 15.423356 341.653564 -48.893543
v -10.281506 341.653564 -30.217829
v -20.099880 341.653564 0.000018
v -10.281500 341.653564 30.217922
v 15.423364 341.653564 48.893600
v 47.196320 341.653564 48.893562
v 72.901161 341.653564 30.217888
v 82.719543 341.653564 0.000034
v 75.181252 421.013428 -36.397533
v 44.219711 421.013428 -58.892479
v 5.949137 421.013428 -58.892311
v -25.012411 421.013428 -36.397438
v -36.838650 421.013428 0.000075
v -25.012400 421.013428 36.397636
v 5.949147 421.013428 58.892406
v 44.219711 421.013428 58.892380
v 75.181252 421.013428 36.397564
v 87.007492 421.013428 0.000094
v 64.646248 -13.012447 115.677834
v 90.039330 -13.012447 97.228584
v 89.034187 25.701195 94.825798
v 66.431572 25.701195 111.247482
v 22.111799 -9.424076 -138.368210
v -36.619244 -9.424076 -134.182404
v -31.100838 29.654608 -82.744011
v 22.591948 29.654608 -86.929771
v -86.593987 -9.424080 -103.047501
v -76.999542 29.654606 -54.570530
v 80.520317 6.640976 -41.687981
v 94.065567 6.640976 0.000002
v 69.727150 10.740643 41.326900
v 98.357346 5.025688 91.816162
v 60.467323 6.888859 116.796791
v 13.460880 10.740643 85.249527
v -38.527912 6.640976 97.251419
v -95.233337 6.640976 59.058144
v -70.923813 6.640976 0.000006
v -75.100815 6.640976 -40.064911
v -83.143440 12.766838 -77.150253
v -34.799107 12.766848 -107.100578
v 21.916634 12.766848 -111.286369
v 38.349823 6.640976 -70.172043
v 90.059570 -18.566448 137.070923
v 103.698151 -18.062408 127.985397
v 113.659523 -17.392982 133.730026
v 94.298386 -16.010254 147.354141
v 115.687485 -13.418079 145.650528
v 103.547630 -13.866608 153.737656
v -111.257812 -37.739761 114.668213
v -92.168159 -38.202850 128.076004
v -94.515701 -34.846001 141.108490
v -123.206802 -35.330070 121.433273
v -109.902786 -28.989662 151.338028
v -126.894707 -28.577484 139.403610
v -103.287163 -16.577114 85.069305
v -119.527351 -1.368526 87.885345
v -114.704414 23.910904 105.755577
v -81.538841 23.586927 129.528778
v -62.952629 -0.988037 126.266190
v -66.027145 -16.941105 111.777443
v 10.815038 204.164062 -52.323826
v 20.826832 211.039551 -51.965160
v 5.554657 211.039551 -47.002934
v 12.965622 220.575745 -51.747097
v 17.615993 205.453400 -52.189861
v 6.342666 205.414185 -48.317463
v 7.783832 217.896271 -48.240250
v 19.229794 217.896423 -51.858913
v 18.745407 279.034607 -145.125397
v 15.843934 277.393738 -150.637238
v 11.201585 274.992828 -153.666473
v 4.444435 277.552307 -150.871353
v 3.981790 279.536835 -144.697891
v 6.630601 281.792908 -138.282806
v 12.031599 282.622253 -136.112991
v 18.320002 281.268921 -138.732437
v 17.296726 264.365204 -136.760056
v 15.916111 268.896149 -131.529312
v 9.657811 270.842072 -129.334808
v 4.289621 269.041229 -131.049973
v 1.817829 264.693085 -136.246643
v 2.506178 261.712585 -141.127258
v 7.051834 260.974670 -142.397430
v 13.889005 260.993866 -141.067413
v 16.817013 250.286255 -125.935387
v 15.458747 255.673309 -121.590340
v 9.253253 257.666077 -119.371422
v 3.951301 254.811371 -119.724976
v 1.473112 249.199554 -123.538239
v 2.046159 245.398041 -127.847672
v 6.515020 245.202271 -129.946045
v 13.395253 245.947052 -129.248657
v 18.584160 233.184265 -106.246208
v 17.336004 238.736511 -102.086105
v 11.187989 240.971924 -100.022881
v 5.845477 237.801117 -99.728432
v 3.259721 231.951660 -103.128868
v 3.755082 228.043793 -107.374863
v 8.199185 228.182587 -110.124580
v 15.081816 228.840271 -109.467964
v 20.845442 223.101654 -75.643761
v 19.237127 229.960358 -75.532936
v 12.953702 232.643921 -75.270844
v 7.763742 229.966064 -72.520088
v 5.540648 223.107239 -71.580681
v 6.331118 217.483856 -72.802917
v 10.822690 216.227295 -75.891441
v 17.636326 217.514557 -75.768639
v 74.447350 267.302612 31.711910
v 68.056770 274.564911 36.456078
v 77.337051 274.564911 23.682859
v 74.304321 282.795166 31.237326
v 69.640457 268.998260 35.259350
v 76.469864 269.002136 25.862167
v 76.416153 280.590881 25.533236
v 69.591072 280.591492 34.963181
v 142.577240 324.691498 82.321899
v 143.956879 323.499847 82.458748
v 145.373856 323.279449 81.167534
v 146.581757 323.822784 79.399338
v 145.952637 325.110718 77.949310
v 144.262756 326.506653 77.684586
v 142.538757 326.991669 79.069687
v 141.732697 326.176056 80.877663
v 127.603844 315.576569 78.090439
v 125.853065 320.120789 74.404282
v 128.562775 322.431335 69.477547
v 133.018402 320.907043 65.223976
v 137.192596 316.573639 65.542519
v 138.543152 312.574982 69.357841
v 135.330124 310.996857 74.547089
v 131.151566 311.806152 78.214722
v 113.360771 303.295502 67.826401
v 112.381294 308.187744 64.655197
v 115.561409 310.473206 60.010414
v 119.466736 308.789246 55.416283
v 122.877098 304.058472 55.225586
v 123.706963 299.692566 58.656796
v 120.773438 298.085907 64.001114
v 116.447357 299.103333 67.640526
v 103.339760 288.751190 59.900707
v 101.344887 292.735931 56.058784
v 104.040047 294.910370 51.003620
v 107.875328 293.090332 46.419914
v 112.159325 289.170349 46.801151
v 114.079170 285.789368 50.892551
v 112.130264 284.858093 56.835926
v 107.439766 285.351135 60.364861
v 86.499931 278.755432 48.622013
v 85.114502 283.656067 45.358337
v 88.055992 286.044708 40.405888
v 90.961708 283.740326 35.291325
v 94.420654 278.846008 34.961899
v 96.045158 274.646149 38.596157
v 94.772781 273.762115 44.766159
v 90.133530 274.517365 48.567577
vt 0.668908 0.814930
vt 0.680807 0.818824
vt 0.682111 0.826830
vt 0.666564 0.821743
vt 0.670533 0.810252
vt 0.676973 0.812359
vt 0.680686 0.835159
vt 0.663858 0.829652
vt 0.657145 0.810745
vt 0.651195 0.816275
vt 0.664167 0.807987
vt 0.676749 0.842542
vt 0.661202 0.837455
vt 0.647223 0.823734
vt 0.670900 0.847856
vt 0.659001 0.843962
vt 0.645833 0.831987
vt 0.647238 0.839777
vt 0.605148 0.816066
vt 0.616911 0.811881
vt 0.619113 0.818388
vt 0.603744 0.823856
vt 0.628811 0.807987
vt 0.634660 0.813301
vt 0.621769 0.826190
vt 0.605133 0.832109
vt 0.638597 0.820684
vt 0.624475 0.834100
vt 0.609105 0.839568
vt 0.640022 0.829013
vt 0.626818 0.840912
vt 0.615055 0.845097
vt 0.638718 0.837019
vt 0.628444 0.845591
vt 0.622078 0.847856
vt 0.634884 0.843484
vt 0.054299 0.294187
vt 0.054299 0.186019
vt 0.102369 0.186019
vt 0.102369 0.299754
vt 0.001887 0.269692
vt 0.001887 0.186019
vt 0.054299 0.077851
vt 0.102369 0.072284
vt 0.150440 0.186019
vt 0.150440 0.294187
vt 0.054299 0.361039
vt 0.102369 0.370046
vt 0.001887 0.102346
vt 0.054299 0.010999
vt 0.102369 0.001992
vt 0.150440 0.077851
vt 0.193805 0.186019
vt 0.193805 0.278033
vt 0.150440 0.361039
vt 0.150440 0.010999
vt 0.193805 0.094006
vt 0.228220 0.186019
vt 0.228220 0.252871
vt 0.193805 0.334900
vt 0.193805 0.037138
vt 0.228220 0.119167
vt 0.287088 0.294188
vt 0.287088 0.186019
vt 0.335159 0.186019
vt 0.335159 0.299754
vt 0.234676 0.269693
vt 0.234676 0.186019
vt 0.287088 0.077851
vt 0.335159 0.072284
vt 0.383229 0.186019
vt 0.383229 0.294188
vt 0.287088 0.361039
vt 0.335159 0.370046
vt 0.234676 0.102346
vt 0.287088 0.010999
vt 0.335159 0.001992
vt 0.383229 0.077851
vt 0.426595 0.186019
vt 0.426595 0.278033
vt 0.383229 0.361039
vt 0.383229 0.010999
vt 0.426595 0.094006
vt 0.461010 0.186019
vt 0.461010 0.252871
vt 0.426595 0.334900
vt 0.426595 0.037138
vt 0.461010 0.119167
vt 0.554366 0.371944
vt 0.584883 0.371944
vt 0.584883 0.388075
vt 0.555759 0.388075
vt 0.630845 0.371944
vt 0.627815 0.388075
vt 0.584883 0.412272
vt 0.556669 0.412272
vt 0.528800 0.392528
vt 0.509975 0.376397
vt 0.646723 0.371197
vt 0.648770 0.382253
vt 0.632352 0.412272
vt 0.595818 0.453083
vt 0.570919 0.453614
vt 0.545214 0.404805
vt 0.668240 0.355813
vt 0.673157 0.357565
vt 0.661761 0.400629
vt 0.616540 0.452368
vt 0.593063 0.498415
vt 0.568001 0.498922
vt 0.539231 0.412272
vt 0.551354 0.453758
vt 0.686221 0.362474
vt 0.615000 0.498003
vt 0.584883 0.536884
vt 0.561537 0.536884
vt 0.549388 0.499332
vt 0.608230 0.536884
vt 0.584883 0.582838
vt 0.561929 0.582838
vt 0.550715 0.536659
vt 0.549760 0.532570
vt 0.546847 0.531661
vt 0.607838 0.582838
vt 0.584883 0.631607
vt 0.562917 0.631607
vt 0.547267 0.543592
vt 0.549816 0.541644
vt 0.547742 0.582838
vt 0.532849 0.545432
vt 0.531961 0.541344
vt 0.529715 0.540430
vt 0.622659 0.536884
vt 0.622025 0.582838
vt 0.606850 0.631607
vt 0.584883 0.689296
vt 0.558425 0.689296
vt 0.549341 0.631607
vt 0.532166 0.550418
vt 0.509916 0.551861
vt 0.506829 0.549020
vt 0.620426 0.631607
vt 0.611342 0.689296
vt 0.542073 0.689296
vt 0.512387 0.556113
vt 0.495079 0.564399
vt 0.491947 0.561636
vt 0.627694 0.689296
vt 0.497851 0.568479
vt 0.485841 0.575662
vt 0.482293 0.573495
vt 0.489619 0.578823
vt 0.479698 0.586452
vt 0.475210 0.585010
vt 0.484361 0.588092
vt 0.178464 0.375654
vt 0.210161 0.375654
vt 0.208768 0.391785
vt 0.178464 0.391785
vt 0.231728 0.375654
vt 0.229474 0.391785
vt 0.206678 0.415982
vt 0.178464 0.415982
vt 0.149794 0.375654
vt 0.148422 0.394765
vt 0.259361 0.396238
vt 0.279048 0.380107
vt 0.210120 0.456543
vt 0.189398 0.455827
vt 0.143336 0.423432
vt 0.111719 0.390611
vt 0.107785 0.377498
vt 0.224115 0.415982
vt 0.241656 0.408514
vt 0.208580 0.503038
vt 0.186643 0.502627
vt 0.164499 0.455297
vt 0.109531 0.405640
vt 0.081251 0.374314
vt 0.085427 0.373827
vt 0.201810 0.540593
vt 0.178464 0.540593
vt 0.161582 0.502120
vt 0.125898 0.423432
vt 0.144935 0.455153
vt 0.072585 0.377203
vt 0.219014 0.503197
vt 0.216239 0.540593
vt 0.201418 0.586548
vt 0.178464 0.586548
vt 0.155117 0.540593
vt 0.142968 0.501710
vt 0.215605 0.586548
vt 0.200430 0.635317
vt 0.178464 0.635317
vt 0.161248 0.586548
vt 0.159663 0.582504
vt 0.155411 0.581269
vt 0.140688 0.540593
vt 0.214006 0.635317
vt 0.204922 0.693006
vt 0.178463 0.693006
vt 0.155756 0.592531
vt 0.159903 0.590928
vt 0.156497 0.635317
vt 0.153049 0.589660
vt 0.150407 0.586607
vt 0.221274 0.693006
vt 0.152005 0.693006
vt 0.144442 0.597165
vt 0.141468 0.594707
vt 0.142921 0.635317
vt 0.135653 0.693006
vt 0.138318 0.607988
vt 0.135824 0.604814
vt 0.145921 0.585964
vt 0.137148 0.594030
vt 0.130818 0.617085
vt 0.128045 0.614179
vt 0.131939 0.603646
vt 0.121800 0.623291
vt 0.120745 0.622355
vt 0.124273 0.613031
vt 0.131050 0.620235
vt 0.121992 0.624306
vt 0.118621 0.622986
vt 0.118521 0.622120
vt 0.119460 0.621960
vt 0.120985 0.624659
vt 0.119671 0.624066
vt 0.864554 0.781363
vt 0.860493 0.781199
vt 0.869261 0.764059
vt 0.873322 0.764150
vt 0.877494 0.739562
vt 0.880652 0.741904
vt 0.869538 0.781440
vt 0.878308 0.764230
vt 0.889929 0.725183
vt 0.893084 0.727591
vt 0.884688 0.744928
vt 0.900867 0.716591
vt 0.903318 0.719722
vt 0.897000 0.730750
vt 0.912789 0.709635
vt 0.913982 0.713641
vt 0.906612 0.723525
vt 0.915606 0.718288
vt 0.267905 0.807252
vt 0.267905 0.769718
vt 0.314956 0.771631
vt 0.314956 0.798090
vt 0.267905 0.732184
vt 0.314956 0.745173
vt 0.267905 0.830449
vt 0.314956 0.814442
vt 0.267905 0.708987
vt 0.314956 0.728820
vt 0.321441 0.807252
vt 0.321441 0.769718
vt 0.368492 0.767805
vt 0.368492 0.794263
vt 0.321441 0.732184
vt 0.368492 0.741346
vt 0.321441 0.830449
vt 0.368492 0.810615
vt 0.321441 0.708987
vt 0.368492 0.724994
vt 0.604283 0.716898
vt 0.597804 0.714163
vt 0.597761 0.704961
vt 0.610236 0.710026
vt 0.600625 0.717821
vt 0.597250 0.715619
vt 0.590761 0.716720
vt 0.585251 0.709697
vt 0.598082 0.697559
vt 0.614382 0.704177
vt 0.606984 0.723337
vt 0.615369 0.721926
vt 0.602734 0.721828
vt 0.599204 0.724778
vt 0.594234 0.723811
vt 0.592338 0.717651
vt 0.581737 0.703747
vt 0.598446 0.693077
vt 0.616089 0.700240
vt 0.604237 0.729704
vt 0.610153 0.733689
vt 0.602425 0.726475
vt 0.598845 0.733369
vt 0.593844 0.732862
vt 0.587937 0.723086
vt 0.592002 0.722139
vt 0.600071 0.747749
vt 0.595068 0.747271
vt 0.590595 0.734388
vt 0.590929 0.724734
vt 0.601928 0.772246
vt 0.596975 0.772157
vt 0.591837 0.749270
vt 0.601913 0.789386
vt 0.596969 0.789289
vt 0.593710 0.774402
vt 0.733358 0.833397
vt 0.728142 0.821634
vt 0.736450 0.823046
vt 0.739273 0.829412
vt 0.733274 0.809735
vt 0.739228 0.816606
vt 0.746172 0.818600
vt 0.745868 0.838134
vt 0.746044 0.831976
vt 0.745750 0.804670
vt 0.745980 0.813865
vt 0.758344 0.833069
vt 0.752796 0.829234
vt 0.729128 0.803886
vt 0.745429 0.797268
vt 0.758260 0.809406
vt 0.752750 0.816428
vt 0.727421 0.799949
vt 0.745064 0.792786
vt 0.761774 0.803456
vt 0.755573 0.822794
vt 0.667822 0.139479
vt 0.635894 0.116282
vt 0.660151 0.041626
vt 0.731328 0.093339
vt 0.596429 0.116282
vt 0.572172 0.041626
vt 0.673029 0.001992
vt 0.765043 0.068844
vt 0.680018 0.177012
vt 0.758515 0.177012
vt 0.564501 0.139479
vt 0.500995 0.093339
vt 0.559294 0.001992
vt 0.667822 0.214546
vt 0.731328 0.260686
vt 0.552306 0.177012
vt 0.473808 0.177012
vt 0.467281 0.068844
vt 0.635894 0.237743
vt 0.660151 0.312399
vt 0.564501 0.214546
vt 0.500995 0.260686
vt 0.765043 0.285181
vt 0.673029 0.352033
vt 0.596429 0.237743
vt 0.572172 0.312399
vt 0.559294 0.352033
vt 0.467281 0.285181
vt 0.910691 0.597685
vt 0.853824 0.639002
vt 0.837155 0.587701
vt 0.867052 0.565980
vt 0.945324 0.622847
vt 0.867052 0.679715
vt 0.783532 0.639002
vt 0.800201 0.587701
vt 0.818678 0.530833
vt 0.932413 0.530833
vt 0.878472 0.530833
vt 0.770303 0.679715
vt 0.726664 0.597685
vt 0.770303 0.565980
vt 0.910691 0.463982
vt 0.867052 0.495688
vt 0.875545 0.705854
vt 0.761810 0.705854
vt 0.692032 0.622847
vt 0.704943 0.530833
vt 0.758884 0.530833
vt 0.853824 0.422665
vt 0.837155 0.473966
vt 0.726664 0.463982
vt 0.770303 0.495688
vt 0.867052 0.381952
vt 0.945324 0.438820
vt 0.783532 0.422665
vt 0.800201 0.473966
vt 0.770303 0.381952
vt 0.692032 0.438820
vt 0.761810 0.355813
vt 0.875545 0.355813
vt 0.096512 0.880728
vt 0.110388 0.890474
vt 0.108682 0.899948
vt 0.087825 0.885645
vt 0.102306 0.859211
vt 0.129391 0.878626
vt 0.131626 0.889158
vt 0.097497 0.907384
vt 0.085145 0.898709
vt 0.116457 0.843333
vt 0.143421 0.862924
vt 0.177389 0.797371
vt 0.123461 0.797371
vt 0.187005 0.858831
vt 0.120878 0.766854
vt 0.229092 0.826041
vt 0.160724 0.746083
vt 0.242841 0.868050
vt 0.224382 0.881462
vt 0.248138 0.797371
vt 0.114440 0.722463
vt 0.150769 0.699830
vt 0.205999 0.744107
vt 0.252770 0.890408
vt 0.242856 0.897013
vt 0.237839 0.765674
vt 0.193462 0.696787
vt 0.260012 0.894584
vt 0.245937 0.904488
vt 0.261486 0.903250
vt 0.252661 0.909128
vt 0.810651 0.786264
vt 0.786650 0.768826
vt 0.817856 0.740522
vt 0.834287 0.752459
vt 0.844837 0.709634
vt 0.853662 0.715513
vt 0.724707 0.740891
vt 0.724707 0.711224
vt 0.742247 0.709634
vt 0.739204 0.748666
vt 0.759953 0.710125
vt 0.756910 0.751354
vt 0.707269 0.764891
vt 0.718724 0.782031
vt 0.779640 0.709983
vt 0.776597 0.752677
vt 0.735138 0.786497
vt 0.753964 0.789005
vt 0.667456 0.747835
vt 0.684894 0.771836
vt 0.655486 0.795345
vt 0.638204 0.771236
vt 0.692076 0.709634
vt 0.700706 0.733009
vt 0.631026 0.804206
vt 0.622350 0.791854
vt 0.926045 0.709634
vt 0.929812 0.712184
vt 0.929803 0.729284
vt 0.926031 0.727284
vt 0.934366 0.712265
vt 0.934371 0.729474
vt 0.928520 0.747277
vt 0.924636 0.747063
vt 0.932989 0.748777
vt 0.927113 0.761342
vt 0.923259 0.761599
vt 0.931624 0.762955
vt 0.927408 0.768585
vt 0.923505 0.769832
vt 0.931957 0.770180
vt 0.929133 0.773512
vt 0.925207 0.775089
vt 0.911013 0.840274
vt 0.908434 0.836779
vt 0.917924 0.822004
vt 0.920687 0.825377
vt 0.904182 0.835309
vt 0.913438 0.821079
vt 0.926697 0.809386
vt 0.929263 0.812796
vt 0.931906 0.803103
vt 0.934552 0.806248
vt 0.939572 0.792522
vt 0.942239 0.795559
vt 0.944385 0.785220
vt 0.945324 0.786251
vt 0.898370 0.839364
vt 0.894224 0.840900
vt 0.887559 0.830903
vt 0.891277 0.828791
vt 0.891515 0.844326
vt 0.883959 0.833041
vt 0.879855 0.819284
vt 0.883187 0.816496
vt 0.876180 0.821243
vt 0.873308 0.810908
vt 0.876647 0.808069
vt 0.869931 0.813220
vt 0.866426 0.801457
vt 0.869518 0.798218
vt 0.862844 0.803427
vt 0.859453 0.791298
vt 0.860460 0.790044
vt 0.858139 0.791884
vt 0.525292 0.822361
vt 0.527855 0.829131
vt 0.523968 0.828745
vt 0.522064 0.824173
vt 0.529277 0.816446
vt 0.534013 0.828956
vt 0.525114 0.835883
vt 0.522391 0.832671
vt 0.528948 0.841431
vt 0.518674 0.838661
vt 0.517727 0.834596
vt 0.572488 0.847250
vt 0.573809 0.834774
vt 0.582220 0.834489
vt 0.580494 0.850789
vt 0.571784 0.822264
vt 0.579574 0.818144
vt 0.590691 0.834138
vt 0.588823 0.851781
vt 0.587827 0.816446
vt 0.595286 0.817428
vt 0.597932 0.833774
vt 0.565973 0.834453
vt 0.563327 0.850798
vt 0.555868 0.851781
vt 0.558732 0.834089
vt 0.547615 0.850083
vt 0.550261 0.833738
vt 0.539825 0.845963
vt 0.541850 0.833452
vt 0.556863 0.816446
vt 0.548535 0.817437
vt 0.540529 0.820977
vt 0.471119 0.711914
vt 0.471119 0.825649
vt 0.423048 0.828575
vt 0.423048 0.708987
vt 0.374977 0.825649
vt 0.374977 0.711914
vt 0.478357 0.809739
vt 0.478357 0.696004
vt 0.526428 0.693077
vt 0.526428 0.812665
vt 0.574499 0.696004
vt 0.574499 0.809739
vt 0.330784 0.387854
vt 0.374368 0.387854
vt 0.374537 0.406966
vt 0.336744 0.403985
vt 0.408707 0.404166
vt 0.411745 0.389699
vt 0.381837 0.435633
vt 0.328879 0.428182
vt 0.318989 0.398440
vt 0.316754 0.386843
vt 0.413043 0.417841
vt 0.430219 0.385661
vt 0.433300 0.387519
vt 0.391068 0.467353
vt 0.367079 0.467652
vt 0.305478 0.416304
vt 0.440024 0.389078
vt 0.401942 0.513911
vt 0.377229 0.513755
vt 0.284859 0.378084
vt 0.296045 0.373827
vt 0.398302 0.552794
vt 0.373754 0.552794
vt 0.343705 0.468278
vt 0.354263 0.513914
vt 0.399579 0.598748
vt 0.375444 0.598748
vt 0.353895 0.552794
vt 0.418162 0.552794
vt 0.418870 0.593469
vt 0.415375 0.594702
vt 0.414224 0.598748
vt 0.399060 0.647517
vt 0.375963 0.647517
vt 0.430273 0.598714
vt 0.427631 0.601795
vt 0.415340 0.603129
vt 0.418766 0.604731
vt 0.417746 0.647517
vt 0.396896 0.705207
vt 0.369076 0.705207
vt 0.442853 0.606589
vt 0.439873 0.609061
vt 0.426624 0.605357
vt 0.449401 0.616586
vt 0.447157 0.619634
vt 0.438422 0.611957
vt 0.460090 0.625820
vt 0.457511 0.628561
vt 0.446445 0.623190
vt 0.469399 0.634321
vt 0.468396 0.635187
vt 0.456238 0.631864
vt 0.467782 0.636266
vt 0.035162 0.973811
vt 0.005496 0.973811
vt 0.001887 0.932325
vt 0.025876 0.932624
vt 0.017242 0.886752
vt 0.041955 0.886596
vt 0.075985 0.973811
vt 0.049250 0.933250
vt 0.028191 0.854422
vt 0.033135 0.853485
vt 0.035469 0.849424
vt 0.053880 0.849200
vt 0.064921 0.886755
vt 0.078862 0.998008
vt 0.048207 0.998008
vt 0.034308 0.844439
vt 0.029754 0.842492
vt 0.031021 0.803245
vt 0.055157 0.803245
vt 0.031541 0.754476
vt 0.054638 0.754476
vt 0.024654 0.696787
vt 0.052474 0.696787
vt 0.493486 0.817860
vt 0.498036 0.816446
vt 0.499783 0.825440
vt 0.495212 0.826424
vt 0.508899 0.828497
vt 0.505595 0.827960
vt 0.507004 0.816446
vt 0.511916 0.818306
vt 0.721610 0.851498
vt 0.717230 0.852168
vt 0.714940 0.841594
vt 0.718498 0.839079
vt 0.708143 0.829299
vt 0.710993 0.826185
vt 0.696731 0.820873
vt 0.700170 0.818394
vt 0.687922 0.811022
vt 0.691073 0.807987
vt 0.852327 0.837095
vt 0.812862 0.837095
vt 0.820754 0.790044
vt 0.848574 0.790044
vt 0.767585 0.792786
vt 0.807051 0.792786
vt 0.803298 0.839837
vt 0.775478 0.839837
vn 0.183359 -0.964468 -0.190212
vn 0.183359 -0.964468 -0.190213
vn 0.183359 -0.964468 -0.190212
vn 0.183359 -0.964468 -0.190212
vn -0.226216 -0.954524 -0.194190
vn -0.226216 -0.954524 -0.194190
vn -0.226216 -0.954524 -0.194190
vn -0.226216 -0.954524 -0.194190
vn -0.519086 -0.851617 0.072788
vn -0.519086 -0.851617 0.072788
vn -0.519086 -0.851617 0.072788
vn -0.519086 -0.851617 0.072788
vn -0.520456 -0.719452 0.459906
vn -0.520456 -0.719452 0.459906
vn -0.520456 -0.719452 0.459906
vn -0.520456 -0.719452 0.459906
vn -0.231683 -0.635606 0.736429
vn -0.231683 -0.635606 0.736429
vn -0.231683 -0.635606 0.736429
vn -0.231683 -0.635606 0.736429
vn 0.175198 -0.649063 0.740286
vn 0.175198 -0.649063 0.740286
vn 0.175198 -0.649063 0.740286
vn 0.175198 -0.649063 0.740286
vn 0.460633 -0.753051 0.469821
vn 0.460633 -0.753051 0.469821
vn 0.460633 -0.753051 0.469821
vn 0.460633 -0.753051 0.469821
vn 0.461942 -0.882146 0.091803
vn 0.461942 -0.882146 0.091803
vn 0.461942 -0.882146 0.091803
vn 0.461942 -0.882146 0.091803
vn 0.295652 -0.802002 -0.519020
vn 0.295652 -0.802002 -0.519020
vn 0.295652 -0.802002 -0.519020
vn 0.295652 -0.802002 -0.519020
vn -0.327784 -0.780735 -0.531988
vn -0.327784 -0.780735 -0.531988
vn -0.327784 -0.780735 -0.531988
vn -0.327784 -0.780735 -0.531988
vn -0.773330 -0.622239 -0.121571
vn -0.773330 -0.622239 -0.121571
vn -0.773330 -0.622239 -0.121571
vn -0.773330 -0.622239 -0.121571
vn -0.775431 -0.419657 0.471800
vn -0.775431 -0.419657 0.471800
vn -0.775431 -0.419657 0.471800
vn -0.775431 -0.419657 0.471800
vn -0.332844 -0.293120 0.896268
vn -0.332844 -0.293120 0.896268
vn -0.332844 -0.293120 0.896268
vn -0.332844 -0.293120 0.896268
vn 0.290616 -0.316525 0.902970
vn 0.290616 -0.316525 0.902970
vn 0.290616 -0.316525 0.902970
vn 0.290616 -0.316525 0.902970
vn 0.729553 -0.474643 0.492409
vn 0.729553 -0.474643 0.492409
vn 0.729553 -0.474643 0.492409
vn 0.729553 -0.474643 0.492409
vn 0.731633 -0.675089 -0.094704
vn 0.731633 -0.675089 -0.094704
vn 0.731633 -0.675089 -0.094704
vn 0.731633 -0.675089 -0.094704
vn 0.370420 -0.502264 -0.781358
vn 0.370420 -0.502264 -0.781358
vn 0.370420 -0.502264 -0.781358
vn 0.370420 -0.502264 -0.781358
vn -0.377862 -0.473482 -0.795635
vn -0.377862 -0.473482 -0.795635
vn -0.377862 -0.473482 -0.795635
vn -0.377862 -0.473482 -0.795635
vn -0.910278 -0.281555 -0.303514
vn -0.910278 -0.281555 -0.303514
vn -0.910278 -0.281555 -0.303514
vn -0.910278 -0.281555 -0.303514
vn -0.912793 -0.039135 0.406542
vn -0.912793 -0.039135 0.406542
vn -0.912793 -0.039135 0.406542
vn -0.912793 -0.039135 0.406542
vn -0.383926 0.111109 0.916655
vn -0.383926 0.111109 0.916655
vn -0.383926 0.111109 0.916655
vn -0.383926 0.111109 0.916655
vn 0.364364 0.081224 0.927708
vn 0.364364 0.081224 0.927708
vn 0.364364 0.081224 0.927708
vn 0.364364 0.081224 0.927708
vn 0.893381 -0.110489 0.435503
vn 0.893381 -0.110489 0.435503
vn 0.893381 -0.110489 0.435503
vn 0.893381 -0.110489 0.435503
vn 0.895884 -0.351808 -0.271335
vn 0.895885 -0.351808 -0.271335
vn 0.895884 -0.351808 -0.271335
vn 0.895884 -0.351808 -0.271335
vn 0.383928 -0.111108 -0.916654
vn 0.383928 -0.111108 -0.916654
vn 0.383928 -0.111108 -0.916654
vn 0.383928 -0.111108 -0.916654
vn -0.364365 -0.081226 -0.927707
vn -0.364365 -0.081226 -0.927707
vn -0.364365 -0.081226 -0.927707
vn -0.364365 -0.081226 -0.927707
vn -0.893381 0.110489 -0.435503
vn -0.893381 0.110489 -0.435503
vn -0.893381 0.110489 -0.435503
vn -0.893381 0.110489 -0.435503
vn -0.895885 0.351807 0.271333
vn -0.895885 0.351807 0.271333
vn -0.895885 0.351807 0.271333
vn -0.895885 0.351807 0.271333
vn -0.370419 0.502262 0.781359
vn -0.370419 0.502262 0.781359
vn -0.370419 0.502262 0.781359
vn -0.370419 0.502263 0.781359
vn 0.377861 0.473481 0.795636
vn 0.377861 0.473481 0.795636
vn 0.377861 0.473481 0.795636
vn 0.377861 0.473481 0.795636
vn 0.910278 0.281556 0.303513
vn 0.910278 0.281556 0.303513
vn 0.910278 0.281556 0.303513
vn 0.910278 0.281556 0.303513
vn 0.912792 0.039136 -0.406545
vn 0.912792 0.039136 -0.406544
vn 0.912792 0.039136 -0.406545
vn 0.912792 0.039136 -0.406545
vn 0.332846 0.293117 -0.896268
vn 0.332846 0.293117 -0.896268
vn 0.332846 0.293117 -0.896268
vn 0.332846 0.293117 -0.896268
vn -0.290615 0.316524 -0.902970
vn -0.290615 0.316524 -0.902970
vn -0.290615 0.316524 -0.902970
vn -0.290615 0.316524 -0.902970
vn -0.729554 0.474641 -0.492409
vn -0.729554 0.474641 -0.492409
vn -0.729554 0.474641 -0.492409
vn -0.729554 0.474641 -0.492409
vn -0.731631 0.675091 0.094701
vn -0.731631 0.675091 0.094701
vn -0.731631 0.675091 0.094701
vn -0.731631 0.675091 0.094701
vn -0.295646 0.802008 0.519015
vn -0.295646 0.802008 0.519015
vn -0.295646 0.802008 0.519015
vn -0.295646 0.802008 0.519015
vn 0.327782 0.780739 0.531982
vn 0.327782 0.780739 0.531982
vn 0.327782 0.780739 0.531982
vn 0.327782 0.780739 0.531982
vn 0.773332 0.622236 0.121574
vn 0.773332 0.622236 0.121574
vn 0.773332 0.622236 0.121574
vn 0.773332 0.622236 0.121574
vn 0.775433 0.419654 -0.471799
vn 0.775433 0.419654 -0.471799
vn 0.775433 0.419654 -0.471799
vn 0.775433 0.419654 -0.471799
vn 0.231678 0.635610 -0.736428
vn 0.231678 0.635610 -0.736428
vn 0.231678 0.635610 -0.736428
vn 0.231678 0.635610 -0.736428
vn -0.175191 0.649065 -0.740285
vn -0.175191 0.649065 -0.740285
vn -0.175191 0.649065 -0.740285
vn -0.175191 0.649065 -0.740285
vn -0.461786 0.750991 -0.471982
vn -0.461786 0.750991 -0.471982
vn -0.461786 0.750991 -0.471982
vn -0.461786 0.750991 -0.471982
vn -0.463144 0.881828 -0.088750
vn -0.463144 0.881828 -0.088750
vn -0.463144 0.881828 -0.088750
vn -0.463144 0.881828 -0.088750
vn -0.178483 0.965877 0.187683
vn -0.178483 0.965877 0.187683
vn -0.178483 0.965877 0.187683
vn -0.178483 0.965877 0.187683
vn 0.228375 0.953754 0.195443
vn 0.228375 0.953754 0.195443
vn 0.228375 0.953754 0.195443
vn 0.228375 0.953754 0.195443
vn 0.519086 0.851617 -0.072792
vn 0.519086 0.851617 -0.072792
vn 0.519086 0.851617 -0.072792
vn 0.519086 0.851617 -0.072792
vn 0.520456 0.719451 -0.459908
vn 0.520456 0.719451 -0.459908
vn 0.520456 0.719451 -0.459908
vn 0.520456 0.719451 -0.459908
vn 0.065895 0.913840 -0.400692
vn 0.065895 0.913840 -0.400691
vn 0.065895 0.913840 -0.400691
vn -0.003513 0.916071 -0.401001
vn -0.003513 0.916071 -0.401000
vn -0.003513 0.916071 -0.401001
vn -0.072509 0.929078 -0.362707
vn -0.072509 0.929078 -0.362707
vn -0.072509 0.929078 -0.362707
vn -0.127588 0.957605 -0.258291
vn -0.127588 0.957605 -0.258291
vn -0.127588 0.957605 -0.258292
vn -0.076134 0.994503 -0.071889
vn -0.076134 0.994503 -0.071889
vn -0.076134 0.994503 -0.071889
vn 0.136238 0.988680 -0.062865
vn 0.136238 0.988680 -0.062865
vn 0.136238 0.988680 -0.062865
vn 0.193767 0.948272 -0.251467
vn 0.193767 0.948272 -0.251467
vn 0.193767 0.948272 -0.251467
vn 0.136683 0.922569 -0.360811
vn 0.136683 0.922569 -0.360811
vn 0.136683 0.922569 -0.360811
vn 0.189113 -0.946829 -0.260291
vn 0.189113 -0.946829 -0.260291
vn 0.189113 -0.946829 -0.260291
vn 0.189113 -0.946829 -0.260291
vn -0.000000 -0.946829 -0.321737
vn -0.000000 -0.946829 -0.321737
vn -0.000000 -0.946829 -0.321737
vn -0.000000 -0.946829 -0.321737
vn -0.189113 -0.946829 -0.260291
vn -0.189113 -0.946829 -0.260291
vn -0.189113 -0.946829 -0.260291
vn -0.189113 -0.946829 -0.260291
vn -0.305991 -0.946829 -0.099422
vn -0.305991 -0.946829 -0.099422
vn -0.305991 -0.946829 -0.099422
vn -0.305991 -0.946829 -0.099422
vn -0.305991 -0.946829 0.099422
vn -0.305991 -0.946829 0.099422
vn -0.305991 -0.946829 0.099422
vn -0.305991 -0.946829 0.099422
vn -0.189113 -0.946829 0.260292
vn -0.189113 -0.946829 0.260292
vn -0.189113 -0.946829 0.260292
vn -0.189113 -0.946829 0.260292
vn 0.000000 -0.946829 0.321738
vn 0.000000 -0.946829 0.321738
vn 0.000000 -0.946829 0.321738
vn 0.000000 -0.946829 0.321738
vn 0.189113 -0.946829 0.260291
vn 0.189113 -0.946829 0.260291
vn 0.189113 -0.946829 0.260291
vn 0.189113 -0.946829 0.260291
vn 0.305991 -0.946829 0.099422
vn 0.305991 -0.946829 0.099422
vn 0.305991 -0.946829 0.099422
vn 0.305991 -0.946829 0.099422
vn 0.305991 -0.946829 -0.099422
vn 0.305991 -0.946829 -0.099422
vn 0.305991 -0.946829 -0.099422
vn 0.305991 -0.946829 -0.099422
vn 0.468829 -0.603161 -0.645287
vn 0.468830 -0.603161 -0.645287
vn 0.468829 -0.603161 -0.645287
vn 0.468830 -0.603161 -0.645287
vn -0.000000 -0.603162 -0.797619
vn -0.000000 -0.603162 -0.797619
vn -0.000000 -0.603162 -0.797619
vn -0.000000 -0.603162 -0.797619
vn -0.468829 -0.603161 -0.645288
vn -0.468829 -0.603161 -0.645288
vn -0.468829 -0.603161 -0.645288
vn -0.468829 -0.603161 -0.645288
vn -0.758581 -0.603162 -0.246477
vn -0.758581 -0.603162 -0.246477
vn -0.758581 -0.603162 -0.246477
vn -0.758581 -0.603162 -0.246477
vn -0.758581 -0.603162 0.246478
vn -0.758581 -0.603162 0.246478
vn -0.758581 -0.603162 0.246478
vn -0.758581 -0.603162 0.246478
vn -0.468829 -0.603161 0.645287
vn -0.468829 -0.603161 0.645287
vn -0.468829 -0.603161 0.645287
vn -0.468829 -0.603161 0.645287
vn -0.000000 -0.603162 0.797619
vn -0.000000 -0.603162 0.797619
vn -0.000000 -0.603162 0.797619
vn -0.000000 -0.603162 0.797619
vn 0.468829 -0.603162 0.645287
vn 0.468829 -0.603162 0.645287
vn 0.468829 -0.603162 0.645287
vn 0.468829 -0.603162 0.645287
vn 0.758581 -0.603162 0.246477
vn 0.758581 -0.603162 0.246477
vn 0.758581 -0.603162 0.246477
vn 0.758581 -0.603162 0.246477
vn 0.758581 -0.603162 -0.246477
vn 0.758581 -0.603162 -0.246477
vn 0.758581 -0.603162 -0.246477
vn 0.758581 -0.603162 -0.246477
vn 0.577732 -0.184163 -0.795179
vn 0.577732 -0.184163 -0.795179
vn 0.577732 -0.184163 -0.795179
vn 0.577732 -0.184163 -0.795179
vn -0.000001 -0.184162 -0.982896
vn -0.000001 -0.184162 -0.982896
vn -0.000001 -0.184162 -0.982896
vn -0.000001 -0.184162 -0.982896
vn -0.577732 -0.184162 -0.795179
vn -0.577732 -0.184162 -0.795179
vn -0.577732 -0.184162 -0.795179
vn -0.577732 -0.184162 -0.795179
vn -0.934789 -0.184163 -0.303732
vn -0.934789 -0.184163 -0.303732
vn -0.934789 -0.184163 -0.303732
vn -0.934789 -0.184163 -0.303732
vn -0.934789 -0.184163 0.303733
vn -0.934789 -0.184163 0.303733
vn -0.934789 -0.184163 0.303733
vn -0.934789 -0.184163 0.303733
vn -0.577732 -0.184162 0.795179
vn -0.577732 -0.184162 0.795179
vn -0.577732 -0.184162 0.795179
vn -0.577732 -0.184162 0.795179
vn -0.000000 -0.184163 0.982896
vn -0.000000 -0.184163 0.982896
vn -0.000000 -0.184163 0.982896
vn -0.000000 -0.184163 0.982896
vn 0.577732 -0.184162 0.795179
vn 0.577732 -0.184162 0.795179
vn 0.577732 -0.184162 0.795179
vn 0.577732 -0.184162 0.795179
vn 0.934789 -0.184164 0.303732
vn 0.934789 -0.184164 0.303732
vn 0.934789 -0.184164 0.303732
vn 0.934789 -0.184164 0.303732
vn 0.934789 -0.184165 -0.303732
vn 0.934789 -0.184165 -0.303732
vn 0.934789 -0.184165 -0.303732
vn 0.934789 -0.184165 -0.303732
vn 0.577732 0.184163 -0.795179
vn 0.577732 0.184163 -0.795179
vn 0.577732 0.184163 -0.795179
vn 0.577732 0.184163 -0.795179
vn -0.000001 0.184162 -0.982896
vn -0.000001 0.184162 -0.982896
vn -0.000001 0.184162 -0.982896
vn -0.000001 0.184162 -0.982896
vn -0.577732 0.184162 -0.795179
vn -0.577732 0.184162 -0.795179
vn -0.577732 0.184162 -0.795179
vn -0.577732 0.184162 -0.795179
vn -0.934789 0.184163 -0.303732
vn -0.934789 0.184163 -0.303732
vn -0.934789 0.184163 -0.303732
vn -0.934789 0.184163 -0.303732
vn -0.934789 0.184163 0.303733
vn -0.934789 0.184163 0.303733
vn -0.934789 0.184163 0.303733
vn -0.934789 0.184163 0.303733
vn -0.577732 0.184162 0.795179
vn -0.577732 0.184162 0.795179
vn -0.577732 0.184162 0.795179
vn -0.577732 0.184162 0.795179
vn -0.000000 0.184163 0.982896
vn -0.000000 0.184163 0.982896
vn -0.000000 0.184163 0.982896
vn -0.000000 0.184163 0.982896
vn 0.577732 0.184162 0.795179
vn 0.577732 0.184162 0.795179
vn 0.577732 0.184162 0.795179
vn 0.577732 0.184162 0.795179
vn 0.934789 0.184164 0.303732
vn 0.934789 0.184164 0.303732
vn 0.934789 0.184164 0.303732
vn 0.934789 0.184164 0.303732
vn 0.934789 0.184165 -0.303732
vn 0.934789 0.184165 -0.303732
vn 0.934789 0.184165 -0.303732
vn 0.934789 0.184165 -0.303732
vn 0.503407 0.516236 -0.692879
vn 0.503407 0.516236 -0.692879
vn 0.503407 0.516236 -0.692879
vn 0.503407 0.516236 -0.692879
vn -0.000000 0.516236 -0.856446
vn -0.000000 0.516236 -0.856446
vn -0.000000 0.516236 -0.856446
vn -0.000000 0.516236 -0.856446
vn -0.503407 0.516236 -0.692880
vn -0.503407 0.516236 -0.692880
vn -0.503407 0.516236 -0.692880
vn -0.503407 0.516236 -0.692880
vn -0.814528 0.516237 -0.264656
vn -0.814528 0.516237 -0.264656
vn -0.814528 0.516237 -0.264656
vn -0.814528 0.516237 -0.264656
vn -0.814528 0.516237 0.264656
vn -0.814528 0.516237 0.264656
vn -0.814528 0.516237 0.264656
vn -0.814528 0.516237 0.264656
vn -0.503406 0.516236 0.692880
vn -0.503406 0.516236 0.692880
vn -0.503406 0.516236 0.692880
vn -0.503406 0.516236 0.692880
vn -0.000000 0.516237 0.856445
vn -0.000000 0.516237 0.856445
vn -0.000000 0.516238 0.856446
vn -0.000000 0.516237 0.856445
vn 0.503406 0.516236 0.692880
vn 0.503406 0.516237 0.692879
vn 0.503406 0.516237 0.692879
vn 0.503406 0.516237 0.692879
vn 0.814528 0.516237 0.264655
vn 0.814529 0.516237 0.264655
vn 0.814529 0.516237 0.264655
vn 0.814528 0.516237 0.264655
vn 0.814529 0.516237 -0.264655
vn 0.814529 0.516237 -0.264655
vn 0.814529 0.516237 -0.264655
vn 0.814529 0.516237 -0.264655
vn 0.379455 0.763704 -0.522274
vn 0.379455 0.763704 -0.522274
vn 0.379455 0.763704 -0.522274
vn 0.379455 0.763704 -0.522274
vn -0.000000 0.763704 -0.645566
vn -0.000000 0.763705 -0.645566
vn -0.000000 0.763705 -0.645566
vn -0.000000 0.763704 -0.645566
vn -0.379455 0.763704 -0.522274
vn -0.379455 0.763704 -0.522274
vn -0.379455 0.763704 -0.522274
vn -0.379455 0.763704 -0.522274
vn -0.613972 0.763703 -0.199490
vn -0.613972 0.763703 -0.199490
vn -0.613972 0.763703 -0.199490
vn -0.613972 0.763703 -0.199490
vn -0.613972 0.763703 0.199490
vn -0.613972 0.763703 0.199490
vn -0.613972 0.763703 0.199490
vn -0.613972 0.763703 0.199490
vn -0.379455 0.763704 0.522275
vn -0.379455 0.763704 0.522275
vn -0.379455 0.763704 0.522275
vn -0.379455 0.763704 0.522275
vn 0.000000 0.763703 0.645568
vn 0.000000 0.763703 0.645568
vn 0.000000 0.763703 0.645568
vn 0.000000 0.763703 0.645568
vn 0.379455 0.763703 0.522275
vn 0.379455 0.763703 0.522275
vn 0.379455 0.763703 0.522275
vn 0.379455 0.763703 0.522275
vn 0.613971 0.763703 0.199491
vn 0.613971 0.763703 0.199491
vn 0.613971 0.763703 0.199491
vn 0.613971 0.763703 0.199491
vn 0.613971 0.763703 -0.199491
vn 0.613971 0.763703 -0.199491
vn 0.613971 0.763703 -0.199491
vn 0.613971 0.763703 -0.199491
vn 0.232514 0.918432 -0.320030
vn 0.232514 0.918432 -0.320030
vn 0.232514 0.918432 -0.320030
vn 0.232514 0.918432 -0.320030
vn -0.000000 0.918433 -0.395577
vn -0.000000 0.918433 -0.395577
vn -0.000000 0.918433 -0.395577
vn -0.000000 0.918433 -0.395577
vn -0.232514 0.918432 -0.320030
vn -0.232514 0.918432 -0.320030
vn -0.232514 0.918432 -0.320030
vn -0.232514 0.918432 -0.320030
vn -0.376216 0.918433 -0.122239
vn -0.376216 0.918433 -0.122239
vn -0.376216 0.918433 -0.122239
vn -0.376216 0.918433 -0.122239
vn -0.376216 0.918433 0.122240
vn -0.376216 0.918433 0.122240
vn -0.376216 0.918433 0.122240
vn -0.376216 0.918433 0.122240
vn -0.232514 0.918433 0.320029
vn -0.232514 0.918433 0.320029
vn -0.232514 0.918433 0.320029
vn -0.232514 0.918433 0.320029
vn 0.000000 0.918433 0.395577
vn 0.000000 0.918433 0.395577
vn 0.000000 0.918433 0.395577
vn 0.000000 0.918433 0.395577
vn 0.232514 0.918433 0.320029
vn 0.232514 0.918433 0.320029
vn 0.232514 0.918433 0.320029
vn 0.232514 0.918433 0.320029
vn 0.376217 0.918433 0.122239
vn 0.376217 0.918433 0.122239
vn 0.376217 0.918433 0.122239
vn 0.376217 0.918433 0.122239
vn 0.376216 0.918433 -0.122239
vn 0.376217 0.918433 -0.122239
vn 0.376216 0.918433 -0.122239
vn 0.376216 0.918433 -0.122239
vn 0.077999 0.991156 -0.107359
vn 0.077999 0.991156 -0.107359
vn 0.077999 0.991156 -0.107359
vn -0.000000 0.991157 -0.132699
vn -0.000000 0.991157 -0.132699
vn -0.000000 0.991156 -0.132699
vn -0.077999 0.991156 -0.107357
vn -0.077999 0.991156 -0.107357
vn -0.077999 0.991156 -0.107357
vn -0.126205 0.991156 -0.041006
vn -0.126205 0.991156 -0.041006
vn -0.126205 0.991156 -0.041006
vn -0.126205 0.991156 0.041006
vn -0.126205 0.991156 0.041006
vn -0.126205 0.991156 0.041006
vn -0.077999 0.991157 0.107355
vn -0.077999 0.991156 0.107355
vn -0.077999 0.991157 0.107355
vn 0.000000 0.991156 0.132700
vn 0.000000 0.991156 0.132700
vn 0.000000 0.991156 0.132700
vn 0.077999 0.991156 0.107358
vn 0.077999 0.991156 0.107358
vn 0.077999 0.991156 0.107358
vn 0.126205 0.991156 0.041006
vn 0.126205 0.991156 0.041006
vn 0.126205 0.991156 0.041006
vn 0.126205 0.991156 -0.041006
vn 0.126205 0.991156 -0.041006
vn 0.126205 0.991156 -0.041006
vn 0.554894 0.138331 -0.820340
vn 0.554894 0.138331 -0.820340
vn 0.489118 0.231575 -0.840914
vn 0.494087 0.224948 -0.839808
vn -0.045852 0.773355 -0.632313
vn -0.045852 0.773355 -0.632313
vn -0.044623 0.795728 -0.604008
vn -0.044641 0.795417 -0.604416
vn -0.359152 0.732698 -0.578069
vn -0.359152 0.732698 -0.578069
vn -0.335407 0.770626 -0.541884
vn -0.344189 0.757099 -0.555279
vn -0.987499 0.127232 0.093052
vn -0.987499 0.127232 0.093052
vn -0.959912 0.279233 -0.024465
vn -0.962355 0.271194 -0.018064
vn -0.944465 -0.198121 -0.262170
vn -0.865609 -0.304431 -0.397547
vn -0.904035 0.128640 -0.407643
vn -0.950876 0.099920 -0.293002
vn -0.130566 -0.973221 0.189189
vn -0.130566 -0.973221 0.189189
vn -0.169933 -0.953984 0.247057
vn -0.170132 -0.953873 0.247348
vn 0.159494 -0.183361 0.970021
vn 0.159494 -0.183361 0.970021
vn 0.183125 0.136294 0.973596
vn 0.181314 0.099204 0.978409
vn 0.068666 -0.988048 0.138009
vn 0.068666 -0.988048 0.138010
vn 0.101973 -0.976881 0.187897
vn 0.100768 -0.977351 0.186094
vn 0.847528 0.060928 0.527242
vn 0.847528 0.060928 0.527242
vn 0.846777 0.118489 0.518584
vn 0.846235 0.130932 0.516472
vn 0.941903 0.138407 -0.306043
vn 0.941903 0.138407 -0.306043
vn 0.941903 0.138407 -0.306043
vn 0.941903 0.138407 -0.306043
vn -0.002636 -0.998929 -0.046189
vn 0.000000 -1.000000 0.000000
vn 0.000000 -1.000000 0.000000
vn -0.019025 -0.997834 -0.062970
vn -0.027512 -0.998455 -0.048286
vn 0.000000 -1.000000 0.000000
vn 0.006831 -0.999909 -0.011625
vn 0.005375 -0.999944 -0.009147
vn 0.009367 -0.999881 0.012276
vn 0.009867 -0.999868 0.012930
vn 0.000000 -1.000000 0.000000
vn 0.879478 0.257336 -0.400371
vn 0.866030 0.277567 -0.415870
vn 0.826613 0.056387 -0.559939
vn 0.829399 0.107802 -0.548157
vn 0.880902 0.228854 0.414292
vn 0.876472 0.219297 0.428608
vn 0.977540 0.046179 0.205628
vn 0.966530 0.098392 0.236936
vn 0.600671 0.316682 0.734103
vn 0.600671 0.316682 0.734103
vn 0.685058 -0.008691 0.728437
vn 0.667170 0.092556 0.739133
vn 0.185885 0.325064 0.927243
vn 0.183636 0.375408 0.908486
vn 0.185278 0.182755 0.965543
vn 0.184879 0.287419 0.939793
vn -0.350511 0.671232 0.653138
vn -0.350511 0.671232 0.653138
vn -0.354202 0.387442 0.851134
vn -0.357898 0.505565 0.785056
vn -0.894081 0.431845 -0.118866
vn -0.879889 0.426085 -0.210348
vn -0.870604 0.418911 0.257998
vn -0.869211 0.446519 0.212353
vn -0.939885 0.308900 -0.145588
vn -0.940760 0.304747 -0.148662
vn -0.956293 0.266428 -0.120497
vn -0.955618 0.266166 -0.126292
vn -0.665284 0.236285 -0.708214
vn -0.665284 0.236285 -0.708214
vn -0.706643 0.221517 -0.672002
vn -0.707130 0.221333 -0.671550
vn -0.121733 0.187201 -0.974750
vn -0.121733 0.187201 -0.974750
vn -0.176397 0.125732 -0.976256
vn -0.180301 0.121257 -0.976109
vn 0.415663 0.236103 -0.878339
vn 0.399049 0.216816 -0.890927
vn 0.377626 0.055749 -0.924278
vn 0.377485 0.061345 -0.923982
vn 0.421366 -0.086026 -0.902801
vn 0.444887 -0.069722 -0.892868
vn -0.188802 0.050368 -0.980723
vn -0.159905 0.046153 -0.986053
vn -0.720831 0.169395 -0.672092
vn -0.706974 0.151413 -0.690842
vn -0.968403 0.217014 -0.122888
vn -0.969483 0.202818 -0.137725
vn -0.864270 0.184878 0.467823
vn -0.866716 0.181826 0.464481
vn -0.387171 0.086989 0.917895
vn -0.382632 0.089177 0.919587
vn 0.114477 -0.030452 0.992959
vn 0.120649 -0.030743 0.992219
vn 0.686657 -0.117023 0.717501
vn 0.686606 -0.116816 0.717584
vn 0.983034 -0.130744 0.128651
vn 0.982597 -0.125757 0.136703
vn 0.836822 -0.140910 -0.529031
vn 0.852355 -0.128812 -0.506851
vn 0.545451 -0.017019 -0.837970
vn 0.554035 -0.014655 -0.832364
vn -0.961775 0.089424 -0.258830
vn -0.960264 0.082496 -0.266624
vn -0.931033 0.084395 0.355043
vn -0.933130 0.080386 0.350439
vn -0.527809 0.042351 0.848307
vn -0.530481 0.041935 0.846659
vn 0.020544 -0.005481 0.999774
vn 0.019737 -0.004724 0.999794
vn 0.627138 -0.024769 0.778515
vn 0.624949 -0.023639 0.780308
vn 0.964016 -0.047781 0.261515
vn 0.962767 -0.044585 0.266631
vn 0.933196 -0.045293 -0.356502
vn 0.936192 -0.040839 -0.349109
vn 0.587730 0.013831 -0.808939
vn 0.587727 0.014145 -0.808936
vn -0.950349 0.038574 -0.308787
vn -0.950350 0.038537 -0.308787
vn -0.950350 0.038537 0.308787
vn -0.950349 0.038574 0.308787
vn -0.587470 0.032760 0.808583
vn -0.587470 0.032760 0.808583
vn 0.000001 0.023474 0.999724
vn 0.000001 0.023280 0.999729
vn 0.519410 0.704362 0.483827
vn 0.519410 0.704362 0.483827
vn 0.519410 0.704362 0.483827
vn 0.519410 0.704362 0.483827
vn 0.519410 0.704362 0.483827
vn 0.519410 0.704362 0.483827
vn 0.519410 0.704362 0.483827
vn 0.519410 0.704362 0.483827
vn 0.951025 0.008103 -0.309006
vn 0.951024 0.008261 -0.309006
vn 0.587487 -0.031929 -0.808604
vn 0.587526 -0.029764 -0.808658
vn -0.000625 0.023536 -0.999723
vn -0.000638 0.023354 -0.999727
vn -0.000002 -0.058662 -0.998278
vn -0.000002 -0.054921 -0.998491
vn -0.586225 0.032446 -0.809499
vn -0.586205 0.032441 -0.809513
vn -0.585679 -0.084586 -0.806117
vn -0.585867 -0.080725 -0.806376
vn -0.946344 -0.099424 -0.307486
vn -0.946501 -0.097759 -0.307537
vn -0.946501 -0.097759 0.307536
vn -0.946344 -0.099424 0.307485
vn -0.585867 -0.080726 0.806377
vn -0.585678 -0.084586 0.806118
vn 0.000001 -0.054921 0.998491
vn 0.000001 -0.058662 0.998278
vn 0.950949 -0.015090 -0.308981
vn 0.950957 -0.014470 -0.308984
vn 0.585920 -0.079631 -0.806447
vn 0.585920 -0.079631 -0.806447
vn -0.000003 -0.125005 -0.992156
vn -0.000003 -0.125005 -0.992156
vn -0.579270 -0.169609 -0.797295
vn -0.579270 -0.169609 -0.797295
vn -0.932480 -0.196681 -0.302981
vn -0.932480 -0.196681 -0.302981
vn -0.932480 -0.196681 0.302981
vn -0.932480 -0.196681 0.302981
vn -0.579268 -0.169609 0.797296
vn -0.579268 -0.169609 0.797296
vn 0.000001 -0.125005 0.992156
vn 0.000001 -0.125005 0.992156
vn 0.588902 -0.032842 0.807537
vn 0.589006 -0.030721 0.807544
vn 0.585918 -0.079631 0.806448
vn 0.585918 -0.079631 0.806448
vn 0.950380 -0.015861 0.310686
vn 0.950380 -0.015227 0.310719
vn 0.949803 -0.051320 0.308610
vn 0.949803 -0.051320 0.308610
vn 0.949804 -0.051320 -0.308609
vn 0.949804 -0.051320 -0.308609
vn 0.009216 -0.999928 0.007702
vn 0.010216 -0.999905 0.009257
vn 0.900054 -0.172320 -0.400260
vn 0.892018 0.168117 -0.419571
vn 0.916925 0.133682 -0.376003
vn 0.836994 -0.325146 -0.440138
vn 0.232836 0.918197 0.320471
vn 0.232836 0.918197 0.320471
vn 0.267143 0.886343 0.378194
vn 0.268680 0.884766 0.380790
vn -0.544458 0.179342 0.819391
vn -0.524349 0.197597 0.828260
vn -0.536224 -0.078966 0.840374
vn -0.601412 -0.160640 0.782623
vn -0.025179 -0.995499 -0.091363
vn -0.005334 -0.995607 -0.093478
vn -0.112436 0.919580 -0.376472
vn -0.018581 0.907566 -0.419499
vn -0.018581 0.907566 -0.419499
vn -0.132592 0.920873 -0.366623
vn 0.929838 0.256594 -0.263744
vn 0.919749 0.299057 -0.254220
vn 0.938470 0.211245 -0.273220
vn 0.938470 0.211245 -0.273220
vn -0.050489 -0.994786 -0.088611
vn -0.984586 0.026751 0.172846
vn -0.948263 0.109088 0.298156
vn -0.970535 0.065319 0.231936
vn -0.984586 0.026751 0.172846
vn -0.214404 0.921311 -0.324373
vn -0.214404 0.921311 -0.324373
vn 0.831428 0.379225 -0.406099
vn 0.850409 0.379605 -0.364286
vn 0.135514 -0.961765 0.238002
vn 0.135514 -0.961765 0.238002
vn -0.491925 0.383302 0.781722
vn -0.495711 0.375522 0.783105
vn -0.196621 -0.937750 0.286295
vn -0.196621 -0.937750 0.286295
vn -0.841847 0.236370 0.485204
vn -0.841847 0.236370 0.485204
vn -0.314596 0.800523 -0.510091
vn -0.314596 0.800523 -0.510091
vn -0.042966 0.822832 -0.566657
vn -0.042966 0.822832 -0.566657
vn 0.872003 0.438149 -0.218258
vn 0.872003 0.438149 -0.218258
vn -0.084276 -0.986906 -0.137531
vn -0.084276 -0.986906 -0.137531
vn 0.631165 -0.608170 -0.481415
vn 0.631165 -0.608170 -0.481415
vn -0.706833 -0.318741 0.631499
vn -0.706833 -0.318741 0.631499
vn 0.913387 0.371346 -0.166810
vn 0.913387 0.371346 -0.166810
vn 0.322250 0.820693 0.471824
vn 0.322250 0.820693 0.471824
vn -0.512159 0.340424 0.788546
vn -0.512159 0.340424 0.788546
vn 0.157782 -0.959678 -0.232643
vn 0.169966 -0.953170 -0.250157
vn 0.698386 -0.497373 0.514662
vn 0.698386 -0.497373 0.514662
vn 0.718807 -0.528220 0.451995
vn 0.719169 -0.528796 0.450744
vn -0.594852 -0.519904 -0.613067
vn -0.590435 -0.526629 -0.611595
vn 0.646262 0.382103 0.660563
vn 0.646262 0.382103 0.660563
vn 0.565764 0.257460 0.783342
vn 0.564276 0.255346 0.785106
vn -0.172103 0.954137 0.244954
vn -0.172103 0.954137 0.244954
vn -0.329088 0.819311 0.469501
vn -0.324210 0.825204 0.462522
vn -0.906646 0.295466 -0.301154
vn -0.891385 0.314616 -0.326267
vn -0.560443 -0.569921 -0.600911
vn -0.560443 -0.569921 -0.600911
vn -0.989568 0.121566 -0.077309
vn -0.989568 0.121566 -0.077309
vn -0.480077 0.547208 0.685631
vn -0.480077 0.547208 0.685631
vn 0.430749 0.082435 0.898699
vn 0.430749 0.082435 0.898699
vn 0.738144 -0.561277 0.374315
vn 0.738144 -0.561277 0.374315
vn 0.337830 -0.802931 -0.491093
vn 0.337830 -0.802931 -0.491093
vn -0.094570 0.036548 -0.994847
vn -0.094570 0.036548 -0.994847
vn -0.047104 0.024905 -0.998580
vn -0.037564 0.022561 -0.999040
vn -0.627422 0.067711 -0.775730
vn -0.622912 0.063839 -0.779683
vn -0.667011 0.102803 -0.737921
vn -0.667011 0.102803 -0.737921
vn -0.584904 0.032108 -0.810467
vn -0.584904 0.032108 -0.810467
vn -0.001294 0.013638 -0.999906
vn -0.001294 0.013638 -0.999906
vn 0.844325 -0.477529 -0.243067
vn 0.844325 -0.477529 -0.243067
vn 0.842646 -0.484358 -0.235256
vn 0.841953 -0.487057 -0.232143
vn 0.174363 -0.876630 -0.448461
vn -0.195158 -0.874753 -0.443533
vn -0.065161 -0.928053 -0.366703
vn 0.161156 -0.910547 -0.380700
vn -0.517694 -0.764580 -0.383941
vn -0.428133 -0.836411 -0.342227
vn -0.990252 -0.125185 -0.061071
vn -0.998870 0.042315 0.021657
vn -0.989373 0.116735 0.086688
vn -0.990360 -0.137514 -0.016631
vn -0.930606 0.327901 0.162645
vn -0.932490 0.324063 0.159520
vn -0.185762 0.877069 0.442992
vn -0.185762 0.877069 0.442992
vn -0.337144 0.876884 0.342649
vn -0.263838 0.880613 0.393588
vn 0.366668 0.828369 0.423508
vn 0.366668 0.828369 0.423508
vn 0.382088 0.854617 0.351622
vn 0.384962 0.859356 0.336618
vn 0.967722 0.224341 0.114831
vn 0.967722 0.224341 0.114831
vn 0.972226 0.224285 0.066876
vn 0.973753 0.224029 0.040196
vn 0.983879 0.030085 0.176286
vn 0.983527 0.039826 0.176319
vn 0.983691 -0.039062 0.175575
vn 0.983691 -0.039062 0.175575
vn 0.424389 0.472469 0.772442
vn 0.424217 0.469768 0.774182
vn 0.417588 0.391929 0.819764
vn 0.417588 0.391929 0.819764
vn -0.393614 0.548074 0.738026
vn -0.394742 0.541343 0.742379
vn -0.399392 0.511351 0.760925
vn -0.399392 0.511351 0.760925
vn -0.989015 0.129192 0.071828
vn -0.932145 0.260331 0.251661
vn -0.925669 0.289530 0.243535
vn -0.984745 0.168199 0.044563
vn -0.993611 0.001693 -0.112846
vn -0.990130 0.056255 -0.128363
vn -0.058327 -0.590623 -0.804837
vn -0.378536 -0.524009 -0.762971
vn -0.416607 -0.464868 -0.781240
vn 0.038222 -0.574320 -0.817738
vn 0.260517 -0.600517 -0.755983
vn 0.393822 -0.571982 -0.719542
vn 0.854561 -0.332290 -0.399136
vn 0.853507 -0.333784 -0.400143
vn 0.862896 -0.320228 -0.390980
vn 0.862895 -0.320228 -0.390980
vn 0.982514 0.146619 0.114756
vn 0.982503 0.153575 0.105367
vn 0.435136 0.639744 0.633549
vn 0.435183 0.641041 0.632204
vn -0.389884 0.648571 0.653717
vn -0.390155 0.630106 0.671375
vn -0.989401 0.078836 0.121944
vn -0.933898 0.232373 0.271730
vn -0.994549 -0.090061 -0.052552
vn -0.059342 -0.697473 -0.714150
vn -0.333530 -0.682134 -0.650731
vn 0.144313 -0.691822 -0.707500
vn 0.842255 -0.360026 -0.401233
vn 0.841834 -0.362055 -0.400290
vn 0.978239 0.205133 0.031129
vn 0.978702 0.202154 0.035723
vn 0.422177 0.805995 0.414896
vn 0.423051 0.802024 0.421646
vn -0.399837 0.804201 0.439763
vn -0.398888 0.777098 0.486835
vn -0.991761 0.059332 0.113536
vn -0.934690 0.282383 0.215904
vn -0.991171 -0.132558 0.003026
vn -0.041660 -0.870707 -0.490034
vn -0.309944 -0.872288 -0.378217
vn 0.149291 -0.872804 -0.464677
vn 0.844699 -0.445524 -0.296636
vn 0.844779 -0.435010 -0.311632
vn 0.588289 -0.005108 0.808635
vn 0.588289 -0.005108 0.808635
vn 0.589714 0.013799 0.807495
vn 0.589698 0.013579 0.807510
vn 0.950039 0.008088 0.312027
vn 0.950047 0.007678 0.312012
vn 0.950274 -0.016545 0.310977
vn 0.950274 -0.016545 0.310977
vn 0.949249 0.032198 0.312872
vn 0.949249 0.032198 0.312872
vn 0.590896 0.032199 0.806105
vn 0.590896 0.032199 0.806105
vn -0.451945 -0.345440 0.822446
vn -0.451945 -0.345440 0.822446
vn -0.410263 -0.340548 0.845998
vn -0.422475 -0.342051 0.839355
vn 0.039731 -0.931443 0.361712
vn 0.039731 -0.931443 0.361712
vn 0.150607 -0.898401 0.412546
vn 0.121822 -0.908436 0.399879
vn 0.349781 -0.931015 -0.104233
vn 0.349781 -0.931015 -0.104233
vn 0.423035 -0.904268 -0.057799
vn 0.456840 -0.888843 -0.035421
vn 0.576409 -0.384627 -0.720982
vn 0.576409 -0.384627 -0.720982
vn 0.612233 -0.375560 -0.695791
vn 0.628828 -0.370988 -0.683333
vn 0.461179 0.347901 -0.816259
vn 0.461179 0.347901 -0.816259
vn 0.424237 0.340417 -0.839130
vn 0.415621 0.338602 -0.844161
vn 0.037279 0.928429 -0.369636
vn -0.160943 0.983391 -0.083901
vn -0.280416 0.945872 -0.163378
vn -0.062359 0.901965 -0.427284
vn -0.330608 0.923018 0.196816
vn -0.437059 0.888360 0.140699
vn -0.569949 0.334464 0.750528
vn -0.569949 0.334464 0.750528
vn -0.613875 0.322277 0.720621
vn -0.603487 0.325293 0.728003
vn -0.638514 0.329579 0.695469
vn -0.627670 0.338192 0.701182
vn -0.479656 0.439695 0.759341
vn -0.479656 0.439695 0.759341
vn -0.406360 0.879483 -0.247752
vn -0.586533 0.809138 0.035718
vn -0.419252 0.887135 0.192925
vn -0.233269 0.965336 -0.117097
vn -0.208746 0.839370 -0.501880
vn -0.043117 0.925230 -0.376949
vn 0.437073 0.368734 -0.820368
vn 0.426453 0.357270 -0.830961
vn 0.533792 0.475132 -0.699511
vn 0.533792 0.475133 -0.699511
vn 0.776950 -0.275606 -0.566030
vn 0.767941 -0.286220 -0.573014
vn 0.854738 -0.168799 -0.490847
vn 0.854738 -0.168799 -0.490846
vn 0.633221 -0.759230 0.150335
vn 0.636364 -0.755763 0.154478
vn 0.687951 -0.689364 0.226939
vn 0.687951 -0.689364 0.226939
vn 0.332008 -0.756656 0.563242
vn 0.342041 -0.747741 0.569115
vn 0.416807 -0.673723 0.610220
vn 0.416807 -0.673723 0.610220
vn -0.312171 -0.258277 0.914244
vn -0.303874 -0.250025 0.919319
vn -0.191929 -0.139463 0.971449
vn -0.191929 -0.139463 0.971449
vn -0.735042 0.247165 0.631366
vn -0.743970 0.239453 0.623835
vn -0.550416 0.752495 -0.361654
vn -0.714018 0.691307 -0.110782
vn -0.367706 0.717919 -0.591088
vn 0.348894 0.284954 -0.892790
vn 0.354180 0.288106 -0.889692
vn 0.762351 -0.292531 -0.577275
vn 0.755451 -0.300367 -0.582300
vn 0.684136 -0.713347 0.151971
vn 0.677762 -0.720038 0.148941
vn 0.355617 -0.716669 0.599935
vn 0.352684 -0.720463 0.597116
vn -0.347738 -0.295122 0.889933
vn -0.342158 -0.290004 0.893770
vn -0.703820 0.270451 0.656882
vn -0.713410 0.263069 0.649493
vn -0.500733 0.801847 -0.326050
vn -0.642177 0.766115 -0.026014
vn -0.286537 0.785222 -0.548928
vn 0.356433 0.302310 -0.884061
vn 0.360343 0.306571 -0.881004
vn 0.734155 -0.306793 -0.605718
vn 0.717100 -0.320369 -0.618976
vn 0.651074 -0.752421 0.099822
vn 0.627578 -0.774174 0.082472
vn 0.309913 -0.785613 0.535506
vn 0.329422 -0.761473 0.558247
vn -0.355805 -0.310663 0.881414
vn -0.350956 -0.305043 0.885313
vn -0.559478 -0.306594 0.770055
vn -0.559478 -0.306594 0.770055
vn -0.559478 -0.306594 0.770055
vn -0.559478 -0.306594 0.770055
vn -0.904099 -0.310340 0.293758
vn -0.904099 -0.310340 0.293758
vn -0.904099 -0.310340 0.293758
vn -0.904099 -0.310340 0.293758
vn -0.897217 -0.331686 -0.291523
vn -0.897217 -0.331686 -0.291523
vn -0.897217 -0.331686 -0.291523
vn -0.897217 -0.331686 -0.291523
vn -0.548001 -0.361645 -0.754260
vn -0.548001 -0.361645 -0.754260
vn -0.548001 -0.361645 -0.754260
vn -0.548001 -0.361645 -0.754260
vn -0.000000 -0.388424 -0.921481
vn -0.000000 -0.388424 -0.921481
vn -0.000000 -0.388424 -0.921481
vn -0.000000 -0.388424 -0.921481
vn 0.538085 -0.402441 -0.740612
vn 0.538085 -0.402441 -0.740612
vn 0.538085 -0.402441 -0.740612
vn 0.538085 -0.402441 -0.740612
vn 0.872034 -0.399095 -0.283339
vn 0.872034 -0.399095 -0.283339
vn 0.872034 -0.399095 -0.283339
vn 0.872034 -0.399095 -0.283339
vn 0.879927 -0.379457 0.285904
vn 0.879927 -0.379457 0.285904
vn 0.879927 -0.379457 0.285904
vn 0.879927 -0.379457 0.285904
vn 0.550573 -0.350154 0.757801
vn 0.550573 -0.350154 0.757801
vn 0.550573 -0.350154 0.757801
vn 0.550573 -0.350154 0.757801
vn 0.000002 -0.322070 0.946716
vn 0.000002 -0.322069 0.946716
vn 0.000002 -0.322070 0.946716
vn 0.000002 -0.322070 0.946716
vn -0.176250 -0.691458 0.700587
vn -0.176250 -0.691458 0.700587
vn -0.176250 -0.691458 0.700587
vn -0.176250 -0.691458 0.700587
vn -0.395829 -0.807113 0.438051
vn -0.395829 -0.807113 0.438051
vn -0.395829 -0.807113 0.438051
vn -0.395829 -0.807113 0.438051
vn -0.437821 -0.879157 0.188137
vn -0.437821 -0.879157 0.188137
vn -0.437821 -0.879157 0.188137
vn -0.437821 -0.879157 0.188137
vn -0.226706 -0.965783 -0.125969
vn -0.226706 -0.965783 -0.125969
vn -0.226706 -0.965783 -0.125969
vn -0.226706 -0.965783 -0.125969
vn 0.161463 -0.981836 -0.099635
vn 0.161463 -0.981836 -0.099635
vn 0.161463 -0.981836 -0.099635
vn 0.161463 -0.981836 -0.099635
vn 0.324187 -0.929413 0.176338
vn 0.324187 -0.929413 0.176338
vn 0.324187 -0.929413 0.176338
vn 0.324187 -0.929413 0.176338
vn 0.444993 -0.799853 0.402760
vn 0.444993 -0.799853 0.402760
vn 0.444993 -0.799853 0.402760
vn 0.444993 -0.799853 0.402760
vn 0.142122 -0.618485 0.772837
vn 0.142122 -0.618485 0.772837
vn 0.142122 -0.618485 0.772837
vn 0.142122 -0.618485 0.772837
s off
g pasted__pasted__pasted__pSphere1
usemtl initialShadingGroup
f 1/269/1 2/270/2 10/271/3 9/272/4
f 2/270/5 3/275/6 11/276/7 10/271/8
usemtl lambert5SG
f 3/11/9 4/5/10 12/1/11 11/9/12
f 4/5/13 5/6/14 13/2/15 12/1/16
f 5/499/17 6/494/18 14/498/19 13/501/20
f 6/494/21 7/493/22 15/497/23 14/498/24
usemtl initialShadingGroup
f 7/288/25 8/279/26 16/280/27 15/289/28
f 8/279/29 1/269/30 9/272/31 16/280/32
f 9/272/33 10/271/34 18/277/35 17/278/36
f 10/271/37 11/276/38 19/285/39 18/277/40
usemtl lambert5SG
f 11/9/41 12/1/42 20/4/43 19/10/44
f 12/1/45 13/2/46 21/3/47 20/4/48
f 13/504/49 14/505/50 22/506/51 21/507/52
f 14/505/53 15/508/54 23/509/55 22/506/56
f 15/19/57 16/20/58 24/21/59 23/22/60
f 16/20/61 9/23/62 17/24/63 24/21/64
usemtl initialShadingGroup
f 17/278/65 18/277/66 26/286/67 25/287/68
usemtl lambert5SG
f 18/515/69 19/516/70 27/517/71 26/518/72
f 19/10/73 20/4/74 28/8/75 27/14/76
f 20/4/77 21/3/78 29/7/79 28/8/80
f 21/507/81 22/506/82 30/510/83 29/511/84
f 22/506/85 23/509/86 31/512/87 30/510/88
f 23/22/89 24/21/90 32/25/91 31/26/92
f 24/21/93 17/24/94 25/27/95 32/25/96
f 25/523/97 26/518/98 34/520/99 33/524/100
f 26/518/101 27/517/102 35/519/103 34/520/104
f 27/14/105 28/8/106 36/13/107 35/17/108
f 28/8/109 29/7/110 37/12/111 36/13/112
f 29/322/113 30/323/114 38/319/115 37/318/116
f 30/510/117 31/512/118 39/513/119 38/514/120
f 31/26/121 32/25/122 40/28/123 39/29/124
f 32/25/125 25/27/126 33/30/127 40/28/128
f 33/524/129 34/520/130 42/522/131 41/525/132
f 34/520/133 35/519/134 43/521/135 42/522/136
f 35/17/137 36/13/138 44/16/139 43/18/140
f 36/13/141 37/12/142 45/15/143 44/16/144
f 37/318/145 38/319/146 46/314/147 45/309/148
f 38/319/149 39/324/150 47/320/151 46/314/152
f 39/29/153 40/28/154 48/31/155 47/32/156
f 40/28/157 33/30/158 41/33/159 48/31/160
f 41/316/161 42/312/162 50/313/163 49/317/164
f 42/312/165 43/305/166 51/308/167 50/313/168
f 43/305/169 44/306/170 52/307/171 51/308/172
f 44/306/173 45/309/174 53/310/175 52/307/176
f 45/309/177 46/314/178 54/315/179 53/310/180
f 46/314/181 47/320/182 55/321/183 54/315/184
f 47/32/185 48/31/186 56/34/187 55/35/188
f 48/31/189 41/33/190 49/36/191 56/34/192
f 49/317/193 50/313/194 57/311/195
f 50/313/196 51/308/197 57/311/198
f 51/308/199 52/307/200 57/311/201
f 52/307/202 53/310/203 57/311/204
f 53/310/205 54/315/206 57/311/207
f 54/315/208 55/321/209 57/311/210
f 55/321/211 56/325/212 57/311/213
f 56/325/214 49/317/215 57/311/216
f 58/326/217 59/327/218 69/328/219 68/329/220
f 59/327/221 60/330/222 70/331/223 69/328/224
f 60/330/225 61/336/226 71/337/227 70/331/228
f 61/336/229 62/341/230 72/342/231 71/337/232
f 62/341/233 63/346/234 73/347/235 72/342/236
f 63/346/237 64/350/238 74/351/239 73/347/240
f 64/350/241 65/344/242 75/345/243 74/351/244
f 65/344/245 66/339/246 76/340/247 75/345/248
f 66/339/249 67/334/250 77/335/251 76/340/252
f 67/334/253 58/326/254 68/329/255 77/335/256
f 68/329/257 69/328/258 79/332/259 78/333/260
f 69/328/261 70/331/262 80/338/263 79/332/264
f 70/331/265 71/337/266 81/343/267 80/338/268
f 71/41/269 72/42/270 82/38/271 81/37/272
f 72/42/273 73/49/274 83/43/275 82/38/276
f 73/347/277 74/351/278 84/352/279 83/353/280
f 74/351/281 75/345/282 85/349/283 84/352/284
f 75/345/285 76/340/286 86/348/287 85/349/288
f 76/67/289 77/68/290 87/64/291 86/63/292
f 77/68/293 68/75/294 78/69/295 87/64/296
f 78/69/297 79/76/298 89/77/299 88/70/300
f 79/526/301 80/527/302 90/528/303 89/529/304
f 80/47/305 81/37/306 91/40/307 90/48/308
f 81/37/309 82/38/310 92/39/311 91/40/312
f 82/38/313 83/43/314 93/44/315 92/39/316
f 83/43/317 84/50/318 94/51/319 93/44/320
f 84/532/321 85/533/322 95/534/323 94/535/324
f 85/73/325 86/63/326 96/66/327 95/74/328
f 86/63/329 87/64/330 97/65/331 96/66/332
f 87/64/333 78/69/334 88/70/335 97/65/336
f 88/70/337 89/77/338 99/82/339 98/78/340
f 89/529/341 90/528/342 100/530/343 99/531/344
f 90/48/345 91/40/346 101/46/347 100/55/348
f 91/40/349 92/39/350 102/45/351 101/46/352
f 92/39/353 93/44/354 103/52/355 102/45/356
f 93/44/357 94/51/358 104/56/359 103/52/360
f 94/535/361 95/534/362 105/536/363 104/537/364
f 95/74/365 96/66/366 106/72/367 105/81/368
f 96/66/369 97/65/370 107/71/371 106/72/372
f 97/65/373 88/70/374 98/78/375 107/71/376
f 98/78/377 99/82/378 109/87/379 108/83/380
f 99/370/381 100/371/382 110/365/383 109/359/384
f 100/55/385 101/46/386 111/54/387 110/60/388
f 101/46/389 102/45/390 112/53/391 111/54/392
f 102/45/393 103/52/394 113/57/395 112/53/396
f 103/52/397 104/56/398 114/61/399 113/57/400
f 104/385/401 105/386/402 115/379/403 114/383/404
f 105/81/405 106/72/406 116/80/407 115/86/408
f 106/72/409 107/71/410 117/79/411 116/80/412
f 107/71/413 98/78/414 108/83/415 117/79/416
f 108/358/417 109/359/418 119/355/419 118/354/420
f 109/359/421 110/365/422 120/360/423 119/355/424
f 110/365/425 111/372/426 121/366/427 120/360/428
f 111/54/429 112/53/430 122/58/431 121/59/432
f 112/53/433 113/57/434 123/62/435 122/58/436
f 113/384/437 114/383/438 124/381/439 123/377/440
f 114/383/441 115/379/442 125/375/443 124/381/444
f 115/379/445 116/380/446 126/368/447 125/375/448
f 116/80/449 117/79/450 127/84/451 126/85/452
f 117/79/453 108/83/454 118/88/455 127/84/456
f 118/354/457 119/355/458 129/356/459 128/357/460
f 119/355/461 120/360/462 130/361/463 129/356/464
f 120/360/465 121/366/466 131/367/467 130/361/468
f 121/366/469 122/373/470 132/374/471 131/367/472
f 122/373/473 123/377/474 133/378/475 132/374/476
f 123/377/477 124/381/478 134/382/479 133/378/480
f 124/381/481 125/375/482 135/376/483 134/382/484
f 125/375/485 126/368/486 136/369/487 135/376/488
f 126/368/489 127/363/490 137/364/491 136/369/492
f 127/363/493 118/354/494 128/357/495 137/364/496
f 128/357/497 129/356/498 138/362/499
f 129/356/500 130/361/501 138/362/502
f 130/361/503 131/367/504 138/362/505
f 131/367/506 132/374/507 138/362/508
f 132/374/509 133/378/510 138/362/511
f 133/378/512 134/382/513 138/362/514
f 134/382/515 135/376/516 138/362/517
f 135/376/518 136/369/519 138/362/520
f 136/369/521 137/364/522 138/362/523
f 137/364/524 128/357/525 138/362/526
s 1
usemtl lambert4SG
f 139/157/527 140/160/528 241/161/529 228/158/530
s 2
f 222/432/531 223/433/532 239/429/533 240/428/534
s 3
f 223/433/535 226/435/536 238/434/537 239/429/538
s 4
f 142/89/539 143/90/540 236/91/541 237/92/542
s 5
f 143/90/543 144/93/544 235/94/545 236/91/546
s 6
f 248/387/547 249/388/548 250/389/549 251/390/550
s 7
f 145/538/551 146/539/552 233/540/553 234/541/554
s 8
f 242/411/555 243/410/556 244/414/557 245/415/558
s 9
f 147/164/559 148/156/560 229/159/561 230/165/562
s 10
f 148/156/563 139/157/564 228/158/565 229/159/566
s 11
f 140/409/567 139/412/568 159/398/569
f 141/403/570 140/409/567 159/398/569
f 142/401/571 141/403/570 159/398/569
f 143/399/572 142/401/571 159/398/569
f 144/396/573 143/399/572 159/398/569
f 145/397/574 144/396/573 159/398/569
f 146/400/575 145/397/574 159/398/569
f 147/402/576 146/400/575 159/398/569
f 148/406/577 147/402/576 159/398/569
f 139/412/568 148/406/577 159/398/569
s 10
f 161/163/578 160/162/579 149/168/580 158/169/581
s 9
f 162/170/582 161/163/583 158/169/584 157/177/585
s 12
f 163/184/586 162/170/587 157/177/588 156/185/589
s 7
f 164/545/590 163/544/591 156/551/592 155/552/593
s 13
f 165/437/594 164/436/595 155/440/596 154/441/597
s 5
f 166/95/598 165/101/599 154/108/600 153/102/601
s 4
f 167/96/602 166/95/603 153/102/604 152/103/605
s 14
f 168/111/606 167/96/607 152/103/608 151/112/609
s 15
f 169/592/610 168/593/611 151/594/612 150/595/613
s 1
f 160/598/614 169/592/615 150/595/616 149/599/617
f 149/599/617 150/595/616 171/597/618 170/604/619
s 15
f 150/595/613 151/594/612 172/596/620 171/597/621
s 14
f 151/112/609 152/103/608 173/110/622 172/117/623
s 4
f 152/103/605 153/102/604 174/109/624 173/110/625
s 5
f 153/102/601 154/108/600 175/114/626 174/109/627
s 13
f 154/561/597 155/552/596 176/556/628 175/562/629
s 7
f 155/552/593 156/551/592 177/555/630 176/556/631
s 12
f 156/185/589 157/177/588 178/183/632 177/192/633
s 9
f 157/177/585 158/169/584 179/176/634 178/183/635
s 10
f 158/169/581 149/168/580 170/175/636 179/176/637
s 1
f 170/175/619 171/187/618 181/188/638 180/181/639
s 4
f 173/110/625 174/109/624 183/115/640 182/116/641
s 5
f 174/109/627 175/114/626 184/118/642 183/115/643
s 13
f 175/562/629 176/556/628 185/560/644 184/565/645
s 7
f 176/556/631 177/555/630 186/559/646 185/560/647
s 12
f 177/192/633 178/183/632 187/191/648 186/199/649
s 9
f 178/183/635 179/176/634 188/182/650 187/191/651
s 10
f 179/176/637 170/175/636 180/181/652 188/182/653
s 1
f 180/181/639 181/188/638 190/193/654 189/189/655
s 4
f 182/116/641 183/115/640 193/119/656 192/120/657
s 5
f 183/115/643 184/118/642 194/124/658 193/119/659
s 13
f 184/118/645 185/133/644 195/134/660 194/124/661
s 7
f 185/560/647 186/559/646 196/563/662 195/564/663
s off
f 316/226/664 317/227/665 318/228/666 319/222/667 320/221/668 321/225/669 322/229/670 323/230/671
s 10
f 188/182/653 180/181/652 189/189/672 197/190/673
s 1
f 189/189/655 190/193/654 199/200/674 198/194/675
s 15
f 190/610/676 191/609/677 200/611/678 199/612/679
s 14
f 191/129/680 192/120/681 201/126/682 200/138/683
s 4
f 192/120/657 193/119/656 202/125/684 201/126/685
s 5
f 193/119/659 194/124/658 203/135/686 202/125/687
s 13
f 194/124/661 195/134/660 204/142/688 203/135/689
s 7
f 195/564/663 196/563/662 205/570/690 204/571/691
s 10
f 197/190/673 189/189/672 198/194/692 207/195/693
s 1
f 198/194/675 199/200/674 209/208/694 208/201/695
s 15
f 199/612/679 200/611/678 210/613/696 209/614/697
s 14
f 200/138/683 201/126/682 211/137/698 210/144/699
s 4
f 201/126/685 202/125/684 212/136/700 211/137/701
s 5
f 202/125/687 203/135/686 213/143/702 212/136/703
s 13
f 203/135/689 204/142/688 214/148/704 213/143/705
s 7
f 204/571/691 205/570/690 215/577/706 214/578/707
s 12
f 205/212/708 206/205/709 216/209/710 215/213/711
s 9
f 206/205/712 207/195/713 217/202/714 216/209/715
s 10
f 207/195/693 198/194/692 208/201/716 217/202/717
s 11
f 146/400/575 147/402/576 219/404/718 218/405/719
s 20
f 147/164/720 230/165/721 231/171/722 219/172/723
s 21
f 162/418/724 163/419/725 221/420/726 220/421/727
s 22
f 232/542/728 233/540/729 146/539/730 218/543/731
s 11
f 140/409/567 141/403/570 223/408/732 222/413/733
s 23
f 168/424/734 169/425/735 225/426/736 224/427/737
s 24
f 240/166/738 241/161/739 140/160/740 222/167/741
s 11
f 141/403/570 142/401/571 226/407/742 223/408/732
s 25
f 142/89/743 237/92/744 238/97/745 226/98/746
s 23
f 167/430/747 168/424/734 224/427/737 227/431/748
s 10
f 229/159/566 228/158/565 160/162/579 161/163/578
s 9
f 230/165/562 229/159/561 161/163/583 162/170/582
s 20
f 231/171/722 230/165/721 162/170/749 220/178/750
s 8
f 245/415/558 244/414/557 246/416/751 247/417/752
s 22
f 163/544/753 233/540/729 232/542/728 221/548/754
s 7
f 234/541/554 233/540/553 163/544/591 164/545/590
s 6
f 251/390/550 250/389/549 252/394/755 253/395/756
s 5
f 236/91/546 235/94/545 165/101/599 166/95/598
s 4
f 237/92/542 236/91/541 166/95/603 167/96/602
s 25
f 238/97/745 237/92/744 167/96/757 227/104/758
s 3
f 239/429/538 238/434/537 227/431/759 224/427/760
s 2
f 240/428/534 239/429/533 224/427/761 225/426/762
s 24
f 169/173/763 241/161/739 240/166/738 225/174/764
s 1
f 228/605/530 241/606/529 169/592/615 160/598/614
s 11
f 218/405/719 219/404/718 243/410/765 242/411/766
s 20
f 219/172/723 231/171/722 244/179/767 243/180/768
s 22
f 232/542/728 218/543/731 242/549/769 245/550/770
s 20
f 231/171/722 220/178/750 246/186/771 244/179/772
s 21
f 220/421/727 221/420/726 247/422/773 246/423/774
s 22
f 221/548/754 232/542/728 245/550/775 247/554/776
s 11
f 144/396/573 145/397/574 259/392/777 254/391/778
s 26
f 145/538/779 234/541/780 258/546/781 259/547/782
s 5
f 235/94/545 144/93/544 254/99/783 255/100/784
s 27
f 234/541/785 164/545/786 257/553/787 258/546/788
s 28
f 164/436/789 165/437/790 256/438/791 257/439/792
s 5
f 165/101/599 235/94/545 255/100/793 256/107/794
f 255/100/784 254/99/783 248/105/795 251/106/796
f 256/107/794 255/100/793 251/106/797 253/113/798
s 28
f 257/439/792 256/438/791 253/442/799 252/443/800
s 27
f 258/546/788 257/553/787 252/557/801 250/558/802
s 26
f 259/392/782 258/393/781 250/389/803 249/388/804
s 11
f 254/391/778 259/392/777 249/388/805 248/387/806
s 15
f 171/597/621 172/596/620 260/600/807 264/601/808 261/602/809 181/603/810
s 14
f 172/117/623 173/110/622 182/116/811 262/121/812 265/122/813 260/123/814
f 263/127/815 266/128/816 262/121/812 182/116/811 192/120/681 191/129/680
s 15
f 181/603/810 261/602/809 267/607/817 263/608/818 191/609/677 190/610/676
s 29
f 261/231/819 264/232/820 307/233/821 300/234/822
s 30
usemtl initialShadingGroup
f 264/302/823 260/303/824 306/300/825 307/299/826
usemtl lambert4SG
f 260/123/824 265/122/827 305/131/828 306/132/825
s 31
f 265/122/829 262/121/830 304/130/831 305/131/832
f 262/121/830 266/128/833 303/139/834 304/130/831
s 32
f 266/444/835 263/445/836 302/446/837 303/447/838
s 33
f 263/445/839 267/448/840 301/449/841 302/446/842
s 34
f 267/237/843 261/231/844 300/234/845 301/238/846
f 277/247/847 276/243/848 268/246/849 275/248/850
s 33
usemtl lambert5SG
f 278/615/851 277/616/852 275/617/853 274/618/854
s 32
usemtl lambert4SG
f 279/457/855 278/456/856 274/459/857 273/460/858
s 31
f 280/150/859 279/152/860 273/155/861 272/153/862
f 281/151/863 280/150/859 272/153/862 271/154/864
s 30
usemtl lambert5SG
f 282/619/865 281/620/866 271/621/867 270/622/868
usemtl initialShadingGroup
f 283/282/869 282/283/865 270/274/868 269/273/870
s 29
usemtl lambert4SG
f 276/243/871 283/242/872 269/245/873 268/246/874
s 34
f 285/244/875 284/240/876 276/243/848 277/247/847
s 33
f 286/453/877 285/455/878 277/458/852 278/456/851
s 32
f 287/454/879 286/453/880 278/456/856 279/457/855
s 31
f 288/146/881 287/149/882 279/152/860 280/150/859
f 289/147/883 288/146/881 280/150/859 281/151/863
s 30
usemtl initialShadingGroup
f 290/292/884 289/297/885 281/298/866 282/283/865
f 291/291/886 290/292/884 282/283/865 283/282/869
s 29
usemtl lambert4SG
f 284/240/887 291/239/888 283/242/872 276/243/871
s 34
f 293/241/889 292/236/890 284/240/876 285/244/875
s 33
f 294/450/891 293/452/892 285/455/878 286/453/877
s 32
f 295/451/893 294/450/894 286/453/880 287/454/879
s 31
f 296/140/895 295/145/896 287/149/882 288/146/881
f 297/141/897 296/140/895 288/146/881 289/147/883
s 30
usemtl initialShadingGroup
f 298/296/898 297/301/899 289/297/885 290/292/884
f 299/295/900 298/296/898 290/292/884 291/291/886
s 29
usemtl lambert4SG
f 292/236/901 299/235/902 291/239/888 284/240/887
s 34
f 301/238/846 300/234/845 292/236/890 293/241/889
s 33
f 302/446/842 301/449/841 293/452/892 294/450/891
s 32
f 303/447/838 302/446/837 294/450/894 295/451/893
s 31
f 304/130/831 303/139/834 295/145/896 296/140/895
f 305/131/832 304/130/831 296/140/895 297/141/897
s 30
usemtl initialShadingGroup
f 306/300/825 305/304/828 297/301/899 298/296/898
f 307/299/826 306/300/825 298/296/898 299/295/900
s 29
usemtl lambert4SG
f 300/234/822 307/233/821 299/235/902 292/236/901
s 12
f 186/559/649 187/566/648 308/567/903 312/568/904 309/569/905 196/563/906
s 9
f 187/191/651 188/182/650 197/190/907 310/196/908 313/197/909 308/198/910
f 311/203/911 314/204/912 310/196/908 197/190/907 207/195/713 206/205/712
s 12
f 196/563/906 309/569/905 315/574/913 311/575/914 206/576/709 205/570/708
s 41
f 309/569/915 312/568/916 355/572/917 348/573/918
s 42
f 312/461/919 308/462/920 354/463/921 355/464/922
s 43
f 308/462/923 313/465/924 353/466/925 354/463/926
s 44
f 313/197/927 310/196/928 352/206/929 353/207/930
s 45
f 310/623/931 314/624/932 351/625/933 352/626/934
s 46
f 314/475/935 311/476/936 350/477/937 351/478/938
f 311/476/936 315/479/939 349/480/940 350/477/937
s 47
f 315/574/941 309/569/942 348/573/943 349/581/944
f 325/590/945 324/586/946 316/589/947 323/591/948
s 46
f 326/487/949 325/489/950 323/492/951 322/490/952
f 327/488/953 326/487/949 322/490/952 321/491/954
s 45
f 328/218/955 327/224/956 321/225/957 320/221/958
s 44
f 329/219/959 328/218/960 320/221/961 319/222/962
s 43
f 330/223/963 329/219/964 319/222/965 318/228/966
s 42
f 331/472/967 330/471/968 318/473/969 317/474/970
s 41
f 324/586/971 331/585/972 317/588/973 316/589/974
s 47
f 333/587/975 332/583/976 324/586/946 325/590/945
s 46
f 334/484/977 333/486/978 325/489/950 326/487/949
f 335/485/979 334/484/977 326/487/949 327/488/953
s 45
f 336/630/980 335/629/981 327/631/956 328/632/955
s 44
f 337/215/982 336/214/983 328/218/960 329/219/959
s 43
f 338/220/984 337/215/985 329/219/964 330/223/963
s 42
f 339/470/986 338/469/987 330/471/968 331/472/967
s 41
f 332/583/988 339/582/989 331/585/972 324/586/971
s 47
f 341/584/990 340/580/991 332/583/976 333/587/975
s 46
f 342/481/992 341/483/993 333/486/978 334/484/977
f 343/482/994 342/481/992 334/484/977 335/485/979
s 45
f 344/628/995 343/627/996 335/629/981 336/630/980
s 44
f 345/211/997 344/210/998 336/214/983 337/215/982
s 43
f 346/217/999 345/211/1000 337/215/985 338/220/984
s 42
f 347/468/1001 346/467/1002 338/469/987 339/470/986
s 41
f 340/580/1003 347/579/1004 339/582/989 332/583/988
s 47
f 349/581/944 348/573/943 340/580/991 341/584/990
s 46
f 350/477/937 349/480/940 341/483/993 342/481/992
f 351/478/938 350/477/937 342/481/992 343/482/994
s 45
f 352/626/934 351/625/933 343/627/996 344/628/995
s 44
f 353/207/930 352/206/929 344/210/998 345/211/997
s 43
f 354/216/926 353/207/925 345/211/1000 346/217/999
s 42
f 355/464/922 354/463/921 346/467/1002 347/468/1001
s 41
f 348/573/918 355/572/917 347/579/1004 340/580/1003
s off
usemtl lambert5SG
f 59/255/1005 58/249/1006 208/252/1007 209/256/1008
f 58/249/1009 67/250/1010 217/251/1011 208/252/1012
f 67/250/1013 66/253/1014 216/254/1015 217/251/1016
f 66/253/1017 65/257/1018 215/258/1019 216/254/1020
f 65/633/1021 64/634/1022 214/635/1023 215/636/1024
f 64/265/1025 63/259/1026 213/262/1027 214/266/1028
f 63/259/1029 62/260/1030 212/261/1031 213/262/1032
f 62/260/1033 61/263/1034 211/264/1035 212/261/1036
f 61/263/1037 60/267/1038 210/268/1039 211/264/1040
f 60/637/1041 59/638/1042 209/639/1043 210/640/1044
usemtl initialShadingGroup
f 2/270/1045 1/269/1046 269/273/1047 270/274/1048
f 1/269/1049 8/279/1050 268/281/1051 269/273/1052
f 8/279/1053 7/288/1054 275/290/1055 268/281/1056
usemtl lambert5SG
f 7/493/1057 6/494/1058 274/495/1059 275/496/1060
f 6/494/1061 5/499/1062 273/500/1063 274/495/1064
f 5/499/1065 4/502/1066 272/503/1067 273/500/1068
f 4/293/1069 3/275/1070 271/284/1071 272/294/1072
f 3/275/1073 2/270/1074 270/274/1075 271/284/1076
