# This file uses centimeters as units for non-parametric coordinates.

mtllib Env_LongGrass.mtl
g default
v 4.256932 -26.612125 474.713745
v -4.256929 -26.612125 474.713745
v -8.513861 -26.612125 482.086975
v -4.256931 -26.612125 489.460205
v 4.256930 -26.612125 489.460205
v 8.513861 -26.612125 482.086975
v -7.436110 117.346848 479.261383
v -10.616462 116.618393 479.261383
v -12.206639 116.254150 482.086975
v -10.616463 116.618393 484.912567
v -7.436110 117.346848 484.912567
v -5.845935 117.711090 482.086975
v 0.000000 -26.612125 482.086975
v -15.847244 146.761688 482.086975
v 3.753912 2.100735 475.585022
v 7.507821 2.100735 482.086975
v 3.753910 2.100735 488.588928
v -3.753911 2.100735 488.588928
v -7.507821 2.100735 482.086975
v -3.753910 2.100735 475.585022
v 3.550351 36.556168 475.937592
v 7.100699 36.556168 482.086975
v 3.550349 36.556168 488.236359
v -3.550350 36.556168 488.236359
v -7.100699 36.556168 482.086975
v -3.550348 36.556168 475.937592
v 3.131425 60.674969 476.663177
v 6.262846 60.674969 482.086975
v 3.131423 60.674969 487.510773
v -3.131424 60.674969 487.510773
v -6.262846 60.674969 482.086975
v -3.131423 60.674969 476.663177
v -0.390086 90.093445 477.904694
v 1.963609 90.632561 482.086975
v -0.390087 90.093445 486.269257
v -5.097476 89.015205 486.269257
v -7.451169 88.476089 482.086975
v -5.097476 89.015205 477.904694
v 7.813628 -26.612125 493.831238
v -0.700233 -26.612125 493.831238
v -4.957165 -26.612125 501.204468
v -0.700236 -26.612125 508.577698
v 7.813625 -26.612125 508.577698
v 12.070557 -26.612125 501.204468
v 5.188053 117.314804 523.594727
v 1.925339 117.314804 523.594727
v 0.293981 115.912598 526.047852
v 1.925338 114.510391 528.500977
v 5.188052 114.510391 528.500977
v 6.819410 115.912598 526.047852
v 3.556695 -26.612125 501.204468
v 3.556695 142.435669 541.208557
v 7.310608 3.296391 494.565247
v 11.064516 2.563744 501.025818
v 7.310606 1.831104 507.486359
v -0.197216 1.831104 507.486359
v -3.951126 2.563744 501.025818
v -0.197214 3.296391 494.565247
v 7.107047 38.520744 498.385223
v 10.657394 37.293091 504.410797
v 7.107044 36.065434 510.436401
v 0.006345 36.065437 510.436401
v -3.544003 37.293091 504.410797
v 0.006347 38.520744 498.385223
v 6.688120 63.693840 503.983307
v 9.819542 61.971550 509.126373
v 6.688118 60.249268 514.269470
v 0.425271 60.249268 514.269470
v -2.706151 61.971550 509.126373
v 0.425273 63.693840 503.983307
v 5.971344 90.819275 512.347717
v 8.385992 89.221909 516.212952
v 5.971343 87.624527 520.078186
v 1.142047 87.624527 520.078186
v -1.272601 89.221909 516.212952
v 1.142048 90.819275 512.347717
v -16.428137 -26.612125 487.598083
v -23.321526 -26.612125 492.594788
v -22.440945 -26.612125 501.062988
v -14.666980 -26.612125 504.534485
v -7.773593 -26.612125 499.537781
v -8.654173 -26.612125 491.069580
v -23.226639 117.346848 498.142670
v -25.801662 116.618393 500.009186
v -25.430862 116.254150 503.230255
v -22.485039 116.618393 504.584778
v -19.910013 117.346848 502.718262
v -20.280815 117.711090 499.497223
v -15.547559 -26.612125 496.066284
v -28.378538 146.761688 505.366882
v -16.324083 2.100735 488.598724
v -9.468729 2.100735 491.660004
v -8.692203 2.100735 499.127563
v -14.771033 2.100735 503.533844
v -21.626389 2.100735 500.472565
v -22.402916 2.100735 493.005005
v -16.281975 36.556168 489.003662
v -9.798363 36.556168 491.898956
v -9.063944 36.556168 498.961578
v -14.813142 36.556168 503.128906
v -21.296757 36.556168 500.233612
v -22.031174 36.556168 493.170990
v -16.195316 60.674969 489.837036
v -10.476744 60.674969 492.390686
v -9.828983 60.674969 498.619934
v -14.899800 60.674969 502.295532
v -20.618374 60.674969 499.741882
v -21.266134 60.674969 493.512634
v -18.317945 90.093445 492.908966
v -13.957691 90.632561 494.913849
v -13.408851 90.093445 499.681488
v -17.220266 89.015205 502.444214
v -21.580519 88.476089 500.439301
v -22.129362 89.015205 495.671692
v -10.569300 -26.612125 469.186188
v -15.845022 -26.612125 462.503937
v -24.269890 -26.612125 463.731720
v -27.419035 -26.612125 471.641754
v -22.143311 -26.612125 478.324005
v -13.718445 -26.612125 477.096222
v -21.384331 117.346848 462.826691
v -23.355076 116.618393 460.330536
v -26.558167 116.254150 460.833374
v -27.790512 116.618393 463.832367
v -25.819765 117.346848 466.328522
v -22.616676 117.711090 465.825684
v -18.994167 -26.612125 470.413971
v -28.814116 146.761688 457.975983
v -11.564823 2.100735 469.331268
v -14.341850 2.100735 476.306610
v -21.771193 2.100735 477.389313
v -26.423512 2.100735 471.496674
v -23.646484 2.100735 464.521332
v -16.217140 2.100735 463.438629
v -11.967690 36.556168 469.389984
v -14.594128 36.556168 475.987091
v -21.620605 36.556168 477.011078
v -26.020645 36.556168 471.437958
v -23.394205 36.556168 464.840851
v -16.367729 36.556168 463.816864
v -12.796784 60.674969 469.510803
v -15.113314 60.674969 475.329468
v -21.310696 60.674969 476.232635
v -25.191549 60.674969 471.317139
v -22.875019 60.674969 465.498474
v -16.677637 60.674969 464.595306
v -15.953341 90.093445 467.516205
v -17.777391 90.632561 471.955139
v -22.518438 90.093445 472.699402
v -25.435432 89.015205 469.004730
v -23.611378 88.476089 464.565796
v -18.870335 89.015205 463.821503
v 21.113094 -26.612125 466.858185
v 28.627914 -26.612125 470.859833
v 35.850868 -26.612125 466.352661
v 35.559006 -26.612125 457.843781
v 28.044186 -26.612125 453.842133
v 20.821232 -26.612125 458.349304
v 37.419949 117.314804 441.821289
v 40.299805 117.314804 443.354828
v 42.892742 115.912598 441.956329
v 42.605820 114.510391 439.024292
v 39.725960 114.510391 437.490753
v 37.133026 115.912598 438.889252
v 28.336050 -26.612125 462.350983
v 47.138672 142.435669 427.041107
v 21.902084 3.296391 466.446716
v 21.625244 2.563744 458.979858
v 27.975237 1.831104 455.041809
v 34.602066 1.831104 458.570618
v 34.878906 2.563744 466.037476
v 28.528913 3.296391 469.975525
v 23.877209 38.520744 463.170685
v 23.575607 37.293091 456.183441
v 29.541485 36.065434 452.533630
v 35.808968 36.065437 455.871063
v 36.110569 37.293091 462.858337
v 30.144690 38.520744 466.508148
v 26.878180 63.693840 458.426392
v 26.531542 61.971550 452.415009
v 31.712849 60.249268 449.347260
v 37.240795 60.249268 452.290924
v 37.587433 61.971550 458.302307
v 32.406124 63.693840 461.370056
v 31.442268 90.819275 451.380402
v 31.127687 89.221909 446.833801
v 35.075722 87.624527 444.557037
v 39.338333 87.624527 446.826904
v 39.652912 89.221909 451.373505
v 35.704880 90.819275 453.650238
v 14.560284 -26.612125 478.703735
v 9.450064 -26.612125 485.513397
v 12.792295 -26.612125 493.343811
v 21.244743 -26.612125 494.364563
v 26.354963 -26.612125 487.554901
v 23.012732 -26.612125 479.724487
v 36.790161 117.314804 498.668518
v 34.831806 117.314804 501.278137
v 35.814705 115.912598 504.055359
v 38.755962 114.510391 504.222961
v 40.714321 114.510391 501.613342
v 39.731422 115.912598 498.836121
v 17.902514 -26.612125 486.534149
v 49.899067 142.435669 510.545532
v 14.845438 3.296391 479.546631
v 22.265984 2.563744 480.421906
v 25.180161 1.831104 487.302185
v 20.673790 1.831104 493.307190
v 13.253242 2.563744 492.431915
v 10.339067 3.296391 485.551636
v 17.778587 38.520744 482.002289
v 24.729055 37.293091 482.779297
v 27.417521 36.065434 489.235687
v 23.155514 36.065437 494.915070
v 16.205044 37.293091 494.138031
v 13.516580 38.520744 487.681641
v 22.004675 63.693840 485.697449
v 27.997818 61.971550 486.279846
v 30.231859 60.249268 491.871429
v 26.472752 60.249268 496.880676
v 20.479605 61.971550 496.298279
v 18.245565 63.693840 490.706696
v 28.264572 90.819275 491.291260
v 32.805435 89.221909 491.679962
v 34.447647 87.624527 495.931274
v 31.548988 87.624527 499.793915
v 27.008121 89.221909 499.405212
v 25.365913 90.819275 495.153900
v 8.833258 -26.612125 466.448059
v 12.401397 -26.612125 458.717987
v 7.491014 -26.612125 451.762848
v -0.987505 -26.612125 452.537781
v -4.555642 -26.612125 460.267853
v 0.354741 -26.612125 467.222992
v -17.089878 117.314804 451.590393
v -15.722482 117.314804 448.628052
v -17.266069 115.912598 446.118774
v -20.177048 114.510391 446.571838
v -21.544441 114.510391 449.534210
v -20.000860 115.912598 452.043488
v 3.922877 -26.612125 459.492920
v -32.398468 142.435669 442.727325
v 8.377642 3.296391 465.683716
v 0.938584 2.563744 466.384460
v -3.353968 1.831104 460.268524
v -0.207459 1.831104 453.451874
v 7.231601 2.563744 452.751129
v 11.524151 3.296391 458.867065
v 4.994650 38.520744 463.897980
v -1.964177 37.293091 464.596161
v -5.947123 36.065434 458.847351
v -2.971237 36.065437 452.400330
v 3.987592 37.293091 451.702148
v 7.970536 38.520744 457.450958
v 0.087481 63.693840 461.171478
v -5.894492 61.971550 461.859161
v -9.251726 60.249268 456.860565
v -6.626984 60.249268 451.174286
v -0.645006 61.971550 450.486572
v 2.712226 63.693840 455.485168
v -7.206509 90.819275 457.015167
v -11.727884 89.221909 457.587616
v -14.225314 87.624527 453.775360
v -12.201369 87.624527 449.390625
v -7.679992 89.221909 448.818176
v -5.182562 90.819275 452.630463
vt 0.578125 0.020934
vt 0.421875 0.020934
vt 0.343750 0.156250
vt 0.421875 0.291566
vt 0.578125 0.291566
vt 0.656250 0.156250
vt 0.375000 0.312500
vt 0.416667 0.312500
vt 0.458333 0.312500
vt 0.500000 0.312500
vt 0.541667 0.312500
vt 0.583333 0.312500
vt 0.625000 0.312500
vt 0.375000 0.687500
vt 0.416667 0.687500
vt 0.458333 0.687500
vt 0.500000 0.687500
vt 0.541667 0.687500
vt 0.583333 0.687500
vt 0.625000 0.687500
vt 0.578125 0.708434
vt 0.421875 0.708434
vt 0.343750 0.843750
vt 0.421875 0.979066
vt 0.578125 0.979066
vt 0.656250 0.843750
vt 0.500000 0.156250
vt 0.500000 0.843750
vt 0.625000 0.387500
vt 0.375000 0.387500
vt 0.583333 0.387500
vt 0.541667 0.387500
vt 0.500000 0.387500
vt 0.458333 0.387500
vt 0.416667 0.387500
vt 0.625000 0.477500
vt 0.375000 0.477500
vt 0.583333 0.477500
vt 0.541667 0.477500
vt 0.500000 0.477500
vt 0.458333 0.477500
vt 0.416667 0.477500
vt 0.625000 0.540500
vt 0.375000 0.540500
vt 0.583333 0.540500
vt 0.541667 0.540500
vt 0.500000 0.540500
vt 0.458333 0.540500
vt 0.416667 0.540500
vt 0.625000 0.614000
vt 0.375000 0.614000
vt 0.583333 0.614000
vt 0.541667 0.614000
vt 0.500000 0.614000
vt 0.458333 0.614000
vt 0.416667 0.614000
vt 0.375000 0.312500
vt 0.416667 0.312500
vt 0.416667 0.387500
vt 0.375000 0.387500
vt 0.458333 0.312500
vt 0.458333 0.387500
vt 0.500000 0.312500
vt 0.500000 0.387500
vt 0.541667 0.312500
vt 0.541667 0.387500
vt 0.583333 0.312500
vt 0.583333 0.387500
vt 0.625000 0.312500
vt 0.625000 0.387500
vt 0.421875 0.020934
vt 0.578125 0.020934
vt 0.500000 0.156250
vt 0.343750 0.156250
vt 0.421875 0.291566
vt 0.578125 0.291566
vt 0.656250 0.156250
vt 0.578125 0.979066
vt 0.421875 0.979066
vt 0.500000 0.843750
vt 0.343750 0.843750
vt 0.421875 0.708434
vt 0.578125 0.708434
vt 0.656250 0.843750
vt 0.625000 0.477500
vt 0.583333 0.477500
vt 0.541667 0.477500
vt 0.500000 0.477500
vt 0.458333 0.477500
vt 0.416667 0.477500
vt 0.375000 0.477500
vt 0.625000 0.540500
vt 0.583333 0.540500
vt 0.541667 0.540500
vt 0.500000 0.540500
vt 0.458333 0.540500
vt 0.416667 0.540500
vt 0.375000 0.540500
vt 0.625000 0.614000
vt 0.583333 0.614000
vt 0.541667 0.614000
vt 0.500000 0.614000
vt 0.458333 0.614000
vt 0.416667 0.614000
vt 0.375000 0.614000
vt 0.625000 0.687500
vt 0.583333 0.687500
vt 0.541667 0.687500
vt 0.500000 0.687500
vt 0.458333 0.687500
vt 0.416667 0.687500
vt 0.375000 0.687500
vt 0.375000 0.312500
vt 0.416667 0.312500
vt 0.416667 0.387500
vt 0.375000 0.387500
vt 0.458333 0.312500
vt 0.458333 0.387500
vt 0.500000 0.312500
vt 0.500000 0.387500
vt 0.541667 0.312500
vt 0.541667 0.387500
vt 0.583333 0.312500
vt 0.583333 0.387500
vt 0.625000 0.312500
vt 0.625000 0.387500
vt 0.421875 0.020934
vt 0.578125 0.020934
vt 0.500000 0.156250
vt 0.343750 0.156250
vt 0.421875 0.291566
vt 0.578125 0.291566
vt 0.656250 0.156250
vt 0.578125 0.979066
vt 0.421875 0.979066
vt 0.500000 0.843750
vt 0.343750 0.843750
vt 0.421875 0.708434
vt 0.578125 0.708434
vt 0.656250 0.843750
vt 0.625000 0.477500
vt 0.583333 0.477500
vt 0.541667 0.477500
vt 0.500000 0.477500
vt 0.458333 0.477500
vt 0.416667 0.477500
vt 0.375000 0.477500
vt 0.625000 0.540500
vt 0.583333 0.540500
vt 0.541667 0.540500
vt 0.500000 0.540500
vt 0.458333 0.540500
vt 0.416667 0.540500
vt 0.375000 0.540500
vt 0.625000 0.614000
vt 0.583333 0.614000
vt 0.541667 0.614000
vt 0.500000 0.614000
vt 0.458333 0.614000
vt 0.416667 0.614000
vt 0.375000 0.614000
vt 0.625000 0.687500
vt 0.583333 0.687500
vt 0.541667 0.687500
vt 0.500000 0.687500
vt 0.458333 0.687500
vt 0.416667 0.687500
vt 0.375000 0.687500
vt 0.375000 0.312500
vt 0.416667 0.312500
vt 0.416667 0.387500
vt 0.375000 0.387500
vt 0.458333 0.312500
vt 0.458333 0.387500
vt 0.500000 0.312500
vt 0.500000 0.387500
vt 0.541667 0.312500
vt 0.541667 0.387500
vt 0.583333 0.312500
vt 0.583333 0.387500
vt 0.625000 0.312500
vt 0.625000 0.387500
vt 0.421875 0.020934
vt 0.578125 0.020934
vt 0.500000 0.156250
vt 0.343750 0.156250
vt 0.421875 0.291566
vt 0.578125 0.291566
vt 0.656250 0.156250
vt 0.578125 0.979066
vt 0.421875 0.979066
vt 0.500000 0.843750
vt 0.343750 0.843750
vt 0.421875 0.708434
vt 0.578125 0.708434
vt 0.656250 0.843750
vt 0.625000 0.477500
vt 0.583333 0.477500
vt 0.541667 0.477500
vt 0.500000 0.477500
vt 0.458333 0.477500
vt 0.416667 0.477500
vt 0.375000 0.477500
vt 0.625000 0.540500
vt 0.583333 0.540500
vt 0.541667 0.540500
vt 0.500000 0.540500
vt 0.458333 0.540500
vt 0.416667 0.540500
vt 0.375000 0.540500
vt 0.625000 0.614000
vt 0.583333 0.614000
vt 0.541667 0.614000
vt 0.500000 0.614000
vt 0.458333 0.614000
vt 0.416667 0.614000
vt 0.375000 0.614000
vt 0.625000 0.687500
vt 0.583333 0.687500
vt 0.541667 0.687500
vt 0.500000 0.687500
vt 0.458333 0.687500
vt 0.416667 0.687500
vt 0.375000 0.687500
vt 0.375000 0.312500
vt 0.416667 0.312500
vt 0.416667 0.387500
vt 0.375000 0.387500
vt 0.458333 0.312500
vt 0.458333 0.387500
vt 0.500000 0.312500
vt 0.500000 0.387500
vt 0.541667 0.312500
vt 0.541667 0.387500
vt 0.583333 0.312500
vt 0.583333 0.387500
vt 0.625000 0.312500
vt 0.625000 0.387500
vt 0.421875 0.020934
vt 0.578125 0.020934
vt 0.500000 0.156250
vt 0.343750 0.156250
vt 0.421875 0.291566
vt 0.578125 0.291566
vt 0.656250 0.156250
vt 0.578125 0.979066
vt 0.421875 0.979066
vt 0.500000 0.843750
vt 0.343750 0.843750
vt 0.421875 0.708434
vt 0.578125 0.708434
vt 0.656250 0.843750
vt 0.625000 0.477500
vt 0.583333 0.477500
vt 0.541667 0.477500
vt 0.500000 0.477500
vt 0.458333 0.477500
vt 0.416667 0.477500
vt 0.375000 0.477500
vt 0.625000 0.540500
vt 0.583333 0.540500
vt 0.541667 0.540500
vt 0.500000 0.540500
vt 0.458333 0.540500
vt 0.416667 0.540500
vt 0.375000 0.540500
vt 0.625000 0.614000
vt 0.583333 0.614000
vt 0.541667 0.614000
vt 0.500000 0.614000
vt 0.458333 0.614000
vt 0.416667 0.614000
vt 0.375000 0.614000
vt 0.625000 0.687500
vt 0.583333 0.687500
vt 0.541667 0.687500
vt 0.500000 0.687500
vt 0.458333 0.687500
vt 0.416667 0.687500
vt 0.375000 0.687500
vt 0.375000 0.312500
vt 0.416667 0.312500
vt 0.416667 0.387500
vt 0.375000 0.387500
vt 0.458333 0.312500
vt 0.458333 0.387500
vt 0.500000 0.312500
vt 0.500000 0.387500
vt 0.541667 0.312500
vt 0.541667 0.387500
vt 0.583333 0.312500
vt 0.583333 0.387500
vt 0.625000 0.312500
vt 0.625000 0.387500
vt 0.421875 0.020934
vt 0.578125 0.020934
vt 0.500000 0.156250
vt 0.343750 0.156250
vt 0.421875 0.291566
vt 0.578125 0.291566
vt 0.656250 0.156250
vt 0.578125 0.979066
vt 0.421875 0.979066
vt 0.500000 0.843750
vt 0.343750 0.843750
vt 0.421875 0.708434
vt 0.578125 0.708434
vt 0.656250 0.843750
vt 0.625000 0.477500
vt 0.583333 0.477500
vt 0.541667 0.477500
vt 0.500000 0.477500
vt 0.458333 0.477500
vt 0.416667 0.477500
vt 0.375000 0.477500
vt 0.625000 0.540500
vt 0.583333 0.540500
vt 0.541667 0.540500
vt 0.500000 0.540500
vt 0.458333 0.540500
vt 0.416667 0.540500
vt 0.375000 0.540500
vt 0.625000 0.614000
vt 0.583333 0.614000
vt 0.541667 0.614000
vt 0.500000 0.614000
vt 0.458333 0.614000
vt 0.416667 0.614000
vt 0.375000 0.614000
vt 0.625000 0.687500
vt 0.583333 0.687500
vt 0.541667 0.687500
vt 0.500000 0.687500
vt 0.458333 0.687500
vt 0.416667 0.687500
vt 0.375000 0.687500
vt 0.375000 0.312500
vt 0.416667 0.312500
vt 0.416667 0.387500
vt 0.375000 0.387500
vt 0.458333 0.312500
vt 0.458333 0.387500
vt 0.500000 0.312500
vt 0.500000 0.387500
vt 0.541667 0.312500
vt 0.541667 0.387500
vt 0.583333 0.312500
vt 0.583333 0.387500
vt 0.625000 0.312500
vt 0.625000 0.387500
vt 0.421875 0.020934
vt 0.578125 0.020934
vt 0.500000 0.156250
vt 0.343750 0.156250
vt 0.421875 0.291566
vt 0.578125 0.291566
vt 0.656250 0.156250
vt 0.578125 0.979066
vt 0.421875 0.979066
vt 0.500000 0.843750
vt 0.343750 0.843750
vt 0.421875 0.708434
vt 0.578125 0.708434
vt 0.656250 0.843750
vt 0.625000 0.477500
vt 0.583333 0.477500
vt 0.541667 0.477500
vt 0.500000 0.477500
vt 0.458333 0.477500
vt 0.416667 0.477500
vt 0.375000 0.477500
vt 0.625000 0.540500
vt 0.583333 0.540500
vt 0.541667 0.540500
vt 0.500000 0.540500
vt 0.458333 0.540500
vt 0.416667 0.540500
vt 0.375000 0.540500
vt 0.625000 0.614000
vt 0.583333 0.614000
vt 0.541667 0.614000
vt 0.500000 0.614000
vt 0.458333 0.614000
vt 0.416667 0.614000
vt 0.375000 0.614000
vt 0.625000 0.687500
vt 0.583333 0.687500
vt 0.541667 0.687500
vt 0.500000 0.687500
vt 0.458333 0.687500
vt 0.416667 0.687500
vt 0.375000 0.687500
vn 0.000000 0.030331 -0.999540
vn 0.000000 0.030331 -0.999540
vn 0.000000 0.019907 -0.999802
vn 0.000000 0.019907 -0.999802
vn -0.865627 0.030330 -0.499770
vn -0.865627 0.030330 -0.499770
vn -0.865854 0.019907 -0.499900
vn -0.865855 0.019907 -0.499900
vn -0.865627 0.030330 0.499770
vn -0.865627 0.030330 0.499770
vn -0.865853 0.019907 0.499901
vn -0.865854 0.019907 0.499901
vn 0.000000 0.030331 0.999540
vn 0.000000 0.030331 0.999540
vn 0.000000 0.019907 0.999802
vn 0.000000 0.019907 0.999802
vn 0.865627 0.030330 0.499770
vn 0.865627 0.030330 0.499770
vn 0.865853 0.019907 0.499901
vn 0.865854 0.019907 0.499902
vn 0.865627 0.030330 -0.499770
vn 0.865627 0.030330 -0.499770
vn 0.865855 0.019907 -0.499900
vn 0.865855 0.019907 -0.499900
vn 0.000000 -1.000000 -0.000000
vn 0.000000 -1.000000 -0.000000
vn 0.000000 -1.000000 -0.000000
vn 0.000000 -1.000000 0.000000
vn 0.000000 -1.000000 0.000000
vn 0.000000 -1.000000 0.000000
vn 0.000000 -1.000000 0.000000
vn 0.460906 0.214518 -0.861131
vn -0.508330 -0.007490 -0.861130
vn -0.223262 0.974759 0.000000
vn -0.992955 -0.118495 0.000000
vn -0.508322 -0.007490 0.861135
vn 0.460915 0.214517 0.861127
vn 0.945533 0.325525 0.000000
vn 0.865888 0.017909 -0.499917
vn 0.865888 0.017909 -0.499917
vn 0.865886 0.017909 0.499921
vn 0.865886 0.017909 0.499921
vn 0.000000 0.017909 0.999840
vn 0.000000 0.017909 0.999840
vn -0.865886 0.017909 0.499921
vn -0.865886 0.017909 0.499921
vn -0.865888 0.017909 -0.499918
vn -0.865888 0.017909 -0.499918
vn 0.000000 0.017909 -0.999840
vn 0.000000 0.017909 -0.999840
vn 0.863087 0.077620 -0.499055
vn 0.863192 0.076195 -0.499093
vn 0.863191 0.076195 0.499095
vn 0.863086 0.077620 0.499057
vn -0.001991 0.036009 0.999349
vn -0.002119 0.036389 0.999335
vn -0.866721 -0.002248 0.498788
vn -0.866741 -0.003277 0.498748
vn -0.866742 -0.003277 -0.498746
vn -0.866722 -0.002248 -0.498786
vn -0.002119 0.036389 -0.999335
vn -0.001991 0.036009 -0.999349
vn 0.849937 0.169234 -0.498965
vn 0.849444 0.171533 -0.499021
vn 0.849444 0.171532 0.499020
vn 0.849938 0.169234 0.498964
vn -0.007001 0.044435 0.998988
vn -0.006740 0.044261 0.998997
vn -0.862639 -0.083886 0.498816
vn -0.862879 -0.081726 0.498760
vn -0.862879 -0.081726 -0.498758
vn -0.862640 -0.083885 -0.498815
vn -0.006737 0.044261 -0.998997
vn -0.006997 0.044435 -0.998988
vn 0.832430 0.240077 -0.499423
vn 0.832430 0.240077 -0.499423
vn 0.832433 0.240075 0.499419
vn 0.832433 0.240075 0.499419
vn -0.010753 0.046943 0.998840
vn -0.010753 0.046943 0.998840
vn -0.853938 -0.146189 0.499419
vn -0.853938 -0.146189 0.499419
vn -0.853937 -0.146189 -0.499420
vn -0.853937 -0.146189 -0.499420
vn -0.010744 0.046943 -0.998840
vn -0.010744 0.046943 -0.998840
vn 0.000000 0.024534 -0.999699
vn 0.000000 0.024534 -0.999699
vn 0.000000 0.067534 -0.997717
vn 0.000000 0.067534 -0.997717
vn -0.865681 0.026809 -0.499878
vn -0.865681 0.026809 -0.499878
vn -0.865781 0.042757 -0.498593
vn -0.865780 0.043925 -0.498494
vn -0.864111 0.033700 0.502172
vn -0.864111 0.033700 0.502172
vn -0.865182 -0.002357 0.501453
vn -0.865216 -0.005032 0.501373
vn 0.000000 0.038341 0.999265
vn 0.000000 0.038341 0.999265
vn 0.000000 -0.026320 0.999654
vn 0.000000 -0.026320 0.999654
vn 0.864111 0.033700 0.502172
vn 0.864111 0.033700 0.502172
vn 0.865216 -0.005032 0.501373
vn 0.865182 -0.002357 0.501453
vn 0.865681 0.026809 -0.499878
vn 0.865681 0.026809 -0.499878
vn 0.865780 0.043925 -0.498494
vn 0.865781 0.042757 -0.498593
vn 0.000000 -1.000000 -0.000000
vn 0.000000 -1.000000 -0.000000
vn 0.000000 -1.000000 0.000000
vn 0.000000 -1.000000 0.000000
vn 0.000000 -1.000000 0.000000
vn 0.000000 -1.000000 0.000000
vn 0.000000 -1.000000 0.000000
vn 0.497170 0.519535 -0.694914
vn -0.497170 0.519535 -0.694914
vn -0.000000 0.868179 0.496251
vn -0.994345 0.092197 0.052699
vn -0.497172 -0.335143 0.800312
vn 0.497171 -0.335143 0.800312
vn 0.994345 0.092197 0.052699
vn 0.866075 0.084859 -0.492659
vn 0.866065 0.082938 -0.493004
vn 0.864669 -0.049257 0.499921
vn 0.864708 -0.048426 0.499936
vn 0.000000 -0.113570 0.993530
vn 0.000000 -0.113570 0.993530
vn -0.864708 -0.048426 0.499936
vn -0.864669 -0.049257 0.499921
vn -0.866065 0.082938 -0.493004
vn -0.866075 0.084860 -0.492660
vn 0.000000 0.151342 -0.988481
vn 0.000000 0.151342 -0.988481
vn 0.865998 0.145283 -0.478477
vn 0.865980 0.142741 -0.479275
vn 0.862971 -0.074729 0.499697
vn 0.863069 -0.073669 0.499685
vn 0.000000 -0.181096 0.983465
vn 0.000000 -0.181096 0.983465
vn -0.863069 -0.073669 0.499685
vn -0.862971 -0.074729 0.499697
vn -0.865980 0.142741 -0.479275
vn -0.865998 0.145283 -0.478477
vn 0.000000 0.253815 -0.967253
vn 0.000000 0.253815 -0.967253
vn 0.866060 0.189758 -0.462528
vn 0.866064 0.187470 -0.463452
vn 0.862182 -0.103991 0.495810
vn 0.862187 -0.101856 0.496244
vn 0.000000 -0.245774 0.969327
vn 0.000000 -0.245774 0.969327
vn -0.862187 -0.101856 0.496244
vn -0.862182 -0.103991 0.495810
vn -0.866064 0.187470 -0.463453
vn -0.866060 0.189759 -0.462528
vn 0.000000 0.335163 -0.942160
vn 0.000000 0.335163 -0.942160
vn 0.865601 0.217100 -0.451224
vn 0.865601 0.217100 -0.451224
vn 0.861810 -0.129340 0.490464
vn 0.861810 -0.129340 0.490464
vn 0.000000 -0.298953 0.954268
vn 0.000000 -0.298953 0.954268
vn -0.861810 -0.129340 0.490464
vn -0.861810 -0.129340 0.490464
vn -0.865601 0.217100 -0.451224
vn -0.865601 0.217100 -0.451224
vn 0.000000 0.390741 -0.920501
vn 0.000000 0.390741 -0.920501
vn -0.586620 0.030330 -0.809294
vn -0.586620 0.030330 -0.809294
vn -0.586773 0.019907 -0.809506
vn -0.586773 0.019907 -0.809506
vn -0.994179 0.030330 0.103382
vn -0.994179 0.030330 0.103382
vn -0.994440 0.019907 0.103409
vn -0.994440 0.019907 0.103409
vn -0.407561 0.030330 0.912674
vn -0.407561 0.030330 0.912674
vn -0.407665 0.019907 0.912915
vn -0.407665 0.019907 0.912915
vn 0.586621 0.030330 0.809294
vn 0.586621 0.030330 0.809294
vn 0.586774 0.019907 0.809506
vn 0.586774 0.019907 0.809506
vn 0.994179 0.030330 -0.103382
vn 0.994179 0.030330 -0.103382
vn 0.994440 0.019907 -0.103408
vn 0.994440 0.019907 -0.103408
vn 0.407561 0.030330 -0.912674
vn 0.407561 0.030330 -0.912674
vn 0.407665 0.019907 -0.912914
vn 0.407665 0.019907 -0.912914
vn 0.000000 -1.000000 0.000000
vn 0.000000 -1.000000 -0.000000
vn 0.000000 -1.000000 -0.000000
vn 0.000000 -1.000000 -0.000000
vn 0.000000 -1.000000 -0.000000
vn 0.000000 -1.000000 -0.000000
vn 0.000000 -1.000000 -0.000000
vn -0.132198 0.214518 -0.967732
vn -0.916972 -0.007490 -0.398882
vn -0.180829 0.974749 0.131015
vn -0.803967 -0.118493 0.582749
vn 0.093805 -0.007490 0.995562
vn 0.878572 0.214518 0.426724
vn 0.765574 0.325518 -0.554919
vn 0.407679 0.017910 -0.912950
vn 0.407679 0.017910 -0.912950
vn 0.994477 0.017909 -0.103412
vn 0.994477 0.017909 -0.103412
vn 0.586795 0.017909 0.809537
vn 0.586795 0.017909 0.809537
vn -0.407681 0.017910 0.912949
vn -0.407681 0.017910 0.912949
vn -0.994477 0.017909 0.103412
vn -0.994477 0.017909 0.103412
vn -0.586794 0.017909 -0.809538
vn -0.586794 0.017909 -0.809538
vn 0.405923 0.077620 -0.910605
vn 0.405985 0.076195 -0.910698
vn 0.991811 0.076196 -0.102499
vn 0.991703 0.077620 -0.102468
vn 0.584898 0.036009 0.810307
vn 0.584787 0.036389 0.810370
vn -0.409028 -0.002248 0.912519
vn -0.409067 -0.003277 0.912498
vn -0.994481 -0.003277 0.104864
vn -0.994489 -0.002248 0.104820
vn -0.588213 0.036390 -0.807887
vn -0.588118 0.036009 -0.807973
vn 0.395332 0.169234 -0.902814
vn 0.394899 0.171532 -0.902570
vn 0.980637 0.171533 -0.094491
vn 0.981003 0.169234 -0.094826
vn 0.580632 0.044434 0.812953
vn 0.580849 0.044260 0.812807
vn -0.405704 -0.083886 0.910147
vn -0.405931 -0.081726 0.910242
vn -0.991361 -0.081727 0.102588
vn -0.991200 -0.083887 0.102402
vn -0.591759 0.044260 -0.804899
vn -0.591965 0.044434 -0.804738
vn 0.380888 0.240077 -0.892910
vn 0.380888 0.240077 -0.892910
vn 0.967097 0.240075 -0.084182
vn 0.967097 0.240075 -0.084182
vn 0.577507 0.046943 0.815035
vn 0.577507 0.046943 0.815035
vn -0.398298 -0.146190 0.905531
vn -0.398298 -0.146190 0.905532
vn -0.984509 -0.146191 0.096804
vn -0.984509 -0.146191 0.096804
vn -0.594918 0.046943 -0.802415
vn -0.594918 0.046943 -0.802415
vn 0.784506 0.030330 -0.619379
vn 0.784506 0.030330 -0.619379
vn 0.784712 0.019907 -0.619541
vn 0.784712 0.019907 -0.619541
vn -0.144146 0.030330 -0.989092
vn -0.144146 0.030330 -0.989092
vn -0.144181 0.019907 -0.989351
vn -0.144181 0.019907 -0.989351
vn -0.928650 0.030330 -0.369716
vn -0.928650 0.030330 -0.369716
vn -0.928893 0.019907 -0.369812
vn -0.928893 0.019907 -0.369812
vn -0.784508 0.030330 0.619377
vn -0.784508 0.030330 0.619377
vn -0.784712 0.019907 0.619540
vn -0.784712 0.019907 0.619540
vn 0.144146 0.030330 0.989092
vn 0.144146 0.030330 0.989092
vn 0.144181 0.019907 0.989351
vn 0.144181 0.019907 0.989351
vn 0.928650 0.030330 0.369714
vn 0.928650 0.030330 0.369714
vn 0.928894 0.019907 0.369811
vn 0.928894 0.019907 0.369811
vn 0.000000 -1.000000 0.000000
vn 0.000000 -1.000000 -0.000000
vn 0.000000 -1.000000 -0.000000
vn 0.000000 -1.000000 0.000000
vn 0.000000 -1.000000 0.000000
vn 0.000000 -1.000000 -0.000000
vn 0.000000 -1.000000 -0.000000
vn 0.961482 0.214520 -0.171856
vn 0.360888 -0.007490 -0.932579
vn -0.138349 0.974760 -0.175224
vn -0.615296 -0.118494 -0.779339
vn -0.990867 -0.007490 0.134634
vn -0.390251 0.214518 0.895369
vn 0.585914 0.325521 0.742119
vn 0.928929 0.017909 0.369825
vn 0.928929 0.017909 0.369825
vn 0.144188 0.017909 0.989388
vn 0.144188 0.017909 0.989388
vn -0.784742 0.017909 0.619564
vn -0.784742 0.017909 0.619564
vn -0.928929 0.017909 -0.369826
vn -0.928929 0.017909 -0.369826
vn -0.144185 0.017909 -0.989389
vn -0.144185 0.017909 -0.989389
vn 0.784741 0.017909 -0.619565
vn 0.784741 0.017909 -0.619565
vn 0.926516 0.077620 0.368163
vn 0.926611 0.076195 0.368222
vn 0.143163 0.076196 0.986762
vn 0.143128 0.077620 0.986656
vn -0.785588 0.036009 0.617701
vn -0.785656 0.036390 0.617592
vn -0.928557 -0.002248 -0.371182
vn -0.928538 -0.003277 -0.371222
vn -0.145634 -0.003277 -0.989333
vn -0.145590 -0.002248 -0.989342
vn 0.783033 0.036390 -0.620915
vn 0.783123 0.036009 -0.620824
vn 0.918296 0.169234 0.357900
vn 0.918034 0.171532 0.357478
vn 0.134702 0.171532 0.975926
vn 0.135052 0.169234 0.976279
vn -0.788409 0.044435 0.613545
vn -0.788254 0.044261 0.613756
vn -0.926050 -0.083886 -0.367961
vn -0.926154 -0.081726 -0.368184
vn -0.143233 -0.081726 -0.986309
vn -0.143040 -0.083886 -0.986156
vn 0.779905 0.044261 -0.624331
vn 0.779736 0.044435 -0.624530
vn 0.907806 0.240076 0.343878
vn 0.907806 0.240076 0.343878
vn 0.123855 0.240076 0.962821
vn 0.123855 0.240076 0.962821
vn -0.790621 0.046943 0.610503
vn -0.790621 0.046943 0.610503
vn -0.921131 -0.146190 -0.360758
vn -0.921131 -0.146190 -0.360758
vn -0.137178 -0.146190 -0.979699
vn -0.137178 -0.146190 -0.979699
vn 0.777294 0.046944 -0.627384
vn 0.777294 0.046944 -0.627384
vn -0.469872 0.024535 0.882394
vn -0.469872 0.024535 0.882394
vn -0.468941 0.067534 0.880644
vn -0.468941 0.067534 0.880644
vn 0.529144 0.026809 0.848108
vn 0.529144 0.026809 0.848108
vn 0.529838 0.042757 0.847020
vn 0.529884 0.043925 0.846932
vn 0.998743 0.033700 -0.037099
vn 0.998743 0.033700 -0.037099
vn 0.999351 -0.002357 -0.035958
vn 0.999344 -0.005032 -0.035871
vn 0.469673 0.038340 -0.882008
vn 0.469673 0.038340 -0.882008
vn 0.469854 -0.026320 -0.882352
vn 0.469854 -0.026320 -0.882352
vn -0.526683 0.033699 -0.849394
vn -0.526683 0.033699 -0.849394
vn -0.528037 -0.005032 -0.849206
vn -0.527969 -0.002357 -0.849260
vn -0.999051 0.026809 0.034335
vn -0.999051 0.026809 0.034335
vn -0.998487 0.043925 0.033067
vn -0.998535 0.042757 0.033154
vn 0.000000 -1.000000 -0.000000
vn 0.000000 -1.000000 0.000000
vn 0.000000 -1.000000 0.000000
vn 0.000000 -1.000000 -0.000000
vn 0.000000 -1.000000 -0.000000
vn 0.000000 -1.000000 0.000000
vn 0.000000 -1.000000 0.000000
vn -0.765455 0.519533 0.379689
vn 0.112219 0.519533 0.847049
vn 0.233253 0.868178 -0.438019
vn 0.902435 0.092195 0.420845
vn 0.814991 -0.335145 -0.472723
vn -0.062668 -0.335142 -0.940081
vn -0.852896 0.092197 -0.513875
vn -0.996006 0.084860 0.027779
vn -0.996159 0.082938 0.028088
vn -0.528240 -0.049256 -0.847665
vn -0.528267 -0.048425 -0.847696
vn 0.466977 -0.113569 -0.876946
vn 0.466977 -0.113569 -0.876946
vn 0.998219 -0.048425 -0.034840
vn 0.998178 -0.049257 -0.034845
vn 0.532715 0.082938 0.842221
vn 0.532886 0.084860 0.841921
vn -0.464602 0.151342 0.872491
vn -0.464602 0.151342 0.872491
vn -0.989272 0.145283 0.015296
vn -0.989631 0.142741 0.016009
vn -0.526846 -0.074728 -0.846669
vn -0.526938 -0.073669 -0.846705
vn 0.462247 -0.181096 -0.868062
vn 0.462247 -0.181096 -0.868062
vn 0.996655 -0.073669 -0.035391
vn 0.996574 -0.074728 -0.035447
vn 0.539092 0.142741 0.830063
vn 0.539484 0.145284 0.829367
vn -0.454626 0.253816 0.853752
vn -0.454626 0.253816 0.853752
vn -0.981830 0.189759 0.001191
vn -0.982268 0.187471 0.002005
vn -0.527975 -0.103990 -0.842869
vn -0.527775 -0.101855 -0.843255
vn 0.455601 -0.245775 -0.855583
vn 0.455601 -0.245775 -0.855583
vn 0.994259 -0.101855 -0.032770
vn 0.994051 -0.103990 -0.032389
vn 0.546605 0.187471 0.816136
vn 0.547036 0.189759 0.815318
vn -0.442829 0.335164 0.831605
vn -0.442829 0.335164 0.831605
vn -0.976112 0.217101 -0.008568
vn -0.976112 0.217101 -0.008568
vn -0.530157 -0.129340 -0.837977
vn -0.530157 -0.129340 -0.837977
vn 0.448524 -0.298953 -0.842291
vn 0.448524 -0.298953 -0.842290
vn 0.991209 -0.129340 -0.027845
vn 0.991209 -0.129340 -0.027845
vn 0.551943 0.217101 0.805125
vn 0.551943 0.217101 0.805125
vn -0.432647 0.390742 0.812488
vn -0.432647 0.390742 0.812488
vn -0.799593 0.024534 -0.600041
vn -0.799593 0.024534 -0.600041
vn -0.798006 0.067534 -0.598854
vn -0.798006 0.067534 -0.598854
vn -0.919421 0.026808 0.392360
vn -0.919421 0.026808 0.392360
vn -0.918454 0.042757 0.393210
vn -0.918374 0.043925 0.393269
vn -0.117002 0.033700 0.992560
vn -0.117002 0.033700 0.992560
vn -0.118228 -0.002357 0.992984
vn -0.118313 -0.005032 0.992964
vn 0.799244 0.038340 0.599782
vn 0.799244 0.038340 0.599782
vn 0.799557 -0.026320 0.600013
vn 0.799557 -0.026320 0.600013
vn 0.920314 0.033699 -0.389727
vn 0.920314 0.033699 -0.389727
vn 0.920337 -0.005032 -0.391094
vn 0.920380 -0.002357 -0.391018
vn 0.119782 0.026808 -0.992438
vn 0.119782 0.026808 -0.992438
vn 0.120947 0.043925 -0.991687
vn 0.120869 0.042757 -0.991747
vn 0.000000 -1.000000 0.000000
vn 0.000000 -1.000000 0.000000
vn 0.000000 -1.000000 0.000000
vn 0.000000 -1.000000 0.000000
vn 0.000000 -1.000000 0.000000
vn 0.000000 -1.000000 0.000000
vn 0.000000 -1.000000 0.000000
vn -0.257388 0.519534 -0.814761
vn -0.854228 0.519534 -0.019448
vn 0.396939 0.868173 0.297850
vn -0.554677 0.092195 0.826942
vn 0.341699 -0.335143 0.878021
vn 0.938529 -0.335144 0.082713
vn 0.638983 0.092195 -0.763676
vn 0.125792 0.084860 -0.988421
vn 0.125510 0.082938 -0.988620
vn 0.918846 -0.049256 -0.391530
vn 0.918881 -0.048425 -0.391552
vn 0.794660 -0.113569 0.596337
vn 0.794660 -0.113569 0.596336
vn -0.119164 -0.048425 0.991693
vn -0.119152 -0.049256 0.991654
vn -0.914154 0.082938 0.396792
vn -0.913884 0.084859 0.397007
vn -0.790617 0.151343 -0.593312
vn -0.790617 0.151343 -0.593312
vn 0.137094 0.145283 -0.979846
vn 0.136445 0.142740 -0.980310
vn 0.917648 -0.074728 -0.390305
vn 0.917697 -0.073669 -0.390390
vn 0.786608 -0.181096 0.590299
vn 0.786608 -0.181096 0.590299
vn -0.118372 -0.073669 0.990233
vn -0.118304 -0.074728 0.990162
vn -0.903121 0.142740 0.404967
vn -0.902494 0.145283 0.405460
vn -0.773639 0.253816 -0.580569
vn -0.773639 0.253816 -0.580569
vn 0.149888 0.189758 -0.970322
vn 0.149151 0.187470 -0.970881
vn 0.914066 -0.103990 -0.392006
vn 0.914417 -0.101856 -0.391749
vn 0.775298 -0.245775 0.581814
vn 0.775298 -0.245775 0.581814
vn -0.120591 -0.101855 0.987463
vn -0.120936 -0.103990 0.987198
vn -0.890517 0.187470 0.414529
vn -0.889775 0.189758 0.415080
vn -0.753570 0.335164 -0.565507
vn -0.753570 0.335164 -0.565507
vn 0.158652 0.217101 -0.963170
vn 0.158652 0.217101 -0.963170
vn 0.909567 -0.129340 -0.394916
vn 0.909567 -0.129340 -0.394916
vn 0.763253 -0.298954 0.572775
vn 0.763253 -0.298953 0.572775
vn -0.124992 -0.129340 0.983691
vn -0.124992 -0.129340 0.983691
vn -0.880459 0.217101 0.421497
vn -0.880459 0.217101 0.421497
vn -0.736247 0.390741 -0.552505
vn -0.736247 0.390741 -0.552505
vn 0.907668 0.024534 0.418972
vn 0.907667 0.024534 0.418972
vn 0.905868 0.067534 0.418141
vn 0.905868 0.067534 0.418141
vn 0.816665 0.026808 -0.576489
vn 0.816665 0.026808 -0.576489
vn 0.815540 0.042757 -0.577119
vn 0.815450 0.043925 -0.577159
vn -0.093798 0.033700 -0.995021
vn -0.093798 0.033700 -0.995021
vn -0.092692 -0.002357 -0.995692
vn -0.092605 -0.005032 -0.995690
vn -0.907273 0.038341 -0.418790
vn -0.907273 0.038341 -0.418790
vn -0.907627 -0.026320 -0.418952
vn -0.907627 -0.026320 -0.418952
vn -0.818090 0.033699 0.574102
vn -0.818090 0.033699 0.574102
vn -0.817826 -0.005032 0.575444
vn -0.817884 -0.002357 0.575379
vn 0.091055 0.026808 0.995485
vn 0.091055 0.026808 0.995485
vn 0.089758 0.043925 0.994995
vn 0.089848 0.042757 0.995037
vn 0.000000 -1.000000 0.000000
vn 0.000000 -1.000000 -0.000000
vn 0.000000 -1.000000 -0.000000
vn 0.000000 -1.000000 0.000000
vn 0.000000 -1.000000 -0.000000
vn 0.000000 -1.000000 -0.000000
vn 0.000000 -1.000000 -0.000000
vn 0.422577 0.519532 0.742641
vn 0.839306 0.519531 -0.160167
vn -0.450581 0.868166 -0.208001
vn 0.368867 0.092198 -0.924898
vn -0.518273 -0.335142 -0.786812
vn -0.934998 -0.335147 0.115996
vn -0.464580 0.092195 0.880719
vn 0.084338 0.084859 0.992817
vn 0.084655 0.082938 0.992953
vn -0.816277 -0.049256 0.575557
vn -0.816307 -0.048425 0.575586
vn -0.902067 -0.113569 -0.416386
vn -0.902067 -0.113570 -0.416386
vn -0.091511 -0.048425 -0.994626
vn -0.091514 -0.049256 -0.994585
vn 0.810585 0.082938 -0.579718
vn 0.810277 0.084859 -0.579871
vn 0.897483 0.151342 0.414271
vn 0.897483 0.151342 0.414270
vn 0.071487 0.145283 0.986804
vn 0.072220 0.142741 0.987122
vn -0.815363 -0.074728 0.574108
vn -0.815393 -0.073669 0.574201
vn -0.892928 -0.181096 -0.412169
vn -0.892928 -0.181096 -0.412169
vn -0.091975 -0.073669 -0.993033
vn -0.092026 -0.074729 -0.992949
vn 0.798084 0.142740 -0.585394
vn 0.797367 0.145283 -0.585746
vn 0.878208 0.253816 0.405373
vn 0.878208 0.253816 0.405373
vn 0.056984 0.189759 0.980176
vn 0.057821 0.187471 0.980567
vn -0.811506 -0.103990 0.575017
vn -0.811902 -0.101856 0.574840
vn -0.880092 -0.245775 -0.406242
vn -0.880092 -0.245775 -0.406242
vn -0.089217 -0.101856 -0.990790
vn -0.088824 -0.103991 -0.990604
vn 0.783754 0.187471 -0.592101
vn 0.782913 0.189759 -0.592485
vn 0.855426 0.335163 0.394857
vn 0.855426 0.335163 0.394857
vn 0.046923 0.217101 0.975021
vn 0.046923 0.217101 0.975021
vn -0.806499 -0.129339 0.576915
vn -0.806499 -0.129339 0.576915
vn -0.866420 -0.298953 -0.399929
vn -0.866420 -0.298953 -0.399929
vn -0.084118 -0.129339 -0.988026
vn -0.084118 -0.129339 -0.988026
vn 0.772459 0.217101 -0.596803
vn 0.772459 0.217101 -0.596803
vn 0.835760 0.390741 0.385781
vn 0.835760 0.390741 0.385781
s 1
g pCylinder3
usemtl initialShadingGroup
f 1/7/1 2/8/2 20/35/3 15/30/4
s 2
f 2/8/5 3/9/6 19/34/7 20/35/8
s 3
f 3/9/9 4/10/10 18/33/11 19/34/12
s 4
f 4/10/13 5/11/14 17/32/15 18/33/16
s 5
f 5/11/17 6/12/18 16/31/19 17/32/20
s 6
f 6/12/21 1/13/22 15/29/23 16/31/24
s 7
f 2/2/25 1/1/26 13/27/27
f 3/3/28 2/2/25 13/27/27
f 4/4/29 3/3/28 13/27/27
f 5/5/30 4/4/29 13/27/27
f 6/6/31 5/5/30 13/27/27
f 1/1/26 6/6/31 13/27/27
s 8
f 7/25/32 8/24/33 14/28/34
f 8/24/33 9/23/35 14/28/34
f 9/23/35 10/22/36 14/28/34
f 10/22/36 11/21/37 14/28/34
f 11/21/37 12/26/38 14/28/34
f 12/26/38 7/25/32 14/28/34
s 6
f 16/31/24 15/29/23 21/36/39 22/38/40
s 5
f 17/32/20 16/31/19 22/38/41 23/39/42
s 4
f 18/33/16 17/32/15 23/39/43 24/40/44
s 3
f 19/34/12 18/33/11 24/40/45 25/41/46
s 2
f 20/35/8 19/34/7 25/41/47 26/42/48
s 1
f 15/30/4 20/35/3 26/42/49 21/37/50
s 6
f 22/38/40 21/36/39 27/43/51 28/45/52
s 5
f 23/39/42 22/38/41 28/45/53 29/46/54
s 4
f 24/40/44 23/39/43 29/46/55 30/47/56
s 3
f 25/41/46 24/40/45 30/47/57 31/48/58
s 2
f 26/42/48 25/41/47 31/48/59 32/49/60
s 1
f 21/37/50 26/42/49 32/49/61 27/44/62
s 6
f 28/45/52 27/43/51 33/50/63 34/52/64
s 5
f 29/46/54 28/45/53 34/52/65 35/53/66
s 4
f 30/47/56 29/46/55 35/53/67 36/54/68
s 3
f 31/48/58 30/47/57 36/54/69 37/55/70
s 2
f 32/49/60 31/48/59 37/55/71 38/56/72
s 1
f 27/44/62 32/49/61 38/56/73 33/51/74
s 6
f 34/52/64 33/50/63 7/20/75 12/19/76
s 5
f 35/53/66 34/52/65 12/19/77 11/18/78
s 4
f 36/54/68 35/53/67 11/18/79 10/17/80
s 3
f 37/55/70 36/54/69 10/17/81 9/16/82
s 2
f 38/56/72 37/55/71 9/16/83 8/15/84
s 1
f 33/51/74 38/56/73 8/15/85 7/14/86
s 9
f 39/57/87 40/58/88 58/59/89 53/60/90
s 10
f 40/58/91 41/61/92 57/62/93 58/59/94
s 11
f 41/61/95 42/63/96 56/64/97 57/62/98
s 12
f 42/63/99 43/65/100 55/66/101 56/64/102
s 13
f 43/65/103 44/67/104 54/68/105 55/66/106
s 14
f 44/67/107 39/69/108 53/70/109 54/68/110
s 15
f 40/71/111 39/72/112 51/73/113
f 41/74/114 40/71/111 51/73/113
f 42/75/115 41/74/114 51/73/113
f 43/76/116 42/75/115 51/73/113
f 44/77/117 43/76/116 51/73/113
f 39/72/112 44/77/117 51/73/113
s 16
f 45/78/118 46/79/119 52/80/120
f 46/79/119 47/81/121 52/80/120
f 47/81/121 48/82/122 52/80/120
f 48/82/122 49/83/123 52/80/120
f 49/83/123 50/84/124 52/80/120
f 50/84/124 45/78/118 52/80/120
s 14
f 54/68/110 53/70/109 59/85/125 60/86/126
s 13
f 55/66/106 54/68/105 60/86/127 61/87/128
s 12
f 56/64/102 55/66/101 61/87/129 62/88/130
s 11
f 57/62/98 56/64/97 62/88/131 63/89/132
s 10
f 58/59/94 57/62/93 63/89/133 64/90/134
s 9
f 53/60/90 58/59/89 64/90/135 59/91/136
s 14
f 60/86/126 59/85/125 65/92/137 66/93/138
s 13
f 61/87/128 60/86/127 66/93/139 67/94/140
s 12
f 62/88/130 61/87/129 67/94/141 68/95/142
s 11
f 63/89/132 62/88/131 68/95/143 69/96/144
s 10
f 64/90/134 63/89/133 69/96/145 70/97/146
s 9
f 59/91/136 64/90/135 70/97/147 65/98/148
s 14
f 66/93/138 65/92/137 71/99/149 72/100/150
s 13
f 67/94/140 66/93/139 72/100/151 73/101/152
s 12
f 68/95/142 67/94/141 73/101/153 74/102/154
s 11
f 69/96/144 68/95/143 74/102/155 75/103/156
s 10
f 70/97/146 69/96/145 75/103/157 76/104/158
s 9
f 65/98/148 70/97/147 76/104/159 71/105/160
s 14
f 72/100/150 71/99/149 45/106/161 50/107/162
s 13
f 73/101/152 72/100/151 50/107/163 49/108/164
s 12
f 74/102/154 73/101/153 49/108/165 48/109/166
s 11
f 75/103/156 74/102/155 48/109/167 47/110/168
s 10
f 76/104/158 75/103/157 47/110/169 46/111/170
s 9
f 71/105/160 76/104/159 46/111/171 45/112/172
s 17
f 77/113/173 78/114/174 96/115/175 91/116/176
s 18
f 78/114/177 79/117/178 95/118/179 96/115/180
s 19
f 79/117/181 80/119/182 94/120/183 95/118/184
s 20
f 80/119/185 81/121/186 93/122/187 94/120/188
s 21
f 81/121/189 82/123/190 92/124/191 93/122/192
s 22
f 82/123/193 77/125/194 91/126/195 92/124/196
s 23
f 78/127/197 77/128/198 89/129/199
f 79/130/200 78/127/197 89/129/199
f 80/131/201 79/130/200 89/129/199
f 81/132/202 80/131/201 89/129/199
f 82/133/203 81/132/202 89/129/199
f 77/128/198 82/133/203 89/129/199
s 24
f 83/134/204 84/135/205 90/136/206
f 84/135/205 85/137/207 90/136/206
f 85/137/207 86/138/208 90/136/206
f 86/138/208 87/139/209 90/136/206
f 87/139/209 88/140/210 90/136/206
f 88/140/210 83/134/204 90/136/206
s 22
f 92/124/196 91/126/195 97/141/211 98/142/212
s 21
f 93/122/192 92/124/191 98/142/213 99/143/214
s 20
f 94/120/188 93/122/187 99/143/215 100/144/216
s 19
f 95/118/184 94/120/183 100/144/217 101/145/218
s 18
f 96/115/180 95/118/179 101/145/219 102/146/220
s 17
f 91/116/176 96/115/175 102/146/221 97/147/222
s 22
f 98/142/212 97/141/211 103/148/223 104/149/224
s 21
f 99/143/214 98/142/213 104/149/225 105/150/226
s 20
f 100/144/216 99/143/215 105/150/227 106/151/228
s 19
f 101/145/218 100/144/217 106/151/229 107/152/230
s 18
f 102/146/220 101/145/219 107/152/231 108/153/232
s 17
f 97/147/222 102/146/221 108/153/233 103/154/234
s 22
f 104/149/224 103/148/223 109/155/235 110/156/236
s 21
f 105/150/226 104/149/225 110/156/237 111/157/238
s 20
f 106/151/228 105/150/227 111/157/239 112/158/240
s 19
f 107/152/230 106/151/229 112/158/241 113/159/242
s 18
f 108/153/232 107/152/231 113/159/243 114/160/244
s 17
f 103/154/234 108/153/233 114/160/245 109/161/246
s 22
f 110/156/236 109/155/235 83/162/247 88/163/248
s 21
f 111/157/238 110/156/237 88/163/249 87/164/250
s 20
f 112/158/240 111/157/239 87/164/251 86/165/252
s 19
f 113/159/242 112/158/241 86/165/253 85/166/254
s 18
f 114/160/244 113/159/243 85/166/255 84/167/256
s 17
f 109/161/246 114/160/245 84/167/257 83/168/258
s 25
f 115/169/259 116/170/260 134/171/261 129/172/262
s 26
f 116/170/263 117/173/264 133/174/265 134/171/266
s 27
f 117/173/267 118/175/268 132/176/269 133/174/270
s 28
f 118/175/271 119/177/272 131/178/273 132/176/274
s 29
f 119/177/275 120/179/276 130/180/277 131/178/278
s 30
f 120/179/279 115/181/280 129/182/281 130/180/282
s 31
f 116/183/283 115/184/284 127/185/285
f 117/186/286 116/183/283 127/185/285
f 118/187/287 117/186/286 127/185/285
f 119/188/288 118/187/287 127/185/285
f 120/189/289 119/188/288 127/185/285
f 115/184/284 120/189/289 127/185/285
s 32
f 121/190/290 122/191/291 128/192/292
f 122/191/291 123/193/293 128/192/292
f 123/193/293 124/194/294 128/192/292
f 124/194/294 125/195/295 128/192/292
f 125/195/295 126/196/296 128/192/292
f 126/196/296 121/190/290 128/192/292
s 30
f 130/180/282 129/182/281 135/197/297 136/198/298
s 29
f 131/178/278 130/180/277 136/198/299 137/199/300
s 28
f 132/176/274 131/178/273 137/199/301 138/200/302
s 27
f 133/174/270 132/176/269 138/200/303 139/201/304
s 26
f 134/171/266 133/174/265 139/201/305 140/202/306
s 25
f 129/172/262 134/171/261 140/202/307 135/203/308
s 30
f 136/198/298 135/197/297 141/204/309 142/205/310
s 29
f 137/199/300 136/198/299 142/205/311 143/206/312
s 28
f 138/200/302 137/199/301 143/206/313 144/207/314
s 27
f 139/201/304 138/200/303 144/207/315 145/208/316
s 26
f 140/202/306 139/201/305 145/208/317 146/209/318
s 25
f 135/203/308 140/202/307 146/209/319 141/210/320
s 30
f 142/205/310 141/204/309 147/211/321 148/212/322
s 29
f 143/206/312 142/205/311 148/212/323 149/213/324
s 28
f 144/207/314 143/206/313 149/213/325 150/214/326
s 27
f 145/208/316 144/207/315 150/214/327 151/215/328
s 26
f 146/209/318 145/208/317 151/215/329 152/216/330
s 25
f 141/210/320 146/209/319 152/216/331 147/217/332
s 30
f 148/212/322 147/211/321 121/218/333 126/219/334
s 29
f 149/213/324 148/212/323 126/219/335 125/220/336
s 28
f 150/214/326 149/213/325 125/220/337 124/221/338
s 27
f 151/215/328 150/214/327 124/221/339 123/222/340
s 26
f 152/216/330 151/215/329 123/222/341 122/223/342
s 25
f 147/217/332 152/216/331 122/223/343 121/224/344
s 33
f 153/225/345 154/226/346 172/227/347 167/228/348
s 34
f 154/226/349 155/229/350 171/230/351 172/227/352
s 35
f 155/229/353 156/231/354 170/232/355 171/230/356
s 36
f 156/231/357 157/233/358 169/234/359 170/232/360
s 37
f 157/233/361 158/235/362 168/236/363 169/234/364
s 38
f 158/235/365 153/237/366 167/238/367 168/236/368
s 39
f 154/239/369 153/240/370 165/241/371
f 155/242/372 154/239/369 165/241/371
f 156/243/373 155/242/372 165/241/371
f 157/244/374 156/243/373 165/241/371
f 158/245/375 157/244/374 165/241/371
f 153/240/370 158/245/375 165/241/371
s 40
f 159/246/376 160/247/377 166/248/378
f 160/247/377 161/249/379 166/248/378
f 161/249/379 162/250/380 166/248/378
f 162/250/380 163/251/381 166/248/378
f 163/251/381 164/252/382 166/248/378
f 164/252/382 159/246/376 166/248/378
s 38
f 168/236/368 167/238/367 173/253/383 174/254/384
s 37
f 169/234/364 168/236/363 174/254/385 175/255/386
s 36
f 170/232/360 169/234/359 175/255/387 176/256/388
s 35
f 171/230/356 170/232/355 176/256/389 177/257/390
s 34
f 172/227/352 171/230/351 177/257/391 178/258/392
s 33
f 167/228/348 172/227/347 178/258/393 173/259/394
s 38
f 174/254/384 173/253/383 179/260/395 180/261/396
s 37
f 175/255/386 174/254/385 180/261/397 181/262/398
s 36
f 176/256/388 175/255/387 181/262/399 182/263/400
s 35
f 177/257/390 176/256/389 182/263/401 183/264/402
s 34
f 178/258/392 177/257/391 183/264/403 184/265/404
s 33
f 173/259/394 178/258/393 184/265/405 179/266/406
s 38
f 180/261/396 179/260/395 185/267/407 186/268/408
s 37
f 181/262/398 180/261/397 186/268/409 187/269/410
s 36
f 182/263/400 181/262/399 187/269/411 188/270/412
s 35
f 183/264/402 182/263/401 188/270/413 189/271/414
s 34
f 184/265/404 183/264/403 189/271/415 190/272/416
s 33
f 179/266/406 184/265/405 190/272/417 185/273/418
s 38
f 186/268/408 185/267/407 159/274/419 164/275/420
s 37
f 187/269/410 186/268/409 164/275/421 163/276/422
s 36
f 188/270/412 187/269/411 163/276/423 162/277/424
s 35
f 189/271/414 188/270/413 162/277/425 161/278/426
s 34
f 190/272/416 189/271/415 161/278/427 160/279/428
s 33
f 185/273/418 190/272/417 160/279/429 159/280/430
s 41
f 191/281/431 192/282/432 210/283/433 205/284/434
s 42
f 192/282/435 193/285/436 209/286/437 210/283/438
s 43
f 193/285/439 194/287/440 208/288/441 209/286/442
s 44
f 194/287/443 195/289/444 207/290/445 208/288/446
s 45
f 195/289/447 196/291/448 206/292/449 207/290/450
s 46
f 196/291/451 191/293/452 205/294/453 206/292/454
s 47
f 192/295/455 191/296/456 203/297/457
f 193/298/458 192/295/455 203/297/457
f 194/299/459 193/298/458 203/297/457
f 195/300/460 194/299/459 203/297/457
f 196/301/461 195/300/460 203/297/457
f 191/296/456 196/301/461 203/297/457
s 48
f 197/302/462 198/303/463 204/304/464
f 198/303/463 199/305/465 204/304/464
f 199/305/465 200/306/466 204/304/464
f 200/306/466 201/307/467 204/304/464
f 201/307/467 202/308/468 204/304/464
f 202/308/468 197/302/462 204/304/464
s 46
f 206/292/454 205/294/453 211/309/469 212/310/470
s 45
f 207/290/450 206/292/449 212/310/471 213/311/472
s 44
f 208/288/446 207/290/445 213/311/473 214/312/474
s 43
f 209/286/442 208/288/441 214/312/475 215/313/476
s 42
f 210/283/438 209/286/437 215/313/477 216/314/478
s 41
f 205/284/434 210/283/433 216/314/479 211/315/480
s 46
f 212/310/470 211/309/469 217/316/481 218/317/482
s 45
f 213/311/472 212/310/471 218/317/483 219/318/484
s 44
f 214/312/474 213/311/473 219/318/485 220/319/486
s 43
f 215/313/476 214/312/475 220/319/487 221/320/488
s 42
f 216/314/478 215/313/477 221/320/489 222/321/490
s 41
f 211/315/480 216/314/479 222/321/491 217/322/492
s 46
f 218/317/482 217/316/481 223/323/493 224/324/494
s 45
f 219/318/484 218/317/483 224/324/495 225/325/496
s 44
f 220/319/486 219/318/485 225/325/497 226/326/498
s 43
f 221/320/488 220/319/487 226/326/499 227/327/500
s 42
f 222/321/490 221/320/489 227/327/501 228/328/502
s 41
f 217/322/492 222/321/491 228/328/503 223/329/504
s 46
f 224/324/494 223/323/493 197/330/505 202/331/506
s 45
f 225/325/496 224/324/495 202/331/507 201/332/508
s 44
f 226/326/498 225/325/497 201/332/509 200/333/510
s 43
f 227/327/500 226/326/499 200/333/511 199/334/512
s 42
f 228/328/502 227/327/501 199/334/513 198/335/514
s 41
f 223/329/504 228/328/503 198/335/515 197/336/516
s 49
f 229/337/517 230/338/518 248/339/519 243/340/520
s 50
f 230/338/521 231/341/522 247/342/523 248/339/524
s 51
f 231/341/525 232/343/526 246/344/527 247/342/528
s 52
f 232/343/529 233/345/530 245/346/531 246/344/532
s 53
f 233/345/533 234/347/534 244/348/535 245/346/536
s 54
f 234/347/537 229/349/538 243/350/539 244/348/540
s 55
f 230/351/541 229/352/542 241/353/543
f 231/354/544 230/351/541 241/353/543
f 232/355/545 231/354/544 241/353/543
f 233/356/546 232/355/545 241/353/543
f 234/357/547 233/356/546 241/353/543
f 229/352/542 234/357/547 241/353/543
s 56
f 235/358/548 236/359/549 242/360/550
f 236/359/549 237/361/551 242/360/550
f 237/361/551 238/362/552 242/360/550
f 238/362/552 239/363/553 242/360/550
f 239/363/553 240/364/554 242/360/550
f 240/364/554 235/358/548 242/360/550
s 54
f 244/348/540 243/350/539 249/365/555 250/366/556
s 53
f 245/346/536 244/348/535 250/366/557 251/367/558
s 52
f 246/344/532 245/346/531 251/367/559 252/368/560
s 51
f 247/342/528 246/344/527 252/368/561 253/369/562
s 50
f 248/339/524 247/342/523 253/369/563 254/370/564
s 49
f 243/340/520 248/339/519 254/370/565 249/371/566
s 54
f 250/366/556 249/365/555 255/372/567 256/373/568
s 53
f 251/367/558 250/366/557 256/373/569 257/374/570
s 52
f 252/368/560 251/367/559 257/374/571 258/375/572
s 51
f 253/369/562 252/368/561 258/375/573 259/376/574
s 50
f 254/370/564 253/369/563 259/376/575 260/377/576
s 49
f 249/371/566 254/370/565 260/377/577 255/378/578
s 54
f 256/373/568 255/372/567 261/379/579 262/380/580
s 53
f 257/374/570 256/373/569 262/380/581 263/381/582
s 52
f 258/375/572 257/374/571 263/381/583 264/382/584
s 51
f 259/376/574 258/375/573 264/382/585 265/383/586
s 50
f 260/377/576 259/376/575 265/383/587 266/384/588
s 49
f 255/378/578 260/377/577 266/384/589 261/385/590
s 54
f 262/380/580 261/379/579 235/386/591 240/387/592
s 53
f 263/381/582 262/380/581 240/387/593 239/388/594
s 52
f 264/382/584 263/381/583 239/388/595 238/389/596
s 51
f 265/383/586 264/382/585 238/389/597 237/390/598
s 50
f 266/384/588 265/383/587 237/390/599 236/391/600
s 49
f 261/385/590 266/384/589 236/391/601 235/392/602
