# This file uses centimeters as units for non-parametric coordinates.

mtllib Env_SingleVine.mtl
g default
v 3.820160 -31.487797 870.827310
v 1.459171 -31.425120 869.091017
v -1.459172 -31.425120 869.091017
v -3.820161 -31.487797 870.827310
v -4.721978 -31.578736 873.635395
v -3.820160 -31.673248 876.443919
v -1.459171 -31.733085 878.179857
v 1.459172 -31.733085 878.179857
v 3.820160 -31.673250 876.443919
v 4.721978 -31.578736 873.635395
v 3.820160 -33.030356 1078.239397
v 1.459171 -33.080871 1079.975644
v -1.459172 -33.080871 1079.975644
v -3.820161 -33.030356 1078.239397
v -4.721978 -32.950945 1075.430409
v -3.820160 -32.875106 1072.621887
v -1.459171 -32.821765 1070.885285
v 1.459172 -32.821763 1070.885285
v 3.820160 -32.875106 1072.621887
v 4.721978 -32.950945 1075.430409
v 0.000000 -31.578736 873.635395
v 0.000000 -32.950945 1075.430409
v 3.820160 -13.125803 1063.706973
v 4.721978 -15.215354 1061.828062
v 3.820160 -17.306617 1059.951784
v 1.459172 -18.595715 1058.786990
v -1.459171 -18.595715 1058.786990
v -3.820160 -17.306617 1059.951784
v -4.721978 -15.215354 1061.828062
v -3.820161 -13.125803 1063.706973
v -1.459172 -11.835353 1064.869698
v 1.459171 -11.835352 1064.869698
v 7.975217 -6.433776 1045.536149
v 8.877034 -9.209194 1045.096387
v 7.975217 -11.984615 1044.659323
v 5.614228 -13.699914 1044.383321
v 2.695886 -13.699915 1044.383321
v 0.334896 -11.984615 1044.659323
v -0.566922 -9.209195 1045.096387
v 0.334896 -6.433776 1045.536149
v 2.695884 -4.718471 1045.810029
v 5.614228 -4.718470 1045.810029
v 5.347693 -6.148703 1027.346451
v 6.132164 -8.668361 1026.025344
v 5.237608 -11.393080 1025.330262
v 3.002894 -13.280618 1025.519619
v 0.284861 -13.611721 1026.529267
v -1.878297 -12.259921 1027.973560
v -2.663577 -9.739834 1029.292635
v -1.768212 -7.015544 1029.989749
v 0.465870 -5.127668 1029.798805
v 3.183903 -4.796563 1028.789157
v 0.071747 -6.422352 1014.262276
v 0.973564 -9.197771 1013.823050
v 0.071747 -11.973191 1013.385450
v -2.289242 -13.688492 1013.109877
v -5.207585 -13.688492 1013.109877
v -7.568574 -11.973192 1013.385450
v -8.470392 -9.197772 1013.823050
v -7.568574 -6.422353 1014.262276
v -5.207586 -4.707049 1014.536584
v -2.289243 -4.707048 1014.536584
v -1.855146 -6.416074 1000.403081
v -0.953328 -9.191493 999.964153
v -1.855146 -11.966913 999.526253
v -4.216135 -13.682214 999.250916
v -7.134477 -13.682214 999.250916
v -9.495467 -11.966913 999.526253
v -10.397284 -9.191493 999.964153
v -9.495468 -6.416074 1000.403081
v -7.134478 -4.700770 1000.677621
v -4.216135 -4.700770 1000.677621
v 1.556316 -6.409803 986.376382
v 2.550090 -9.185223 986.241902
v 1.830631 -11.960643 985.543570
v -0.325777 -13.675945 984.543643
v -3.097627 -13.675945 983.630641
v -5.426167 -11.960643 983.153301
v -6.419805 -9.185224 983.287368
v -5.700483 -6.409804 983.986114
v -3.543972 -4.694501 984.985729
v -0.772121 -4.694500 985.898730
v 7.219741 -6.402790 969.343539
v 8.196185 -9.178210 969.115639
v 7.413751 -11.953629 968.488443
v 5.172091 -13.668932 967.698018
v 2.326082 -13.668932 967.052302
v -0.037202 -11.953630 966.797935
v -1.013697 -9.178210 967.026056
v -0.231211 -6.402791 967.653030
v 2.010405 -4.687488 968.443646
v 4.856415 -4.687488 969.089362
v 11.182537 -6.396305 954.236768
v 12.152828 -9.171726 953.984478
v 11.354796 -11.947145 953.377027
v 9.093762 -13.662448 952.643951
v 6.232290 -13.662449 952.070624
v 3.863365 -11.947146 951.876040
v 2.892910 -9.171726 952.129158
v 3.691106 -6.396306 952.735783
v 5.952005 -4.681005 953.469528
v 8.813478 -4.681004 954.042852
v 14.836329 -6.390070 938.781882
v 15.779131 -9.165490 938.441329
v 14.928427 -11.940909 937.909899
v 12.609318 -13.656213 937.389058
v 9.707121 -13.656213 937.082518
v 7.330373 -11.940909 937.107364
v 6.387417 -9.165491 937.449342
v 7.238272 -6.390070 937.979347
v 9.557260 -4.674769 938.501331
v 12.459458 -4.674769 938.807874
v 14.946883 -6.383243 922.179451
v 15.768052 -9.158664 921.604773
v 14.808018 -11.934083 921.313685
v 12.433412 -13.649387 921.416945
v 9.551902 -13.649388 921.879126
v 7.264120 -11.934083 922.523688
v 6.443278 -9.158664 923.100420
v 7.402983 -6.383244 923.389454
v 9.777851 -4.667944 923.287829
v 12.659362 -4.667943 922.825648
v 7.577924 -6.376098 904.487603
v 8.359560 -9.151519 903.860451
v 7.382373 -11.926937 903.632861
v 5.019774 -13.642243 903.892464
v 2.174936 -13.642243 904.543315
v -0.065516 -11.926938 905.336817
v -0.846536 -9.151519 905.966657
v 0.130037 -6.376099 906.191563
v 2.493123 -4.660799 905.934089
v 5.337961 -4.660799 905.283239
v 3.820160 -13.995411 880.657459
v 4.721978 -15.728050 882.869167
v 3.820160 -17.463484 885.079330
v 1.459172 -18.537552 886.444447
v -1.459171 -18.537552 886.444447
v -3.820160 -17.463485 885.079330
v -4.721978 -15.728050 882.869167
v -3.820161 -13.995412 880.657459
v -1.459172 -12.919131 879.293575
v 1.459171 -12.919130 879.293575
vt 0.626409 0.064409
vt 0.548284 0.007647
vt 0.451716 0.007647
vt 0.373591 0.064409
vt 0.343750 0.156250
vt 0.373591 0.248091
vt 0.451716 0.304853
vt 0.548284 0.304853
vt 0.626409 0.248091
vt 0.656250 0.156250
vt 0.375000 0.312500
vt 0.400000 0.312500
vt 0.425000 0.312500
vt 0.450000 0.312500
vt 0.475000 0.312500
vt 0.500000 0.312500
vt 0.525000 0.312500
vt 0.550000 0.312500
vt 0.575000 0.312500
vt 0.600000 0.312500
vt 0.625000 0.312500
vt 0.375000 0.687500
vt 0.400000 0.687500
vt 0.425000 0.687500
vt 0.450000 0.687500
vt 0.475000 0.687500
vt 0.500000 0.687500
vt 0.525000 0.687500
vt 0.550000 0.687500
vt 0.575000 0.687500
vt 0.600000 0.687500
vt 0.625000 0.687500
vt 0.626409 0.751909
vt 0.548284 0.695147
vt 0.451716 0.695147
vt 0.373591 0.751909
vt 0.343750 0.843750
vt 0.373591 0.935591
vt 0.451716 0.992353
vt 0.548284 0.992353
vt 0.626409 0.935591
vt 0.656250 0.843750
vt 0.500000 0.156250
vt 0.500000 0.843750
vt 0.625000 0.663259
vt 0.375000 0.663259
vt 0.600000 0.663259
vt 0.575000 0.663259
vt 0.550000 0.663259
vt 0.525000 0.663259
vt 0.500000 0.663259
vt 0.475000 0.663259
vt 0.450000 0.663259
vt 0.425000 0.663259
vt 0.400000 0.663259
vt 0.625000 0.639937
vt 0.375000 0.639937
vt 0.600000 0.639937
vt 0.575000 0.639937
vt 0.550000 0.639937
vt 0.525000 0.639937
vt 0.500000 0.639937
vt 0.475000 0.639937
vt 0.450000 0.639937
vt 0.425000 0.639937
vt 0.400000 0.639937
vt 0.625000 0.615074
vt 0.375000 0.615074
vt 0.600000 0.615074
vt 0.575000 0.615074
vt 0.550000 0.615074
vt 0.525000 0.615074
vt 0.500000 0.615074
vt 0.475000 0.615074
vt 0.450000 0.615074
vt 0.425000 0.615074
vt 0.400000 0.615074
vt 0.625000 0.583705
vt 0.375000 0.583705
vt 0.600000 0.583705
vt 0.575000 0.583705
vt 0.550000 0.583705
vt 0.525000 0.583705
vt 0.500000 0.583705
vt 0.475000 0.583705
vt 0.450000 0.583705
vt 0.425000 0.583705
vt 0.400000 0.583705
vt 0.625000 0.552798
vt 0.375000 0.552798
vt 0.600000 0.552798
vt 0.575000 0.552798
vt 0.550000 0.552798
vt 0.525000 0.552798
vt 0.500000 0.552798
vt 0.475000 0.552798
vt 0.450000 0.552798
vt 0.425000 0.552798
vt 0.400000 0.552798
vt 0.625000 0.521934
vt 0.375000 0.521934
vt 0.600000 0.521934
vt 0.575000 0.521934
vt 0.550000 0.521934
vt 0.525000 0.521934
vt 0.500000 0.521934
vt 0.475000 0.521934
vt 0.450000 0.521934
vt 0.425000 0.521934
vt 0.400000 0.521934
vt 0.625000 0.487410
vt 0.375000 0.487410
vt 0.600000 0.487410
vt 0.575000 0.487410
vt 0.550000 0.487410
vt 0.525000 0.487410
vt 0.500000 0.487410
vt 0.475000 0.487410
vt 0.450000 0.487410
vt 0.425000 0.487410
vt 0.400000 0.487410
vt 0.625000 0.455491
vt 0.375000 0.455491
vt 0.600000 0.455491
vt 0.575000 0.455491
vt 0.550000 0.455491
vt 0.525000 0.455491
vt 0.500000 0.455491
vt 0.475000 0.455491
vt 0.450000 0.455491
vt 0.425000 0.455491
vt 0.400000 0.455491
vt 0.625000 0.424794
vt 0.375000 0.424794
vt 0.600000 0.424794
vt 0.575000 0.424794
vt 0.550000 0.424794
vt 0.525000 0.424794
vt 0.500000 0.424794
vt 0.475000 0.424794
vt 0.450000 0.424794
vt 0.425000 0.424794
vt 0.400000 0.424794
vt 0.625000 0.391190
vt 0.375000 0.391190
vt 0.600000 0.391190
vt 0.575000 0.391190
vt 0.550000 0.391190
vt 0.525000 0.391190
vt 0.500000 0.391190
vt 0.475000 0.391190
vt 0.450000 0.391190
vt 0.425000 0.391190
vt 0.400000 0.391190
vt 0.625000 0.356015
vt 0.375000 0.356015
vt 0.600000 0.356015
vt 0.575000 0.356015
vt 0.550000 0.356015
vt 0.525000 0.356015
vt 0.500000 0.356015
vt 0.475000 0.356015
vt 0.450000 0.356015
vt 0.425000 0.356015
vt 0.400000 0.356015
vt 0.625000 0.332739
vt 0.375000 0.332739
vt 0.600000 0.332739
vt 0.575000 0.332739
vt 0.550000 0.332739
vt 0.525000 0.332739
vt 0.500000 0.332739
vt 0.475000 0.332739
vt 0.450000 0.332739
vt 0.425000 0.332739
vt 0.400000 0.332739
vn 0.568472 0.400052 -0.718886
vn 0.568472 0.400052 -0.718886
vn 0.566809 0.608570 -0.555310
vn 0.559869 0.655856 -0.506359
vn 0.000000 0.482800 -0.875731
vn 0.000000 0.482800 -0.875731
vn -0.019510 0.797179 -0.603427
vn -0.021056 0.818120 -0.574662
vn -0.568473 0.400052 -0.718886
vn -0.568473 0.400052 -0.718886
vn -0.589277 0.690614 -0.419291
vn -0.591227 0.673750 -0.443297
vn -0.945990 0.160915 -0.281442
vn -0.945990 0.160915 -0.281442
vn -0.946222 0.310066 -0.092315
vn -0.950807 0.279667 -0.133239
vn -0.945728 -0.166048 0.279334
vn -0.945728 -0.166048 0.279334
vn -0.940044 -0.226771 0.254739
vn -0.942124 -0.209143 0.262034
vn -0.565145 -0.433030 0.702208
vn -0.565145 -0.433030 0.702208
vn -0.557208 -0.672930 0.486502
vn -0.564763 -0.618738 0.546083
vn 0.000000 -0.530802 0.847496
vn 0.000000 -0.530802 0.847496
vn 0.018040 -0.836351 0.547897
vn 0.016143 -0.809182 0.587336
vn 0.565145 -0.433030 0.702208
vn 0.565145 -0.433030 0.702208
vn 0.587350 -0.683626 0.433216
vn 0.585699 -0.699626 0.409243
vn 0.945728 -0.166047 0.279334
vn 0.945728 -0.166047 0.279334
vn 0.950878 -0.279099 0.133919
vn 0.946533 -0.309122 0.092300
vn 0.945990 0.160915 -0.281442
vn 0.945990 0.160915 -0.281442
vn 0.942454 0.206150 -0.263215
vn 0.940549 0.222970 -0.256224
vn -0.000679 -0.999422 -0.034002
vn -0.000688 -0.999445 -0.033303
vn -0.000000 -0.999435 -0.033622
vn 0.000679 -0.999422 -0.034002
vn 0.000688 -0.999445 -0.033303
vn 0.000000 -0.999455 -0.033000
vn -0.000151 -0.999427 -0.033839
vn -0.000149 -0.999422 -0.033993
vn 0.000148 -0.999422 -0.033992
vn 0.000150 -0.999427 -0.033839
vn 0.000000 -0.999455 -0.033001
vn 0.000153 -0.999595 -0.028467
vn 0.000151 -0.999590 -0.028622
vn -0.000000 -0.999601 -0.028249
vn -0.000151 -0.999590 -0.028622
vn -0.000153 -0.999595 -0.028467
vn 0.000000 -0.999618 -0.027626
vn 0.000688 -0.999610 -0.027929
vn 0.000679 -0.999590 -0.028628
vn -0.000679 -0.999590 -0.028628
vn -0.000688 -0.999610 -0.027929
vn 0.000000 -0.999618 -0.027626
vn 0.936398 0.204609 0.285121
vn 0.936935 0.204619 0.283343
vn 0.939757 0.204662 0.273807
vn 0.939757 0.204662 0.273807
vn 0.948074 -0.305045 -0.090022
vn 0.948786 -0.298065 -0.104697
vn 0.939042 -0.212934 -0.269924
vn 0.939042 -0.212934 -0.269924
vn 0.573816 -0.696256 -0.431234
vn 0.574440 -0.702576 -0.420007
vn 0.538933 -0.538484 -0.647755
vn 0.538933 -0.538484 -0.647755
vn 0.000000 -0.796044 -0.605239
vn 0.000000 -0.823352 -0.567531
vn 0.000001 -0.647840 -0.761777
vn 0.000001 -0.647840 -0.761777
vn -0.559162 -0.611809 -0.559488
vn -0.563787 -0.632355 -0.531291
vn -0.538933 -0.538484 -0.647755
vn -0.538933 -0.538484 -0.647755
vn -0.935425 -0.206248 -0.287126
vn -0.934603 -0.204799 -0.290815
vn -0.939042 -0.212934 -0.269924
vn -0.939042 -0.212934 -0.269924
vn -0.950127 0.289269 0.116541
vn -0.949706 0.294944 0.105195
vn -0.939757 0.204662 0.273807
vn -0.939757 0.204662 0.273807
vn -0.581567 0.666197 0.466863
vn -0.580786 0.657841 0.479513
vn -0.545950 0.489653 0.679837
vn -0.545950 0.489653 0.679837
vn -0.000000 0.781003 0.624527
vn -0.000000 0.756185 0.654358
vn 0.000000 0.579473 0.814991
vn 0.000000 0.579473 0.814991
vn 0.569955 0.609055 0.551546
vn 0.566988 0.589192 0.575654
vn 0.545950 0.489653 0.679837
vn 0.545950 0.489653 0.679837
vn 0.956415 0.278161 0.088866
vn 0.956409 0.279353 0.085112
vn 0.941856 -0.334988 -0.026283
vn 0.942661 -0.332142 -0.032732
vn 0.589119 -0.799741 -0.115558
vn 0.591214 -0.798295 -0.114850
vn 0.029192 -0.985739 -0.165731
vn 0.031511 -0.987730 -0.152957
vn -0.575552 -0.800509 -0.167110
vn -0.574273 -0.804539 -0.151415
vn -0.956612 -0.272859 -0.102187
vn -0.956665 -0.274487 -0.097203
vn -0.940621 0.339315 0.009904
vn -0.940383 0.340013 0.008416
vn -0.589954 0.798177 0.121936
vn -0.588959 0.798575 0.124117
vn -0.027755 0.981313 0.190408
vn -0.026566 0.979955 0.197441
vn 0.576304 0.797271 0.179533
vn 0.576570 0.796159 0.183571
vn 0.892925 0.369755 -0.256840
vn 0.911754 0.357564 -0.202122
vn 0.932513 -0.251123 -0.259532
vn 0.940677 -0.263122 -0.214229
vn 0.610894 -0.775411 -0.159832
vn 0.611821 -0.776855 -0.148899
vn 0.055967 -0.998321 -0.014954
vn 0.056126 -0.998325 -0.014066
vn -0.524969 -0.842423 0.121369
vn -0.517523 -0.843620 0.143093
vn -0.910442 -0.358498 0.206337
vn -0.894952 -0.368539 0.251474
vn -0.940667 0.263105 0.214292
vn -0.932586 0.251186 0.259208
vn -0.611993 0.777064 0.147094
vn -0.610743 0.775130 0.161763
vn -0.055775 0.998315 0.016022
vn -0.056292 0.998328 0.013144
vn 0.517222 0.843627 -0.144132
vn 0.525333 0.842329 -0.120444
vn 0.902552 0.357977 -0.239275
vn 0.898140 0.361206 -0.250746
vn 0.937430 -0.261829 -0.229501
vn 0.930244 -0.250842 -0.267813
vn 0.597775 -0.789979 -0.136375
vn 0.600184 -0.782382 -0.166304
vn 0.023158 -0.999729 -0.002421
vn 0.032992 -0.999450 -0.003256
vn -0.543059 -0.828948 0.133907
vn -0.536989 -0.831483 0.142400
vn -0.903283 -0.358412 0.235839
vn -0.905791 -0.356410 0.229162
vn -0.931335 0.251849 0.263035
vn -0.936532 0.259876 0.235312
vn -0.599435 0.778631 0.185502
vn -0.597990 0.786156 0.156102
vn -0.031122 0.999268 0.022256
vn -0.022840 0.999604 0.016454
vn 0.536228 0.831391 -0.145770
vn 0.542217 0.828975 -0.137117
vn 0.947314 0.312379 0.070825
vn 0.948274 0.315750 0.032837
vn 0.948267 -0.308992 0.072901
vn 0.950913 -0.306576 0.042134
vn 0.584632 -0.810213 0.041959
vn 0.585272 -0.810073 0.035194
vn 0.000032 -1.000000 -0.000425
vn 0.000035 -1.000000 -0.000422
vn -0.583582 -0.811465 -0.030927
vn -0.583507 -0.810504 -0.051011
vn -0.948078 -0.314652 -0.046288
vn -0.946683 -0.311248 -0.083158
vn -0.950927 0.305879 -0.046640
vn -0.948330 0.308001 -0.076198
vn -0.586773 0.809171 -0.030652
vn -0.586120 0.809305 -0.038575
vn -0.000034 1.000000 0.000423
vn -0.000033 1.000000 0.000424
vn 0.583817 0.810906 0.039857
vn 0.583741 0.811660 0.021330
vn 0.914695 0.298365 0.272601
vn 0.916679 0.297617 0.266690
vn 0.908616 -0.315711 0.273392
vn 0.910257 -0.315934 0.267614
vn 0.563131 -0.808932 0.168857
vn 0.564108 -0.808743 0.166487
vn 0.000087 -1.000000 -0.000390
vn 0.000086 -1.000000 -0.000390
vn -0.570737 -0.804230 -0.165750
vn -0.569963 -0.804459 -0.167298
vn -0.918538 -0.297653 -0.260174
vn -0.916482 -0.298337 -0.266563
vn -0.914224 0.315073 -0.254802
vn -0.911761 0.315166 -0.263369
vn -0.566564 0.808771 -0.157782
vn -0.564964 0.809015 -0.162206
vn -0.000086 1.000000 0.000390
vn -0.000087 1.000000 0.000390
vn 0.569513 0.804971 0.166365
vn 0.570296 0.804802 0.164485
vn 0.914284 0.302221 0.269717
vn 0.912461 0.302132 0.275920
vn 0.910589 -0.314898 0.267705
vn 0.909226 -0.314888 0.272312
vn 0.562400 -0.810144 0.165449
vn 0.562134 -0.810135 0.166391
vn 0.000098 -1.000000 -0.000396
vn 0.000097 -1.000000 -0.000397
vn -0.565465 -0.807143 -0.169619
vn -0.566371 -0.807179 -0.166390
vn -0.912618 -0.302147 -0.275383
vn -0.914441 -0.302234 -0.269168
vn -0.908359 0.315288 -0.274731
vn -0.909809 0.315265 -0.269917
vn -0.561167 0.810260 -0.169027
vn -0.561438 0.810266 -0.168098
vn -0.000097 1.000000 0.000397
vn -0.000098 1.000000 0.000396
vn 0.565985 0.807046 0.168340
vn 0.565019 0.806993 0.171802
vn 0.926280 0.299471 0.228743
vn 0.925502 0.300032 0.231142
vn 0.921251 -0.316723 0.225794
vn 0.920814 -0.316426 0.227980
vn 0.569267 -0.810293 0.139138
vn 0.569131 -0.810286 0.139740
vn 0.000075 -1.000000 -0.000404
vn 0.000074 -1.000000 -0.000403
vn -0.573897 -0.806368 -0.142874
vn -0.574416 -0.806208 -0.141685
vn -0.925327 -0.299964 -0.231929
vn -0.926081 -0.299373 -0.229673
vn -0.919778 0.316797 -0.231623
vn -0.920098 0.317138 -0.229875
vn -0.568231 0.810348 -0.143003
vn -0.568323 0.810357 -0.142587
vn -0.000074 1.000000 0.000403
vn -0.000075 1.000000 0.000404
vn 0.574256 0.806021 0.143385
vn 0.573738 0.806200 0.144454
vn 0.948317 0.301810 0.098014
vn 0.946088 0.301308 0.118877
vn 0.944382 -0.315328 0.093336
vn 0.941867 -0.316152 0.113728
vn 0.582744 -0.810555 0.058398
vn 0.581625 -0.810748 0.066328
vn 0.000025 -1.000000 -0.000418
vn 0.000024 -1.000000 -0.000418
vn -0.585598 -0.807516 -0.070654
vn -0.586528 -0.807556 -0.061947
vn -0.945526 -0.301291 -0.123308
vn -0.947870 -0.301896 -0.101988
vn -0.939812 0.317284 -0.126827
vn -0.942472 0.316576 -0.107361
vn -0.580175 0.810885 -0.076564
vn -0.581179 0.810751 -0.070100
vn -0.000024 1.000000 0.000418
vn -0.000025 1.000000 0.000418
vn 0.587025 0.806858 0.066187
vn 0.585940 0.806860 0.075181
vn 0.921614 0.324189 -0.213378
vn 0.929157 0.321934 -0.181732
vn 0.929751 -0.294486 -0.220999
vn 0.936735 -0.298191 -0.183330
vn 0.575803 -0.805888 -0.137825
vn 0.578562 -0.806949 -0.118743
vn -0.000046 -1.000000 -0.000405
vn -0.000044 -1.000000 -0.000407
vn -0.567742 -0.813263 0.127560
vn -0.565838 -0.813297 0.135556
vn -0.925347 -0.323469 0.197741
vn -0.917375 -0.325581 0.228954
vn -0.935239 0.297942 0.191203
vn -0.927857 0.293955 0.229502
vn -0.578018 0.807597 0.116973
vn -0.575461 0.806488 0.135730
vn 0.000045 1.000000 0.000406
vn 0.000046 1.000000 0.000405
vn 0.567991 0.813380 -0.125692
vn 0.570232 0.813272 -0.115867
vn 0.911260 0.292510 -0.289900
vn 0.900041 0.304094 -0.312176
vn 0.917444 -0.354365 -0.180893
vn 0.911616 -0.329267 -0.246046
vn 0.555929 -0.830920 -0.022679
vn 0.559001 -0.825477 -0.078138
vn 0.015568 -0.990312 0.137984
vn 0.014125 -0.992029 0.125218
vn -0.531645 -0.802947 0.269500
vn -0.530216 -0.801804 0.275647
vn -0.898717 -0.304293 0.315774
vn -0.909684 -0.293346 0.293979
vn -0.915274 0.335160 0.223477
vn -0.920293 0.358133 0.157487
vn -0.562047 0.826805 0.022296
vn -0.558824 0.828641 -0.032714
vn -0.019667 0.984503 -0.174263
vn -0.020676 0.982860 -0.183189
vn 0.528887 0.797937 -0.289095
vn 0.530974 0.799940 -0.279575
s 1
g pCylinder4
usemtl initialShadingGroup
f 1/11/1 2/12/2 142/176/3 133/167/4
s 2
f 2/12/5 3/13/6 141/175/7 142/176/8
s 3
f 3/13/9 4/14/10 140/174/11 141/175/12
s 4
f 4/14/13 5/15/14 139/173/15 140/174/16
s 5
f 5/15/17 6/16/18 138/172/19 139/173/20
s 6
f 6/16/21 7/17/22 137/171/23 138/172/24
s 7
f 7/17/25 8/18/26 136/170/27 137/171/28
s 8
f 8/18/29 9/19/30 135/169/31 136/170/32
s 9
f 9/19/33 10/20/34 134/168/35 135/169/36
s 10
f 10/20/37 1/21/38 133/166/39 134/168/40
s 11
f 2/2/41 1/1/42 21/43/43
f 3/3/44 2/2/41 21/43/43
f 4/4/45 3/3/44 21/43/43
f 5/5/46 4/4/45 21/43/43
f 6/6/47 5/5/46 21/43/43
f 7/7/48 6/6/47 21/43/43
f 8/8/49 7/7/48 21/43/43
f 9/9/50 8/8/49 21/43/43
f 10/10/51 9/9/50 21/43/43
f 1/1/42 10/10/51 21/43/43
s 12
f 11/41/52 12/40/53 22/44/54
f 12/40/53 13/39/55 22/44/54
f 13/39/55 14/38/56 22/44/54
f 14/38/56 15/37/57 22/44/54
f 15/37/57 16/36/58 22/44/54
f 16/36/58 17/35/59 22/44/54
f 17/35/59 18/34/60 22/44/54
f 18/34/60 19/33/61 22/44/54
f 19/33/61 20/42/62 22/44/54
f 20/42/62 11/41/52 22/44/54
s 10
f 24/47/63 23/45/64 11/32/65 20/31/66
s 9
f 25/48/67 24/47/68 20/31/69 19/30/70
s 8
f 26/49/71 25/48/72 19/30/73 18/29/74
s 7
f 27/50/75 26/49/76 18/29/77 17/28/78
s 6
f 28/51/79 27/50/80 17/28/81 16/27/82
s 5
f 29/52/83 28/51/84 16/27/85 15/26/86
s 4
f 30/53/87 29/52/88 15/26/89 14/25/90
s 3
f 31/54/91 30/53/92 14/25/93 13/24/94
s 2
f 32/55/95 31/54/96 13/24/97 12/23/98
s 1
f 23/46/99 32/55/100 12/23/101 11/22/102
s 10
f 34/58/103 33/56/104 23/45/64 24/47/63
s 9
f 35/59/105 34/58/106 24/47/68 25/48/67
s 8
f 36/60/107 35/59/108 25/48/72 26/49/71
s 7
f 37/61/109 36/60/110 26/49/76 27/50/75
s 6
f 38/62/111 37/61/112 27/50/80 28/51/79
s 5
f 39/63/113 38/62/114 28/51/84 29/52/83
s 4
f 40/64/115 39/63/116 29/52/88 30/53/87
s 3
f 41/65/117 40/64/118 30/53/92 31/54/91
s 2
f 42/66/119 41/65/120 31/54/96 32/55/95
s 1
f 33/57/121 42/66/122 32/55/100 23/46/99
s 10
f 44/69/123 43/67/124 33/56/104 34/58/103
s 9
f 45/70/125 44/69/126 34/58/106 35/59/105
s 8
f 46/71/127 45/70/128 35/59/108 36/60/107
s 7
f 47/72/129 46/71/130 36/60/110 37/61/109
s 6
f 48/73/131 47/72/132 37/61/112 38/62/111
s 5
f 49/74/133 48/73/134 38/62/114 39/63/113
s 4
f 50/75/135 49/74/136 39/63/116 40/64/115
s 3
f 51/76/137 50/75/138 40/64/118 41/65/117
s 2
f 52/77/139 51/76/140 41/65/120 42/66/119
s 1
f 43/68/141 52/77/142 42/66/122 33/57/121
s 10
f 54/80/143 53/78/144 43/67/124 44/69/123
s 9
f 55/81/145 54/80/146 44/69/126 45/70/125
s 8
f 56/82/147 55/81/148 45/70/128 46/71/127
s 7
f 57/83/149 56/82/150 46/71/130 47/72/129
s 6
f 58/84/151 57/83/152 47/72/132 48/73/131
s 5
f 59/85/153 58/84/154 48/73/134 49/74/133
s 4
f 60/86/155 59/85/156 49/74/136 50/75/135
s 3
f 61/87/157 60/86/158 50/75/138 51/76/137
s 2
f 62/88/159 61/87/160 51/76/140 52/77/139
s 1
f 53/79/161 62/88/162 52/77/142 43/68/141
s 10
f 64/91/163 63/89/164 53/78/144 54/80/143
s 9
f 65/92/165 64/91/166 54/80/146 55/81/145
s 8
f 66/93/167 65/92/168 55/81/148 56/82/147
s 7
f 67/94/169 66/93/170 56/82/150 57/83/149
s 6
f 68/95/171 67/94/172 57/83/152 58/84/151
s 5
f 69/96/173 68/95/174 58/84/154 59/85/153
s 4
f 70/97/175 69/96/176 59/85/156 60/86/155
s 3
f 71/98/177 70/97/178 60/86/158 61/87/157
s 2
f 72/99/179 71/98/180 61/87/160 62/88/159
s 1
f 63/90/181 72/99/182 62/88/162 53/79/161
s 10
f 74/102/183 73/100/184 63/89/164 64/91/163
s 9
f 75/103/185 74/102/186 64/91/166 65/92/165
s 8
f 76/104/187 75/103/188 65/92/168 66/93/167
s 7
f 77/105/189 76/104/190 66/93/170 67/94/169
s 6
f 78/106/191 77/105/192 67/94/172 68/95/171
s 5
f 79/107/193 78/106/194 68/95/174 69/96/173
s 4
f 80/108/195 79/107/196 69/96/176 70/97/175
s 3
f 81/109/197 80/108/198 70/97/178 71/98/177
s 2
f 82/110/199 81/109/200 71/98/180 72/99/179
s 1
f 73/101/201 82/110/202 72/99/182 63/90/181
s 10
f 84/113/203 83/111/204 73/100/184 74/102/183
s 9
f 85/114/205 84/113/206 74/102/186 75/103/185
s 8
f 86/115/207 85/114/208 75/103/188 76/104/187
s 7
f 87/116/209 86/115/210 76/104/190 77/105/189
s 6
f 88/117/211 87/116/212 77/105/192 78/106/191
s 5
f 89/118/213 88/117/214 78/106/194 79/107/193
s 4
f 90/119/215 89/118/216 79/107/196 80/108/195
s 3
f 91/120/217 90/119/218 80/108/198 81/109/197
s 2
f 92/121/219 91/120/220 81/109/200 82/110/199
s 1
f 83/112/221 92/121/222 82/110/202 73/101/201
s 10
f 94/124/223 93/122/224 83/111/204 84/113/203
s 9
f 95/125/225 94/124/226 84/113/206 85/114/205
s 8
f 96/126/227 95/125/228 85/114/208 86/115/207
s 7
f 97/127/229 96/126/230 86/115/210 87/116/209
s 6
f 98/128/231 97/127/232 87/116/212 88/117/211
s 5
f 99/129/233 98/128/234 88/117/214 89/118/213
s 4
f 100/130/235 99/129/236 89/118/216 90/119/215
s 3
f 101/131/237 100/130/238 90/119/218 91/120/217
s 2
f 102/132/239 101/131/240 91/120/220 92/121/219
s 1
f 93/123/241 102/132/242 92/121/222 83/112/221
s 10
f 104/135/243 103/133/244 93/122/224 94/124/223
s 9
f 105/136/245 104/135/246 94/124/226 95/125/225
s 8
f 106/137/247 105/136/248 95/125/228 96/126/227
s 7
f 107/138/249 106/137/250 96/126/230 97/127/229
s 6
f 108/139/251 107/138/252 97/127/232 98/128/231
s 5
f 109/140/253 108/139/254 98/128/234 99/129/233
s 4
f 110/141/255 109/140/256 99/129/236 100/130/235
s 3
f 111/142/257 110/141/258 100/130/238 101/131/237
s 2
f 112/143/259 111/142/260 101/131/240 102/132/239
s 1
f 103/134/261 112/143/262 102/132/242 93/123/241
s 10
f 114/146/263 113/144/264 103/133/244 104/135/243
s 9
f 115/147/265 114/146/266 104/135/246 105/136/245
s 8
f 116/148/267 115/147/268 105/136/248 106/137/247
s 7
f 117/149/269 116/148/270 106/137/250 107/138/249
s 6
f 118/150/271 117/149/272 107/138/252 108/139/251
s 5
f 119/151/273 118/150/274 108/139/254 109/140/253
s 4
f 120/152/275 119/151/276 109/140/256 110/141/255
s 3
f 121/153/277 120/152/278 110/141/258 111/142/257
s 2
f 122/154/279 121/153/280 111/142/260 112/143/259
s 1
f 113/145/281 122/154/282 112/143/262 103/134/261
s 10
f 124/157/283 123/155/284 113/144/264 114/146/263
s 9
f 125/158/285 124/157/286 114/146/266 115/147/265
s 8
f 126/159/287 125/158/288 115/147/268 116/148/267
s 7
f 127/160/289 126/159/290 116/148/270 117/149/269
s 6
f 128/161/291 127/160/292 117/149/272 118/150/271
s 5
f 129/162/293 128/161/294 118/150/274 119/151/273
s 4
f 130/163/295 129/162/296 119/151/276 120/152/275
s 3
f 131/164/297 130/163/298 120/152/278 121/153/277
s 2
f 132/165/299 131/164/300 121/153/280 122/154/279
s 1
f 123/156/301 132/165/302 122/154/282 113/145/281
s 10
f 134/168/40 133/166/39 123/155/284 124/157/283
s 9
f 135/169/36 134/168/35 124/157/286 125/158/285
s 8
f 136/170/32 135/169/31 125/158/288 126/159/287
s 7
f 137/171/28 136/170/27 126/159/290 127/160/289
s 6
f 138/172/24 137/171/23 127/160/292 128/161/291
s 5
f 139/173/20 138/172/19 128/161/294 129/162/293
s 4
f 140/174/16 139/173/15 129/162/296 130/163/295
s 3
f 141/175/12 140/174/11 130/163/298 131/164/297
s 2
f 142/176/8 141/175/7 131/164/300 132/165/299
s 1
f 133/167/4 142/176/3 132/165/302 123/156/301
