# This file uses centimeters as units for non-parametric coordinates.

mtllib Door_Lock.mtl
g default
v -1.233639 0.055718 -2.520329
v 1.233639 0.055718 -2.520329
v -1.233639 16.663624 -2.520329
v 1.233639 16.663624 -2.520329
v -1.233639 16.663624 -7.580971
v 1.233639 16.663624 -7.580971
v -1.233639 0.055718 -7.580971
v 1.233639 0.055718 -7.580971
v -1.233639 13.342044 -1.873083
v -1.233639 13.342044 -7.580971
v 1.233639 13.342044 -7.580971
v 1.233639 13.342044 -1.873083
v -1.233639 4.041616 -1.873083
v -1.233639 4.041616 -7.580971
v 1.233639 4.041616 -7.580971
v 1.233639 4.041616 -1.873083
v -1.233639 16.663624 -4.727027
v -1.233639 13.342044 -4.727027
v -1.233639 4.041616 -4.727027
v -1.233639 0.055718 -4.727027
v 1.233639 0.055718 -4.727027
v 1.233639 4.041616 -4.727027
v 1.233639 13.342044 -4.727027
v 1.233639 16.663624 -4.727027
v 0.605772 0.055718 -2.520329
v 0.381139 0.055718 -1.873083
v 0.381139 4.041616 -1.873083
v 0.605772 4.041616 -1.873083
v 0.381139 13.342044 -1.873083
v 0.605772 13.342044 -1.873083
v 0.605772 16.663624 -2.520329
v 0.381139 16.663624 -1.873083
v 0.605772 16.663624 -4.727027
v 0.381139 16.663624 -4.727027
v 0.605772 16.663624 -7.580971
v 0.381139 16.663624 -7.580971
v 0.605772 13.342044 -7.580971
v 0.381139 13.342044 -7.580971
v 0.605772 4.041616 -7.580971
v 0.381139 4.041616 -7.580971
v 0.605772 0.055718 -7.580971
v 0.381139 0.055718 -7.580971
v 0.381139 0.055718 -4.727027
v 0.605772 0.055718 -4.727027
v -0.407722 0.055718 -1.873083
v -0.677880 0.055718 -2.520329
v -0.677880 4.041616 -1.873083
v -0.407722 4.041616 -1.873083
v -0.677880 13.342044 -1.873083
v -0.407722 13.342044 -1.873083
v -0.677880 16.663624 -2.520329
v -0.407722 16.663624 -1.873083
v -0.407722 16.663624 -4.727027
v -0.677880 16.663624 -4.727027
v -0.407722 16.663624 -7.580971
v -0.677880 16.663624 -7.580971
v -0.677880 13.342044 -7.580971
v -0.407722 13.342044 -7.580971
v -0.677880 4.041616 -7.580971
v -0.407722 4.041616 -7.580971
v -0.677880 0.055718 -7.580971
v -0.407722 0.055718 -7.580971
v -0.677880 0.055718 -4.727027
v -0.407722 0.055718 -4.727027
v -1.233639 10.250469 -7.580971
v -1.233639 10.806177 -7.580971
v -1.233639 10.806177 -4.727027
v -1.233639 10.250469 -4.727027
v 1.233639 10.221978 -4.280316
v 1.233639 10.760272 -3.748768
v 1.233639 10.250469 -4.727027
v 1.233639 10.806177 -4.727027
v -1.233639 7.611449 -4.280316
v -1.233639 7.077575 -3.806045
v -1.233639 7.589331 -4.727027
v -1.233639 7.041696 -4.727027
v 1.233639 7.589331 -7.580971
v 1.233639 7.041696 -7.580971
v 1.233639 7.041696 -4.727027
v 1.233639 7.589331 -4.727027
v -1.233639 10.760272 -3.748768
v -1.233639 10.221978 -4.280316
v -1.233639 7.041696 -7.580971
v -1.233639 7.589331 -7.580971
v 1.233639 7.077575 -3.806045
v 1.233639 7.611449 -4.280316
v 1.233639 10.806177 -7.580971
v 1.233639 10.250469 -7.580971
v 0.381139 7.041696 -1.873083
v 0.381139 7.589331 -1.873083
v 0.605772 7.611378 -4.280316
v 0.605772 7.077631 -3.806159
v 0.605772 10.760200 -3.748932
v 0.605772 10.222072 -4.280316
v 0.381139 10.250469 -1.873083
v 0.381139 10.806177 -1.873083
v 0.381139 10.806177 -7.580971
v 0.381139 10.250469 -7.580971
v 0.605772 10.250469 -7.580971
v 0.605772 10.806177 -7.580971
v 0.605772 7.041696 -7.580971
v 0.605772 7.589331 -7.580971
v 0.381139 7.589331 -7.580971
v 0.381139 7.041696 -7.580971
v -0.677880 7.077657 -3.806209
v -0.677880 7.611346 -4.280316
v -0.407722 7.589331 -1.873083
v -0.407722 7.041696 -1.873083
v -0.677880 10.222113 -4.280316
v -0.677880 10.760169 -3.749004
v -0.407722 10.806177 -1.873083
v -0.407722 10.250469 -1.873083
v -0.677880 10.806177 -7.580971
v -0.677880 10.250469 -7.580971
v -0.407722 10.250469 -7.580971
v -0.407722 10.806177 -7.580971
v -0.677880 7.589331 -7.580971
v -0.677880 7.041696 -7.580971
v -0.407722 7.041696 -7.580971
v -0.407722 7.589331 -7.580971
v -1.536650 10.250469 -7.580971
v -1.536650 10.806177 -7.580971
v -1.536650 10.250469 -4.727027
v -1.536650 10.806177 -4.727027
v -1.536650 10.221978 -4.280316
v -1.536650 10.760272 -3.748768
v 1.536650 10.221978 -4.280316
v 1.536650 10.760272 -3.748768
v 1.536650 10.250469 -4.727027
v 1.536650 10.806177 -4.727027
v 1.536650 10.250469 -7.580971
v 1.536650 10.806177 -7.580971
v -1.536650 7.611449 -4.280316
v -1.536650 7.077575 -3.806045
v -1.536650 7.589331 -4.727027
v -1.536650 7.041696 -4.727027
v -1.536650 7.589331 -7.580971
v -1.536650 7.041696 -7.580971
v 1.536650 7.589331 -7.580971
v 1.536650 7.041696 -7.580971
v 1.536650 7.589331 -4.727027
v 1.536650 7.041696 -4.727027
v 1.536650 7.611449 -4.280316
v 1.536650 7.077575 -3.806045
v -1.233639 16.663624 -2.890494
v -1.233639 13.342044 -2.351821
v -1.233639 10.767972 -4.118293
v -1.536650 10.767972 -4.118293
v -1.536650 10.226757 -4.560676
v -1.233639 10.226757 -4.560676
v -1.233639 7.607739 -4.560676
v -1.536650 7.607739 -4.560676
v -1.536650 7.071556 -4.165962
v -1.233639 7.071556 -4.165962
v -1.233639 4.041616 -2.351821
v -1.233639 0.055718 -2.890494
v -0.677880 0.055718 -2.890494
v -0.407722 0.055718 -2.351821
v 0.381139 0.055718 -2.351821
v 0.605772 0.055718 -2.890494
v 1.233639 0.055718 -2.890494
v 1.233639 4.041616 -2.351821
v 1.233639 7.071556 -4.165962
v 1.536650 7.071556 -4.165962
v 1.536650 7.607739 -4.560676
v 1.233639 7.607739 -4.560676
v 1.233639 10.226757 -4.560676
v 1.536650 10.226757 -4.560676
v 1.536650 10.767972 -4.118293
v 1.233639 10.767972 -4.118293
v 1.233639 13.342044 -2.351821
v 1.233639 16.663624 -2.890494
v 0.605772 16.663624 -2.890494
v 0.381139 16.663624 -2.351821
v -0.407722 16.663624 -2.351821
v -0.677880 16.663624 -2.890494
vt 1.189308 0.001990
vt 1.211487 0.001990
vt 1.179211 0.240818
vt 1.150526 0.240818
vt 1.321529 0.001990
vt 1.321529 0.240818
vt 1.287911 0.422367
vt 1.266346 0.422727
vt 1.492532 0.001990
vt 1.492532 0.240818
vt 1.321529 0.420578
vt 1.492532 0.420578
vt -0.536153 0.240818
vt -0.568429 0.001990
vt -0.546250 0.001990
vt -0.507468 0.240818
vt -0.678471 0.240818
vt -0.678471 0.001990
vt -0.644853 0.422367
vt -0.623287 0.422727
vt -0.849474 0.001990
vt -0.849474 0.240818
vt -0.678471 0.420578
vt -0.849474 0.420578
vt -0.219539 0.355995
vt -0.187262 0.156972
vt -0.158577 0.156972
vt -0.197359 0.355995
vt -0.329580 0.355995
vt -0.329580 0.156972
vt -0.293106 0.002738
vt -0.270965 0.002276
vt -0.500584 0.156972
vt -0.500584 0.355995
vt -0.329580 0.005027
vt -0.500584 0.005027
vt 1.499416 0.156973
vt 1.528102 0.156973
vt 1.560378 0.355997
vt 1.538198 0.355997
vt 1.611804 0.002278
vt 1.633945 0.002740
vt 1.670420 0.156973
vt 1.670420 0.355997
vt 1.670420 0.005029
vt 1.841423 0.156973
vt 1.841423 0.355997
vt 1.841423 0.005029
vt -0.118455 0.231619
vt -0.151752 0.231619
vt -0.151752 0.060616
vt -0.118455 0.060616
vt -0.153173 0.050649
vt -0.120744 0.024142
vt -0.153459 0.033850
vt -0.121205 0.002001
vt 1.878795 0.231621
vt 1.846541 0.199772
vt 1.846827 0.182973
vt 1.879256 0.209480
vt 1.848248 0.173006
vt 1.881545 0.173006
vt 1.848248 0.002002
vt 1.881545 0.002002
vt -0.996091 0.179330
vt -0.964102 0.207747
vt -0.964324 0.224546
vt -0.996451 0.200895
vt -0.965427 0.234513
vt -0.998241 0.234513
vt -0.965427 0.405517
vt -0.998241 0.405517
vt 1.111563 0.177557
vt 1.144377 0.177557
vt 1.144377 0.348560
vt 1.111563 0.348560
vt 1.145480 0.358528
vt 1.113352 0.382178
vt 1.145702 0.375327
vt 1.113713 0.403744
vt 1.001760 0.453391
vt 1.001760 0.420578
vt 1.117586 0.422731
vt 1.145997 0.454712
vt 1.001760 0.240818
vt 1.001760 0.240818
vt 1.145997 0.611140
vt 1.001760 0.612842
vt 1.001760 0.001990
vt 1.040541 0.001990
vt 1.114157 0.643384
vt 1.001760 0.646139
vt 1.001760 0.798083
vt 1.001760 0.798083
vt 1.040541 0.997107
vt 1.001760 0.997107
vt -0.998240 0.454710
vt -0.969833 0.422732
vt -0.854003 0.420578
vt -0.854003 0.453391
vt -0.854003 0.240818
vt -0.854003 0.240818
vt -0.854003 0.612842
vt -0.998240 0.611143
vt -0.892785 0.001990
vt -0.854003 0.001990
vt -0.966405 0.643382
vt -0.854003 0.646139
vt -0.854003 0.798083
vt -0.854003 0.798083
vt -0.854003 0.997107
vt -0.892785 0.997107
vt -0.420478 0.376647
vt -0.577405 0.376647
vt -0.577183 0.359848
vt -0.420765 0.359848
vt -0.419058 0.386614
vt -0.578508 0.386614
vt -0.578508 0.557618
vt -0.419058 0.557618
vt 1.500742 0.557619
vt 1.500519 0.540821
vt 1.657446 0.540821
vt 1.657160 0.557619
vt 1.499416 0.530853
vt 1.658867 0.530853
vt 1.499416 0.359850
vt 1.658867 0.359850
vt 0.110810 -0.696091
vt 0.097350 -0.657309
vt 0.097350 -0.685995
vt 0.110810 -0.718271
vt 0.050083 -0.657309
vt 0.050083 -0.685995
vt 0.097350 -0.828313
vt 0.110810 -0.828313
vt 0.148430 -0.718271
vt 0.148430 -0.696091
vt 0.033895 -0.696091
vt 0.033895 -0.718271
vt 0.050083 -0.828313
vt 0.097350 -0.999316
vt 0.110810 -0.999316
vt 0.148430 -0.828313
vt 0.000595 -0.718271
vt 0.000595 -0.696091
vt 0.033895 -0.828313
vt 0.050083 -0.999316
vt 0.148430 -0.999316
vt 0.000595 -0.828313
vt 0.033895 -0.999316
vt 0.000595 -0.999316
vt 0.097354 1.000684
vt 0.110814 1.039466
vt 0.110814 1.061645
vt 0.097354 1.029369
vt 0.148434 1.061645
vt 0.148434 1.039466
vt 0.110814 1.171687
vt 0.097354 1.171687
vt 0.050087 1.029369
vt 0.050087 1.000684
vt 0.148434 1.171687
vt 0.110814 1.342690
vt 0.097354 1.342690
vt 0.050087 1.171687
vt 0.033900 1.039466
vt 0.033900 1.061645
vt 0.148434 1.342690
vt 0.050087 1.342690
vt 0.033900 1.171687
vt 0.000599 1.039466
vt 0.000599 1.061645
vt 0.033900 1.342690
vt 0.000599 1.171687
vt 0.000599 1.342690
vt 0.225669 -0.999316
vt 0.225669 -0.828313
vt 0.207513 -0.828313
vt 0.207513 -0.999316
vt 0.225669 -0.818345
vt 0.207513 -0.818345
vt 0.225669 -0.801547
vt 0.207513 -0.801547
vt 0.225669 -0.769697
vt 0.207513 -0.769697
vt 0.258969 -0.801547
vt 0.258969 -0.769711
vt 0.258969 -0.657309
vt 0.225669 -0.657309
vt 0.279962 1.059558
vt 0.279962 1.230561
vt 0.261806 1.230561
vt 0.261806 1.059558
vt 0.261806 1.023084
vt 0.279962 1.023084
vt 0.279962 1.000942
vt 0.261806 1.000942
vt 0.187834 -0.801547
vt 0.187834 -0.818345
vt 0.205989 -0.818345
vt 0.205989 -0.801547
vt 0.187834 -0.828313
vt 0.205989 -0.828313
vt 0.187834 -0.769697
vt 0.205989 -0.769697
vt 0.187834 -0.999316
vt 0.205989 -0.999316
vt 0.150213 -0.769707
vt 0.150213 -0.801547
vt 0.150213 -0.657309
vt 0.187834 -0.657309
vt 0.300349 1.023084
vt 0.282193 1.023084
vt 0.282193 1.000942
vt 0.300349 1.000942
vt 0.282193 1.059558
vt 0.300349 1.059558
vt 0.282193 1.230561
vt 0.300349 1.230561
vt 0.168472 1.144928
vt 0.168472 1.161726
vt 0.150316 1.161726
vt 0.150316 1.144928
vt 0.168472 1.171694
vt 0.150316 1.171694
vt 0.168472 1.116510
vt 0.150316 1.116510
vt 0.168472 1.342697
vt 0.150316 1.342697
vt 0.201772 1.116520
vt 0.201772 1.144928
vt 0.168472 1.000691
vt 0.201772 1.000691
vt 0.260357 -0.794695
vt 0.278513 -0.794695
vt 0.278513 -0.773129
vt 0.260357 -0.773129
vt 0.278513 -0.828313
vt 0.260357 -0.828313
vt 0.278513 -0.999316
vt 0.260357 -0.999316
vt 0.241452 1.342697
vt 0.241452 1.171694
vt 0.259608 1.171694
vt 0.259608 1.342697
vt 0.241452 1.161726
vt 0.259608 1.161726
vt 0.241452 1.144928
vt 0.259608 1.144928
vt 0.241452 1.116510
vt 0.259608 1.116510
vt 0.203831 1.144928
vt 0.203831 1.116517
vt 0.203831 1.000691
vt 0.241452 1.000691
vt 0.280094 -0.828313
vt 0.280094 -0.999316
vt 0.298250 -0.999316
vt 0.298250 -0.828313
vt 0.298250 -0.794695
vt 0.280094 -0.794695
vt 0.280094 -0.773129
vt 0.298250 -0.773129
vt 0.115279 2.001990
vt 0.128738 2.001990
vt 0.128738 2.201014
vt 0.115279 2.201014
vt 0.166359 2.001990
vt 0.166359 2.201014
vt 0.128738 2.352958
vt 0.115279 2.352958
vt 0.068012 2.201014
vt 0.068012 2.001990
vt 0.166359 2.352958
vt 0.115279 2.386255
vt 0.128738 2.386255
vt 0.068012 2.352958
vt 0.051824 2.001990
vt 0.051824 2.201014
vt 0.166359 2.386255
vt 0.068012 2.386255
vt 0.128738 2.545706
vt 0.115279 2.545706
vt 0.051824 2.352958
vt 0.018524 2.001990
vt 0.018524 2.201014
vt 0.184515 2.352958
vt 0.184515 2.386255
vt 0.166359 2.545706
vt 0.068012 2.545706
vt 0.051824 2.386255
vt 0.128738 2.578519
vt 0.115279 2.578519
vt 0.018524 2.352958
vt 0.166359 2.578519
vt 0.051824 2.545706
vt 0.068012 2.578519
vt 0.018524 2.386255
vt 0.128738 2.758279
vt 0.115279 2.758279
vt 0.184515 2.545706
vt 0.184515 2.578519
vt 0.166359 2.758279
vt 0.051824 2.578519
vt 0.018524 2.545706
vt 0.068012 2.758279
vt 0.000368 2.386255
vt 0.000368 2.352958
vt 0.128738 2.997107
vt 0.115279 2.997107
vt 0.166359 2.997107
vt 0.018524 2.578519
vt 0.051824 2.758279
vt 0.068012 2.997107
vt 0.000368 2.578519
vt 0.000368 2.545706
vt 0.018524 2.758279
vt 0.051824 2.997107
vt 0.018524 2.997107
vt 0.053115 0.002892
vt 0.086415 0.002892
vt 0.086415 0.241720
vt 0.053115 0.241720
vt 0.132815 0.001992
vt 0.166115 0.001992
vt 0.166115 0.201015
vt 0.132815 0.201015
vt 0.091154 0.241720
vt 0.091154 0.002892
vt 0.128774 0.002892
vt 0.128774 0.241720
vt 0.172665 0.201015
vt 0.172665 0.001992
vt 0.210285 0.001992
vt 0.210285 0.201015
vt 0.000586 0.241720
vt 0.000586 0.002892
vt 0.047853 0.002892
vt 0.047853 0.241720
vt 0.000586 0.421479
vt 0.047853 0.421479
vt 0.047853 0.454293
vt 0.000586 0.454293
vt 0.000586 0.613743
vt 0.047853 0.613743
vt 0.047853 0.647040
vt 0.000586 0.647040
vt 0.000586 0.798985
vt 0.047853 0.798985
vt 0.000586 0.998008
vt 0.047853 0.998008
vt 0.216137 0.004591
vt 0.249437 0.004585
vt 0.249437 0.161017
vt 0.216137 0.161009
vt 0.255987 0.159205
vt 0.255987 0.002777
vt 0.293607 0.002781
vt 0.293607 0.159199
vn 1.000000 0.000000 0.000000
vn 1.000000 0.000000 0.000000
vn 1.000000 0.000000 0.000000
vn 1.000000 0.000000 0.000000
vn -1.000000 0.000000 0.000000
vn -1.000000 0.000000 0.000000
vn -1.000000 0.000000 0.000000
vn -1.000000 0.000000 0.000000
vn -1.000000 -0.000000 0.000000
vn -1.000000 -0.000000 0.000000
vn -1.000000 -0.000000 0.000000
vn -1.000000 -0.000000 0.000000
vn 1.000000 -0.000000 0.000000
vn 1.000000 0.000000 0.000000
vn 1.000000 0.000000 0.000000
vn 1.000000 -0.000000 0.000000
vn -1.000000 0.000000 0.000000
vn -1.000000 0.000000 0.000000
vn -1.000000 0.000000 0.000000
vn -1.000000 0.000000 0.000000
vn -1.000000 0.000000 0.000000
vn -1.000000 0.000000 0.000000
vn -1.000000 -0.000000 0.000000
vn -1.000000 0.000000 0.000000
vn 1.000000 -0.000000 0.000000
vn 1.000000 0.000000 0.000000
vn 1.000000 0.000000 0.000000
vn 1.000000 0.000000 0.000000
vn 1.000000 0.000000 0.000000
vn 1.000000 0.000000 0.000000
vn 1.000000 0.000000 0.000000
vn 1.000000 0.000000 0.000000
vn 0.000000 -1.000000 0.000000
vn 0.000000 -1.000000 0.000000
vn 0.000000 -1.000000 0.000000
vn 0.000000 -1.000000 0.000000
vn 0.304138 -0.017140 0.952474
vn 0.328946 -0.133274 0.934897
vn 0.716046 -0.044772 0.696616
vn 0.508962 0.017544 0.860610
vn 0.502404 -0.020075 0.864400
vn 0.710841 0.055245 0.701179
vn 0.322990 0.159922 0.932793
vn 0.304119 0.020567 0.952412
vn 0.000000 1.000000 0.000000
vn 0.000000 1.000000 0.000000
vn 0.000000 1.000000 0.000000
vn 0.000000 1.000000 0.000000
vn 0.000000 1.000000 0.000000
vn 0.000000 1.000000 0.000000
vn 0.000000 1.000000 0.000000
vn 0.000000 1.000000 0.000000
vn 0.000000 0.000000 -1.000000
vn 0.000000 0.000000 -1.000000
vn 0.000000 0.000000 -1.000000
vn 0.000000 0.000000 -1.000000
vn 0.000000 0.000000 -1.000000
vn 0.000000 0.000000 -1.000000
vn 0.000000 0.000000 -1.000000
vn 0.000000 0.000000 -1.000000
vn 0.000000 -1.000000 0.000000
vn 0.000000 -1.000000 0.000000
vn 0.000000 -1.000000 0.000000
vn 0.000000 -1.000000 0.000000
vn 0.000000 -1.000000 0.000000
vn 0.000000 -1.000000 0.000000
vn 0.000000 -1.000000 0.000000
vn 0.000000 -1.000000 0.000000
vn -0.340969 -0.128118 0.931303
vn -0.292189 -0.019804 0.956155
vn -0.492428 0.020415 0.870114
vn -0.713729 -0.031689 0.699705
vn -0.708477 0.039746 0.704614
vn -0.485923 -0.023353 0.873690
vn -0.292164 0.023763 0.956073
vn -0.335436 0.153825 0.929420
vn 0.000000 1.000000 0.000000
vn 0.000000 1.000000 0.000000
vn 0.000000 1.000000 0.000000
vn 0.000000 1.000000 0.000000
vn 0.000000 1.000000 0.000000
vn 0.000000 1.000000 0.000000
vn 0.000000 1.000000 0.000000
vn 0.000000 1.000000 0.000000
vn 0.000000 0.000000 -1.000000
vn 0.000000 0.000000 -1.000000
vn 0.000000 0.000000 -1.000000
vn 0.000000 0.000000 -1.000000
vn 0.000000 0.000000 -1.000000
vn 0.000000 0.000000 -1.000000
vn 0.000000 0.000000 -1.000000
vn 0.000000 0.000000 -1.000000
vn 0.000000 -1.000000 0.000000
vn 0.000000 -1.000000 0.000000
vn 0.000000 -1.000000 0.000000
vn 0.000000 -1.000000 0.000000
vn 0.000000 -0.160284 0.987071
vn 0.000000 -0.160284 0.987071
vn 0.000000 1.000000 0.000000
vn 0.000000 1.000000 0.000000
vn 0.000000 0.000000 -1.000000
vn 0.000000 0.000000 -1.000000
vn 0.000000 -1.000000 0.000000
vn 0.000000 -1.000000 0.000000
vn 0.000000 0.000000 -1.000000
vn 0.000000 0.000000 -1.000000
vn 0.000000 0.191263 0.981539
vn 0.000000 0.191263 0.981539
vn 0.000000 -0.160285 0.987071
vn 0.000000 -0.160285 0.987071
vn 0.000000 0.191264 0.981539
vn 0.000000 0.191264 0.981539
vn 0.000000 1.000000 0.000000
vn 0.000000 1.000000 0.000000
vn 0.000000 0.000000 -1.000000
vn 0.000000 0.000000 -1.000000
vn 0.000000 0.000000 -1.000000
vn 0.000000 0.000000 -1.000000
vn 0.000000 -1.000000 0.000000
vn 0.000000 -1.000000 0.000000
vn 0.000000 -1.000000 0.000000
vn 0.000000 -1.000000 0.000000
vn 0.000000 -1.000000 0.000000
vn 0.000000 -1.000000 0.000000
vn 0.000000 1.000000 0.000000
vn 0.000000 1.000000 0.000000
vn 0.000000 1.000000 0.000000
vn 0.000000 1.000000 0.000000
vn 0.000000 0.000000 -1.000000
vn 0.000000 0.000000 -1.000000
vn 0.000000 0.000000 -1.000000
vn 0.000000 0.000000 -1.000000
vn -1.000000 0.000000 0.000000
vn -1.000000 0.000000 0.000000
vn -1.000000 0.000000 0.000000
vn -1.000000 0.000000 0.000000
vn -1.000000 0.000000 0.000000
vn -1.000000 0.000000 0.000000
vn -1.000000 0.000000 0.000000
vn -1.000000 0.000000 0.000000
vn -0.000025 -0.166407 0.986057
vn -0.000078 -0.610855 0.791743
vn -0.000078 -0.610867 0.791733
vn -0.000025 -0.166451 0.986050
vn 1.000000 0.000000 0.000000
vn 1.000000 0.000000 0.000000
vn 1.000000 0.000000 0.000000
vn 1.000000 0.000000 0.000000
vn 1.000000 0.000000 0.000000
vn 1.000000 0.000000 0.000000
vn 1.000000 0.000000 0.000000
vn 1.000000 0.000000 0.000000
vn 0.000028 0.149092 0.988823
vn 0.000091 0.559088 0.829108
vn 0.000091 0.559102 0.829099
vn 0.000028 0.149142 0.988816
vn -1.000000 0.000000 0.000000
vn -1.000000 0.000000 0.000000
vn -1.000000 0.000000 0.000000
vn -1.000000 0.000000 0.000000
vn -1.000000 0.000000 0.000000
vn -1.000000 0.000000 0.000000
vn -1.000000 0.000000 0.000000
vn -1.000000 0.000000 0.000000
vn 0.000000 0.000000 -1.000000
vn 0.000000 0.000000 -1.000000
vn 0.000000 0.000000 -1.000000
vn 0.000000 0.000000 -1.000000
vn 1.000000 0.000000 0.000000
vn 1.000000 0.000000 0.000000
vn 1.000000 0.000000 0.000000
vn 1.000000 0.000000 0.000000
vn 1.000000 0.000000 0.000000
vn 1.000000 0.000000 0.000000
vn 1.000000 0.000000 0.000000
vn 1.000000 0.000000 0.000000
vn 0.000128 -0.610854 0.791744
vn 0.000041 -0.166382 0.986061
vn 0.000041 -0.166453 0.986049
vn 0.000128 -0.610873 0.791728
vn 0.000000 0.000000 -1.000000
vn 0.000000 0.000000 -1.000000
vn 0.000000 0.000000 -1.000000
vn 0.000000 0.000000 -1.000000
vn -0.000056 0.559089 0.829108
vn -0.000017 0.149110 0.988821
vn -0.000017 0.149140 0.988816
vn -0.000056 0.559097 0.829102
vn 0.000000 0.000000 -1.000000
vn 0.000000 0.000000 -1.000000
vn 0.000000 0.000000 -1.000000
vn 0.000000 0.000000 -1.000000
vn 0.000000 0.000000 1.000000
vn 0.000000 0.000000 1.000000
vn 0.000000 0.000000 1.000000
vn 0.000000 0.000000 1.000000
vn 0.995492 0.007127 0.094582
vn 0.979012 0.065234 0.193080
vn 0.983930 0.059750 0.168259
vn 0.995577 0.004044 0.093860
vn 0.995569 -0.004255 0.093935
vn 0.984273 -0.066840 0.163521
vn 0.978194 -0.074962 0.193695
vn 0.995461 -0.008015 0.094837
vn 0.000000 0.000000 1.000000
vn 0.000000 0.000000 1.000000
vn 0.000000 0.000000 1.000000
vn 0.000000 0.000000 1.000000
vn 0.000000 0.000000 -1.000000
vn 0.000000 0.000000 -1.000000
vn 0.000000 0.000000 -1.000000
vn 0.000000 0.000000 -1.000000
vn 0.000000 0.000000 -1.000000
vn 0.000000 0.000000 -1.000000
vn 0.000000 0.000000 -1.000000
vn 0.000000 0.000000 -1.000000
vn -0.993621 0.004862 0.112662
vn -0.976978 0.071377 0.201045
vn -0.970061 0.077736 0.230083
vn -0.993499 0.008553 0.113522
vn -0.977456 -0.079869 0.195449
vn -0.993610 -0.005118 0.112752
vn -0.993454 -0.009618 0.113827
vn -0.968911 -0.089297 0.230732
vn -1.000000 -0.000000 0.000000
vn -1.000000 -0.000000 0.000000
vn 1.000000 0.000000 0.000000
vn 1.000000 0.000000 0.000000
vn -1.000000 0.000000 0.000000
vn -1.000000 0.000000 0.000000
vn 1.000000 0.000000 0.000000
vn 1.000000 0.000000 0.000000
vn -1.000000 0.000000 0.000000
vn -1.000000 0.000000 0.000000
vn -1.000000 0.000000 0.000000
vn -1.000000 0.000000 0.000000
vn 1.000000 0.000000 0.000000
vn 1.000000 0.000000 0.000000
vn 1.000000 0.000000 0.000000
vn 1.000000 0.000000 0.000000
vn -1.000000 0.000000 0.000000
vn -1.000000 0.000000 0.000000
vn -1.000000 0.000000 0.000000
vn -1.000000 0.000000 0.000000
vn -1.000000 0.000000 0.000000
vn -1.000000 0.000000 0.000000
vn -1.000000 -0.000000 0.000000
vn -1.000000 0.000000 0.000000
vn 1.000000 -0.000000 0.000000
vn 1.000000 0.000000 0.000000
vn 1.000000 0.000000 0.000000
vn 1.000000 0.000000 0.000000
vn 1.000000 0.000000 0.000000
vn 1.000000 0.000000 0.000000
vn 1.000000 0.000000 0.000000
vn 1.000000 0.000000 0.000000
vn 0.000117 -0.587785 0.809017
vn 0.000117 -0.587785 0.809017
vn 0.000085 0.537082 0.843530
vn 0.000085 0.537082 0.843530
vn -0.000052 0.537079 0.843532
vn -0.000052 0.537079 0.843532
vn -0.000072 -0.587780 0.809021
vn -0.000072 -0.587780 0.809021
vn 0.000000 0.000000 -1.000000
vn 0.000000 0.000000 -1.000000
vn 0.000000 0.000000 -1.000000
vn 0.000000 0.000000 -1.000000
vn 0.000000 -1.000000 0.000000
vn 0.000000 -1.000000 0.000000
vn 0.000000 -1.000000 0.000000
vn 0.000000 -1.000000 0.000000
vn 0.000000 1.000000 0.000000
vn 0.000000 1.000000 0.000000
vn 0.000000 1.000000 0.000000
vn 0.000000 1.000000 0.000000
vn 0.000000 -0.997972 -0.063650
vn 0.000000 -0.997972 -0.063650
vn 0.000000 -0.999855 -0.017044
vn 0.000000 -0.999855 -0.017044
vn 0.000000 -0.702634 0.711551
vn 0.000000 -0.702634 0.711551
vn 0.000000 -0.702634 0.711551
vn 0.000000 -0.702634 0.711551
vn 0.000000 0.999783 0.020834
vn 0.000000 0.998901 0.046874
vn 0.000000 0.998901 0.046874
vn 0.000000 0.999783 0.020834
vn 0.000000 -0.702634 0.711551
vn 0.000000 -0.702634 0.711551
vn 0.000000 -0.702634 0.711551
vn 0.000000 -0.702634 0.711551
vn 0.000000 -0.999855 -0.017044
vn 0.000000 -0.997972 -0.063650
vn 0.000000 -0.997972 -0.063650
vn 0.000000 -0.999855 -0.017044
vn -0.000000 0.998901 0.046874
vn -0.000000 0.998901 0.046874
vn -0.000000 0.999783 0.020834
vn -0.000000 0.999783 0.020834
vn 0.000000 -1.000000 0.000000
vn 0.000000 -1.000000 0.000000
vn 0.000000 -1.000000 0.000000
vn 0.000000 -1.000000 0.000000
vn 0.000000 0.000000 -1.000000
vn 0.000000 0.000000 -1.000000
vn 0.000000 0.000000 -1.000000
vn 0.000000 0.000000 -1.000000
vn 0.000000 1.000000 0.000000
vn 0.000000 1.000000 0.000000
vn 0.000000 1.000000 0.000000
vn 0.000000 1.000000 0.000000
vn 0.000000 0.664142 0.747606
vn 0.000000 0.664142 0.747606
vn 0.000000 0.664142 0.747606
vn 0.000000 0.664142 0.747606
vn 0.000000 0.999913 -0.013232
vn 0.000000 0.998777 -0.049450
vn 0.000000 0.998777 -0.049450
vn 0.000000 0.999913 -0.013232
vn 0.000000 -0.999242 0.038927
vn 0.000000 -0.999242 0.038927
vn 0.000000 -0.999860 0.016719
vn 0.000000 -0.999860 0.016719
vn 0.000000 1.000000 0.000000
vn 0.000000 1.000000 0.000000
vn 0.000000 1.000000 0.000000
vn 0.000000 1.000000 0.000000
vn 0.000000 0.000000 -1.000000
vn 0.000000 0.000000 -1.000000
vn 0.000000 0.000000 -1.000000
vn 0.000000 0.000000 -1.000000
vn 0.000000 -1.000000 0.000000
vn 0.000000 -1.000000 0.000000
vn 0.000000 -1.000000 0.000000
vn 0.000000 -1.000000 0.000000
vn 0.000000 0.000000 -1.000000
vn 0.000000 0.000000 -1.000000
vn 0.000000 0.000000 -1.000000
vn 0.000000 0.000000 -1.000000
vn 0.000000 1.000000 0.000000
vn 0.000000 1.000000 0.000000
vn 0.000000 1.000000 0.000000
vn 0.000000 1.000000 0.000000
vn 0.000000 -1.000000 0.000000
vn 0.000000 -1.000000 0.000000
vn 0.000000 -1.000000 0.000000
vn 0.000000 -1.000000 0.000000
vn 0.000000 0.998777 -0.049450
vn 0.000000 0.998777 -0.049450
vn 0.000000 0.999913 -0.013232
vn 0.000000 0.999913 -0.013232
vn 0.000000 0.664142 0.747606
vn 0.000000 0.664142 0.747606
vn 0.000000 0.664142 0.747606
vn 0.000000 0.664142 0.747606
vn 0.000000 -0.999860 0.016719
vn 0.000000 -0.999242 0.038927
vn 0.000000 -0.999242 0.038927
vn 0.000000 -0.999860 0.016719
vn 0.000000 0.998036 0.062638
vn 0.000000 0.998036 0.062638
vn 0.000000 -0.989993 -0.141114
vn 0.000000 -0.989993 -0.141114
vn 0.000000 0.993934 -0.109981
vn 0.000000 0.993934 -0.109981
vn 0.000000 -0.998587 0.053145
vn 0.000000 -0.998587 0.053145
vn 0.000000 -0.998587 0.053145
vn 0.000000 -0.998587 0.053145
vn 0.000000 0.993934 -0.109981
vn 0.000000 0.993934 -0.109981
vn 0.000000 -0.989993 -0.141114
vn 0.000000 -0.989993 -0.141114
vn -0.000000 0.998036 0.062638
vn -0.000000 0.998036 0.062638
s 1
g pasted__pCube1 group
usemtl phongE3SG
f 2/1/1 161/2/2 162/3/3 16/4/4
s 2
f 155/13/5 156/14/6 1/15/7 13/16/8
s 3
f 145/25/9 146/26/10 9/27/11 3/28/12
s 4
f 12/37/13 171/38/14 172/39/15 4/40/16
s 3
usemtl initialShadingGroup
f 10/33/17 18/30/18 17/29/19 5/34/20
s 2
f 7/21/21 20/18/22 19/17/23 14/22/24
s 1
f 22/6/25 21/5/26 8/9/27 15/10/28
s 4
f 24/44/29 23/43/30 11/46/31 6/47/32
s 6
f 25/129/33 26/130/34 159/131/35 160/132/36
s 7
f 26/89/37 25/90/38 28/86/39 27/85/40
f 29/94/41 30/93/42 31/95/43 32/96/44
s 9
f 32/153/45 31/154/46 173/155/47 174/156/48
f 34/160/49 33/159/50 35/164/51 36/165/52
s 10
f 36/265/53 35/266/54 37/267/55 38/268/56
f 40/301/57 39/300/58 41/310/59 42/311/60
s 6
f 42/142/61 41/143/62 44/136/63 43/135/64
f 45/133/65 46/139/66 157/140/67 158/134/68
s 7
f 46/105/69 45/106/70 48/102/71 47/101/72
f 49/110/73 50/109/74 52/111/75 51/112/76
s 9
f 51/167/77 52/162/78 175/161/79 176/168/80
f 54/171/81 53/166/82 55/170/83 56/174/84
s 10
f 56/279/85 55/274/86 58/273/87 57/280/88
f 59/314/89 60/307/90 62/315/91 61/319/92
s 6
f 61/151/93 62/148/94 64/141/95 63/147/96
s 7
usemtl phongE4SG
f 1/321/97 46/322/69 47/323/72 13/324/98
s 9
usemtl initialShadingGroup
f 3/172/99 51/167/77 176/168/80 145/173/100
s 10
f 14/318/101 59/314/89 61/319/92 7/320/102
s 6
f 156/145/103 157/140/67 46/139/66 1/146/104
s 10
f 5/286/105 56/279/85 57/280/88 10/287/106
s 7
usemtl phongE4SG
f 9/325/107 49/326/73 51/327/76 3/328/108
f 28/329/39 25/330/38 2/331/109 16/332/110
f 31/333/43 30/334/42 12/335/111 4/336/112
s 9
usemtl initialShadingGroup
f 172/157/113 173/155/47 31/154/46 4/158/114
s 10
f 37/267/55 35/266/54 6/269/115 11/270/116
f 41/310/59 39/300/58 15/304/117 8/312/118
s 6
f 25/129/33 160/132/36 161/137/119 2/138/120
s 7
f 48/337/71 45/338/70 26/339/37 27/340/40
f 52/351/75 50/349/74 29/350/41 32/352/44
s 9
f 174/156/48 175/161/79 52/162/78 32/153/45
s 10
f 58/273/87 55/274/86 36/265/53 38/268/56
f 62/315/91 60/307/90 40/301/57 42/311/60
s 6
f 45/133/65 158/134/68 159/131/35 26/130/34
f 7/152/121 61/151/93 63/147/96 20/150/122
f 43/135/64 64/141/95 62/148/94 42/142/61
f 21/144/123 44/136/63 41/143/62 8/149/124
s 9
f 35/164/51 33/159/50 24/163/125 6/169/126
f 55/170/83 53/166/82 34/160/49 36/165/52
f 17/175/127 54/171/81 56/174/84 5/176/128
s 10
f 65/299/129 66/295/130 113/285/131 114/292/132
s 16
usemtl blinn2SG
f 122/49/133 121/50/134 123/51/135 124/52/136
usemtl phongE3SG
f 148/54/137 149/53/138 125/55/139 126/56/140
s 17
usemtl phongE4SG
f 69/199/141 70/205/142 93/209/143 94/210/144
s 18
usemtl phongE3SG
f 128/57/145 127/58/146 168/59/147 169/60/148
usemtl blinn2SG
f 130/62/149 129/61/150 131/63/151 132/64/152
s 19
usemtl phongE4SG
f 73/221/153 74/227/154 105/231/155 106/232/156
s 20
usemtl phongE3SG
f 134/65/157 133/66/158 152/67/159 153/68/160
usemtl blinn2SG
f 136/70/161 135/69/162 137/71/163 138/72/164
s 10
usemtl initialShadingGroup
f 77/290/165 78/296/166 101/293/167 102/283/168
s 21
usemtl blinn2SG
f 140/73/169 139/74/170 141/75/171 142/76/172
usemtl phongE3SG
f 164/78/173 165/77/174 143/79/175 144/80/176
s 19
usemtl phongE4SG
f 81/185/177 82/183/178 109/187/179 110/188/180
s 10
usemtl initialShadingGroup
f 83/313/181 84/306/182 117/297/183 118/305/184
s 17
usemtl phongE4SG
f 85/251/185 86/249/186 91/253/187 92/254/188
s 10
usemtl initialShadingGroup
f 87/275/189 88/281/190 99/277/191 100/271/192
s 7
f 89/342/193 90/343/194 107/344/195 108/341/196
f 90/81/197 89/82/198 92/83/199 91/84/200
f 94/87/201 93/91/202 96/92/203 95/88/204
f 95/346/205 96/347/206 111/348/207 112/345/208
s 10
f 97/272/209 98/276/210 115/282/211 116/278/212
f 98/276/210 97/272/209 100/271/192 99/277/191
f 102/283/168 101/293/167 104/294/213 103/284/214
f 103/284/214 104/294/213 119/298/215 120/291/216
s 7
f 106/97/217 105/98/218 108/99/219 107/100/220
f 110/107/221 109/104/222 112/103/223 111/108/224
s 10
f 114/292/132 113/285/131 116/278/212 115/282/211
f 118/305/184 117/297/183 120/291/216 119/298/215
s 3
usemtl phongE3SG
f 146/26/10 147/31/225 81/32/226 9/27/11
s 4
f 70/41/227 170/42/228 171/38/14 12/37/13
s 2
f 154/19/229 155/13/5 13/16/8 74/20/230
s 1
f 16/4/4 162/3/3 163/7/231 85/8/232
s 23
f 150/113/233 151/114/234 73/115/235 82/116/236
s 24
f 86/121/237 166/122/238 167/123/239 69/124/240
s 3
usemtl initialShadingGroup
f 66/36/241 67/35/242 18/30/18 10/33/17
s 23
f 84/119/243 75/118/244 68/117/245 65/120/246
s 2
f 14/22/24 19/17/23 76/23/247 83/24/248
s 1
f 79/11/249 22/6/25 15/10/28 78/12/250
s 24
f 71/126/251 80/125/252 77/127/253 88/128/254
s 4
f 23/43/30 72/45/255 87/48/256 11/46/31
s 7
f 27/85/40 28/86/39 92/83/199 89/82/198
f 90/81/197 91/84/200 94/87/201 95/88/204
f 96/92/203 93/91/202 30/93/42 29/94/41
s 10
f 38/268/56 37/267/55 100/271/192 97/272/209
f 98/276/210 99/277/191 102/283/168 103/284/214
f 104/294/213 101/293/167 39/300/58 40/301/57
s 7
f 47/101/72 48/102/71 108/99/219 105/98/218
f 106/97/217 107/100/220 112/103/223 109/104/222
f 110/107/221 111/108/224 50/109/74 49/110/73
s 10
f 57/280/88 58/273/87 116/278/212 113/285/131
f 114/292/132 115/282/211 120/291/216 117/297/183
f 118/305/184 119/298/215 60/307/90 59/314/89
f 10/287/106 57/280/88 113/285/131 66/295/130
s 19
usemtl phongE4SG
f 81/185/177 110/188/180 49/189/257 9/190/258
f 13/233/259 47/234/260 105/231/155 74/227/154
s 10
usemtl initialShadingGroup
f 83/313/181 118/305/184 59/314/89 14/318/101
f 65/299/129 114/292/132 117/297/183 84/306/182
s 19
usemtl phongE4SG
f 73/353/153 106/354/156 109/355/179 82/356/178
s 17
f 92/254/188 28/255/261 16/256/262 85/251/185
f 94/357/144 91/358/187 86/359/186 69/360/141
f 30/211/263 93/209/143 70/205/142 12/212/264
s 10
usemtl initialShadingGroup
f 100/271/192 37/267/55 11/270/116 87/275/189
f 102/283/168 99/277/191 88/281/190 77/290/165
f 39/300/58 101/293/167 78/296/166 15/304/117
s 7
f 108/341/196 48/337/71 27/340/40 89/342/193
f 112/345/208 107/344/195 90/343/194 95/346/205
f 50/349/74 111/348/207 96/347/206 29/350/41
s 10
f 116/278/212 58/273/87 38/268/56 97/272/209
f 120/291/216 115/282/211 98/276/210 103/284/214
f 60/307/90 119/298/215 104/294/213 40/301/57
s off
f 66/295/265 65/299/266 121/308/267 122/309/268
f 65/177/269 68/178/270 123/179/271 121/180/272
f 67/191/273 66/192/274 122/193/275 124/194/276
s 25
usemtl phongE3SG
f 149/182/277 150/181/278 82/183/279 125/184/280
s off
f 82/183/281 81/185/282 126/186/283 125/184/284
s 26
f 81/197/285 147/196/286 148/195/287 126/198/288
s off
f 70/205/289 69/199/290 127/202/291 128/206/292
s 27
f 69/199/293 167/200/294 168/201/295 127/202/296
s 28
f 169/213/297 170/214/298 70/215/299 128/216/300
s off
usemtl initialShadingGroup
f 71/203/301 88/207/302 131/208/303 129/204/304
f 88/281/305 87/275/306 132/288/307 131/289/308
f 87/219/309 72/217/310 130/218/311 132/220/312
usemtl phongE3SG
f 74/227/313 73/221/314 133/224/315 134/228/316
s 29
f 73/221/317 151/222/318 152/223/319 133/224/320
s 30
f 153/235/321 154/236/322 74/237/323 134/238/324
s off
usemtl initialShadingGroup
f 75/225/325 84/229/326 137/230/327 135/226/328
f 84/306/329 83/313/330 138/316/331 137/317/332
f 83/241/333 76/239/334 136/240/335 138/242/336
f 78/296/337 77/290/338 139/302/339 140/303/340
f 77/243/341 80/244/342 141/245/343 139/246/344
f 79/257/345 78/258/346 140/259/347 142/260/348
s 31
usemtl phongE3SG
f 165/248/349 166/247/350 86/249/351 143/250/352
s off
f 86/249/353 85/251/354 144/252/355 143/250/356
s 32
f 85/263/357 163/262/358 164/261/359 144/264/360
s 3
usemtl initialShadingGroup
f 17/29/19 18/30/18 146/26/10 145/25/9
f 18/30/18 67/35/242 147/31/225 146/26/10
s 26
f 148/195/287 147/196/286 67/191/361 124/194/362
s 16
usemtl blinn2SG
f 124/52/136 123/51/135 149/53/138 148/54/137
s 25
usemtl initialShadingGroup
f 68/178/363 150/181/278 149/182/277 123/179/364
s 23
f 68/117/245 75/118/244 151/114/234 150/113/233
s 29
f 152/223/319 151/222/318 75/225/365 135/226/366
s 20
usemtl blinn2SG
f 153/68/160 152/67/159 135/69/162 136/70/161
s 30
usemtl initialShadingGroup
f 76/239/367 154/236/322 153/235/321 136/240/368
s 2
f 76/23/247 19/17/23 155/13/5 154/19/229
f 19/17/23 20/18/22 156/14/6 155/13/5
s 6
f 20/150/122 63/147/96 157/140/67 156/145/103
f 158/134/68 157/140/67 63/147/96 64/141/95
f 159/131/35 158/134/68 64/141/95 43/135/64
f 160/132/36 159/131/35 43/135/64 44/136/63
f 161/137/119 160/132/36 44/136/63 21/144/123
s 1
f 162/3/3 161/2/2 21/5/26 22/6/25
f 163/7/231 162/3/3 22/6/25 79/11/249
s 32
f 164/261/359 163/262/358 79/257/369 142/260/370
s 21
usemtl blinn2SG
f 142/76/172 141/75/171 165/77/174 164/78/173
s 31
usemtl initialShadingGroup
f 80/244/371 166/247/350 165/248/349 141/245/372
s 24
f 167/123/239 166/122/238 80/125/252 71/126/251
s 27
f 168/201/295 167/200/294 71/203/373 129/204/374
s 18
usemtl blinn2SG
f 169/60/148 168/59/147 129/61/150 130/62/149
s 28
usemtl initialShadingGroup
f 72/217/375 170/214/298 169/213/297 130/218/376
s 4
f 171/38/14 170/42/228 72/45/255 23/43/30
f 172/39/15 171/38/14 23/43/30 24/44/29
s 9
f 24/163/125 33/159/50 173/155/47 172/157/113
f 174/156/48 173/155/47 33/159/50 34/160/49
f 34/160/49 53/166/82 175/161/79 174/156/48
f 176/168/80 175/161/79 53/166/82 54/171/81
f 145/173/100 176/168/80 54/171/81 17/175/127
