# This file uses centimeters as units for non-parametric coordinates.

mtllib LampWideBulb.mtl
g default
v -21.111913 3.895407 -1.984364
v -21.205597 3.310042 -2.819202
v -21.111913 2.075359 -1.984364
v -20.885739 1.592083 0.031110
v -20.659560 2.075359 2.046584
v -20.565877 3.310042 2.881421
v -20.659560 3.895407 2.046584
v -20.885739 4.137874 0.031110
v -35.929477 3.895407 -0.319319
v -36.023160 3.310043 -1.154156
v -35.929477 2.075359 -0.319319
v -35.703299 1.592083 1.696155
v -35.477123 2.075359 3.711629
v -35.383440 3.310043 4.546466
v -35.477123 3.895407 3.711629
v -35.703299 4.137874 1.696155
v -17.709076 3.456383 -0.869887
v -17.730013 3.310042 -1.078903
v -17.709076 2.950408 -0.869887
v -17.658501 2.829589 -0.365286
v -17.607917 2.950408 0.139314
v -17.586979 3.310042 0.348328
v -17.607917 3.456383 0.139314
v -17.658501 3.517000 -0.365286
v -38.981121 3.456383 1.587951
v -39.002059 3.310043 1.378937
v -38.981121 2.950408 1.587951
v -38.930537 2.829589 2.092551
v -38.879962 2.950408 2.597152
v -38.859024 3.310043 2.806167
v -38.879962 3.456383 2.597152
v -38.930537 3.517000 2.092551
v -19.173409 3.766657 -1.765556
v -18.997694 3.955793 -0.193294
v -18.821972 3.766657 1.378969
v -18.749185 3.310042 2.030221
v -18.821972 2.331979 1.378969
v -18.997694 1.954998 -0.193294
v -19.173409 2.331979 -1.765556
v -19.246195 3.310042 -2.416809
v -37.767063 3.766657 0.348296
v -37.591342 3.955793 1.920558
v -37.415625 3.766657 3.492821
v -37.342838 3.310042 4.144074
v -37.415625 2.331979 3.492821
v -37.591342 1.954998 1.920558
v -37.767063 2.331979 0.348296
v -37.839849 3.310042 -0.302956
vt 0.610485 0.045765
vt 0.500000 0.000000
vt 0.389515 0.045765
vt 0.343750 0.156250
vt 0.389515 0.266735
vt 0.500000 0.312500
vt 0.610485 0.266735
vt 0.656250 0.156250
vt 0.375000 0.312500
vt 0.406250 0.312500
vt 0.437500 0.312500
vt 0.468750 0.312500
vt 0.500000 0.312500
vt 0.531250 0.312500
vt 0.562500 0.312500
vt 0.593750 0.312500
vt 0.625000 0.312500
vt 0.375000 0.687500
vt 0.406250 0.687500
vt 0.437500 0.687500
vt 0.468750 0.687500
vt 0.500000 0.687500
vt 0.531250 0.687500
vt 0.562500 0.687500
vt 0.593750 0.687500
vt 0.625000 0.687500
vt 0.610485 0.733265
vt 0.500000 0.687500
vt 0.389515 0.733265
vt 0.343750 0.843750
vt 0.389515 0.954235
vt 0.500000 1.000000
vt 0.610485 0.954235
vt 0.656250 0.843750
vt 0.555243 0.101007
vt 0.500000 0.078125
vt 0.444757 0.101007
vt 0.421875 0.156250
vt 0.444757 0.211493
vt 0.500000 0.234375
vt 0.555243 0.211493
vt 0.578125 0.156250
vt 0.555243 0.898993
vt 0.500000 0.921875
vt 0.444757 0.898993
vt 0.421875 0.843750
vt 0.444757 0.788507
vt 0.500000 0.765625
vt 0.555243 0.788507
vt 0.578125 0.843750
vt 0.582864 0.073386
vt 0.617188 0.156250
vt 0.582864 0.239114
vt 0.500000 0.273438
vt 0.417136 0.239114
vt 0.382812 0.156250
vt 0.417136 0.073386
vt 0.500000 0.039063
vt 0.582864 0.926614
vt 0.617188 0.843750
vt 0.582864 0.760886
vt 0.500000 0.726562
vt 0.417136 0.760886
vt 0.382812 0.843750
vt 0.417136 0.926614
vt 0.500000 0.960938
vn -0.063840 0.820464 -0.568122
vn -0.063840 0.820464 -0.568122
vn -0.063840 0.820464 -0.568122
vn -0.063840 0.820464 -0.568122
vn -0.092323 -0.562536 -0.821602
vn -0.092323 -0.562536 -0.821602
vn -0.092323 -0.562536 -0.821602
vn -0.092323 -0.562536 -0.821602
vn -0.025884 -0.972764 -0.230348
vn -0.025884 -0.972764 -0.230348
vn -0.025884 -0.972764 -0.230348
vn -0.025884 -0.972764 -0.230348
vn 0.025884 -0.972764 0.230348
vn 0.025884 -0.972764 0.230348
vn 0.025884 -0.972764 0.230348
vn 0.025884 -0.972764 0.230348
vn 0.092323 -0.562535 0.821602
vn 0.092323 -0.562535 0.821602
vn 0.092323 -0.562535 0.821602
vn 0.092323 -0.562535 0.821602
vn 0.063840 0.820464 0.568123
vn 0.063840 0.820464 0.568123
vn 0.063840 0.820464 0.568123
vn 0.063840 0.820464 0.568123
vn 0.013256 0.992929 0.117964
vn 0.013256 0.992929 0.117964
vn 0.013256 0.992929 0.117964
vn 0.013256 0.992929 0.117964
vn -0.013256 0.992929 -0.117964
vn -0.013256 0.992929 -0.117964
vn -0.013256 0.992929 -0.117964
vn -0.013256 0.992929 -0.117964
vn 0.677894 0.729504 0.091016
vn 0.897144 0.032535 0.440539
vn 0.791384 -0.567840 0.226427
vn 0.718262 -0.691313 -0.078649
vn 0.718159 -0.572855 -0.395075
vn 0.772636 0.032102 -0.634037
vn 0.640124 0.732225 -0.232568
vn 0.611859 0.788258 -0.065406
vn -0.611858 0.788259 0.065406
vn -0.677894 0.729504 -0.091016
vn -0.897143 0.032535 -0.440541
vn -0.791383 -0.567841 -0.226428
vn -0.718262 -0.691313 0.078649
vn -0.718158 -0.572856 0.395076
vn -0.772636 0.032102 0.634038
vn -0.640123 0.732226 0.232568
vn 0.158065 0.987272 -0.017585
vn 0.242917 0.937805 0.248018
vn 0.542414 -0.001585 0.840110
vn 0.414689 -0.795468 0.441887
vn 0.297499 -0.954145 -0.033174
vn 0.298194 -0.798091 -0.523575
vn 0.330302 -0.002063 -0.943873
vn 0.176612 0.938866 -0.295533
vn -0.094793 0.995445 0.010147
vn -0.169545 0.943495 -0.284731
vn -0.242917 0.937805 -0.248017
vn -0.158065 0.987272 0.017585
vn -0.422419 -0.027111 -0.905995
vn -0.542414 -0.001585 -0.840110
vn -0.295031 -0.817578 -0.494493
vn -0.414689 -0.795468 -0.441887
vn -0.186435 -0.982264 0.019969
vn -0.297500 -0.954145 0.033173
vn -0.171338 -0.820302 0.545663
vn -0.298194 -0.798091 0.523575
vn -0.199292 -0.026053 0.979594
vn -0.330302 -0.002063 0.943873
vn -0.098102 0.944588 0.313257
vn -0.176612 0.938866 0.295533
vn 0.098102 0.944588 -0.313257
vn 0.094793 0.995445 -0.010147
vn 0.169545 0.943495 0.284731
vn 0.422419 -0.027111 0.905995
vn 0.295031 -0.817578 0.494493
vn 0.186435 -0.982264 -0.019969
vn 0.171338 -0.820302 -0.545662
vn 0.199293 -0.026053 -0.979594
s off
g pCylinder2
usemtl phong1SG
f 1/9/1 2/10/2 10/19/3 9/18/4
f 2/10/5 3/11/6 11/20/7 10/19/8
f 3/11/9 4/12/10 12/21/11 11/20/12
f 4/12/13 5/13/14 13/22/15 12/21/16
f 5/13/17 6/14/18 14/23/19 13/22/20
f 6/14/21 7/15/22 15/24/23 14/23/24
f 7/15/25 8/16/26 16/25/27 15/24/28
f 8/16/29 1/17/30 9/26/31 16/25/32
s 1
f 23/41/33 22/40/34 21/39/35 20/38/36 19/37/37 18/36/38 17/35/39 24/42/40
s 2
f 32/50/41 25/43/42 26/44/43 27/45/44 28/46/45 29/47/46 30/48/47 31/49/48
s 1
f 34/52/49 35/53/50 23/41/33 24/42/40
f 35/53/50 36/54/51 22/40/34 23/41/33
f 36/54/51 37/55/52 21/39/35 22/40/34
f 37/55/52 38/56/53 20/38/36 21/39/35
f 38/56/53 39/57/54 19/37/37 20/38/36
f 39/57/54 40/58/55 18/36/38 19/37/37
f 40/58/55 33/51/56 17/35/39 18/36/38
f 33/51/56 34/52/49 24/42/40 17/35/39
s 2
f 16/34/57 9/33/58 41/59/59 42/60/60
f 9/33/58 10/32/61 48/66/62 41/59/59
f 10/32/61 11/31/63 47/65/64 48/66/62
f 11/31/63 12/30/65 46/64/66 47/65/64
f 12/30/65 13/29/67 45/63/68 46/64/66
f 13/29/67 14/28/69 44/62/70 45/63/68
f 14/28/69 15/27/71 43/61/72 44/62/70
f 15/27/71 16/34/57 42/60/60 43/61/72
s 1
f 1/1/73 8/8/74 34/52/49 33/51/56
f 8/8/74 7/7/75 35/53/50 34/52/49
f 7/7/75 6/6/76 36/54/51 35/53/50
f 6/6/76 5/5/77 37/55/52 36/54/51
f 5/5/77 4/4/78 38/56/53 37/55/52
f 4/4/78 3/3/79 39/57/54 38/56/53
f 3/3/79 2/2/80 40/58/55 39/57/54
f 2/2/80 1/1/73 33/51/56 40/58/55
s 2
f 42/60/60 41/59/59 25/43/42 32/50/41
f 43/61/72 42/60/60 32/50/41 31/49/48
f 44/62/70 43/61/72 31/49/48 30/48/47
f 45/63/68 44/62/70 30/48/47 29/47/46
f 46/64/66 45/63/68 29/47/46 28/46/45
f 47/65/64 46/64/66 28/46/45 27/45/44
f 48/66/62 47/65/64 27/45/44 26/44/43
f 41/59/59 48/66/62 26/44/43 25/43/42
