# This file uses centimeters as units for non-parametric coordinates.

mtllib broken beaker.mtl
g default
v -190.126456 130.978880 340.404888
v -189.387596 125.232175 339.359776
v -191.641717 120.649037 342.288199
v -195.191436 120.680600 346.985076
v -197.363732 125.303096 349.913539
v -196.522820 131.035754 348.868348
v -193.301904 133.561601 344.636637
v -191.721921 130.993079 339.199002
v -190.983108 125.246362 338.153851
v -193.237232 120.663224 341.082275
v -196.786947 120.694786 345.779152
v -198.959247 125.317282 348.707616
v -198.118287 131.049953 347.662461
v -194.897418 133.575800 343.430712
v -193.362251 126.777278 344.636618
v -194.957715 126.791465 343.430731
v -189.666907 124.734743 336.406419
v -190.650416 132.384286 337.797701
v -192.667497 118.633908 340.304611
v -197.392676 118.675923 346.556814
v -200.284304 124.829149 350.455007
v -199.164883 132.459993 349.063760
v -194.877442 135.822408 343.430712
v -189.584233 131.682818 339.695774
v -189.852610 132.377192 338.400702
v -188.869076 124.727649 337.009438
v -188.721574 124.973280 338.475491
v -191.869655 118.626788 340.907637
v -191.353439 119.622171 341.894662
v -196.594834 118.668803 347.159842
v -195.497988 119.659023 347.378596
v -199.486475 124.822055 351.058024
v -198.034256 125.056085 350.797725
v -198.367076 132.452899 349.666759
v -197.052426 131.749222 349.577443
v -194.079621 135.815327 344.033722
v -193.291819 134.698453 344.636618
v -225.441827 131.581862 329.267376
v -224.939009 131.227230 329.706424
v -224.990044 125.487535 328.396369
v -225.497117 125.367123 327.848827
v -224.926555 132.627866 327.949919
v -225.435600 132.282231 328.388967
v -225.499324 125.117121 326.753508
v -224.994489 124.987672 326.205991
v -225.030971 120.884731 332.067101
v -225.541431 120.383272 331.823430
v -225.550430 119.371150 331.336009
v -225.048968 118.860642 331.092311
v -225.030971 120.884731 337.954559
v -225.541431 120.383272 338.198204
v -225.550430 119.371150 338.685677
v -225.048968 118.860642 338.929349
v -224.990044 125.487535 341.625342
v -225.497117 125.367123 342.172859
v -225.499324 125.117121 343.268152
v -224.994489 124.987672 343.815669
v -224.939009 131.227230 340.315236
v -225.441827 131.581862 340.754310
v -225.435600 132.282231 341.632693
v -224.926555 132.627866 342.071742
v -224.916298 133.781501 335.010830
v -225.417266 134.347587 335.010830
v -225.407276 135.471084 335.010830
v -224.896321 136.028160 335.010830
v -197.027374 127.596156 349.495491
v -197.641514 127.733345 350.309601
v -199.038724 127.874364 350.501505
v -199.836542 127.881484 349.898497
v -224.963110 128.513330 345.745838
v -225.469680 128.452753 345.241698
v -225.470838 128.322615 344.233159
v -224.965455 128.253001 343.729045
v -198.622889 127.610343 348.289567
v -195.763127 125.892748 347.802775
v -196.825554 128.971996 349.244607
v -197.405867 129.339662 350.016745
v -198.770074 129.705796 350.167588
v -199.567881 129.712864 349.564588
v -224.946836 130.346980 345.327339
v -225.454390 130.172388 344.849184
v -225.457575 129.814142 343.892769
v -224.953176 129.630539 343.414614
v -198.421045 128.986156 348.038700
v -197.358638 125.906935 346.596851
v -223.554116 124.974865 326.205991
v -223.486167 132.615058 327.949919
v -223.455964 136.015353 335.010830
v -223.486183 132.615058 342.071742
v -223.506463 130.334186 345.327339
v -223.522783 128.500536 345.745838
v -223.554116 124.974865 343.815669
v -223.608611 118.847835 338.929349
v -223.608611 118.847835 331.092311
v -223.524957 131.214657 329.706424
v -223.576007 125.474975 328.396369
v -223.616949 120.872158 332.067101
v -223.616949 120.872158 337.954559
v -223.576007 125.474975 341.625342
v -223.551418 128.240428 343.729045
v -223.539170 129.617940 343.414614
v -223.524957 131.214657 340.315236
v -223.502260 133.768954 335.010830
v -215.162404 124.886853 326.205991
v -216.675360 132.527046 327.949919
v -211.048317 135.927340 335.010830
v -213.587801 132.527046 342.071742
v -211.285435 130.042056 344.185020
v -213.626201 128.208381 344.603571
v -210.957606 124.886853 343.815669
v -215.492942 118.759822 338.929349
v -211.797046 118.759822 331.092311
v -199.972700 124.812981 328.617162
v -202.217493 132.459682 329.055233
v -201.979385 135.907866 338.062752
v -208.268711 132.540940 342.182884
v -207.609135 130.040379 345.135804
v -209.732231 128.204819 344.068198
v -207.235538 124.914947 345.200946
v -207.918681 118.753664 338.601132
v -200.244943 118.718295 334.577292
v -216.724250 131.126734 329.706424
v -215.194396 125.387053 328.396369
v -211.815470 120.784235 332.067101
v -215.511365 120.784235 337.954559
v -210.989598 125.387053 341.625342
v -213.664933 127.948828 342.589236
v -211.328223 129.326353 342.274831
v -213.636676 131.126734 340.315236
v -211.104745 133.681031 335.010830
v -203.345208 131.068962 330.414046
v -201.345126 125.325100 330.322099
v -200.870934 120.748097 335.312433
v -207.369217 120.773015 337.780944
v -205.966706 125.403580 343.411059
v -208.578774 127.935404 342.422066
v -206.522505 129.315410 343.572679
v -207.278330 131.131388 340.739095
v -202.055576 133.661758 338.020266
vt 0.597420 0.034089
vt 0.465231 0.003918
vt 0.359224 0.088456
vt 0.359224 0.224044
vt 0.465231 0.308582
vt 0.597420 0.278411
vt 0.656250 0.156250
vt 0.597420 0.721589
vt 0.465231 0.691418
vt 0.359224 0.775956
vt 0.359224 0.911544
vt 0.465231 0.996082
vt 0.597420 0.965911
vt 0.656250 0.843750
vt 0.500000 0.156250
vt 0.500000 0.843750
vt 0.625000 0.312500
vt 0.375000 0.499981
vt 0.410714 0.499981
vt 0.375000 0.687500
vt 0.446429 0.499981
vt 0.482143 0.499981
vt 0.517857 0.499981
vt 0.553571 0.499981
vt 0.589286 0.499981
vt 0.625000 0.499981
vt 0.375000 0.312500
vt 0.410714 0.312500
vt 0.375000 0.312500
vt 0.446429 0.312500
vt 0.410714 0.312500
vt 0.482143 0.312500
vt 0.446429 0.312500
vt 0.517857 0.312500
vt 0.482143 0.312500
vt 0.553571 0.312500
vt 0.517857 0.312500
vt 0.589286 0.312500
vt 0.553571 0.312500
vt 0.625000 0.312500
vt 0.589286 0.312500
vt 0.625000 0.687500
vt 0.375000 0.687500
vt 0.625000 0.687500
vt 0.375000 0.687500
vt 0.375000 0.687500
vt 0.410714 0.687500
vt 0.410714 0.687500
vt 0.446429 0.687500
vt 0.446429 0.687500
vt 0.482143 0.687500
vt 0.482143 0.687500
vt 0.517857 0.687500
vt 0.517857 0.687500
vt 0.553571 0.687500
vt 0.553572 0.687500
vt 0.589286 0.687500
vt 0.589286 0.687500
vt 0.625000 0.687500
vt 0.375000 0.687500
vt 0.410714 0.687500
vt 0.410714 0.687500
vt 0.375000 0.687500
vt 0.410714 0.687500
vt 0.446429 0.687500
vt 0.446429 0.687500
vt 0.410714 0.687500
vt 0.446429 0.687500
vt 0.482143 0.687500
vt 0.482143 0.687500
vt 0.446429 0.687500
vt 0.482143 0.687500
vt 0.517857 0.687500
vt 0.517857 0.687500
vt 0.482143 0.687500
vt 0.517857 0.687500
vt 0.553572 0.687500
vt 0.553571 0.687500
vt 0.517857 0.687500
vt 0.553571 0.687500
vt 0.589286 0.687500
vt 0.589286 0.687500
vt 0.553572 0.687500
vt 0.625000 0.687500
vt 0.589286 0.687500
vt 0.625000 0.687500
vt 0.625000 0.687500
vt 0.589286 0.687500
vt 0.532143 0.312500
vt 0.518107 0.296514
vt 0.532143 0.312500
vt 0.532143 0.499981
vt 0.532143 0.687500
vt 0.532143 0.687500
vt 0.532143 0.687500
vt 0.532143 0.687500
vt 0.532143 0.687500
vt 0.518107 0.703486
vt 0.532143 0.687500
vt 0.479139 0.247649
vt 0.540714 0.312500
vt 0.549832 0.289273
vt 0.540714 0.312500
vt 0.540714 0.499981
vt 0.540714 0.687500
vt 0.540714 0.687500
vt 0.540714 0.687500
vt 0.540714 0.687500
vt 0.540714 0.687500
vt 0.549832 0.710727
vt 0.540714 0.687500
vt 0.479139 0.752351
vt 0.410714 0.687500
vt 0.375000 0.687500
vt 0.625000 0.687500
vt 0.589286 0.687500
vt 0.553572 0.687500
vt 0.540714 0.687500
vt 0.532143 0.687500
vt 0.517857 0.687500
vt 0.482143 0.687500
vt 0.446429 0.687500
vt 0.375000 0.687500
vt 0.625000 0.687500
vt 0.410714 0.687500
vt 0.446429 0.687500
vt 0.482143 0.687500
vt 0.517857 0.687500
vt 0.532143 0.687500
vt 0.540714 0.687500
vt 0.553572 0.687500
vt 0.589286 0.687500
vt 0.410714 0.687500
vt 0.375000 0.687500
vt 0.625000 0.687500
vt 0.589286 0.687500
vt 0.553572 0.687500
vt 0.540714 0.687500
vt 0.532143 0.687500
vt 0.517857 0.687500
vt 0.482143 0.687500
vt 0.446429 0.687500
vt 0.410714 0.687500
vt 0.375000 0.687500
vt 0.625000 0.687500
vt 0.589286 0.687500
vt 0.553572 0.687500
vt 0.540714 0.687500
vt 0.532143 0.687500
vt 0.517857 0.687500
vt 0.482143 0.687500
vt 0.446429 0.687500
vt 0.375000 0.687500
vt 0.625000 0.687500
vt 0.410714 0.687500
vt 0.446429 0.687500
vt 0.482143 0.687500
vt 0.517857 0.687500
vt 0.532143 0.687500
vt 0.540714 0.687500
vt 0.553571 0.687500
vt 0.589286 0.687500
vt 0.375000 0.687500
vt 0.625000 0.687500
vt 0.410714 0.687500
vt 0.446429 0.687500
vt 0.482143 0.687500
vt 0.517857 0.687500
vt 0.532143 0.687500
vt 0.540714 0.687500
vt 0.553571 0.687500
vt 0.589286 0.687500
vn 0.797751 -0.007096 0.602945
vn 0.797746 -0.007087 0.602952
vn 0.797745 -0.007093 0.602953
vn 0.797744 -0.007099 0.602954
vn 0.797746 -0.007100 0.602952
vn 0.797735 -0.007101 0.602966
vn 0.797747 -0.007090 0.602950
vn 0.797747 -0.007087 0.602950
vn 0.797745 -0.007086 0.602954
vn 0.797745 -0.007093 0.602953
vn 0.797744 -0.007086 0.602954
vn -0.797747 0.007097 -0.602951
vn -0.797747 0.007097 -0.602950
vn -0.797745 0.007094 -0.602953
vn -0.797747 0.007097 -0.602951
vn -0.797743 0.007095 -0.602956
vn -0.797743 0.007094 -0.602956
vn -0.797741 0.007096 -0.602958
vn -0.797744 0.007093 -0.602954
vn -0.797742 0.007098 -0.602958
vn -0.797741 0.007099 -0.602958
vn -0.797745 0.007089 -0.602953
vn 0.754738 0.630392 0.181593
vn 0.754738 0.630392 0.181593
vn 0.754738 0.630392 0.181593
vn 0.754738 0.630392 0.181593
vn 0.981135 0.148631 -0.123623
vn 0.981135 0.148631 -0.123623
vn 0.981135 0.148631 -0.123623
vn 0.981135 0.148631 -0.123623
vn 0.893495 -0.448832 -0.014685
vn 0.893495 -0.448832 -0.014685
vn 0.893495 -0.448832 -0.014685
vn 0.893495 -0.448832 -0.014685
vn 0.557819 -0.712075 0.426364
vn 0.557819 -0.712075 0.426364
vn 0.557819 -0.712075 0.426364
vn 0.557819 -0.712075 0.426364
vn 0.226852 -0.442903 0.867396
vn 0.226852 -0.442903 0.867396
vn 0.226852 -0.442903 0.867396
vn 0.226852 -0.442903 0.867396
vn 0.149849 0.156026 0.976320
vn 0.149849 0.156026 0.976320
vn 0.149841 0.156024 0.976322
vn 0.149846 0.156025 0.976321
vn 0.384777 0.633680 0.671116
vn 0.384777 0.633680 0.671116
vn 0.384777 0.633680 0.671116
vn 0.384777 0.633680 0.671116
vn 0.589792 0.217290 -0.777773
vn 0.589792 0.217290 -0.777773
vn 0.589552 0.217427 -0.777916
vn 0.589513 0.217450 -0.777940
vn 0.465840 -0.627654 -0.623733
vn 0.465840 -0.627654 -0.623733
vn 0.465301 -0.628601 -0.623182
vn 0.465495 -0.628261 -0.623380
vn -0.008912 -0.999960 -0.000016
vn -0.008912 -0.999960 -0.000016
vn -0.007672 -0.999969 -0.001697
vn -0.008226 -0.999966 -0.000946
vn -0.476941 -0.619272 0.623723
vn -0.476941 -0.619272 0.623723
vn -0.477714 -0.617994 0.624398
vn -0.477433 -0.618459 0.624152
vn -0.585831 0.227745 0.777775
vn -0.585832 0.227746 0.777774
vn -0.519855 0.121234 0.845608
vn -0.550005 0.051790 0.833554
vn -0.253598 0.903257 0.346143
vn -0.253598 0.903257 0.346143
vn -0.253595 0.902920 0.347024
vn -0.253592 0.902638 0.347758
vn 0.269611 0.898605 -0.346150
vn 0.269611 0.898605 -0.346150
vn 0.270385 0.897903 -0.347365
vn 0.270946 0.897392 -0.348246
vn 0.797755 -0.007095 0.602941
vn 0.797752 -0.007087 0.602943
vn 0.797756 -0.007113 0.602938
vn 0.797733 -0.007113 0.602969
vn 0.797729 -0.007100 0.602974
vn 0.797730 -0.007087 0.602974
vn 0.797745 -0.007081 0.602953
vn 0.797747 -0.007089 0.602951
vn -0.712753 -0.630765 0.306788
vn -0.712753 -0.630765 0.306788
vn -0.712753 -0.630765 0.306788
vn -0.712753 -0.630765 0.306788
vn -0.708494 -0.151047 0.689363
vn -0.708494 -0.151047 0.689363
vn -0.708494 -0.151047 0.689363
vn -0.708494 -0.151047 0.689363
vn -0.703155 0.447143 0.552844
vn -0.703155 0.447143 0.552844
vn -0.703155 0.447143 0.552843
vn -0.703155 0.447143 0.552843
vn -0.701420 0.643335 -0.306806
vn -0.701420 0.643335 -0.306806
vn -0.701420 0.643335 -0.306806
vn -0.701420 0.643335 -0.306806
vn -0.705687 0.163627 -0.689371
vn -0.705687 0.163627 -0.689371
vn -0.705687 0.163627 -0.689371
vn -0.705687 0.163627 -0.689371
vn -0.711020 -0.434557 -0.552822
vn -0.711020 -0.434557 -0.552822
vn -0.711020 -0.434557 -0.552822
vn -0.711020 -0.434557 -0.552822
vn -0.700789 0.713368 0.000000
vn -0.700789 0.713368 0.000000
vn -0.700789 0.713368 0.000000
vn -0.700789 0.713368 0.000000
vn -0.713399 -0.700758 0.000000
vn -0.713399 -0.700758 0.000000
vn -0.713399 -0.700758 0.000000
vn -0.713399 -0.700758 0.000000
vn -0.703141 0.447156 -0.552852
vn -0.703141 0.447156 -0.552852
vn -0.703141 0.447156 -0.552852
vn -0.703141 0.447156 -0.552852
vn -0.711013 -0.434560 0.552828
vn -0.711013 -0.434560 0.552828
vn -0.711013 -0.434560 0.552828
vn -0.711013 -0.434560 0.552827
vn -0.654538 0.448703 -0.608478
vn -0.654538 0.448703 -0.608478
vn -0.700398 0.268465 -0.661339
vn -0.697809 0.282641 -0.658161
vn -0.685189 -0.355574 0.635675
vn -0.685189 -0.355574 0.635675
vn -0.714025 -0.188129 0.674371
vn -0.712833 -0.198983 0.672514
vn -0.712757 -0.630762 -0.306785
vn -0.712757 -0.630762 -0.306785
vn -0.712757 -0.630762 -0.306785
vn -0.712757 -0.630762 -0.306785
vn -0.701420 0.643335 0.306806
vn -0.701420 0.643335 0.306806
vn -0.701420 0.643335 0.306806
vn -0.701420 0.643335 0.306806
vn -0.999960 0.008892 -0.000005
vn -0.999960 0.008893 -0.000005
vn -0.999961 0.008893 -0.000005
vn -0.999961 0.008892 -0.000005
vn -0.999960 0.008889 -0.000003
vn -0.999961 0.008889 -0.000003
vn -0.999960 0.008889 0.000003
vn -0.999960 0.008889 0.000003
vn -0.999961 0.008887 0.000006
vn -0.999961 0.008886 0.000007
vn -0.999961 0.008887 0.000004
vn -0.999961 0.008886 0.000006
vn -0.999960 0.008889 -0.000000
vn -0.999960 0.008892 0.000002
vn -0.999960 0.008894 0.000000
vn -0.999960 0.008889 -0.000000
vn -0.589501 -0.217497 0.777935
vn -0.589501 -0.217497 0.777936
vn -0.589501 -0.217497 0.777935
vn -0.589501 -0.217497 0.777935
vn 0.589505 0.217454 -0.777944
vn 0.589505 0.217454 -0.777944
vn -0.465139 0.628929 0.622972
vn -0.465139 0.628929 0.622972
vn -0.465139 0.628929 0.622972
vn -0.465139 0.628929 0.622972
vn 0.465293 -0.628614 -0.623174
vn 0.465293 -0.628614 -0.623174
vn 0.007239 0.999971 0.002269
vn 0.007239 0.999971 0.002269
vn 0.007239 0.999971 0.002269
vn 0.007239 0.999971 0.002269
vn -0.007661 -0.999969 -0.001713
vn -0.007661 -0.999969 -0.001713
vn 0.477922 0.617551 -0.624676
vn 0.477922 0.617551 -0.624676
vn 0.477922 0.617551 -0.624676
vn 0.477922 0.617551 -0.624676
vn -0.477725 -0.617976 0.624407
vn -0.477725 -0.617976 0.624407
vn 0.549952 0.015874 -0.835045
vn 0.532438 -0.026568 -0.846052
vn 0.513904 -0.068585 -0.855102
vn 0.549952 0.015874 -0.835045
vn -0.530452 0.076028 0.844299
vn -0.548315 0.045275 0.835045
vn 0.253848 -0.902434 -0.348101
vn 0.253848 -0.902434 -0.348101
vn 0.253849 -0.902434 -0.348101
vn 0.253848 -0.902434 -0.348101
vn -0.253592 0.902631 0.347776
vn -0.253592 0.902631 0.347776
vn -0.271446 -0.896981 0.348915
vn -0.271446 -0.896981 0.348915
vn -0.271446 -0.896981 0.348915
vn -0.271446 -0.896981 0.348915
vn 0.270959 0.897380 -0.348266
vn 0.270959 0.897380 -0.348266
vn 0.797744 -0.007088 0.602954
vn 0.149834 0.156019 0.976324
vn 0.149835 0.156022 0.976323
vn -0.585835 0.227739 0.777774
vn -0.493433 0.395114 0.774860
vn -0.489910 0.330746 0.806594
vn -0.710944 0.475020 0.518570
vn -0.709789 0.482957 0.512788
vn -0.999960 0.008896 -0.000002
vn -0.999960 0.008897 -0.000003
vn -0.711265 -0.514097 -0.479382
vn -0.709309 -0.524131 -0.471346
vn 0.482207 -0.369065 -0.794523
vn 0.469928 -0.463169 -0.751427
vn 0.149833 0.156018 0.976324
vn 0.149833 0.156018 0.976324
vn -0.585836 0.227737 0.777774
vn -0.503557 0.420584 0.754678
vn -0.479437 0.465982 0.743640
vn -0.680171 0.608531 0.408728
vn -0.680170 0.608531 0.408728
vn -0.670893 -0.651324 -0.354513
vn -0.670893 -0.651324 -0.354513
vn 0.456407 -0.534937 -0.711010
vn 0.456407 -0.534937 -0.711010
vn 0.002483 0.222725 -0.974878
vn 0.002484 0.222725 -0.974878
vn 0.001979 0.222516 -0.974927
vn 0.001979 0.222516 -0.974927
vn 0.008210 0.899814 -0.436196
vn 0.008210 0.899814 -0.436196
vn 0.008011 0.900930 -0.433892
vn 0.008011 0.900930 -0.433892
vn 0.007209 0.900499 0.434799
vn 0.007209 0.900499 0.434799
vn 0.008011 0.900930 0.433892
vn 0.008011 0.900930 0.433892
vn 0.005919 0.666027 0.745904
vn 0.063074 0.592168 0.803342
vn 0.041779 0.765059 0.642604
vn 0.007278 0.818957 0.573808
vn -0.002413 -0.271445 0.962451
vn 0.057286 -0.196702 0.978788
vn 0.035815 -0.370763 0.928037
vn -0.004267 -0.480175 0.877162
vn -0.005320 -0.622427 0.782660
vn -0.005320 -0.622427 0.782659
vn -0.005544 -0.623464 0.781832
vn -0.005544 -0.623464 0.781832
vn -0.008840 -0.999959 -0.001820
vn -0.008840 -0.999959 -0.001820
vn -0.008891 -0.999960 0.000000
vn -0.008891 -0.999960 0.000000
vn -0.005453 -0.624276 -0.781184
vn -0.005453 -0.624276 -0.781184
vn -0.005544 -0.623464 -0.781832
vn -0.005544 -0.623464 -0.781832
vn -0.002486 -0.222785 0.974864
vn -0.002486 -0.222786 0.974864
vn -0.001977 -0.222505 0.974930
vn -0.001977 -0.222505 0.974930
vn 0.005455 0.624545 0.780970
vn 0.005455 0.624545 0.780970
vn 0.005541 0.623461 0.781835
vn 0.005541 0.623461 0.781835
vn 0.008840 0.999958 0.002428
vn 0.008840 0.999958 0.002428
vn 0.008891 0.999960 0.000000
vn 0.008891 0.999960 0.000000
vn 0.005316 0.622084 -0.782933
vn 0.005316 0.622084 -0.782933
vn 0.005541 0.623467 -0.781830
vn 0.005541 0.623467 -0.781830
vn 0.003523 0.396472 -0.918040
vn -0.053261 0.312276 -0.948497
vn -0.030913 0.500946 -0.864926
vn 0.005380 0.605400 -0.795903
vn -0.006711 -0.753934 -0.656916
vn -0.060278 -0.678139 -0.732457
vn -0.038099 -0.845161 -0.533152
vn -0.007912 -0.888926 -0.457983
vn -0.007205 -0.900361 -0.435084
vn -0.007205 -0.900361 -0.435084
vn -0.008003 -0.900939 -0.433872
vn -0.008003 -0.900939 -0.433872
vn -0.008207 -0.899450 0.436947
vn -0.008206 -0.899450 0.436947
vn -0.008003 -0.900939 0.433872
vn -0.008003 -0.900939 0.433872
vn 0.002579 0.222765 -0.974869
vn 0.002579 0.222765 -0.974869
vn 0.008240 0.899647 -0.436540
vn 0.008240 0.899647 -0.436540
vn 0.007106 0.900443 0.434916
vn 0.007106 0.900443 0.434916
vn 0.062891 0.646531 0.760291
vn 0.046676 0.756809 0.651967
vn 0.065450 -0.185072 0.980543
vn 0.041436 -0.354810 0.934020
vn -0.005289 -0.622283 0.782774
vn -0.005289 -0.622283 0.782774
vn -0.008833 -0.999959 -0.002083
vn -0.008833 -0.999959 -0.002083
vn -0.005440 -0.624392 -0.781092
vn -0.005440 -0.624392 -0.781092
vn -0.002581 -0.222838 0.974852
vn -0.002581 -0.222838 0.974852
vn 0.005443 0.624697 0.780848
vn 0.005443 0.624697 0.780848
vn 0.008833 0.999957 0.002772
vn 0.008833 0.999957 0.002772
vn 0.005285 0.621895 -0.783083
vn 0.005285 0.621895 -0.783083
vn -0.061018 0.299534 -0.952133
vn -0.036120 0.485130 -0.873696
vn -0.057789 -0.743622 -0.666099
vn -0.042434 -0.838246 -0.543638
vn -0.007104 -0.900288 -0.435237
vn -0.007104 -0.900288 -0.435237
vn -0.008236 -0.899230 0.437398
vn -0.008236 -0.899230 0.437398
vn -0.791724 -0.199341 -0.577439
vn -0.764734 -0.418599 -0.489854
vn -0.783842 -0.310686 -0.537649
vn -0.612616 0.095238 -0.784622
vn -0.908034 -0.136620 -0.395992
vn -0.345373 0.223587 -0.911442
vn -0.828336 -0.002155 -0.560228
vn -0.836755 0.005284 -0.547552
vn -0.962851 0.269413 0.018272
vn -0.809419 0.334927 -0.482354
vn -0.822683 0.069369 -0.564253
vn -0.478088 -0.700309 -0.530094
vn -0.822386 -0.075403 -0.563911
vn -0.822386 -0.075403 -0.563911
vn -0.822386 -0.075403 -0.563911
vn -0.822386 -0.075403 -0.563911
vn -0.344749 0.736934 -0.581443
vn -0.599361 0.481089 -0.639781
vn -0.826373 -0.412814 -0.383004
vn -0.881002 -0.439426 -0.175326
vn -0.887917 -0.199126 -0.414671
vn -0.680261 0.233643 -0.694734
vn -0.560573 0.034666 -0.827379
vn -0.887885 0.038790 -0.458428
vn -0.930917 0.038448 -0.363202
vn -0.841098 0.512186 -0.173837
vn -0.849511 0.220629 -0.479223
vn -0.864401 0.331903 -0.377693
vn 0.931319 -0.296976 -0.210831
vn 0.777910 -0.501721 -0.378327
vn 0.957591 -0.237701 -0.162845
vn 0.966555 -0.024280 -0.255307
vn 0.969180 -0.024346 -0.245149
vn 0.690479 -0.017345 -0.723144
vn 0.999201 -0.039772 0.003904
vn 0.999201 -0.039772 0.003904
vn 0.999201 -0.039772 0.003904
vn 0.999201 -0.039772 0.003904
vn 0.996056 -0.088082 0.010691
vn 0.623736 -0.736433 0.261953
vn 0.998590 0.038337 -0.036732
vn 0.996900 0.073292 -0.028613
vn 0.996900 0.073292 -0.028613
vn 0.996900 0.073292 -0.028613
vn 0.996900 0.073292 -0.028613
vn 0.983540 -0.172507 -0.053761
vn 0.843953 -0.520147 -0.131112
vn 0.981334 -0.183875 -0.056325
vn 0.998107 -0.019073 -0.058474
vn 0.884512 0.208905 0.417130
vn 0.997217 -0.024781 -0.070313
vn 0.999820 -0.000042 0.018985
vn 0.904062 0.192075 -0.381809
vn 0.999316 -0.008262 0.036046
vn 0.923487 0.376709 -0.072538
vn 0.979061 0.201098 -0.031624
vn 0.933740 0.351688 -0.066674
vn 0.759509 -0.276589 -0.588766
vn 0.711186 0.687543 0.146626
vn 0.720594 0.643822 -0.257366
vn 0.944310 -0.023721 0.328201
vn 0.957914 0.210867 0.194770
vn 0.840740 0.530387 -0.108841
vn 0.821986 -0.240986 0.516008
vn -0.728122 -0.538218 -0.424452
vn -0.947123 -0.201718 -0.249534
vn -0.453104 -0.226868 -0.862107
vn -0.636165 -0.209634 -0.742528
vn -0.987132 0.030516 0.156966
vn -0.562800 0.364481 -0.741896
vn -0.736593 -0.641395 -0.214578
vn -0.760491 0.512056 -0.399314
s 1
g pasted__pCylinder4 group4
usemtl initialShadingGroup
f 2/2/1 1/1/2 15/15/3
f 3/3/4 2/2/1 15/15/3
f 4/4/5 3/3/4 15/15/3
f 5/5/6 4/4/5 15/15/3 75/100/7
f 75/100/7 76/102/8 66/90/9 5/5/6
f 7/7/10 6/6/11 15/15/3
f 1/1/2 7/7/10 15/15/3
s 3
f 8/13/12 9/12/13 16/16/14
f 9/12/13 10/11/15 16/16/14
f 10/11/15 11/10/16 16/16/14
f 11/10/16 12/9/17 85/112/18 16/16/14
f 12/9/17 74/98/19 84/110/20 85/112/18
f 13/8/21 14/14/22 16/16/14
f 14/14/22 8/13/12 16/16/14
s off
f 24/17/23 25/26/24 36/25/25 37/41/26
f 25/18/27 24/29/28 27/31/29 26/19/30
f 26/19/31 27/31/32 29/33/33 28/21/34
f 28/21/35 29/33/36 31/35/37 30/22/38
f 30/22/39 31/35/40 33/37/41 32/23/42
s 4
f 32/23/43 33/37/44 67/91/45 68/92/46
s off
f 34/24/47 35/39/48 37/41/49 36/25/50
s 5
f 25/18/51 26/19/52 17/62/53 18/20/54
s 6
f 26/19/55 28/21/56 19/66/57 17/62/58
s 7
f 28/21/59 30/22/60 20/70/61 19/66/62
s 8
f 30/22/63 32/23/64 21/74/65 20/70/66
s 9
f 32/23/67 68/92/68 69/93/69 21/74/70
s 10
f 34/24/71 36/25/72 23/82/73 22/78/74
s 11
f 36/25/75 25/26/76 18/87/77 23/82/78
s 1
f 1/27/2 2/28/1 27/31/79 24/29/80
f 2/28/1 3/30/4 29/33/81 27/31/79
f 3/30/4 4/32/5 31/35/82 29/33/81
f 4/32/5 5/34/6 33/37/83 31/35/82
f 5/34/6 66/89/9 67/91/84 33/37/83
f 6/36/11 7/38/10 37/41/85 35/39/86
f 7/38/10 1/40/2 24/17/80 37/41/85
s off
f 38/42/87 39/86/88 62/81/89 63/58/90
f 39/43/91 38/46/92 41/48/93 40/61/94
f 40/61/95 41/48/96 47/50/97 46/65/98
f 42/44/99 43/59/100 64/57/101 65/88/102
f 43/45/103 42/63/104 45/67/105 44/47/106
f 44/47/107 45/67/108 49/71/109 48/49/110
f 46/65/111 47/50/112 51/52/113 50/69/114
f 48/49/115 49/71/116 53/75/117 52/51/118
f 50/69/119 51/52/120 55/54/121 54/73/122
f 52/51/123 53/75/124 57/79/125 56/53/126
s 12
f 54/73/127 55/54/128 72/96/129 73/97/130
s 13
f 56/53/131 57/79/132 70/94/133 71/95/134
s off
f 58/77/135 59/56/136 63/58/137 62/81/138
f 60/55/139 61/83/140 65/88/141 64/57/142
s 14
f 41/48/143 38/46/144 43/45/145 44/47/146
f 47/50/147 41/48/143 44/47/146 48/49/148
f 51/52/149 47/50/147 48/49/148 52/51/150
f 55/54/151 51/52/149 52/51/150 56/53/152
f 71/95/153 72/96/154 55/54/151 56/53/152
f 63/58/155 59/56/156 60/55/157 64/57/158
f 38/42/144 63/58/155 64/57/158 43/59/145
s off
f 9/64/159 8/60/160 131/163/161 132/165/162
s 5
f 18/20/54 17/62/53 113/143/163 114/144/164
s off
f 10/68/165 9/64/166 132/165/167 133/166/168
s 6
f 17/62/58 19/66/57 121/152/169 113/143/170
s off
f 11/72/171 10/68/172 133/166/173 134/167/174
s 7
f 19/66/62 20/70/61 120/151/175 121/152/176
s off
f 12/76/177 11/72/178 134/167/179 135/168/180
s 8
f 20/70/66 21/74/65 119/150/181 120/151/182
s 16
f 135/168/183 136/169/184 74/99/185 12/76/186
s 9
f 21/74/70 69/93/69 118/149/187 119/150/188
s off
f 14/85/189 13/80/190 138/171/191 139/172/192
s 10
f 22/78/74 23/82/73 115/146/193 116/147/194
s off
f 8/84/195 14/85/196 139/172/197 131/164/198
s 11
f 23/82/78 18/87/77 114/145/199 115/146/200
s 1
f 67/91/84 66/89/9 76/101/8 77/103/201
s 4
f 68/92/46 67/91/45 77/103/202 78/104/203
s 9
f 69/93/69 68/92/68 78/104/204 79/105/205
f 117/148/206 118/149/187 69/93/69 79/105/205
s 13
f 71/95/134 70/94/133 80/106/207 81/107/208
s 14
f 81/107/209 82/108/210 72/96/154 71/95/153
s 12
f 73/97/130 72/96/129 82/108/211 83/109/212
s 16
f 136/169/184 137/170/213 84/111/214 74/99/185
s 1
f 6/6/11 76/102/8 75/100/7 15/15/3
f 77/103/201 76/101/8 6/36/11 35/39/86
s 4
f 78/104/203 77/103/202 35/39/215 34/24/216
s 9
f 79/105/205 78/104/204 34/24/217 22/78/218
f 116/147/219 117/148/206 79/105/205 22/78/218
s 13
f 81/107/208 80/106/207 61/83/220 60/55/221
s 14
f 59/56/156 82/108/210 81/107/209 60/55/157
s 12
f 83/109/212 82/108/211 59/56/222 58/77/223
s 16
f 13/80/224 84/111/214 137/170/213 138/171/225
s 3
f 85/112/18 84/110/20 13/8/21 16/16/14
s 17
f 87/114/226 86/113/227 45/67/228 42/63/229
s 18
f 88/116/230 87/115/231 42/44/232 65/88/233
s 19
f 89/117/234 88/116/235 65/88/236 61/83/237
s 20
f 80/106/238 90/118/239 89/117/240 61/83/241
f 70/94/242 91/119/243 90/118/239 80/106/238
f 92/120/244 91/119/243 70/94/242 57/79/245
s 21
f 93/121/246 92/120/247 57/79/248 53/75/249
s 22
f 94/122/250 93/121/251 53/75/252 49/71/253
s 23
f 86/113/254 94/122/255 49/71/256 45/67/257
s 24
f 96/125/258 95/123/259 39/43/260 40/61/261
s 25
f 97/126/262 96/125/263 40/61/264 46/65/265
s 26
f 98/127/266 97/126/267 46/65/268 50/69/269
s 27
f 99/128/270 98/127/271 50/69/272 54/73/273
s 28
f 73/97/274 100/129/275 99/128/276 54/73/277
f 83/109/278 101/130/279 100/129/275 73/97/274
f 102/131/280 101/130/279 83/109/278 58/77/281
s 29
f 103/132/282 102/131/283 58/77/284 62/81/285
s 30
f 95/124/286 103/132/287 62/81/288 39/86/289
s 17
f 105/134/290 104/133/291 86/113/227 87/114/226
s 18
f 106/136/292 105/135/293 87/115/231 88/116/230
s 19
f 107/137/294 106/136/295 88/116/235 89/117/234
s 20
f 89/117/240 90/118/239 108/138/296 107/137/297
f 90/118/239 91/119/243 109/139/298 108/138/296
f 110/140/299 109/139/298 91/119/243 92/120/244
s 21
f 111/141/300 110/140/301 92/120/247 93/121/246
s 22
f 112/142/302 111/141/303 93/121/251 94/122/250
s 23
f 104/133/304 112/142/305 94/122/255 86/113/254
s 24
f 123/155/306 122/153/307 95/123/259 96/125/258
s 25
f 124/156/308 123/155/309 96/125/263 97/126/262
s 26
f 125/157/310 124/156/311 97/126/267 98/127/266
s 27
f 126/158/312 125/157/313 98/127/271 99/128/270
s 28
f 99/128/276 100/129/275 127/159/314 126/158/315
f 100/129/275 101/130/279 128/160/316 127/159/314
f 129/161/317 128/160/316 101/130/279 102/131/280
s 29
f 130/162/318 129/161/319 102/131/283 103/132/282
s 30
f 122/154/320 130/162/321 103/132/287 95/124/286
s 31
f 114/144/322 113/143/323 132/165/324
s 32
f 133/166/325 121/152/326 134/167/327
s 33
f 134/167/328 120/151/329 135/168/330
s 34
f 135/168/331 119/150/332 136/169/333
s off
f 119/150/334 118/149/335 137/170/336 136/169/337
s 35
f 118/149/338 117/148/339 137/170/340
s 36
f 117/148/341 116/147/342 138/171/343
s 37
f 116/147/344 115/146/345 139/172/346
s 38
f 115/146/347 114/145/348 131/163/349
s 39
f 105/135/350 106/136/351 122/153/352
s 40
f 106/136/353 130/162/354 122/154/355
s off
f 107/137/356 108/138/357 129/161/358 130/162/359
s 41
f 108/138/360 109/139/361 128/160/362
s off
f 109/139/363 110/140/364 127/159/365 128/160/366
s 42
f 110/140/367 111/141/368 126/158/369
s 43
f 111/141/370 112/142/371 125/157/372
s 44
f 112/142/373 104/133/374 124/156/375
s 45
f 104/133/376 105/134/377 123/155/378
s 43
f 111/141/370 125/157/372 126/158/379
s 42
f 110/140/367 126/158/369 127/159/380
s 41
f 108/138/360 128/160/362 129/161/381
s 40
f 106/136/353 107/137/382 130/162/354
s 39
f 105/135/350 122/153/352 123/155/383
s 45
f 104/133/376 123/155/378 124/156/384
s 44
f 112/142/373 124/156/375 125/157/385
s 31
f 132/165/324 113/143/323 133/166/386
s 32
f 113/143/387 121/152/326 133/166/325
s 33
f 121/152/388 120/151/329 134/167/328
s 38
f 131/163/349 114/145/348 132/165/389
s 37
f 139/172/346 115/146/345 131/164/390
s 36
f 138/171/343 116/147/342 139/172/391
s 35
f 137/170/340 117/148/339 138/171/392
s 34
f 120/151/393 119/150/332 135/168/331
