# This file uses centimeters as units for non-parametric coordinates.

mtllib broken beaker.mtl
g default
v -17.355016 5.334340 -4.332288
v -13.630147 11.237791 -7.223676
v -9.905276 17.141248 -4.332288
v -8.362368 19.586563 2.647999
v -9.905276 17.141248 9.628437
v -13.630147 11.237791 12.519825
v -17.355016 5.334340 9.628437
v -18.897901 2.889021 2.647999
v -15.339392 3.249533 -5.019878
v -11.247647 9.734519 -8.195995
v -7.155835 16.219490 -5.019878
v -5.460968 18.905683 2.647999
v -7.155835 16.219490 10.316027
v -11.247647 9.734519 13.492144
v -15.339392 3.249533 10.316027
v -17.034290 0.563333 2.647999
v -13.630147 11.237791 2.647999
v -11.247647 9.734519 2.647999
v -11.247647 9.734519 -9.484111
v -15.825433 2.479297 -5.930552
v -6.669858 16.989743 -5.930552
v -4.773641 19.995008 2.647999
v -6.669858 16.989743 11.226701
v -11.247647 9.734519 14.780109
v -15.825433 2.479297 11.226701
v -17.721593 -0.525913 2.647999
v -17.781496 4.658423 -5.131420
v -17.324932 3.425422 -5.930552
v -12.747125 10.680637 -9.484111
v -13.630147 11.237791 -8.353894
v -8.169334 17.935861 -5.930552
v -9.478751 17.817235 -5.131420
v -6.273140 20.941136 2.647999
v -7.759193 20.542481 2.647999
v -8.169334 17.935861 11.226701
v -9.478751 17.817235 10.427720
v -12.747125 10.680637 14.780109
v -13.630147 11.237791 13.650042
v -17.324932 3.425422 11.226701
v -17.781496 4.658423 10.427720
v -19.221092 0.420247 2.647999
v -19.501072 1.933106 2.647999
v 11.683988 5.057475 0.077343
v 11.377597 6.425385 1.402431
v 11.874035 5.145600 -0.136391
v 11.531170 6.676079 1.345908
v 10.313982 6.557066 3.006214
v 10.341276 6.823330 3.140382
v 9.116041 5.375348 3.949257
v 9.000967 5.501306 4.195264
v 8.485554 3.572317 3.679154
v 8.295729 3.484136 3.893236
v 8.791899 2.204436 2.354084
v 8.638330 1.953746 2.410606
v 9.855565 2.072725 0.750285
v 9.828484 1.806409 0.616462
v 11.053674 3.254547 -0.192639
v 11.168594 3.128659 -0.438762
v 14.164285 3.676542 2.318303
v 13.910759 4.808772 3.415074
v 14.321487 3.749490 2.141283
v 14.037830 5.016201 3.368308
v 13.030323 4.917755 4.742511
v 13.052833 5.138130 4.853417
v 12.038917 3.939524 5.523265
v 11.943537 4.043819 5.726701
v 11.516987 2.447354 5.299487
v 11.359747 2.374305 5.476548
v 11.770596 1.315125 4.202751
v 11.643527 1.107695 4.249517
v 12.650947 1.206144 2.875279
v 12.628405 0.985666 2.764414
v 13.642461 2.184226 2.094771
v 13.737675 2.079985 1.891127
v 15.407938 3.111122 3.189523
v 15.154409 4.243353 4.286298
v 15.565152 3.184063 3.012517
v 15.281478 4.450784 4.239529
v 14.273964 4.352342 5.613727
v 14.296474 4.572719 5.724656
v 13.282419 3.374157 6.394314
v 13.187298 3.478354 6.598011
v 12.760627 1.881939 6.170705
v 12.603393 1.808893 6.347790
v 13.014245 0.749711 5.073974
v 12.887178 0.542278 5.120741
v 13.894601 0.640722 3.746499
v 13.872067 0.420240 3.635648
v 14.886166 1.618779 2.966018
v 14.981313 1.514575 2.762351
v 14.703234 3.926723 1.711498
v 14.346386 5.519894 3.254744
v 15.590033 4.954476 4.125966
v 15.946831 3.361328 2.582686
v 13.107546 5.673291 5.122625
v 14.351249 5.107851 5.993895
v 11.712334 4.296901 6.221018
v 12.956059 3.731449 7.092293
v 10.978125 2.197179 5.906348
v 12.221826 1.631740 6.777616
v 11.334954 0.603972 4.363088
v 12.578601 0.038554 5.234311
v 12.573810 0.450610 2.495222
v 13.817408 -0.114785 3.366409
v 13.968900 1.826901 1.396852
v 15.212523 1.261496 2.268061
v -8.973202 1.994419 -2.684279
v -10.151824 0.126469 2.647999
v -8.973202 1.994419 7.980428
v -6.127617 6.503995 10.189046
v -3.282218 11.013740 7.980428
v -2.103655 12.881755 2.647999
v -3.282218 11.013740 -2.684279
v -6.127617 6.503995 -4.893010
v 11.218435 6.047001 -1.451259
v 9.270051 3.583447 -3.580065
v 8.898956 1.883433 -0.102166
v 6.370497 1.764252 1.446789
v 4.230462 4.041191 3.009747
v 6.879709 6.746152 3.953050
v 9.291390 7.732430 2.741360
v 9.951040 9.089389 -0.713316
v -2.293050 0.673541 -0.454340
v -4.983226 -0.253863 2.647999
v -1.823887 0.671228 5.360343
v -1.318642 3.469737 7.232510
v -0.797790 7.287440 6.535793
v 1.127794 7.346970 2.647999
v 0.948963 5.460682 -0.085621
v -2.175533 3.928361 -2.395476
v -2.138820 0.776016 -0.285446
v -2.111641 3.888023 -2.156614
v 0.922710 5.277474 0.083274
v 1.064181 7.104616 2.647999
v -0.824044 7.104234 6.366937
v -1.254750 3.429400 6.993761
v -1.669659 0.773702 5.191486
v -4.791727 -0.092255 2.647999
v 10.955426 6.118539 -1.540001
v 9.697987 9.116185 -0.845407
v 9.073213 7.754909 2.556831
v 6.700651 6.807281 3.737668
v 4.072049 4.161240 2.803219
v 6.202018 1.929106 1.283577
v 8.695713 2.052537 -0.212906
v 9.027750 3.713894 -3.659809
vt 0.610485 0.045765
vt 0.500000 0.000000
vt 0.389515 0.045765
vt 0.343750 0.156250
vt 0.389515 0.266735
vt 0.500000 0.312500
vt 0.610485 0.266735
vt 0.656250 0.156250
vt 0.375000 0.687500
vt 0.406250 0.687500
vt 0.437500 0.687500
vt 0.468750 0.687500
vt 0.500000 0.687500
vt 0.531250 0.687500
vt 0.562500 0.687500
vt 0.593750 0.687500
vt 0.625000 0.687500
vt 0.610485 0.733265
vt 0.500000 0.687500
vt 0.389515 0.733265
vt 0.343750 0.843750
vt 0.389515 0.954235
vt 0.500000 1.000000
vt 0.610485 0.954235
vt 0.656250 0.843750
vt 0.500000 0.156250
vt 0.500000 0.843750
vt 0.625000 0.687500
vt 0.625000 0.312500
vt 0.375000 0.451483
vt 0.406250 0.451483
vt 0.375000 0.687500
vt 0.437500 0.451483
vt 0.406250 0.687500
vt 0.468750 0.451483
vt 0.437500 0.687500
vt 0.500000 0.451483
vt 0.468750 0.687500
vt 0.531250 0.451483
vt 0.500000 0.687500
vt 0.562500 0.451483
vt 0.531250 0.687500
vt 0.593750 0.451483
vt 0.562500 0.687500
vt 0.625000 0.451483
vt 0.593750 0.687500
vt 0.375000 0.312500
vt 0.406250 0.312500
vt 0.375000 0.312500
vt 0.437500 0.312500
vt 0.406250 0.312500
vt 0.468750 0.312500
vt 0.437500 0.312500
vt 0.500000 0.312500
vt 0.468750 0.312500
vt 0.531250 0.312500
vt 0.500000 0.312500
vt 0.562500 0.312500
vt 0.531250 0.312500
vt 0.593750 0.312500
vt 0.562500 0.312500
vt 0.625000 0.312500
vt 0.593750 0.312500
vt 0.406250 0.687500
vt 0.375000 0.687500
vt 0.375000 0.687500
vt 0.406250 0.687500
vt 0.437500 0.687500
vt 0.437500 0.687500
vt 0.468750 0.687500
vt 0.468750 0.687500
vt 0.500000 0.687500
vt 0.500000 0.687500
vt 0.531250 0.687500
vt 0.531250 0.687500
vt 0.562500 0.687500
vt 0.562500 0.687500
vt 0.593750 0.687500
vt 0.593750 0.687500
vt 0.625000 0.687500
vt 0.625000 0.687500
vt 0.406250 0.687500
vt 0.375000 0.687500
vt 0.375000 0.687500
vt 0.406250 0.687500
vt 0.437500 0.687500
vt 0.437500 0.687500
vt 0.468750 0.687500
vt 0.468750 0.687500
vt 0.500000 0.687500
vt 0.500000 0.687500
vt 0.531250 0.687500
vt 0.531250 0.687500
vt 0.562500 0.687500
vt 0.562500 0.687500
vt 0.593750 0.687500
vt 0.593750 0.687500
vt 0.625000 0.687500
vt 0.625000 0.687500
vt 0.406250 0.687500
vt 0.375000 0.687500
vt 0.375000 0.687500
vt 0.406250 0.687500
vt 0.437500 0.687500
vt 0.437500 0.687500
vt 0.468750 0.687500
vt 0.468750 0.687500
vt 0.500000 0.687500
vt 0.500000 0.687500
vt 0.531250 0.687500
vt 0.531250 0.687500
vt 0.562500 0.687500
vt 0.562500 0.687500
vt 0.593750 0.687500
vt 0.593750 0.687500
vt 0.625000 0.687500
vt 0.625000 0.687500
vt 0.375000 0.687500
vt 0.406250 0.687500
vt 0.406250 0.687500
vt 0.375000 0.687500
vt 0.437500 0.687500
vt 0.437500 0.687500
vt 0.468750 0.687500
vt 0.468750 0.687500
vt 0.500000 0.687500
vt 0.500000 0.687500
vt 0.531250 0.687500
vt 0.531250 0.687500
vt 0.562500 0.687500
vt 0.562500 0.687500
vt 0.593750 0.687500
vt 0.593750 0.687500
vt 0.625000 0.687500
vt 0.625000 0.687500
vt 0.625000 0.687500
vt 0.375000 0.687500
vt 0.593750 0.687500
vt 0.562500 0.687500
vt 0.531250 0.687500
vt 0.500000 0.687500
vt 0.468750 0.687500
vt 0.437500 0.687500
vt 0.406250 0.687500
vt 0.500000 0.687500
vt 0.593750 0.687500
vt 0.562500 0.687500
vt 0.531250 0.687500
vt 0.500000 0.687500
vt 0.468750 0.687500
vt 0.437500 0.687500
vt 0.406250 0.687500
vt 0.500000 0.687500
vt 0.593750 0.687500
vt 0.562500 0.687500
vt 0.531250 0.687500
vt 0.500000 0.687500
vt 0.468750 0.687500
vt 0.437500 0.687500
vt 0.406250 0.687500
vt 0.500000 0.687500
vt 0.406250 0.687500
vt 0.437500 0.687500
vt 0.468750 0.687500
vt 0.500000 0.687500
vt 0.531250 0.687500
vt 0.562500 0.687500
vt 0.593750 0.687500
vt 0.500000 0.687500
vt 0.406250 0.687500
vt 0.437500 0.687500
vt 0.468750 0.687500
vt 0.500000 0.687500
vt 0.531250 0.687500
vt 0.562500 0.687500
vt 0.593750 0.687500
vn -0.845723 0.533622 0.000000
vn -0.845724 0.533621 0.000002
vn -0.845724 0.533621 -0.000000
vn -0.845723 0.533622 -0.000000
vn -0.845721 0.533625 -0.000000
vn -0.845723 0.533622 0.000000
vn -0.845723 0.533621 -0.000000
vn -0.845724 0.533621 -0.000002
vn -0.845722 0.533623 0.000000
vn 0.845726 -0.533618 0.000001
vn 0.845724 -0.533620 0.000000
vn 0.845724 -0.533620 -0.000000
vn 0.845723 -0.533622 0.000002
vn 0.845723 -0.533621 -0.000000
vn 0.845723 -0.533622 -0.000002
vn 0.845724 -0.533620 0.000000
vn 0.845726 -0.533618 -0.000001
vn 0.845726 -0.533618 -0.000000
vn 0.767505 -0.348999 0.537713
vn 0.767557 -0.348988 0.537647
vn 0.767593 -0.348974 0.537604
vn 0.767490 -0.349012 0.537726
vn 0.767546 -0.349060 0.537615
vn 0.767595 -0.349145 0.537491
vn 0.767659 -0.349153 0.537393
vn 0.767724 -0.349049 0.537368
vn 0.767648 -0.348957 0.537537
vn 0.767687 -0.348985 0.537463
vn 0.767572 -0.348879 0.537696
vn 0.767572 -0.348897 0.537685
vn 0.767568 -0.348941 0.537662
vn 0.767562 -0.349030 0.537612
vn 0.767581 -0.349053 0.537570
vn 0.767630 -0.348974 0.537551
vn -0.946621 -0.175166 -0.270603
vn -0.946621 -0.175166 -0.270603
vn -0.946621 -0.175166 -0.270603
vn -0.946621 -0.175166 -0.270603
vn -0.742430 0.148488 -0.653260
vn -0.742430 0.148488 -0.653260
vn -0.742430 0.148488 -0.653260
vn -0.742430 0.148488 -0.653260
vn -0.453629 0.606186 -0.653268
vn -0.453629 0.606186 -0.653268
vn -0.453629 0.606186 -0.653268
vn -0.453629 0.606186 -0.653268
vn -0.249413 0.929821 -0.270604
vn -0.249413 0.929821 -0.270604
vn -0.249413 0.929821 -0.270604
vn -0.249413 0.929821 -0.270604
vn -0.249399 0.929825 0.270602
vn -0.249399 0.929825 0.270602
vn -0.249399 0.929825 0.270602
vn -0.249399 0.929825 0.270602
vn -0.453585 0.606167 0.653316
vn -0.453585 0.606167 0.653316
vn -0.453585 0.606167 0.653316
vn -0.453585 0.606167 0.653316
vn -0.742395 0.148457 0.653308
vn -0.742395 0.148457 0.653308
vn -0.742395 0.148457 0.653308
vn -0.742395 0.148457 0.653308
vn -0.946619 -0.175181 0.270600
vn -0.946619 -0.175181 0.270600
vn -0.946619 -0.175181 0.270600
vn -0.946619 -0.175181 0.270600
vn -0.204214 -0.323655 -0.923874
vn -0.204214 -0.323655 -0.923874
vn -0.204214 -0.323655 -0.923874
vn -0.204214 -0.323655 -0.923874
vn 0.204215 0.323655 -0.923874
vn 0.204215 0.323655 -0.923874
vn 0.204215 0.323655 -0.923874
vn 0.204215 0.323655 -0.923874
vn 0.492999 0.781342 -0.382696
vn 0.492999 0.781343 -0.382696
vn 0.492999 0.781343 -0.382695
vn 0.492999 0.781343 -0.382696
vn 0.493000 0.781344 0.382690
vn 0.493000 0.781344 0.382690
vn 0.493000 0.781344 0.382690
vn 0.493000 0.781344 0.382690
vn 0.204207 0.323643 0.923880
vn 0.204207 0.323643 0.923880
vn 0.204207 0.323643 0.923880
vn 0.204207 0.323643 0.923880
vn -0.204207 -0.323644 0.923880
vn -0.204207 -0.323644 0.923880
vn -0.204207 -0.323644 0.923880
vn -0.204207 -0.323644 0.923880
vn -0.493007 -0.781344 0.382681
vn -0.493007 -0.781344 0.382681
vn -0.493007 -0.781344 0.382682
vn -0.493007 -0.781344 0.382681
vn -0.493006 -0.781343 -0.382687
vn -0.493006 -0.781343 -0.382687
vn -0.493005 -0.781343 -0.382687
vn -0.493006 -0.781343 -0.382687
vn -0.845723 0.533621 0.000000
vn -0.845720 0.533627 0.000004
vn -0.845719 0.533628 -0.000002
vn -0.845718 0.533630 0.000000
vn -0.845719 0.533628 0.000002
vn -0.845723 0.533621 -0.000000
vn -0.845720 0.533627 -0.000004
vn -0.845719 0.533628 0.000000
vn -0.204365 0.522923 0.827519
vn -0.204365 0.522923 0.827519
vn -0.204365 0.522923 0.827519
vn -0.204365 0.522923 0.827519
vn 0.318034 -0.571269 -0.756641
vn 0.318034 -0.571269 -0.756641
vn 0.221326 -0.533588 -0.816271
vn 0.308014 -0.567669 -0.763465
vn -0.572969 -0.044353 0.818376
vn -0.572969 -0.044353 0.818376
vn -0.572969 -0.044353 0.818376
vn -0.572969 -0.044353 0.818376
vn 0.652530 -0.041125 -0.756646
vn 0.652529 -0.041125 -0.756647
vn 0.591878 0.028187 -0.805534
vn 0.646011 -0.033290 -0.762602
vn -0.822782 -0.450595 0.346402
vn -0.822782 -0.450595 0.346402
vn -0.822782 -0.450595 0.346402
vn -0.822782 -0.450595 0.346402
vn 0.889047 0.333714 -0.313418
vn 0.889047 0.333714 -0.313418
vn 0.848325 0.408654 -0.336669
vn 0.877858 0.355899 -0.320471
vn -0.823033 -0.437519 -0.362206
vn -0.823033 -0.437519 -0.362206
vn -0.823033 -0.437519 -0.362206
vn -0.823033 -0.437519 -0.362206
vn 0.889048 0.333716 0.313412
vn 0.889048 0.333716 0.313412
vn 0.879160 0.351190 0.322091
vn 0.852109 0.394885 0.343475
vn -0.572400 -0.051523 -0.818354
vn -0.572400 -0.051523 -0.818354
vn -0.572400 -0.051523 -0.818354
vn -0.572400 -0.051523 -0.818354
vn 0.652522 -0.041134 0.756653
vn 0.652522 -0.041134 0.756653
vn 0.646435 -0.033875 0.762217
vn 0.589347 0.030342 0.807310
vn -0.199389 0.542691 -0.815923
vn -0.199389 0.542691 -0.815923
vn -0.199389 0.542691 -0.815923
vn -0.199389 0.542691 -0.815923
vn 0.318039 -0.571258 0.756647
vn 0.318039 -0.571258 0.756647
vn 0.307135 -0.569330 0.762582
vn 0.219978 -0.551094 0.804925
vn 0.044604 0.936832 -0.346925
vn 0.044604 0.936832 -0.346925
vn 0.044604 0.936832 -0.346925
vn 0.044604 0.936832 -0.346925
vn 0.081534 -0.946112 0.313408
vn 0.081534 -0.946112 0.313408
vn 0.059626 -0.945428 0.320329
vn 0.004477 -0.941508 0.336961
vn 0.052923 0.940055 0.336892
vn 0.052923 0.940055 0.336892
vn 0.052923 0.940055 0.336892
vn 0.052923 0.940055 0.336892
vn 0.081535 -0.946110 -0.313414
vn 0.081535 -0.946110 -0.313414
vn -0.003968 -0.943672 -0.330857
vn 0.057454 -0.946153 -0.318581
vn -0.702416 -0.570104 0.426138
vn -0.702416 -0.570104 0.426138
vn -0.702416 -0.570104 0.426138
vn -0.702416 -0.570104 0.426138
vn 0.711448 0.564609 -0.418400
vn 0.711448 0.564609 -0.418400
vn 0.711448 0.564609 -0.418400
vn 0.711448 0.564609 -0.418400
vn -0.410054 -0.890115 -0.198875
vn -0.410054 -0.890115 -0.198875
vn -0.410054 -0.890115 -0.198875
vn -0.410054 -0.890115 -0.198875
vn 0.419543 0.884131 0.205658
vn 0.419543 0.884131 0.205658
vn 0.419543 0.884131 0.205658
vn 0.419543 0.884131 0.205658
vn 0.072584 -0.666042 -0.742375
vn 0.072584 -0.666042 -0.742375
vn 0.072584 -0.666042 -0.742375
vn 0.072584 -0.666042 -0.742375
vn -0.062364 0.660377 0.748340
vn -0.062364 0.660377 0.748340
vn -0.062364 0.660377 0.748340
vn -0.062364 0.660377 0.748340
vn 0.462807 -0.029066 -0.885982
vn 0.462807 -0.029066 -0.885982
vn 0.462807 -0.029066 -0.885982
vn 0.462807 -0.029066 -0.885982
vn -0.451946 0.024462 0.891710
vn -0.451946 0.024462 0.891710
vn -0.451946 0.024462 0.891710
vn -0.451946 0.024462 0.891710
vn 0.531939 0.647614 -0.545561
vn 0.531939 0.647614 -0.545561
vn 0.531939 0.647614 -0.545561
vn 0.531939 0.647614 -0.545561
vn -0.520998 -0.651228 0.551782
vn -0.520998 -0.651228 0.551782
vn -0.520998 -0.651228 0.551782
vn -0.520998 -0.651228 0.551782
vn 0.239584 0.967620 0.079438
vn 0.239584 0.967620 0.079438
vn 0.239584 0.967620 0.079438
vn 0.239584 0.967620 0.079438
vn -0.229113 -0.970717 -0.072227
vn -0.229113 -0.970717 -0.072227
vn -0.229113 -0.970717 -0.072227
vn -0.229113 -0.970717 -0.072227
vn -0.243074 0.743509 0.622984
vn -0.243074 0.743509 0.622984
vn -0.243074 0.743509 0.622984
vn -0.243074 0.743509 0.622984
vn 0.252786 -0.746961 -0.614938
vn 0.252786 -0.746961 -0.614938
vn 0.252786 -0.746961 -0.614938
vn 0.252786 -0.746961 -0.614938
vn -0.633251 0.106602 0.766570
vn -0.633251 0.106602 0.766570
vn -0.633251 0.106602 0.766570
vn -0.633251 0.106602 0.766570
vn 0.642384 -0.111005 -0.758301
vn 0.642384 -0.111005 -0.758302
vn 0.642384 -0.111005 -0.758301
vn 0.642384 -0.111005 -0.758301
vn -0.621017 -0.612637 0.488891
vn -0.621017 -0.612637 0.488891
vn -0.621017 -0.612637 0.488891
vn -0.621017 -0.612637 0.488891
vn 0.621014 0.612653 -0.488874
vn 0.621014 0.612653 -0.488874
vn 0.621014 0.612653 -0.488874
vn 0.621014 0.612653 -0.488874
vn -0.326831 -0.934650 -0.140039
vn -0.326831 -0.934650 -0.140039
vn -0.326831 -0.934650 -0.140039
vn -0.326831 -0.934650 -0.140039
vn 0.326845 0.934649 0.140016
vn 0.326845 0.934649 0.140016
vn 0.326845 0.934649 0.140016
vn 0.326845 0.934649 0.140016
vn 0.158786 -0.709158 -0.686936
vn 0.158786 -0.709158 -0.686936
vn 0.158786 -0.709158 -0.686936
vn 0.158786 -0.709158 -0.686936
vn -0.158807 0.709161 0.686929
vn -0.158807 0.709161 0.686929
vn -0.158807 0.709161 0.686929
vn -0.158807 0.709161 0.686929
vn 0.551418 -0.068206 -0.831436
vn 0.551418 -0.068206 -0.831436
vn 0.551418 -0.068206 -0.831436
vn 0.551418 -0.068206 -0.831436
vn -0.551433 0.068221 0.831425
vn -0.551433 0.068221 0.831425
vn -0.551433 0.068221 0.831425
vn -0.551433 0.068221 0.831425
vn 0.621014 0.612653 -0.488874
vn 0.621014 0.612653 -0.488874
vn 0.621014 0.612653 -0.488874
vn 0.621014 0.612653 -0.488874
vn -0.621017 -0.612644 0.488881
vn -0.621017 -0.612644 0.488881
vn -0.621017 -0.612644 0.488881
vn -0.621017 -0.612644 0.488881
vn 0.326843 0.934649 0.140021
vn 0.326843 0.934649 0.140021
vn 0.326843 0.934649 0.140021
vn 0.326843 0.934649 0.140021
vn -0.326836 -0.934649 -0.140033
vn -0.326835 -0.934649 -0.140033
vn -0.326836 -0.934649 -0.140033
vn -0.326835 -0.934649 -0.140033
vn -0.158801 0.709158 0.686933
vn -0.158801 0.709158 0.686933
vn -0.158801 0.709158 0.686933
vn -0.158801 0.709158 0.686933
vn 0.158795 -0.709171 -0.686921
vn 0.158795 -0.709171 -0.686921
vn 0.158795 -0.709171 -0.686921
vn 0.158795 -0.709171 -0.686921
vn -0.551408 0.068270 0.831438
vn -0.551408 0.068270 0.831438
vn -0.551408 0.068270 0.831438
vn -0.551408 0.068270 0.831438
vn 0.551420 -0.068254 -0.831431
vn 0.551420 -0.068254 -0.831431
vn 0.551419 -0.068254 -0.831431
vn 0.551419 -0.068254 -0.831431
vn -0.767501 0.348987 -0.537726
vn -0.767501 0.348987 -0.537726
vn -0.767501 0.348987 -0.537726
vn -0.767501 0.348987 -0.537726
vn 0.767552 -0.348946 0.537681
vn 0.767552 -0.348946 0.537681
vn 0.767552 -0.348946 0.537681
vn 0.767552 -0.348946 0.537681
vn -0.767529 0.348952 -0.537710
vn -0.767529 0.348952 -0.537710
vn -0.767529 0.348952 -0.537710
vn -0.767529 0.348952 -0.537710
vn 0.767517 -0.349017 0.537684
vn 0.767517 -0.349017 0.537684
vn 0.767517 -0.349017 0.537684
vn 0.767517 -0.349017 0.537684
vn -0.767544 0.348964 -0.537681
vn -0.767544 0.348964 -0.537681
vn -0.767544 0.348964 -0.537681
vn -0.767544 0.348965 -0.537681
vn 0.767574 -0.348954 0.537644
vn 0.767574 -0.348954 0.537644
vn 0.767574 -0.348954 0.537644
vn 0.767574 -0.348954 0.537644
vn -0.767547 0.348961 -0.537678
vn -0.767547 0.348961 -0.537678
vn -0.767547 0.348961 -0.537678
vn -0.767547 0.348962 -0.537678
vn 0.767539 -0.349001 0.537664
vn 0.767538 -0.349001 0.537664
vn 0.767539 -0.349001 0.537664
vn 0.767539 -0.349001 0.537664
vn -0.767536 0.348942 -0.537706
vn -0.767536 0.348942 -0.537706
vn -0.767536 0.348942 -0.537706
vn -0.767536 0.348942 -0.537706
vn 0.767576 -0.348921 0.537664
vn 0.767576 -0.348921 0.537664
vn 0.767576 -0.348921 0.537664
vn 0.767576 -0.348921 0.537664
vn -0.767554 0.348900 -0.537708
vn -0.767554 0.348900 -0.537708
vn -0.767554 0.348900 -0.537708
vn -0.767554 0.348900 -0.537708
vn 0.767534 -0.348974 0.537688
vn 0.767534 -0.348974 0.537688
vn 0.767534 -0.348974 0.537688
vn 0.767534 -0.348974 0.537688
vn -0.767540 0.348888 -0.537736
vn -0.767540 0.348888 -0.537736
vn -0.767540 0.348888 -0.537736
vn -0.767540 0.348888 -0.537736
vn 0.767554 -0.348956 0.537671
vn 0.767554 -0.348956 0.537671
vn 0.767554 -0.348956 0.537671
vn 0.767554 -0.348956 0.537671
vn -0.767488 0.348971 -0.537756
vn -0.767488 0.348971 -0.537756
vn -0.767488 0.348971 -0.537756
vn -0.767488 0.348971 -0.537756
vn 0.767542 -0.348977 0.537675
vn 0.767542 -0.348977 0.537675
vn 0.767542 -0.348977 0.537675
vn 0.767542 -0.348977 0.537675
vn -0.070032 -0.936863 -0.342613
vn -0.070032 -0.936863 -0.342613
vn -0.053996 -0.933926 0.353364
vn -0.053996 -0.933926 0.353364
vn 0.184612 -0.542325 0.819635
vn 0.184612 -0.542325 0.819635
vn 0.557908 0.063176 0.827495
vn 0.557908 0.063176 0.827495
vn 0.815837 0.446135 0.367933
vn 0.815837 0.446135 0.367933
vn 0.812474 0.464153 -0.352772
vn 0.812474 0.464153 -0.352772
vn 0.566620 0.054991 -0.822142
vn 0.566620 0.054991 -0.822142
vn 0.182548 -0.516731 -0.836460
vn 0.182548 -0.516731 -0.836460
vn 0.822985 -0.198691 -0.532181
vn 0.822985 -0.198691 -0.532181
vn 0.822985 -0.198691 -0.532181
vn 0.822985 -0.198691 -0.532181
vn 0.393765 -0.826467 -0.402369
vn 0.393765 -0.826467 -0.402369
vn 0.393765 -0.826467 -0.402369
vn 0.393765 -0.826467 -0.402369
vn 0.019381 -0.999363 0.029975
vn 0.019381 -0.999363 0.029975
vn 0.019381 -0.999363 0.029975
vn 0.019381 -0.999363 0.029975
vn -0.237873 -0.696580 0.676899
vn -0.237873 -0.696580 0.676899
vn -0.237873 -0.696580 0.676899
vn -0.237873 -0.696580 0.676899
vn -0.208413 -0.108294 0.972027
vn -0.208413 -0.108294 0.972027
vn -0.208413 -0.108294 0.972027
vn -0.208413 -0.108294 0.972027
vn 0.184273 0.519659 0.834265
vn 0.184273 0.519659 0.834265
vn 0.184273 0.519659 0.834265
vn 0.184273 0.519659 0.834265
vn 0.574954 0.729399 0.370682
vn 0.574954 0.729399 0.370682
vn 0.574954 0.729399 0.370682
vn 0.574954 0.729399 0.370682
vn 0.892956 0.407398 -0.191461
vn 0.892956 0.407398 -0.191461
vn 0.892956 0.407398 -0.191461
vn 0.892956 0.407398 -0.191461
vn -0.899797 -0.401419 0.170961
vn -0.899797 -0.401419 0.170961
vn -0.899797 -0.401419 0.170961
vn -0.899797 -0.401419 0.170961
vn -0.597089 -0.708864 -0.375495
vn -0.597089 -0.708864 -0.375495
vn -0.597089 -0.708864 -0.375495
vn -0.597089 -0.708864 -0.375495
vn -0.205096 -0.497058 -0.843130
vn -0.205096 -0.497058 -0.843130
vn -0.205096 -0.497058 -0.843130
vn -0.205096 -0.497058 -0.843130
vn 0.191554 0.123303 -0.973706
vn 0.191554 0.123303 -0.973706
vn 0.191554 0.123303 -0.973706
vn 0.191554 0.123303 -0.973706
vn 0.221794 0.692528 -0.686450
vn 0.221794 0.692528 -0.686450
vn 0.221794 0.692528 -0.686450
vn 0.221794 0.692528 -0.686450
vn -0.047554 0.997228 -0.057228
vn -0.047554 0.997228 -0.057228
vn -0.047554 0.997228 -0.057228
vn -0.047554 0.997228 -0.057228
vn -0.421830 0.821010 0.384711
vn -0.421830 0.821010 0.384711
vn -0.421830 0.821010 0.384711
vn -0.421830 0.821010 0.384711
vn -0.830912 0.213265 0.513910
vn -0.830912 0.213265 0.513910
vn -0.830912 0.213265 0.513910
vn -0.830912 0.213265 0.513910
vn 0.523008 -0.824021 0.217832
vn 0.523008 -0.824021 0.217833
vn 0.523008 -0.824021 0.217833
vn 0.523008 -0.824021 0.217833
vn 0.483572 -0.823235 -0.297394
vn 0.483572 -0.823235 -0.297394
vn 0.483572 -0.823235 -0.297394
vn 0.483572 -0.823235 -0.297394
vn 0.832254 -0.399419 0.384472
vn 0.832254 -0.399419 0.384472
vn 0.832254 -0.399419 0.384472
vn 0.832254 -0.399419 0.384472
vn 0.984378 -0.099336 0.145370
vn 0.984378 -0.099336 0.145370
vn 0.984378 -0.099336 0.145370
vn 0.984378 -0.099336 0.145370
vn 0.840572 -0.343657 0.418734
vn 0.840572 -0.343657 0.418734
vn 0.840572 -0.343657 0.418734
vn 0.840572 -0.343657 0.418734
vn 0.981268 -0.180542 0.067214
vn 0.981268 -0.180542 0.067214
vn 0.981268 -0.180542 0.067214
vn 0.981268 -0.180542 0.067214
vn 0.623059 -0.660193 -0.419455
vn 0.623059 -0.660193 -0.419455
vn 0.623059 -0.660193 -0.419455
vn 0.623059 -0.660193 -0.419455
vn 0.865156 -0.271959 -0.421358
vn 0.865156 -0.271959 -0.421358
vn 0.865156 -0.271959 -0.421358
vn 0.865156 -0.271959 -0.421358
vn 0.424190 0.373029 -0.825174
vn 0.424190 0.373029 -0.825174
vn 0.424190 0.373029 -0.825174
vn 0.424190 0.373029 -0.825174
vn -0.133588 0.929605 0.343494
vn -0.133588 0.929605 0.343494
vn -0.133588 0.929605 0.343494
vn -0.133588 0.929605 0.343494
vn -0.182279 0.910406 0.371395
vn -0.182279 0.910406 0.371395
vn -0.182279 0.910406 0.371395
vn -0.182279 0.910406 0.371395
vn -0.631639 0.387342 0.671564
vn -0.631639 0.387342 0.671564
vn -0.631639 0.387342 0.671564
vn -0.631639 0.387342 0.671564
vn -0.699672 -0.710952 0.070761
vn -0.699672 -0.710952 0.070761
vn -0.699672 -0.710952 0.070761
vn -0.699672 -0.710952 0.070761
vn -0.295952 -0.780794 -0.550249
vn -0.295952 -0.780793 -0.550249
vn -0.295952 -0.780793 -0.550249
vn -0.295952 -0.780794 -0.550249
vn -0.366165 -0.821991 -0.436182
vn -0.366165 -0.821991 -0.436182
vn -0.366165 -0.821991 -0.436182
vn -0.366165 -0.821991 -0.436182
vn 0.425428 0.378641 -0.821974
vn 0.425428 0.378641 -0.821974
vn 0.425428 0.378641 -0.821974
vn 0.425428 0.378641 -0.821974
s 1
g pasted__pCylinder3 group4
usemtl initialShadingGroup
f 2/2/1 1/1/2 17/26/3
f 3/3/4 2/2/1 17/26/3
f 4/4/5 3/3/4 17/26/3
f 5/5/6 4/4/5 17/26/3
f 6/6/7 5/5/6 17/26/3
f 7/7/8 6/6/7 17/26/3
f 8/8/9 7/7/8 17/26/3
f 1/1/2 8/8/9 17/26/3
s 2
f 9/24/10 10/23/11 18/27/12
f 10/23/11 11/22/13 18/27/12
f 11/22/13 12/21/14 18/27/12
f 12/21/14 13/20/15 18/27/12
f 13/20/15 14/19/16 18/27/12
f 14/19/16 15/18/17 18/27/12
f 15/18/17 16/25/18 18/27/12
f 16/25/18 9/24/10 18/27/12
s 3
f 76/100/19 75/101/20 77/102/21 78/103/22
f 79/104/23 76/100/19 78/103/22 80/105/24
f 81/106/25 79/104/23 80/105/24 82/107/26
f 83/108/27 81/106/25 82/107/26 84/109/28
f 85/110/29 83/108/27 84/109/28 86/111/30
f 87/112/31 85/110/29 86/111/30 88/113/32
f 89/114/33 87/112/31 88/113/32 90/115/34
f 75/116/20 89/114/33 90/115/34 77/117/21
s off
f 27/29/35 28/45/36 41/43/37 42/63/38
f 28/30/39 27/49/40 30/51/41 29/31/42
f 29/31/43 30/51/44 32/53/45 31/33/46
f 31/33/47 32/53/48 34/55/49 33/35/50
f 33/35/51 34/55/52 36/57/53 35/37/54
f 35/37/55 36/57/56 38/59/57 37/39/58
f 37/39/59 38/59/60 40/61/61 39/41/62
f 39/41/63 40/61/64 42/63/65 41/43/66
f 28/30/67 29/31/68 19/34/69 20/32/70
f 29/31/71 31/33/72 21/36/73 19/34/74
f 31/33/75 33/35/76 22/38/77 21/36/78
f 33/35/79 35/37/80 23/40/81 22/38/82
f 35/37/83 37/39/84 24/42/85 23/40/86
f 37/39/87 39/41/88 25/44/89 24/42/90
f 39/41/91 41/43/92 26/46/93 25/44/94
f 41/43/95 28/45/96 20/28/97 26/46/98
s 1
f 1/47/2 2/48/1 30/51/99 27/49/100
f 2/48/1 3/50/4 32/53/101 30/51/99
f 3/50/4 4/52/5 34/55/102 32/53/101
f 4/52/5 5/54/6 36/57/103 34/55/102
f 5/54/6 6/56/7 38/59/104 36/57/103
f 6/56/7 7/58/8 40/61/105 38/59/104
f 7/58/8 8/60/9 42/63/106 40/61/105
f 8/60/9 1/62/2 27/29/100 42/63/106
s off
f 10/10/107 9/9/108 131/161/109 132/162/110
s 4
f 20/32/111 19/34/112 114/144/113 107/137/114
s off
f 11/11/115 10/10/116 132/162/117 133/163/118
s 5
f 19/34/119 21/36/120 113/143/121 114/144/122
s off
f 12/12/123 11/11/124 133/163/125 134/164/126
s 6
f 21/36/127 22/38/128 112/142/129 113/143/130
s off
f 13/13/131 12/12/132 134/164/133 135/165/134
s 7
f 22/38/135 23/40/136 111/141/137 112/142/138
s off
f 14/14/139 13/13/140 135/165/141 136/166/142
s 8
f 23/40/143 24/42/144 110/140/145 111/141/146
s off
f 15/15/147 14/14/148 136/166/149 137/167/150
s 9
f 24/42/151 25/44/152 109/139/153 110/140/154
s off
f 16/16/155 15/15/156 137/167/157 138/168/158
s 10
f 25/44/159 26/46/160 108/138/161 109/139/162
s off
f 9/17/163 16/16/164 138/168/165 131/161/166
s 11
f 26/46/167 20/28/168 107/136/169 108/138/170
s off
f 44/64/171 43/65/172 59/83/173 60/82/174
f 45/66/175 46/67/176 62/85/177 61/84/178
f 47/68/179 44/64/180 60/82/181 63/86/182
f 46/67/183 48/69/184 64/87/185 62/85/186
f 49/70/187 47/68/188 63/86/189 65/88/190
f 48/69/191 50/71/192 66/89/193 64/87/194
f 51/72/195 49/70/196 65/88/197 67/90/198
f 50/71/199 52/73/200 68/91/201 66/89/202
f 53/74/203 51/72/204 67/90/205 69/92/206
f 52/73/207 54/75/208 70/93/209 68/91/210
f 55/76/211 53/74/212 69/92/213 71/94/214
f 54/75/215 56/77/216 72/95/217 70/93/218
f 57/78/219 55/76/220 71/94/221 73/96/222
f 56/77/223 58/79/224 74/97/225 72/95/226
f 43/80/227 57/78/228 73/96/229 59/98/230
f 58/79/231 45/81/232 61/99/233 74/97/234
f 60/82/235 59/83/236 75/101/237 76/100/238
f 91/118/239 92/119/240 93/120/241 94/121/242
f 63/86/243 60/82/244 76/100/245 79/104/246
f 92/119/247 95/122/248 96/123/249 93/120/250
f 65/88/251 63/86/252 79/104/253 81/106/254
f 95/122/255 97/124/256 98/125/257 96/123/258
f 67/90/259 65/88/260 81/106/261 83/108/262
f 97/124/263 99/126/264 100/127/265 98/125/266
f 69/92/267 67/90/268 83/108/269 85/110/270
f 99/126/271 101/128/272 102/129/273 100/127/274
f 71/94/275 69/92/276 85/110/277 87/112/278
f 101/128/279 103/130/280 104/131/281 102/129/282
f 73/96/283 71/94/284 87/112/285 89/114/286
f 103/130/287 105/132/288 106/133/289 104/131/290
f 59/98/291 73/96/292 89/114/293 75/116/294
f 105/132/295 91/134/296 94/135/297 106/133/298
f 61/84/299 62/85/300 92/119/301 91/118/302
f 78/103/303 77/102/304 94/121/305 93/120/306
f 62/85/307 64/87/308 95/122/309 92/119/310
f 80/105/311 78/103/312 93/120/313 96/123/314
f 64/87/315 66/89/316 97/124/317 95/122/318
f 82/107/319 80/105/320 96/123/321 98/125/322
f 66/89/323 68/91/324 99/126/325 97/124/326
f 84/109/327 82/107/328 98/125/329 100/127/330
f 68/91/331 70/93/332 101/128/333 99/126/334
f 86/111/335 84/109/336 100/127/337 102/129/338
f 70/93/339 72/95/340 103/130/341 101/128/342
f 88/113/343 86/111/344 102/129/345 104/131/346
f 72/95/347 74/97/348 105/132/349 103/130/350
f 90/115/351 88/113/352 104/131/353 106/133/354
f 74/97/355 61/99/356 91/134/357 105/132/358
f 77/117/359 90/115/360 106/133/361 94/135/362
s 11
f 108/138/170 107/136/169 123/153/363 124/154/364
s 10
f 109/139/162 108/138/161 124/154/365 125/155/366
s 9
f 110/140/154 109/139/153 125/155/367 126/156/368
s 8
f 111/141/146 110/140/145 126/156/369 127/157/370
s 7
f 112/142/138 111/141/137 127/157/371 128/158/372
s 6
f 113/143/130 112/142/129 128/158/373 129/159/374
s 5
f 114/144/122 113/143/121 129/159/375 130/160/376
s 4
f 107/137/114 114/144/113 130/160/377 123/153/378
s off
f 116/146/379 115/145/380 45/81/381 58/79/382
f 117/147/383 116/146/384 58/79/385 56/77/386
f 118/148/387 117/147/388 56/77/389 54/75/390
f 119/149/391 118/148/392 54/75/393 52/73/394
f 120/150/395 119/149/396 52/73/397 50/71/398
f 121/151/399 120/150/400 50/71/401 48/69/402
f 122/152/403 121/151/404 48/69/405 46/67/406
f 115/145/407 122/152/408 46/67/409 45/66/410
f 140/170/411 139/169/412 43/65/413 44/64/414
f 141/171/415 140/170/416 44/64/417 47/68/418
f 142/172/419 141/171/420 47/68/421 49/70/422
f 143/173/423 142/172/424 49/70/425 51/72/426
f 144/174/427 143/173/428 51/72/429 53/74/430
f 145/175/431 144/174/432 53/74/433 55/76/434
f 146/176/435 145/175/436 55/76/437 57/78/438
f 139/169/439 146/176/440 57/78/441 43/80/442
f 124/154/443 123/153/444 131/161/445 138/168/446
f 125/155/447 124/154/448 138/168/449 137/167/450
f 126/156/451 125/155/452 137/167/453 136/166/454
f 127/157/455 126/156/456 136/166/457 135/165/458
f 128/158/459 127/157/460 135/165/461 134/164/462
f 129/159/463 128/158/464 134/164/465 133/163/466
f 130/160/467 129/159/468 133/163/469 132/162/470
f 123/153/471 130/160/472 132/162/473 131/161/474
f 122/152/475 115/145/476 139/169/477 140/170/478
f 121/151/479 122/152/480 140/170/481 141/171/482
f 120/150/483 121/151/484 141/171/485 142/172/486
f 119/149/487 120/150/488 142/172/489 143/173/490
f 118/148/491 119/149/492 143/173/493 144/174/494
f 117/147/495 118/148/496 144/174/497 145/175/498
f 116/146/499 117/147/500 145/175/501 146/176/502
f 115/145/503 116/146/504 146/176/505 139/169/506
