# This file uses centimeters as units for non-parametric coordinates.

mtllib Lamp.mtl
g default
v 0.290496 12.820305 -0.956876
v -0.471202 12.820305 -0.882025
v -0.956876 12.820305 -0.290496
v -0.882025 12.820305 0.471202
v -0.290496 12.820305 0.956876
v 0.471202 12.820305 0.882025
v 0.956876 12.820305 0.290496
v 0.882025 12.820305 -0.471202
v 0.000000 12.820305 0.000000
v 0.290496 5.307679 -0.956876
v 1.487868 2.737774 -4.900946
v 4.517572 2.737774 -2.413412
v 0.882025 5.307679 -0.471202
v 4.900946 2.737774 1.487869
v 0.956876 5.307679 0.290496
v 2.413409 2.737774 4.517573
v 0.471202 5.307679 0.882025
v -1.487868 2.737774 4.900947
v -0.290496 5.307679 0.956876
v -4.517574 2.737774 2.413410
v -0.882025 5.307679 0.471202
v -4.900946 2.737774 -1.487869
v -0.956876 5.307679 -0.290496
v -2.413410 2.737774 -4.517573
v -0.471202 5.307679 -0.882025
v 0.371967 2.675003 -1.225237
v -0.603353 2.675003 -1.129393
v -1.225237 2.675003 -0.371967
v -1.129394 2.675003 0.603352
v -0.371967 2.675003 1.225237
v 0.603352 2.675003 1.129393
v 1.225236 2.675003 0.371967
v 1.129393 2.675003 -0.603353
v 1.487868 0.012368 -4.900947
v 1.330668 -0.436733 -4.383138
v -2.413410 0.012368 -4.517573
v -2.158421 -0.436733 -4.040269
v -4.900946 0.012368 -1.487869
v -4.383137 -0.436733 -1.330668
v -4.517574 0.012368 2.413410
v -4.040271 -0.436733 2.158422
v -1.487868 0.012368 4.900947
v -1.330668 -0.436733 4.383138
v 2.413409 0.012368 4.517573
v 2.158421 -0.436733 4.040269
v 4.900946 0.012369 1.487869
v 4.383138 -0.436733 1.330669
v 4.517572 0.012368 -2.413412
v 4.040268 -0.436733 -2.158423
vt 0.610485 0.733265
vt 0.500000 0.687500
vt 0.389515 0.733265
vt 0.343750 0.843750
vt 0.389515 0.954235
vt 0.500000 1.000000
vt 0.610485 0.954235
vt 0.656250 0.843750
vt 0.500000 0.843750
vt 0.375000 0.460348
vt 0.625000 0.361789
vt 0.625000 0.460349
vt 0.625000 0.687500
vt 0.593750 0.687500
vt 0.593750 0.460348
vt 0.562500 0.687500
vt 0.562500 0.460348
vt 0.531250 0.687500
vt 0.531250 0.460348
vt 0.500000 0.687500
vt 0.500000 0.460349
vt 0.468750 0.687500
vt 0.468750 0.460348
vt 0.437500 0.687500
vt 0.437500 0.460348
vt 0.406250 0.687500
vt 0.406250 0.460348
vt 0.375000 0.687500
vt 0.375000 0.337142
vt 0.378912 0.328552
vt 0.402338 0.328552
vt 0.621088 0.328552
vt 0.597662 0.328552
vt 0.410162 0.328552
vt 0.433588 0.328552
vt 0.441412 0.328552
vt 0.464838 0.328552
vt 0.472662 0.328552
vt 0.496088 0.328552
vt 0.503912 0.328552
vt 0.527338 0.328552
vt 0.535162 0.328552
vt 0.558588 0.328552
vt 0.566412 0.328552
vt 0.589838 0.328552
vt 0.406250 0.337142
vt 0.375000 0.361789
vt 0.437500 0.337142
vt 0.406250 0.361789
vt 0.468750 0.337142
vt 0.437500 0.361789
vt 0.500000 0.337142
vt 0.468750 0.361789
vt 0.531250 0.337142
vt 0.500000 0.361789
vt 0.562500 0.337142
vt 0.531250 0.361789
vt 0.593750 0.337142
vt 0.562500 0.361789
vt 0.625000 0.337142
vt 0.593750 0.361789
vt 0.592045 0.248295
vt 0.578125 0.156250
vt 0.500000 0.286421
vt 0.555243 0.211493
vt 0.407955 0.248295
vt 0.500000 0.234375
vt 0.369829 0.156250
vt 0.444757 0.211493
vt 0.407955 0.064205
vt 0.421875 0.156250
vt 0.500000 0.026079
vt 0.444757 0.101007
vt 0.592045 0.064205
vt 0.500000 0.078125
vt 0.630171 0.156250
vt 0.555243 0.101007
vn 0.000000 -1.000000 0.000000
vn 0.000000 -1.000000 0.000000
vn 0.000000 -1.000000 0.000000
vn 0.000000 -1.000000 0.000000
vn 0.000000 -1.000000 0.000000
vn 0.000000 -1.000000 0.000000
vn 0.000000 -1.000000 0.000000
vn 0.000000 -1.000000 0.000000
vn 0.000000 1.000000 0.000000
vn 0.000000 1.000000 0.000000
vn -0.000000 1.000000 -0.000000
vn -0.000000 1.000000 -0.000000
vn -0.000000 1.000000 -0.000000
vn 0.000000 1.000000 0.000000
vn 0.000000 1.000000 0.000000
vn 0.000000 1.000000 0.000000
vn 0.000000 1.000000 0.000000
vn -0.075316 0.637898 -0.766429
vn -0.054707 0.828903 -0.556711
vn -0.054707 0.828903 -0.556711
vn -0.075316 0.637898 -0.766429
vn 0.354970 0.828903 -0.432338
vn 0.488691 0.637898 -0.595204
vn 0.488691 0.637898 -0.595204
vn 0.354970 0.828903 -0.432338
vn 0.556711 0.828903 -0.054707
vn 0.766429 0.637898 -0.075316
vn 0.766429 0.637898 -0.075316
vn 0.556711 0.828903 -0.054707
vn 0.432338 0.828903 0.354971
vn 0.595203 0.637898 0.488691
vn 0.595203 0.637898 0.488691
vn 0.432338 0.828903 0.354971
vn 0.054707 0.828903 0.556711
vn 0.075316 0.637898 0.766429
vn 0.075316 0.637898 0.766429
vn 0.054707 0.828903 0.556711
vn -0.354970 0.828903 0.432338
vn -0.488691 0.637898 0.595203
vn -0.488691 0.637898 0.595203
vn -0.354970 0.828903 0.432338
vn -0.556711 0.828903 0.054707
vn -0.766429 0.637898 0.075316
vn -0.766429 0.637898 0.075316
vn -0.556711 0.828903 0.054707
vn -0.432338 0.828903 -0.354970
vn -0.595203 0.637898 -0.488691
vn -0.595203 0.637898 -0.488691
vn -0.432338 0.828903 -0.354970
vn 0.634564 -0.000000 -0.772870
vn 0.634564 -0.000000 -0.772870
vn 0.995206 -0.000000 -0.097797
vn 0.995206 -0.000000 -0.097797
vn 0.772870 -0.000000 0.634564
vn 0.772870 -0.000000 0.634564
vn 0.097797 -0.000000 0.995206
vn 0.097797 -0.000000 0.995206
vn -0.634564 -0.000000 0.772870
vn -0.634564 -0.000000 0.772870
vn -0.995206 -0.000000 0.097797
vn -0.995206 -0.000000 0.097797
vn -0.772870 -0.000000 -0.634564
vn -0.772870 -0.000000 -0.634564
vn -0.097797 -0.000000 -0.995206
vn -0.097797 -0.000000 -0.995206
vn 0.185519 -0.769516 -0.611088
vn 0.185519 -0.769516 -0.611088
vn -0.300923 -0.769516 -0.563286
vn -0.300923 -0.769516 -0.563286
vn 0.563286 -0.769516 -0.300923
vn 0.563286 -0.769516 -0.300922
vn -0.611088 -0.769516 -0.185519
vn -0.611088 -0.769516 -0.185519
vn -0.563286 -0.769515 0.300922
vn -0.563287 -0.769515 0.300922
vn -0.185519 -0.769516 0.611088
vn -0.185519 -0.769516 0.611088
vn 0.300923 -0.769516 0.563286
vn 0.300923 -0.769516 0.563286
vn 0.611088 -0.769515 0.185519
vn 0.611088 -0.769515 0.185519
vn -0.097798 0.000000 -0.995206
vn -0.097798 0.000000 -0.995206
vn -0.097798 0.000000 -0.995206
vn -0.097798 0.000000 -0.995206
vn -0.772870 0.000000 -0.634564
vn -0.772870 0.000000 -0.634564
vn -0.772870 0.000000 -0.634564
vn -0.772870 0.000000 -0.634564
vn -0.995206 0.000000 0.097797
vn -0.995206 0.000000 0.097797
vn -0.995206 0.000000 0.097797
vn -0.995206 0.000000 0.097797
vn -0.634564 0.000000 0.772870
vn -0.634564 0.000000 0.772870
vn -0.634564 0.000000 0.772870
vn -0.634564 0.000000 0.772870
vn 0.097798 0.000000 0.995206
vn 0.097798 0.000000 0.995206
vn 0.097798 0.000000 0.995206
vn 0.097798 0.000000 0.995206
vn 0.772870 -0.000000 0.634564
vn 0.772870 -0.000000 0.634564
vn 0.772870 -0.000000 0.634564
vn 0.772870 -0.000000 0.634564
vn 0.995206 0.000000 -0.097798
vn 0.995206 0.000000 -0.097798
vn 0.995206 0.000000 -0.097798
vn 0.995206 0.000000 -0.097798
vn 0.634564 0.000000 -0.772870
vn 0.634564 0.000000 -0.772870
vn 0.634564 0.000000 -0.772870
vn 0.634564 0.000000 -0.772870
vn -0.605091 -0.727578 0.323256
vn -0.656441 -0.727578 -0.199287
vn -0.656440 -0.727578 -0.199287
vn -0.605091 -0.727578 0.323256
vn -0.323256 -0.727578 -0.605091
vn -0.323256 -0.727578 -0.605091
vn 0.199287 -0.727578 -0.656440
vn 0.199287 -0.727578 -0.656440
vn 0.605091 -0.727578 -0.323256
vn 0.605091 -0.727578 -0.323256
vn 0.656440 -0.727578 0.199287
vn 0.656440 -0.727578 0.199287
vn 0.323256 -0.727578 0.605091
vn 0.323256 -0.727578 0.605091
vn -0.199287 -0.727578 0.656441
vn -0.199287 -0.727578 0.656441
s off
g pCylinder1
usemtl lambert2SG
f 32/65/1 31/67/2 30/69/3 29/71/4 28/73/5 27/75/6 26/77/7 33/63/8
s 1
f 1/7/9 2/6/10 9/9/11
f 2/6/10 3/5/12 9/9/11
f 3/5/12 4/4/13 9/9/11
f 4/4/13 5/3/14 9/9/11
f 5/3/14 6/2/15 9/9/11
f 6/2/15 7/1/16 9/9/11
f 7/1/16 8/8/17 9/9/11
f 8/8/17 1/7/9 9/9/11
s 2
f 10/10/18 11/47/19 24/49/20 25/27/21
s 3
f 11/11/22 10/12/23 13/15/24 12/61/25
s 4
f 12/61/26 13/15/27 15/17/28 14/59/29
s 5
f 14/59/30 15/17/31 17/19/32 16/57/33
s 6
f 16/57/34 17/19/35 19/21/36 18/55/37
s 7
f 18/55/38 19/21/39 21/23/40 20/53/41
s 8
f 20/53/42 21/23/43 23/25/44 22/51/45
s 9
f 22/51/46 23/25/47 25/27/48 24/49/49
s 3
f 13/15/24 10/12/23 1/13/50 8/14/51
s 4
f 15/17/28 13/15/27 8/14/52 7/16/53
s 5
f 17/19/32 15/17/31 7/16/54 6/18/55
s 6
f 19/21/36 17/19/35 6/18/56 5/20/57
s 7
f 21/23/40 19/21/39 5/20/58 4/22/59
s 8
f 23/25/44 21/23/43 4/22/60 3/24/61
s 9
f 25/27/48 23/25/47 3/24/62 2/26/63
s 2
f 10/10/18 25/27/21 2/26/64 1/28/65
s 10
f 34/29/66 35/30/67 37/31/68 36/46/69
f 35/32/67 34/60/66 48/58/70 49/33/71
f 36/46/69 37/34/68 39/35/72 38/48/73
f 38/48/73 39/36/72 41/37/74 40/50/75
f 40/50/75 41/38/74 43/39/76 42/52/77
f 42/52/77 43/40/76 45/41/78 44/54/79
f 44/54/79 45/42/78 47/43/80 46/56/81
f 46/56/81 47/44/80 49/45/71 48/58/70
s off
f 34/29/82 36/46/83 24/49/84 11/47/85
f 36/46/86 38/48/87 22/51/88 24/49/89
f 38/48/90 40/50/91 20/53/92 22/51/93
f 40/50/94 42/52/95 18/55/96 20/53/97
f 42/52/98 44/54/99 16/57/100 18/55/101
f 44/54/102 46/56/103 14/59/104 16/57/105
f 46/56/106 48/58/107 12/61/108 14/59/109
f 48/58/110 34/60/111 11/11/112 12/61/113
s 11
f 49/76/114 47/62/115 32/65/116 33/63/117
f 47/62/115 45/64/118 31/67/119 32/65/116
f 45/64/118 43/66/120 30/69/121 31/67/119
f 43/66/120 41/68/122 29/71/123 30/69/121
f 41/68/122 39/70/124 28/73/125 29/71/123
f 39/70/124 37/72/126 27/75/127 28/73/125
f 37/72/126 35/74/128 26/77/129 27/75/127
f 35/74/128 49/76/114 33/63/117 26/77/129
