# This file uses centimeters as units for non-parametric coordinates.

mtllib Env_ShortGrass.mtl
g default
v 4.256932 -26.451932 702.697272
v -4.256929 -26.451932 702.697272
v -8.513861 -26.451932 710.070502
v -4.256931 -26.451932 717.443732
v 4.256930 -26.451932 717.443732
v 8.513861 -26.451932 710.070502
v -7.436110 27.260341 707.244941
v -10.616462 26.988563 707.244880
v -12.206639 26.852649 710.070502
v -10.616463 26.988563 712.896064
v -7.436110 27.260341 712.896064
v -5.845935 27.396243 710.070502
v 0.000000 -26.451932 710.070502
v -15.847244 38.235271 710.070502
v 3.753912 -15.738927 703.568549
v 7.507821 -15.738927 710.070502
v 3.753910 -15.738927 716.572455
v -3.753911 -15.738927 716.572455
v -7.507821 -15.738927 710.070502
v -3.753910 -15.738927 703.568549
v 3.550351 -2.883317 703.921088
v 7.100699 -2.883317 710.070502
v 3.550349 -2.883317 716.219916
v -3.550350 -2.883317 716.219916
v -7.100699 -2.883317 710.070502
v -3.550348 -2.883317 703.921088
v 3.131425 6.115604 704.646735
v 6.262846 6.115604 710.070502
v 3.131423 6.115604 715.494269
v -3.131424 6.115604 715.494269
v -6.262846 6.115604 710.070502
v -3.131423 6.115604 704.646735
v -0.390086 17.091876 705.888190
v 1.963609 17.293025 710.070502
v -0.390087 17.091876 714.252814
v -5.097476 16.689582 714.252814
v -7.451169 16.488425 710.070502
v -5.097476 16.689582 705.888190
v 7.813628 -26.451932 721.814765
v -0.700233 -26.451932 721.814765
v -4.957165 -26.451932 729.187995
v -0.700236 -26.451932 736.561225
v 7.813625 -26.451932 736.561225
v 12.070557 -26.451932 729.187995
v 5.188053 27.248393 751.578254
v 1.925339 27.248393 751.578254
v 0.293981 26.725211 754.031379
v 1.925338 26.202045 756.484504
v 5.188052 26.202045 756.484504
v 6.819410 26.725211 754.031379
v 3.556695 -26.451932 729.187995
v 3.556695 36.621196 769.192084
v 7.310608 -15.292812 722.548774
v 11.064516 -15.566180 729.009345
v 7.310606 -15.839530 735.469916
v -0.197216 -15.839530 735.469916
v -3.951126 -15.566180 729.009345
v -0.197214 -15.292812 722.548774
v 7.107047 -2.150323 726.368720
v 10.657394 -2.608369 732.394355
v 7.107044 -3.066417 738.419928
v 0.006345 -3.066417 738.419928
v -3.544003 -2.608369 732.394355
v 0.006347 -2.150323 726.368720
v 6.688120 7.241966 731.966864
v 9.819542 6.599368 737.109931
v 6.688118 5.956771 742.252997
v 0.425271 5.956771 742.252997
v -2.706151 6.599368 737.109931
v 0.425273 7.241966 731.966803
v 5.971344 17.362693 740.331244
v 8.385992 16.766700 744.196479
v 5.971343 16.170707 748.061713
v 1.142047 16.170707 748.061713
v -1.272601 16.766700 744.196479
v 1.142048 17.362693 740.331244
v -16.428137 -26.451932 715.581611
v -23.321526 -26.451932 720.578315
v -22.440945 -26.451932 729.046515
v -14.666980 -26.451932 732.518012
v -7.773593 -26.451932 727.521308
v -8.654173 -26.451932 719.053107
v -23.226639 27.260341 726.126227
v -25.801662 26.988563 727.992743
v -25.430862 26.852649 731.213752
v -22.485039 26.988563 732.568305
v -19.910013 27.260341 730.701789
v -20.280815 27.396243 727.480719
v -15.547559 -26.451932 724.049811
v -28.378538 38.235271 733.350409
v -16.324083 -15.738927 716.582282
v -9.468729 -15.738927 719.643561
v -8.692203 -15.738927 727.111091
v -14.771033 -15.738927 731.517341
v -21.626389 -15.738927 728.456061
v -22.402916 -15.738927 720.988532
v -16.281975 -2.883317 716.987189
v -9.798363 -2.883317 719.882453
v -9.063944 -2.883317 726.945075
v -14.813142 -2.883317 731.112433
v -21.296757 -2.883317 728.217170
v -22.031174 -2.883317 721.154548
v -16.195316 6.115604 717.820563
v -10.476744 6.115604 720.374213
v -9.828983 6.115604 726.603461
v -14.899800 6.115604 730.279059
v -20.618374 6.115604 727.725409
v -21.266134 6.115604 721.496161
v -18.317945 17.091876 720.892463
v -13.957691 17.293025 722.897406
v -13.408851 17.091876 727.664985
v -17.220266 16.689582 730.427741
v -21.580519 16.488425 728.422858
v -22.129362 16.689582 723.655219
v -10.569300 -26.451932 697.169684
v -15.845022 -26.451932 690.487433
v -24.269890 -26.451932 691.715216
v -27.419035 -26.451932 699.625251
v -22.143311 -26.451932 706.307502
v -13.718445 -26.451932 705.079718
v -21.384331 27.260341 690.810187
v -23.355076 26.988563 688.314032
v -26.558167 26.852649 688.816840
v -27.790512 26.988563 691.815863
v -25.819765 27.260341 694.312018
v -22.616676 27.396243 693.809150
v -18.994167 -26.451932 698.397467
v -28.814116 38.235271 685.959479
v -11.564823 -15.738927 697.314765
v -14.341850 -15.738927 704.290107
v -21.771193 -15.738927 705.372809
v -26.423512 -15.738927 699.480170
v -23.646484 -15.738927 692.504828
v -16.217140 -15.738927 691.422126
v -11.967690 -2.883317 697.373481
v -14.594128 -2.883317 703.970588
v -21.620605 -2.883317 704.994574
v -26.020645 -2.883317 699.421454
v -23.394205 -2.883317 692.824347
v -16.367729 -2.883317 691.800361
v -12.796784 6.115604 697.494330
v -15.113314 6.115604 703.312995
v -21.310696 6.115604 704.216132
v -25.191549 6.115604 699.300605
v -22.875019 6.115604 693.481940
v -16.677637 6.115604 692.578803
v -15.953341 17.091876 695.499701
v -17.777391 17.293025 699.938666
v -22.518438 17.091876 700.682929
v -25.435432 16.689582 696.988227
v -23.611378 16.488425 692.549262
v -18.870335 16.689582 691.804999
v 21.113094 -26.451932 694.841742
v 28.627914 -26.451932 698.843390
v 35.850868 -26.451932 694.336188
v 35.559006 -26.451932 685.827338
v 28.044186 -26.451932 681.825690
v 20.821232 -26.451932 686.332892
v 37.419949 27.248393 669.804816
v 40.299805 27.248393 671.338385
v 42.892742 26.725211 669.939887
v 42.605820 26.202045 667.007880
v 39.725960 26.202045 665.474311
v 37.133026 26.725211 666.872809
v 28.336050 -26.451932 690.334540
v 47.138672 36.621196 655.024665
v 21.902084 -15.292812 694.430304
v 21.625244 -15.566180 686.963446
v 27.975237 -15.839530 683.025397
v 34.602066 -15.839530 686.554206
v 34.878906 -15.566180 694.021064
v 28.528913 -15.292812 697.959113
v 23.877209 -2.150323 691.154242
v 23.575607 -2.608369 684.166999
v 29.541485 -3.066417 680.517157
v 35.808968 -3.066417 683.854621
v 36.110569 -2.608369 690.841925
v 30.144690 -2.150323 694.491706
v 26.878180 7.241966 686.409980
v 26.531542 6.599368 680.398566
v 31.712849 5.956771 677.330817
v 37.240795 5.956771 680.274482
v 37.587433 6.599368 686.285834
v 32.406124 7.241966 689.353583
v 31.442268 17.362693 679.363959
v 31.127687 16.766700 674.817328
v 35.075722 16.170707 672.540595
v 39.338333 16.170707 674.810431
v 39.652912 16.766700 679.357062
v 35.704880 17.362693 681.633796
v 14.560284 -26.451932 706.687323
v 9.450064 -26.451932 713.496955
v 12.792295 -26.451932 721.327338
v 21.244743 -26.451932 722.348090
v 26.354963 -26.451932 715.538459
v 23.012732 -26.451932 707.708014
v 36.790161 27.248393 726.652045
v 34.831806 27.248393 729.261664
v 35.814705 26.725211 732.038886
v 38.755962 26.202045 732.206488
v 40.714321 26.202045 729.596869
v 39.731422 26.725211 726.819648
v 17.902514 -26.451932 714.517707
v 49.899067 36.621196 738.529059
v 14.845438 -15.292812 707.530219
v 22.265984 -15.566180 708.405463
v 25.180161 -15.839530 715.285773
v 20.673790 -15.839530 721.290717
v 13.253242 -15.566180 720.415473
v 10.339067 -15.292812 713.535163
v 17.778587 -2.150323 709.985846
v 24.729055 -2.608369 710.762885
v 27.417521 -3.066417 717.219245
v 23.155514 -3.066417 722.898627
v 16.205044 -2.608369 722.121589
v 13.516580 -2.150323 715.665229
v 22.004675 7.241966 713.681037
v 27.997818 6.599368 714.263373
v 30.231859 5.956771 719.854987
v 26.472752 5.956771 724.864203
v 20.479605 6.599368 724.281867
v 18.245565 7.241966 718.690253
v 28.264572 17.362693 719.274848
v 32.805435 16.766700 719.663520
v 34.447647 16.170707 723.914862
v 31.548988 16.170707 727.777472
v 27.008121 16.766700 727.388800
v 25.365913 17.362693 723.137458
v 8.833258 -26.451932 694.431586
v 12.401397 -26.451932 686.701484
v 7.491014 -26.451932 679.746344
v -0.987505 -26.451932 680.521308
v -4.555642 -26.451932 688.251410
v 0.354741 -26.451932 695.206550
v -17.089878 27.248393 679.573920
v -15.722482 27.248393 676.611579
v -17.266069 26.725211 674.102301
v -20.177048 26.202045 674.555365
v -21.544441 26.202045 677.517707
v -20.000860 26.725211 680.026984
v 3.922877 -26.451932 687.476447
v -32.398468 36.621196 670.710822
v 8.377642 -15.292812 693.667243
v 0.938584 -15.566180 694.367987
v -3.353968 -15.839530 688.252082
v -0.207459 -15.839530 681.435370
v 7.231601 -15.566180 680.734687
v 11.524151 -15.292812 686.850592
v 4.994650 -2.150323 691.881476
v -1.964177 -2.608369 692.579718
v -5.947123 -3.066417 686.830878
v -2.971237 -3.066417 680.383857
v 3.987592 -2.608369 679.685675
v 7.970536 -2.150323 685.434455
v 0.087481 7.241966 689.154975
v -5.894492 6.599368 689.842719
v -9.251726 5.956771 684.844123
v -6.626984 5.956771 679.157782
v -0.645006 6.599368 678.470099
v 2.712226 7.241966 683.468696
v -7.206509 17.362693 684.998725
v -11.727884 16.766700 685.571174
v -14.225314 16.170707 681.758857
v -12.201369 16.170707 677.374152
v -7.679992 16.766700 676.801703
v -5.182562 17.362693 680.613959
vt 0.578125 0.020934
vt 0.421875 0.020934
vt 0.343750 0.156250
vt 0.421875 0.291566
vt 0.578125 0.291566
vt 0.656250 0.156250
vt 0.375000 0.312500
vt 0.416667 0.312500
vt 0.458333 0.312500
vt 0.500000 0.312500
vt 0.541667 0.312500
vt 0.583333 0.312500
vt 0.625000 0.312500
vt 0.375000 0.687500
vt 0.416667 0.687500
vt 0.458333 0.687500
vt 0.500000 0.687500
vt 0.541667 0.687500
vt 0.583333 0.687500
vt 0.625000 0.687500
vt 0.578125 0.708434
vt 0.421875 0.708434
vt 0.343750 0.843750
vt 0.421875 0.979066
vt 0.578125 0.979066
vt 0.656250 0.843750
vt 0.500000 0.156250
vt 0.500000 0.843750
vt 0.625000 0.387500
vt 0.375000 0.387500
vt 0.583333 0.387500
vt 0.541667 0.387500
vt 0.500000 0.387500
vt 0.458333 0.387500
vt 0.416667 0.387500
vt 0.625000 0.477500
vt 0.375000 0.477500
vt 0.583333 0.477500
vt 0.541667 0.477500
vt 0.500000 0.477500
vt 0.458333 0.477500
vt 0.416667 0.477500
vt 0.625000 0.540500
vt 0.375000 0.540500
vt 0.583333 0.540500
vt 0.541667 0.540500
vt 0.500000 0.540500
vt 0.458333 0.540500
vt 0.416667 0.540500
vt 0.625000 0.614000
vt 0.375000 0.614000
vt 0.583333 0.614000
vt 0.541667 0.614000
vt 0.500000 0.614000
vt 0.458333 0.614000
vt 0.416667 0.614000
vt 0.375000 0.312500
vt 0.416667 0.312500
vt 0.416667 0.387500
vt 0.375000 0.387500
vt 0.458333 0.312500
vt 0.458333 0.387500
vt 0.500000 0.312500
vt 0.500000 0.387500
vt 0.541667 0.312500
vt 0.541667 0.387500
vt 0.583333 0.312500
vt 0.583333 0.387500
vt 0.625000 0.312500
vt 0.625000 0.387500
vt 0.421875 0.020934
vt 0.578125 0.020934
vt 0.500000 0.156250
vt 0.343750 0.156250
vt 0.421875 0.291566
vt 0.578125 0.291566
vt 0.656250 0.156250
vt 0.578125 0.979066
vt 0.421875 0.979066
vt 0.500000 0.843750
vt 0.343750 0.843750
vt 0.421875 0.708434
vt 0.578125 0.708434
vt 0.656250 0.843750
vt 0.625000 0.477500
vt 0.583333 0.477500
vt 0.541667 0.477500
vt 0.500000 0.477500
vt 0.458333 0.477500
vt 0.416667 0.477500
vt 0.375000 0.477500
vt 0.625000 0.540500
vt 0.583333 0.540500
vt 0.541667 0.540500
vt 0.500000 0.540500
vt 0.458333 0.540500
vt 0.416667 0.540500
vt 0.375000 0.540500
vt 0.625000 0.614000
vt 0.583333 0.614000
vt 0.541667 0.614000
vt 0.500000 0.614000
vt 0.458333 0.614000
vt 0.416667 0.614000
vt 0.375000 0.614000
vt 0.625000 0.687500
vt 0.583333 0.687500
vt 0.541667 0.687500
vt 0.500000 0.687500
vt 0.458333 0.687500
vt 0.416667 0.687500
vt 0.375000 0.687500
vt 0.375000 0.312500
vt 0.416667 0.312500
vt 0.416667 0.387500
vt 0.375000 0.387500
vt 0.458333 0.312500
vt 0.458333 0.387500
vt 0.500000 0.312500
vt 0.500000 0.387500
vt 0.541667 0.312500
vt 0.541667 0.387500
vt 0.583333 0.312500
vt 0.583333 0.387500
vt 0.625000 0.312500
vt 0.625000 0.387500
vt 0.421875 0.020934
vt 0.578125 0.020934
vt 0.500000 0.156250
vt 0.343750 0.156250
vt 0.421875 0.291566
vt 0.578125 0.291566
vt 0.656250 0.156250
vt 0.578125 0.979066
vt 0.421875 0.979066
vt 0.500000 0.843750
vt 0.343750 0.843750
vt 0.421875 0.708434
vt 0.578125 0.708434
vt 0.656250 0.843750
vt 0.625000 0.477500
vt 0.583333 0.477500
vt 0.541667 0.477500
vt 0.500000 0.477500
vt 0.458333 0.477500
vt 0.416667 0.477500
vt 0.375000 0.477500
vt 0.625000 0.540500
vt 0.583333 0.540500
vt 0.541667 0.540500
vt 0.500000 0.540500
vt 0.458333 0.540500
vt 0.416667 0.540500
vt 0.375000 0.540500
vt 0.625000 0.614000
vt 0.583333 0.614000
vt 0.541667 0.614000
vt 0.500000 0.614000
vt 0.458333 0.614000
vt 0.416667 0.614000
vt 0.375000 0.614000
vt 0.625000 0.687500
vt 0.583333 0.687500
vt 0.541667 0.687500
vt 0.500000 0.687500
vt 0.458333 0.687500
vt 0.416667 0.687500
vt 0.375000 0.687500
vt 0.375000 0.312500
vt 0.416667 0.312500
vt 0.416667 0.387500
vt 0.375000 0.387500
vt 0.458333 0.312500
vt 0.458333 0.387500
vt 0.500000 0.312500
vt 0.500000 0.387500
vt 0.541667 0.312500
vt 0.541667 0.387500
vt 0.583333 0.312500
vt 0.583333 0.387500
vt 0.625000 0.312500
vt 0.625000 0.387500
vt 0.421875 0.020934
vt 0.578125 0.020934
vt 0.500000 0.156250
vt 0.343750 0.156250
vt 0.421875 0.291566
vt 0.578125 0.291566
vt 0.656250 0.156250
vt 0.578125 0.979066
vt 0.421875 0.979066
vt 0.500000 0.843750
vt 0.343750 0.843750
vt 0.421875 0.708434
vt 0.578125 0.708434
vt 0.656250 0.843750
vt 0.625000 0.477500
vt 0.583333 0.477500
vt 0.541667 0.477500
vt 0.500000 0.477500
vt 0.458333 0.477500
vt 0.416667 0.477500
vt 0.375000 0.477500
vt 0.625000 0.540500
vt 0.583333 0.540500
vt 0.541667 0.540500
vt 0.500000 0.540500
vt 0.458333 0.540500
vt 0.416667 0.540500
vt 0.375000 0.540500
vt 0.625000 0.614000
vt 0.583333 0.614000
vt 0.541667 0.614000
vt 0.500000 0.614000
vt 0.458333 0.614000
vt 0.416667 0.614000
vt 0.375000 0.614000
vt 0.625000 0.687500
vt 0.583333 0.687500
vt 0.541667 0.687500
vt 0.500000 0.687500
vt 0.458333 0.687500
vt 0.416667 0.687500
vt 0.375000 0.687500
vt 0.375000 0.312500
vt 0.416667 0.312500
vt 0.416667 0.387500
vt 0.375000 0.387500
vt 0.458333 0.312500
vt 0.458333 0.387500
vt 0.500000 0.312500
vt 0.500000 0.387500
vt 0.541667 0.312500
vt 0.541667 0.387500
vt 0.583333 0.312500
vt 0.583333 0.387500
vt 0.625000 0.312500
vt 0.625000 0.387500
vt 0.421875 0.020934
vt 0.578125 0.020934
vt 0.500000 0.156250
vt 0.343750 0.156250
vt 0.421875 0.291566
vt 0.578125 0.291566
vt 0.656250 0.156250
vt 0.578125 0.979066
vt 0.421875 0.979066
vt 0.500000 0.843750
vt 0.343750 0.843750
vt 0.421875 0.708434
vt 0.578125 0.708434
vt 0.656250 0.843750
vt 0.625000 0.477500
vt 0.583333 0.477500
vt 0.541667 0.477500
vt 0.500000 0.477500
vt 0.458333 0.477500
vt 0.416667 0.477500
vt 0.375000 0.477500
vt 0.625000 0.540500
vt 0.583333 0.540500
vt 0.541667 0.540500
vt 0.500000 0.540500
vt 0.458333 0.540500
vt 0.416667 0.540500
vt 0.375000 0.540500
vt 0.625000 0.614000
vt 0.583333 0.614000
vt 0.541667 0.614000
vt 0.500000 0.614000
vt 0.458333 0.614000
vt 0.416667 0.614000
vt 0.375000 0.614000
vt 0.625000 0.687500
vt 0.583333 0.687500
vt 0.541667 0.687500
vt 0.500000 0.687500
vt 0.458333 0.687500
vt 0.416667 0.687500
vt 0.375000 0.687500
vt 0.375000 0.312500
vt 0.416667 0.312500
vt 0.416667 0.387500
vt 0.375000 0.387500
vt 0.458333 0.312500
vt 0.458333 0.387500
vt 0.500000 0.312500
vt 0.500000 0.387500
vt 0.541667 0.312500
vt 0.541667 0.387500
vt 0.583333 0.312500
vt 0.583333 0.387500
vt 0.625000 0.312500
vt 0.625000 0.387500
vt 0.421875 0.020934
vt 0.578125 0.020934
vt 0.500000 0.156250
vt 0.343750 0.156250
vt 0.421875 0.291566
vt 0.578125 0.291566
vt 0.656250 0.156250
vt 0.578125 0.979066
vt 0.421875 0.979066
vt 0.500000 0.843750
vt 0.343750 0.843750
vt 0.421875 0.708434
vt 0.578125 0.708434
vt 0.656250 0.843750
vt 0.625000 0.477500
vt 0.583333 0.477500
vt 0.541667 0.477500
vt 0.500000 0.477500
vt 0.458333 0.477500
vt 0.416667 0.477500
vt 0.375000 0.477500
vt 0.625000 0.540500
vt 0.583333 0.540500
vt 0.541667 0.540500
vt 0.500000 0.540500
vt 0.458333 0.540500
vt 0.416667 0.540500
vt 0.375000 0.540500
vt 0.625000 0.614000
vt 0.583333 0.614000
vt 0.541667 0.614000
vt 0.500000 0.614000
vt 0.458333 0.614000
vt 0.416667 0.614000
vt 0.375000 0.614000
vt 0.625000 0.687500
vt 0.583333 0.687500
vt 0.541667 0.687500
vt 0.500000 0.687500
vt 0.458333 0.687500
vt 0.416667 0.687500
vt 0.375000 0.687500
vt 0.375000 0.312500
vt 0.416667 0.312500
vt 0.416667 0.387500
vt 0.375000 0.387500
vt 0.458333 0.312500
vt 0.458333 0.387500
vt 0.500000 0.312500
vt 0.500000 0.387500
vt 0.541667 0.312500
vt 0.541667 0.387500
vt 0.583333 0.312500
vt 0.583333 0.387500
vt 0.625000 0.312500
vt 0.625000 0.387500
vt 0.421875 0.020934
vt 0.578125 0.020934
vt 0.500000 0.156250
vt 0.343750 0.156250
vt 0.421875 0.291566
vt 0.578125 0.291566
vt 0.656250 0.156250
vt 0.578125 0.979066
vt 0.421875 0.979066
vt 0.500000 0.843750
vt 0.343750 0.843750
vt 0.421875 0.708434
vt 0.578125 0.708434
vt 0.656250 0.843750
vt 0.625000 0.477500
vt 0.583333 0.477500
vt 0.541667 0.477500
vt 0.500000 0.477500
vt 0.458333 0.477500
vt 0.416667 0.477500
vt 0.375000 0.477500
vt 0.625000 0.540500
vt 0.583333 0.540500
vt 0.541667 0.540500
vt 0.500000 0.540500
vt 0.458333 0.540500
vt 0.416667 0.540500
vt 0.375000 0.540500
vt 0.625000 0.614000
vt 0.583333 0.614000
vt 0.541667 0.614000
vt 0.500000 0.614000
vt 0.458333 0.614000
vt 0.416667 0.614000
vt 0.375000 0.614000
vt 0.625000 0.687500
vt 0.583333 0.687500
vt 0.541667 0.687500
vt 0.500000 0.687500
vt 0.458333 0.687500
vt 0.416667 0.687500
vt 0.375000 0.687500
vn 0.000000 0.081061 -0.996709
vn 0.000000 0.081061 -0.996709
vn 0.000000 0.053618 -0.998562
vn 0.000000 0.053618 -0.998562
vn -0.863176 0.081060 -0.498353
vn -0.863176 0.081060 -0.498353
vn -0.864780 0.053618 -0.499280
vn -0.864780 0.053618 -0.499280
vn -0.863177 0.081060 0.498353
vn -0.863177 0.081060 0.498353
vn -0.864781 0.053618 0.499279
vn -0.864781 0.053618 0.499279
vn 0.000000 0.081061 0.996709
vn 0.000000 0.081061 0.996709
vn 0.000000 0.053618 0.998562
vn 0.000000 0.053618 0.998562
vn 0.863176 0.081060 0.498353
vn 0.863176 0.081060 0.498353
vn 0.864781 0.053618 0.499279
vn 0.864781 0.053618 0.499279
vn 0.863177 0.081060 -0.498353
vn 0.863177 0.081060 -0.498353
vn 0.864780 0.053618 -0.499280
vn 0.864780 0.053618 -0.499280
vn 0.000000 -1.000000 0.000000
vn 0.000000 -1.000000 0.000000
vn 0.000000 -1.000000 -0.000000
vn 0.000000 -1.000000 0.000000
vn 0.000000 -1.000000 -0.000000
vn 0.000000 -1.000000 -0.000000
vn 0.000000 -1.000000 -0.000000
vn 0.491613 0.550487 -0.674745
vn -0.394686 0.046975 -0.917615
vn -0.284030 0.958815 -0.000008
vn -0.952470 -0.304633 0.000000
vn -0.394681 0.046968 0.917617
vn 0.491608 0.550486 0.674749
vn 0.734933 0.678140 0.000000
vn 0.865043 0.047638 -0.499432
vn 0.865043 0.047638 -0.499432
vn 0.865044 0.047638 0.499429
vn 0.865044 0.047638 0.499429
vn 0.000000 0.047638 0.998865
vn 0.000000 0.047638 0.998865
vn -0.865044 0.047638 0.499429
vn -0.865044 0.047638 0.499429
vn -0.865042 0.047638 -0.499432
vn -0.865042 0.047638 -0.499432
vn 0.000000 0.047638 -0.998865
vn 0.000000 0.047638 -0.998865
vn 0.847399 0.204518 -0.489987
vn 0.849092 0.195069 -0.490907
vn 0.849093 0.195069 0.490906
vn 0.847400 0.204518 0.489985
vn -0.001821 0.094833 0.995492
vn -0.002161 0.097537 0.995230
vn -0.866688 -0.001473 0.498848
vn -0.866714 -0.008964 0.498724
vn -0.866713 -0.008964 -0.498726
vn -0.866687 -0.001473 -0.498851
vn -0.002157 0.097537 -0.995230
vn -0.001817 0.094833 -0.995492
vn 0.778968 0.428325 -0.457982
vn 0.788188 0.406636 -0.461960
vn 0.788188 0.406636 0.461960
vn 0.778968 0.428325 0.457981
vn -0.006088 0.116825 0.993134
vn -0.007352 0.119065 0.992859
vn -0.848505 -0.199996 0.489941
vn -0.842993 -0.226960 0.487701
vn -0.842996 -0.226960 -0.487696
vn -0.848506 -0.199996 -0.489937
vn -0.007336 0.119066 -0.992859
vn -0.006076 0.116826 -0.993134
vn 0.714751 0.552489 -0.428820
vn 0.714751 0.552489 -0.428820
vn 0.714752 0.552489 0.428819
vn 0.714752 0.552489 0.428819
vn -0.010686 0.124973 0.992103
vn -0.010686 0.124973 0.992103
vn -0.802548 -0.368243 0.469376
vn -0.802548 -0.368243 0.469376
vn -0.802554 -0.368240 -0.469367
vn -0.802554 -0.368240 -0.469367
vn -0.010663 0.124975 -0.992103
vn -0.010663 0.124975 -0.992103
vn 0.000000 0.065635 -0.997844
vn 0.000000 0.065635 -0.997844
vn 0.000000 0.177249 -0.984166
vn 0.000000 0.177249 -0.984166
vn -0.863766 0.071693 -0.498766
vn -0.863766 0.071693 -0.498766
vn -0.860696 0.116652 -0.495575
vn -0.861017 0.112937 -0.495878
vn -0.861092 0.090006 0.500419
vn -0.861092 0.090006 0.500419
vn -0.865155 -0.012421 0.501351
vn -0.865164 -0.004134 0.501472
vn 0.000000 0.102294 0.994754
vn 0.000000 0.102294 0.994754
vn 0.000000 -0.068363 0.997661
vn 0.000000 -0.068363 0.997661
vn 0.861092 0.090006 0.500419
vn 0.861092 0.090006 0.500419
vn 0.865164 -0.004134 0.501472
vn 0.865155 -0.012421 0.501351
vn 0.863767 0.071693 -0.498766
vn 0.863767 0.071693 -0.498766
vn 0.861017 0.112937 -0.495877
vn 0.860696 0.116652 -0.495575
vn 0.000000 -1.000000 0.000000
vn 0.000000 -1.000000 0.000000
vn 0.000000 -1.000000 0.000000
vn 0.000000 -1.000000 0.000000
vn 0.000000 -1.000000 -0.000000
vn 0.000000 -1.000000 0.000000
vn 0.000000 -1.000000 -0.000000
vn 0.224866 0.868670 -0.441416
vn -0.224866 0.868670 -0.441416
vn -0.000003 0.889222 0.457476
vn -0.856660 0.496583 -0.139780
vn -0.469962 -0.652046 0.594955
vn 0.469962 -0.652046 0.594955
vn 0.856661 0.496583 -0.139779
vn 0.849924 0.206917 -0.484578
vn 0.845966 0.230969 -0.480619
vn 0.859046 -0.124036 0.496644
vn 0.857815 -0.134788 0.495969
vn 0.000000 -0.292019 0.956413
vn 0.000000 -0.292019 0.956413
vn -0.857815 -0.134788 0.495969
vn -0.859046 -0.124036 0.496643
vn -0.845966 0.230969 -0.480620
vn -0.849924 0.206916 -0.484578
vn 0.000000 0.378477 -0.925610
vn 0.000000 0.378477 -0.925611
vn 0.818739 0.350976 -0.454403
vn 0.812360 0.373480 -0.447867
vn 0.849803 -0.189431 0.491884
vn 0.847777 -0.200520 0.490985
vn 0.000000 -0.441555 0.897234
vn 0.000000 -0.441555 0.897234
vn -0.847777 -0.200520 0.490985
vn -0.849804 -0.189431 0.491884
vn -0.812362 0.373478 -0.447864
vn -0.818741 0.350974 -0.454402
vn 0.000007 0.574242 -0.818686
vn 0.000007 0.574243 -0.818685
vn 0.789244 0.443751 -0.424474
vn 0.779395 0.469901 -0.414412
vn 0.838610 -0.250309 0.483818
vn 0.832085 -0.282178 0.477505
vn 0.000000 -0.560481 0.828167
vn 0.000000 -0.560481 0.828167
vn -0.832085 -0.282177 0.477505
vn -0.838610 -0.250308 0.483818
vn -0.779397 0.469899 -0.414410
vn -0.789248 0.443748 -0.424470
vn 0.000008 0.689076 -0.724689
vn 0.000008 0.689076 -0.724689
vn 0.761692 0.512023 -0.397062
vn 0.761692 0.512024 -0.397062
vn 0.820421 -0.330007 0.466909
vn 0.820421 -0.330007 0.466909
vn 0.000000 -0.643034 0.765837
vn 0.000000 -0.643034 0.765838
vn -0.820421 -0.330007 0.466909
vn -0.820421 -0.330007 0.466909
vn -0.761692 0.512024 -0.397062
vn -0.761691 0.512024 -0.397062
vn 0.000000 0.751100 -0.660189
vn 0.000000 0.751100 -0.660189
vn -0.584953 0.081061 -0.807007
vn -0.584953 0.081061 -0.807007
vn -0.586043 0.053619 -0.808504
vn -0.586043 0.053619 -0.808504
vn -0.991364 0.081059 0.103088
vn -0.991364 0.081059 0.103088
vn -0.993206 0.053618 0.103280
vn -0.993206 0.053618 0.103280
vn -0.406403 0.081061 0.910091
vn -0.406403 0.081061 0.910091
vn -0.407159 0.053618 0.911782
vn -0.407159 0.053618 0.911782
vn 0.584956 0.081061 0.807004
vn 0.584956 0.081061 0.807004
vn 0.586046 0.053619 0.808502
vn 0.586046 0.053619 0.808501
vn 0.991364 0.081059 -0.103089
vn 0.991364 0.081059 -0.103089
vn 0.993206 0.053619 -0.103280
vn 0.993206 0.053619 -0.103280
vn 0.406403 0.081061 -0.910091
vn 0.406403 0.081061 -0.910091
vn 0.407156 0.053618 -0.911783
vn 0.407156 0.053618 -0.911783
vn 0.000000 -1.000000 0.000000
vn 0.000000 -1.000000 0.000000
vn 0.000000 -1.000000 -0.000000
vn 0.000000 -1.000000 -0.000000
vn 0.000000 -1.000000 -0.000000
vn 0.000000 -1.000000 0.000000
vn 0.000000 -1.000000 0.000000
vn 0.002037 0.550485 -0.834843
vn -0.858106 0.046969 -0.511319
vn -0.229927 0.958828 0.166680
vn -0.771182 -0.304637 0.558994
vn 0.218971 0.046967 0.974600
vn 0.794044 0.550487 0.257794
vn 0.595054 0.678136 -0.431327
vn 0.407282 0.047637 -0.912059
vn 0.407282 0.047637 -0.912059
vn 0.993508 0.047638 -0.103312
vn 0.993508 0.047638 -0.103312
vn 0.586226 0.047637 0.808746
vn 0.586226 0.047637 0.808746
vn -0.407282 0.047637 0.912059
vn -0.407282 0.047637 0.912059
vn -0.993508 0.047638 0.103312
vn -0.993508 0.047638 0.103312
vn -0.586224 0.047638 -0.808747
vn -0.586224 0.047638 -0.808747
vn 0.398543 0.204519 -0.894056
vn 0.399374 0.195070 -0.895795
vn 0.975590 0.195070 -0.100853
vn 0.973679 0.204519 -0.100605
vn 0.582772 0.094831 0.807083
vn 0.582343 0.097536 0.807071
vn -0.408953 -0.001473 0.912554
vn -0.409047 -0.008964 0.912469
vn -0.994446 -0.008965 0.104863
vn -0.994498 -0.001473 0.104747
vn -0.585841 0.097535 -0.804535
vn -0.585719 0.094830 -0.804947
vn 0.361917 0.428326 -0.827982
vn 0.367047 0.406637 -0.836614
vn 0.909290 0.406635 -0.088546
vn 0.899490 0.428323 -0.086357
vn 0.577932 0.116827 0.807679
vn 0.576747 0.119066 0.808199
vn -0.399461 -0.199996 0.894669
vn -0.396313 -0.226960 0.889621
vn -0.968770 -0.226959 0.099873
vn -0.974547 -0.199995 0.101293
vn -0.588647 0.119064 -0.799574
vn -0.587788 0.116825 -0.800536
vn 0.327036 0.552489 -0.766683
vn 0.327036 0.552489 -0.766683
vn 0.830384 0.552483 -0.072281
vn 0.830384 0.552483 -0.072281
vn 0.573600 0.124970 0.809547
vn 0.573600 0.124970 0.809547
vn -0.374321 -0.368240 0.851048
vn -0.374321 -0.368240 0.851048
vn -0.925270 -0.368238 0.090978
vn -0.925270 -0.368238 0.090978
vn -0.590898 0.124969 -0.797008
vn -0.590898 0.124969 -0.797008
vn 0.782285 0.081059 -0.617624
vn 0.782285 0.081059 -0.617624
vn 0.783738 0.053619 -0.618773
vn 0.783738 0.053619 -0.618773
vn -0.143739 0.081060 -0.986290
vn -0.143739 0.081060 -0.986290
vn -0.144005 0.053618 -0.988123
vn -0.144005 0.053618 -0.988123
vn -0.926019 0.081060 -0.368670
vn -0.926019 0.081060 -0.368670
vn -0.927740 0.053619 -0.369355
vn -0.927740 0.053619 -0.369355
vn -0.782285 0.081059 0.617624
vn -0.782285 0.081059 0.617624
vn -0.783738 0.053619 0.618773
vn -0.783738 0.053619 0.618773
vn 0.143739 0.081060 0.986290
vn 0.143739 0.081060 0.986290
vn 0.144005 0.053618 0.988123
vn 0.144005 0.053618 0.988123
vn 0.926019 0.081060 0.368670
vn 0.926019 0.081060 0.368670
vn 0.927741 0.053619 0.369354
vn 0.927740 0.053619 0.369354
vn 0.000000 -1.000000 0.000000
vn 0.000000 -1.000000 0.000000
vn 0.000000 -1.000000 -0.000000
vn 0.000000 -1.000000 0.000000
vn 0.000000 -1.000000 0.000000
vn 0.000000 -1.000000 -0.000000
vn 0.000000 -1.000000 -0.000000
vn 0.834216 0.550493 -0.032265
vn 0.475631 0.046971 -0.878390
vn -0.175997 0.958821 -0.222905
vn -0.590203 -0.304636 -0.747568
vn -0.964781 0.046968 0.258827
vn -0.224947 0.550489 0.803966
vn 0.455410 0.678136 0.576831
vn 0.928023 0.047638 0.369465
vn 0.928023 0.047638 0.369465
vn 0.144045 0.047637 0.988424
vn 0.144045 0.047637 0.988424
vn -0.783976 0.047638 0.618960
vn -0.783976 0.047638 0.618960
vn -0.928023 0.047638 -0.369466
vn -0.928023 0.047638 -0.369466
vn -0.144045 0.047637 -0.988424
vn -0.144045 0.047637 -0.988424
vn 0.783976 0.047638 -0.618960
vn 0.783976 0.047638 -0.618960
vn 0.909677 0.204518 0.361469
vn 0.911449 0.195069 0.362227
vn 0.140850 0.195069 0.970623
vn 0.140524 0.204518 0.968724
vn -0.782458 0.094831 0.615440
vn -0.782463 0.097536 0.615010
vn -0.928586 -0.001474 -0.371114
vn -0.928505 -0.008965 -0.371212
vn -0.145626 -0.008965 -0.989299
vn -0.145512 -0.001473 -0.989355
vn 0.779787 0.097536 -0.618400
vn 0.780204 0.094832 -0.618295
vn 0.842151 0.428327 0.327595
vn 0.850987 0.406638 0.332365
vn 0.125834 0.406636 0.904883
vn 0.123244 0.428326 0.895181
vn -0.783251 0.116824 0.610630
vn -0.783819 0.119062 0.609468
vn -0.910325 -0.199995 -0.362368
vn -0.905151 -0.226959 -0.359431
vn -0.139586 -0.226959 -0.963849
vn -0.141241 -0.199995 -0.969563
vn 0.774714 0.119064 -0.621001
vn 0.775711 0.116826 -0.620180
vn 0.779467 0.552492 0.295267
vn 0.779467 0.552492 0.295267
vn 0.106343 0.552490 0.826708
vn 0.106343 0.552490 0.826708
vn -0.785294 0.124967 0.606381
vn -0.785294 0.124967 0.606381
vn -0.865705 -0.368240 -0.339048
vn -0.865705 -0.368241 -0.339048
vn -0.128917 -0.368238 -0.920750
vn -0.128917 -0.368238 -0.920750
vn 0.772056 0.124969 -0.623147
vn 0.772056 0.124969 -0.623147
vn -0.468999 0.065633 0.880757
vn -0.468999 0.065633 0.880757
vn -0.462572 0.177250 0.868683
vn -0.462572 0.177250 0.868683
vn 0.527972 0.071691 0.846230
vn 0.527972 0.071691 0.846230
vn 0.526767 0.116652 0.841967
vn 0.526908 0.112936 0.842386
vn 0.995255 0.090006 -0.036969
vn 0.995255 0.090006 -0.036969
vn 0.999279 -0.012421 -0.035882
vn 0.999344 -0.004134 -0.035984
vn 0.467550 0.102297 -0.878027
vn 0.467550 0.102297 -0.878027
vn 0.468916 -0.068364 -0.880593
vn 0.468916 -0.068364 -0.880593
vn -0.524839 0.090007 -0.846429
vn -0.524839 0.090007 -0.846429
vn -0.527942 -0.004134 -0.849271
vn -0.527991 -0.012421 -0.849160
vn -0.996838 0.071692 0.034258
vn -0.996838 0.071692 0.034258
vn -0.993054 0.112937 0.033000
vn -0.992628 0.116652 0.032883
vn 0.000000 -1.000000 0.000000
vn 0.000000 -1.000000 0.000000
vn 0.000000 -1.000000 -0.000000
vn 0.000000 -1.000000 0.000000
vn 0.000000 -1.000000 -0.000000
vn 0.000000 -1.000000 -0.000000
vn 0.000000 -1.000000 0.000000
vn -0.405956 0.868668 0.283929
vn -0.008995 0.868670 0.495309
vn 0.215033 0.889209 -0.403816
vn 0.690440 0.496583 0.526020
vn 0.694450 -0.652049 -0.304254
vn -0.135171 -0.652049 -0.746030
vn -0.821838 0.496582 -0.279266
vn -0.977951 0.206917 0.028239
vn -0.972597 0.230969 0.026605
vn -0.524813 -0.124036 -0.842132
vn -0.524043 -0.134788 -0.840958
vn 0.449528 -0.292020 -0.844185
vn 0.449528 -0.292020 -0.844185
vn 0.990271 -0.134788 -0.034580
vn 0.991674 -0.124036 -0.034597
vn 0.520796 0.230971 0.821842
vn 0.522430 0.206918 0.827195
vn -0.435053 0.378478 0.816997
vn -0.435053 0.378478 0.816997
vn -0.936243 0.350976 0.016260
vn -0.927540 0.373481 0.013488
vn -0.518889 -0.189430 -0.833589
vn -0.517523 -0.200521 -0.831842
vn 0.421709 -0.441556 -0.791953
vn 0.421709 -0.441556 -0.791953
vn 0.979068 -0.200519 -0.034902
vn 0.981280 -0.189429 -0.034742
vn 0.506528 0.373480 0.777137
vn 0.509085 0.350977 0.785905
vn -0.384798 0.574241 0.722619
vn -0.384798 0.574240 0.722619
vn -0.896143 0.443751 0.003703
vn -0.882720 0.469898 -0.000548
vn -0.512798 -0.250312 -0.821208
vn -0.510005 -0.282180 -0.812570
vn 0.389245 -0.560484 -0.730990
vn 0.389245 -0.560484 -0.730990
vn 0.958882 -0.282174 -0.030380
vn 0.967608 -0.250306 -0.032886
vn 0.493154 0.469900 0.732115
vn 0.497121 0.443750 0.745625
vn -0.340615 0.689077 0.639652
vn -0.340616 0.689077 0.639652
vn -0.858942 0.512017 -0.007541
vn -0.858942 0.512017 -0.007541
vn -0.504689 -0.330010 -0.797736
vn -0.504689 -0.330009 -0.797736
vn 0.359951 -0.643035 -0.675974
vn 0.359951 -0.643035 -0.675974
vn 0.943609 -0.330000 -0.026508
vn 0.943609 -0.330000 -0.026508
vn 0.485680 0.512025 0.708481
vn 0.485680 0.512025 0.708481
vn -0.310296 0.751102 0.582720
vn -0.310296 0.751102 0.582720
vn -0.798105 0.065634 -0.598933
vn -0.798105 0.065634 -0.598933
vn -0.787166 0.177250 -0.590721
vn -0.787166 0.177250 -0.590721
vn -0.917385 0.071692 0.391490
vn -0.917385 0.071692 0.391490
vn -0.912989 0.116652 0.390953
vn -0.913424 0.112937 0.391028
vn -0.116591 0.090005 0.989093
vn -0.116591 0.090005 0.989093
vn -0.118288 -0.012422 0.992902
vn -0.118197 -0.004135 0.992982
vn 0.795634 0.102295 0.597078
vn 0.795634 0.102295 0.597078
vn 0.797959 -0.068364 0.598822
vn 0.797959 -0.068364 0.598822
vn 0.917101 0.090006 -0.388362
vn 0.917101 0.090006 -0.388362
vn 0.920386 -0.004133 -0.390990
vn 0.920283 -0.012420 -0.391055
vn 0.119508 0.071694 -0.990241
vn 0.119508 0.071694 -0.990241
vn 0.120175 0.112938 -0.986308
vn 0.120226 0.116653 -0.985869
vn 0.000000 -1.000000 0.000000
vn 0.000000 -1.000000 0.000000
vn 0.000000 -1.000000 -0.000000
vn 0.000000 -1.000000 -0.000000
vn 0.000000 -1.000000 -0.000000
vn 0.000000 -1.000000 -0.000000
vn 0.000000 -1.000000 0.000000
vn -0.218087 0.868670 -0.444803
vn -0.488039 0.868664 -0.085094
vn 0.365915 0.889212 0.274604
vn -0.625998 0.496579 0.601278
vn 0.193795 -0.652046 0.732994
vn 0.757940 -0.652054 -0.018778
vn 0.402402 0.496583 -0.769076
vn 0.122565 0.206917 -0.970651
vn 0.123357 0.230969 -0.965110
vn 0.912850 -0.124037 -0.388999
vn 0.911572 -0.134788 -0.388419
vn 0.764969 -0.292019 0.574062
vn 0.764969 -0.292019 0.574062
vn -0.118191 -0.134789 0.983800
vn -0.118391 -0.124037 0.985190
vn -0.892185 0.230969 0.388150
vn -0.897726 0.206916 0.388939
vn -0.740333 0.378478 -0.555573
vn -0.740333 0.378477 -0.555573
vn 0.127983 0.350975 -0.927597
vn 0.129380 0.373480 -0.918571
vn 0.903497 -0.189431 -0.384460
vn 0.901562 -0.200520 -0.383377
vn 0.717637 -0.441554 0.538542
vn 0.717637 -0.441554 0.538542
vn -0.116149 -0.200523 0.972780
vn -0.116647 -0.189432 0.974941
vn -0.845816 0.373479 0.380932
vn -0.854874 0.350975 0.382110
vn -0.654811 0.574242 -0.491395
vn -0.654811 0.574242 -0.491395
vn 0.134213 0.443751 -0.886043
vn 0.136350 0.469900 -0.872125
vn 0.890328 -0.250310 -0.380344
vn 0.881361 -0.282180 -0.378916
vn 0.662395 -0.560481 0.497086
vn 0.662395 -0.560481 0.497086
vn -0.117523 -0.282179 0.952136
vn -0.116383 -0.250313 0.961144
vn -0.799269 0.469903 0.374647
vn -0.813230 0.443752 0.376486
vn -0.579628 0.689077 -0.434976
vn -0.579628 0.689077 -0.434976
vn 0.139604 0.512022 -0.847552
vn 0.139604 0.512022 -0.847552
vn 0.865884 -0.330011 -0.375950
vn 0.865884 -0.330011 -0.375950
vn 0.612545 -0.643031 0.459674
vn 0.612545 -0.643031 0.459674
vn -0.119008 -0.330005 0.936448
vn -0.119008 -0.330005 0.936448
vn -0.774764 0.512028 0.370902
vn -0.774764 0.512028 0.370902
vn -0.528039 0.751100 -0.396261
vn -0.528039 0.751101 -0.396261
vn 0.905982 0.065635 0.418198
vn 0.905982 0.065635 0.418198
vn 0.893564 0.177251 0.412464
vn 0.893564 0.177251 0.412464
vn 0.814856 0.071694 -0.575213
vn 0.814856 0.071694 -0.575213
vn 0.810671 0.116652 -0.573764
vn 0.811080 0.112937 -0.573929
vn -0.093463 0.090007 -0.991546
vn -0.093463 0.090007 -0.991546
vn -0.092609 -0.012420 -0.995625
vn -0.092714 -0.004132 -0.995684
vn -0.903179 0.102295 -0.416897
vn -0.903179 0.102295 -0.416897
vn -0.905818 -0.068364 -0.418115
vn -0.905818 -0.068364 -0.418115
vn -0.815234 0.090006 0.572095
vn -0.815234 0.090006 0.572096
vn -0.817895 -0.004134 0.575353
vn -0.817782 -0.012421 0.575395
vn 0.090866 0.071694 0.993279
vn 0.090866 0.071694 0.993279
vn 0.089388 0.112938 0.989573
vn 0.089247 0.116653 0.989155
vn 0.000000 -1.000000 -0.000000
vn 0.000000 -1.000000 0.000000
vn 0.000000 -1.000000 0.000000
vn 0.000000 -1.000000 -0.000000
vn 0.000000 -1.000000 0.000000
vn 0.000000 -1.000000 -0.000000
vn 0.000000 -1.000000 0.000000
vn 0.306534 0.868671 0.389163
vn 0.495025 0.868668 -0.019167
vn -0.415360 0.889224 -0.191720
vn 0.485943 0.496583 -0.719211
vn -0.343215 -0.652048 -0.676045
vn -0.737136 -0.652054 0.177355
vn -0.232134 0.496576 0.836377
vn 0.083774 0.206918 0.974765
vn 0.081840 0.230970 0.969513
vn -0.810948 -0.124036 0.571820
vn -0.809821 -0.134787 0.570984
vn -0.868367 -0.292019 -0.400829
vn -0.868367 -0.292019 -0.400829
vn -0.090796 -0.134787 -0.986706
vn -0.090893 -0.124035 -0.988106
vn 0.790917 0.230968 -0.566661
vn 0.796170 0.206916 -0.568594
vn 0.840399 0.378478 0.387922
vn 0.840399 0.378478 0.387922
vn 0.069450 0.350976 0.933805
vn 0.066186 0.373480 0.925274
vn -0.802758 -0.189429 0.565417
vn -0.801092 -0.200519 0.563953
vn -0.814637 -0.441554 -0.376027
vn -0.814637 -0.441555 -0.376027
vn -0.090473 -0.200520 -0.975503
vn -0.090440 -0.189431 -0.977720
vn 0.747091 0.373480 -0.549879
vn 0.755701 0.350976 -0.552931
vn 0.743319 0.574241 0.343109
vn 0.743319 0.574242 0.343109
vn 0.054628 0.443750 0.894484
vn 0.049619 0.469900 0.881324
vn -0.790744 -0.250309 0.558632
vn -0.782279 -0.282178 0.555352
vn -0.751925 -0.560484 -0.347083
vn -0.751925 -0.560484 -0.347083
vn -0.084828 -0.282177 -0.955605
vn -0.087816 -0.250309 -0.964175
vn 0.702903 0.469900 -0.533968
vn 0.716165 0.443751 -0.538696
vn 0.657977 0.689075 0.303713
vn 0.657977 0.689075 0.303714
vn 0.041282 0.512023 0.857979
vn 0.041282 0.512023 0.857979
vn -0.767772 -0.330006 0.549201
vn -0.767772 -0.330006 0.549201
vn -0.695328 -0.643040 -0.320964
vn -0.695328 -0.643040 -0.320964
vn -0.080110 -0.330005 -0.940574
vn -0.080110 -0.330005 -0.940574
vn 0.679733 0.512022 -0.525164
vn 0.679733 0.512022 -0.525164
vn 0.599415 0.751098 0.276682
vn 0.599415 0.751098 0.276682
s 1
g pasted__pCylinder3 group18
usemtl lambert3SG
f 1/7/1 2/8/2 20/35/3 15/30/4
s 2
f 2/8/5 3/9/6 19/34/7 20/35/8
s 3
f 3/9/9 4/10/10 18/33/11 19/34/12
s 4
f 4/10/13 5/11/14 17/32/15 18/33/16
s 5
f 5/11/17 6/12/18 16/31/19 17/32/20
s 6
f 6/12/21 1/13/22 15/29/23 16/31/24
s 7
f 2/2/25 1/1/26 13/27/27
f 3/3/28 2/2/25 13/27/27
f 4/4/29 3/3/28 13/27/27
f 5/5/30 4/4/29 13/27/27
f 6/6/31 5/5/30 13/27/27
f 1/1/26 6/6/31 13/27/27
s 8
f 7/25/32 8/24/33 14/28/34
f 8/24/33 9/23/35 14/28/34
f 9/23/35 10/22/36 14/28/34
f 10/22/36 11/21/37 14/28/34
f 11/21/37 12/26/38 14/28/34
f 12/26/38 7/25/32 14/28/34
s 6
f 16/31/24 15/29/23 21/36/39 22/38/40
s 5
f 17/32/20 16/31/19 22/38/41 23/39/42
s 4
f 18/33/16 17/32/15 23/39/43 24/40/44
s 3
f 19/34/12 18/33/11 24/40/45 25/41/46
s 2
f 20/35/8 19/34/7 25/41/47 26/42/48
s 1
f 15/30/4 20/35/3 26/42/49 21/37/50
s 6
f 22/38/40 21/36/39 27/43/51 28/45/52
s 5
f 23/39/42 22/38/41 28/45/53 29/46/54
s 4
f 24/40/44 23/39/43 29/46/55 30/47/56
s 3
f 25/41/46 24/40/45 30/47/57 31/48/58
s 2
f 26/42/48 25/41/47 31/48/59 32/49/60
s 1
f 21/37/50 26/42/49 32/49/61 27/44/62
s 6
f 28/45/52 27/43/51 33/50/63 34/52/64
s 5
f 29/46/54 28/45/53 34/52/65 35/53/66
s 4
f 30/47/56 29/46/55 35/53/67 36/54/68
s 3
f 31/48/58 30/47/57 36/54/69 37/55/70
s 2
f 32/49/60 31/48/59 37/55/71 38/56/72
s 1
f 27/44/62 32/49/61 38/56/73 33/51/74
s 6
f 34/52/64 33/50/63 7/20/75 12/19/76
s 5
f 35/53/66 34/52/65 12/19/77 11/18/78
s 4
f 36/54/68 35/53/67 11/18/79 10/17/80
s 3
f 37/55/70 36/54/69 10/17/81 9/16/82
s 2
f 38/56/72 37/55/71 9/16/83 8/15/84
s 1
f 33/51/74 38/56/73 8/15/85 7/14/86
s 9
f 39/57/87 40/58/88 58/59/89 53/60/90
s 10
f 40/58/91 41/61/92 57/62/93 58/59/94
s 11
f 41/61/95 42/63/96 56/64/97 57/62/98
s 12
f 42/63/99 43/65/100 55/66/101 56/64/102
s 13
f 43/65/103 44/67/104 54/68/105 55/66/106
s 14
f 44/67/107 39/69/108 53/70/109 54/68/110
s 15
f 40/71/111 39/72/112 51/73/113
f 41/74/114 40/71/111 51/73/113
f 42/75/115 41/74/114 51/73/113
f 43/76/116 42/75/115 51/73/113
f 44/77/117 43/76/116 51/73/113
f 39/72/112 44/77/117 51/73/113
s 16
f 45/78/118 46/79/119 52/80/120
f 46/79/119 47/81/121 52/80/120
f 47/81/121 48/82/122 52/80/120
f 48/82/122 49/83/123 52/80/120
f 49/83/123 50/84/124 52/80/120
f 50/84/124 45/78/118 52/80/120
s 14
f 54/68/110 53/70/109 59/85/125 60/86/126
s 13
f 55/66/106 54/68/105 60/86/127 61/87/128
s 12
f 56/64/102 55/66/101 61/87/129 62/88/130
s 11
f 57/62/98 56/64/97 62/88/131 63/89/132
s 10
f 58/59/94 57/62/93 63/89/133 64/90/134
s 9
f 53/60/90 58/59/89 64/90/135 59/91/136
s 14
f 60/86/126 59/85/125 65/92/137 66/93/138
s 13
f 61/87/128 60/86/127 66/93/139 67/94/140
s 12
f 62/88/130 61/87/129 67/94/141 68/95/142
s 11
f 63/89/132 62/88/131 68/95/143 69/96/144
s 10
f 64/90/134 63/89/133 69/96/145 70/97/146
s 9
f 59/91/136 64/90/135 70/97/147 65/98/148
s 14
f 66/93/138 65/92/137 71/99/149 72/100/150
s 13
f 67/94/140 66/93/139 72/100/151 73/101/152
s 12
f 68/95/142 67/94/141 73/101/153 74/102/154
s 11
f 69/96/144 68/95/143 74/102/155 75/103/156
s 10
f 70/97/146 69/96/145 75/103/157 76/104/158
s 9
f 65/98/148 70/97/147 76/104/159 71/105/160
s 14
f 72/100/150 71/99/149 45/106/161 50/107/162
s 13
f 73/101/152 72/100/151 50/107/163 49/108/164
s 12
f 74/102/154 73/101/153 49/108/165 48/109/166
s 11
f 75/103/156 74/102/155 48/109/167 47/110/168
s 10
f 76/104/158 75/103/157 47/110/169 46/111/170
s 9
f 71/105/160 76/104/159 46/111/171 45/112/172
s 17
f 77/113/173 78/114/174 96/115/175 91/116/176
s 18
f 78/114/177 79/117/178 95/118/179 96/115/180
s 19
f 79/117/181 80/119/182 94/120/183 95/118/184
s 20
f 80/119/185 81/121/186 93/122/187 94/120/188
s 21
f 81/121/189 82/123/190 92/124/191 93/122/192
s 22
f 82/123/193 77/125/194 91/126/195 92/124/196
s 23
f 78/127/197 77/128/198 89/129/199
f 79/130/200 78/127/197 89/129/199
f 80/131/201 79/130/200 89/129/199
f 81/132/202 80/131/201 89/129/199
f 82/133/203 81/132/202 89/129/199
f 77/128/198 82/133/203 89/129/199
s 24
f 83/134/204 84/135/205 90/136/206
f 84/135/205 85/137/207 90/136/206
f 85/137/207 86/138/208 90/136/206
f 86/138/208 87/139/209 90/136/206
f 87/139/209 88/140/210 90/136/206
f 88/140/210 83/134/204 90/136/206
s 22
f 92/124/196 91/126/195 97/141/211 98/142/212
s 21
f 93/122/192 92/124/191 98/142/213 99/143/214
s 20
f 94/120/188 93/122/187 99/143/215 100/144/216
s 19
f 95/118/184 94/120/183 100/144/217 101/145/218
s 18
f 96/115/180 95/118/179 101/145/219 102/146/220
s 17
f 91/116/176 96/115/175 102/146/221 97/147/222
s 22
f 98/142/212 97/141/211 103/148/223 104/149/224
s 21
f 99/143/214 98/142/213 104/149/225 105/150/226
s 20
f 100/144/216 99/143/215 105/150/227 106/151/228
s 19
f 101/145/218 100/144/217 106/151/229 107/152/230
s 18
f 102/146/220 101/145/219 107/152/231 108/153/232
s 17
f 97/147/222 102/146/221 108/153/233 103/154/234
s 22
f 104/149/224 103/148/223 109/155/235 110/156/236
s 21
f 105/150/226 104/149/225 110/156/237 111/157/238
s 20
f 106/151/228 105/150/227 111/157/239 112/158/240
s 19
f 107/152/230 106/151/229 112/158/241 113/159/242
s 18
f 108/153/232 107/152/231 113/159/243 114/160/244
s 17
f 103/154/234 108/153/233 114/160/245 109/161/246
s 22
f 110/156/236 109/155/235 83/162/247 88/163/248
s 21
f 111/157/238 110/156/237 88/163/249 87/164/250
s 20
f 112/158/240 111/157/239 87/164/251 86/165/252
s 19
f 113/159/242 112/158/241 86/165/253 85/166/254
s 18
f 114/160/244 113/159/243 85/166/255 84/167/256
s 17
f 109/161/246 114/160/245 84/167/257 83/168/258
s 25
f 115/169/259 116/170/260 134/171/261 129/172/262
s 26
f 116/170/263 117/173/264 133/174/265 134/171/266
s 27
f 117/173/267 118/175/268 132/176/269 133/174/270
s 28
f 118/175/271 119/177/272 131/178/273 132/176/274
s 29
f 119/177/275 120/179/276 130/180/277 131/178/278
s 30
f 120/179/279 115/181/280 129/182/281 130/180/282
s 31
f 116/183/283 115/184/284 127/185/285
f 117/186/286 116/183/283 127/185/285
f 118/187/287 117/186/286 127/185/285
f 119/188/288 118/187/287 127/185/285
f 120/189/289 119/188/288 127/185/285
f 115/184/284 120/189/289 127/185/285
s 32
f 121/190/290 122/191/291 128/192/292
f 122/191/291 123/193/293 128/192/292
f 123/193/293 124/194/294 128/192/292
f 124/194/294 125/195/295 128/192/292
f 125/195/295 126/196/296 128/192/292
f 126/196/296 121/190/290 128/192/292
s 30
f 130/180/282 129/182/281 135/197/297 136/198/298
s 29
f 131/178/278 130/180/277 136/198/299 137/199/300
s 28
f 132/176/274 131/178/273 137/199/301 138/200/302
s 27
f 133/174/270 132/176/269 138/200/303 139/201/304
s 26
f 134/171/266 133/174/265 139/201/305 140/202/306
s 25
f 129/172/262 134/171/261 140/202/307 135/203/308
s 30
f 136/198/298 135/197/297 141/204/309 142/205/310
s 29
f 137/199/300 136/198/299 142/205/311 143/206/312
s 28
f 138/200/302 137/199/301 143/206/313 144/207/314
s 27
f 139/201/304 138/200/303 144/207/315 145/208/316
s 26
f 140/202/306 139/201/305 145/208/317 146/209/318
s 25
f 135/203/308 140/202/307 146/209/319 141/210/320
s 30
f 142/205/310 141/204/309 147/211/321 148/212/322
s 29
f 143/206/312 142/205/311 148/212/323 149/213/324
s 28
f 144/207/314 143/206/313 149/213/325 150/214/326
s 27
f 145/208/316 144/207/315 150/214/327 151/215/328
s 26
f 146/209/318 145/208/317 151/215/329 152/216/330
s 25
f 141/210/320 146/209/319 152/216/331 147/217/332
s 30
f 148/212/322 147/211/321 121/218/333 126/219/334
s 29
f 149/213/324 148/212/323 126/219/335 125/220/336
s 28
f 150/214/326 149/213/325 125/220/337 124/221/338
s 27
f 151/215/328 150/214/327 124/221/339 123/222/340
s 26
f 152/216/330 151/215/329 123/222/341 122/223/342
s 25
f 147/217/332 152/216/331 122/223/343 121/224/344
s 33
f 153/225/345 154/226/346 172/227/347 167/228/348
s 34
f 154/226/349 155/229/350 171/230/351 172/227/352
s 35
f 155/229/353 156/231/354 170/232/355 171/230/356
s 36
f 156/231/357 157/233/358 169/234/359 170/232/360
s 37
f 157/233/361 158/235/362 168/236/363 169/234/364
s 38
f 158/235/365 153/237/366 167/238/367 168/236/368
s 39
f 154/239/369 153/240/370 165/241/371
f 155/242/372 154/239/369 165/241/371
f 156/243/373 155/242/372 165/241/371
f 157/244/374 156/243/373 165/241/371
f 158/245/375 157/244/374 165/241/371
f 153/240/370 158/245/375 165/241/371
s 40
f 159/246/376 160/247/377 166/248/378
f 160/247/377 161/249/379 166/248/378
f 161/249/379 162/250/380 166/248/378
f 162/250/380 163/251/381 166/248/378
f 163/251/381 164/252/382 166/248/378
f 164/252/382 159/246/376 166/248/378
s 38
f 168/236/368 167/238/367 173/253/383 174/254/384
s 37
f 169/234/364 168/236/363 174/254/385 175/255/386
s 36
f 170/232/360 169/234/359 175/255/387 176/256/388
s 35
f 171/230/356 170/232/355 176/256/389 177/257/390
s 34
f 172/227/352 171/230/351 177/257/391 178/258/392
s 33
f 167/228/348 172/227/347 178/258/393 173/259/394
s 38
f 174/254/384 173/253/383 179/260/395 180/261/396
s 37
f 175/255/386 174/254/385 180/261/397 181/262/398
s 36
f 176/256/388 175/255/387 181/262/399 182/263/400
s 35
f 177/257/390 176/256/389 182/263/401 183/264/402
s 34
f 178/258/392 177/257/391 183/264/403 184/265/404
s 33
f 173/259/394 178/258/393 184/265/405 179/266/406
s 38
f 180/261/396 179/260/395 185/267/407 186/268/408
s 37
f 181/262/398 180/261/397 186/268/409 187/269/410
s 36
f 182/263/400 181/262/399 187/269/411 188/270/412
s 35
f 183/264/402 182/263/401 188/270/413 189/271/414
s 34
f 184/265/404 183/264/403 189/271/415 190/272/416
s 33
f 179/266/406 184/265/405 190/272/417 185/273/418
s 38
f 186/268/408 185/267/407 159/274/419 164/275/420
s 37
f 187/269/410 186/268/409 164/275/421 163/276/422
s 36
f 188/270/412 187/269/411 163/276/423 162/277/424
s 35
f 189/271/414 188/270/413 162/277/425 161/278/426
s 34
f 190/272/416 189/271/415 161/278/427 160/279/428
s 33
f 185/273/418 190/272/417 160/279/429 159/280/430
s 41
f 191/281/431 192/282/432 210/283/433 205/284/434
s 42
f 192/282/435 193/285/436 209/286/437 210/283/438
s 43
f 193/285/439 194/287/440 208/288/441 209/286/442
s 44
f 194/287/443 195/289/444 207/290/445 208/288/446
s 45
f 195/289/447 196/291/448 206/292/449 207/290/450
s 46
f 196/291/451 191/293/452 205/294/453 206/292/454
s 47
f 192/295/455 191/296/456 203/297/457
f 193/298/458 192/295/455 203/297/457
f 194/299/459 193/298/458 203/297/457
f 195/300/460 194/299/459 203/297/457
f 196/301/461 195/300/460 203/297/457
f 191/296/456 196/301/461 203/297/457
s 48
f 197/302/462 198/303/463 204/304/464
f 198/303/463 199/305/465 204/304/464
f 199/305/465 200/306/466 204/304/464
f 200/306/466 201/307/467 204/304/464
f 201/307/467 202/308/468 204/304/464
f 202/308/468 197/302/462 204/304/464
s 46
f 206/292/454 205/294/453 211/309/469 212/310/470
s 45
f 207/290/450 206/292/449 212/310/471 213/311/472
s 44
f 208/288/446 207/290/445 213/311/473 214/312/474
s 43
f 209/286/442 208/288/441 214/312/475 215/313/476
s 42
f 210/283/438 209/286/437 215/313/477 216/314/478
s 41
f 205/284/434 210/283/433 216/314/479 211/315/480
s 46
f 212/310/470 211/309/469 217/316/481 218/317/482
s 45
f 213/311/472 212/310/471 218/317/483 219/318/484
s 44
f 214/312/474 213/311/473 219/318/485 220/319/486
s 43
f 215/313/476 214/312/475 220/319/487 221/320/488
s 42
f 216/314/478 215/313/477 221/320/489 222/321/490
s 41
f 211/315/480 216/314/479 222/321/491 217/322/492
s 46
f 218/317/482 217/316/481 223/323/493 224/324/494
s 45
f 219/318/484 218/317/483 224/324/495 225/325/496
s 44
f 220/319/486 219/318/485 225/325/497 226/326/498
s 43
f 221/320/488 220/319/487 226/326/499 227/327/500
s 42
f 222/321/490 221/320/489 227/327/501 228/328/502
s 41
f 217/322/492 222/321/491 228/328/503 223/329/504
s 46
f 224/324/494 223/323/493 197/330/505 202/331/506
s 45
f 225/325/496 224/324/495 202/331/507 201/332/508
s 44
f 226/326/498 225/325/497 201/332/509 200/333/510
s 43
f 227/327/500 226/326/499 200/333/511 199/334/512
s 42
f 228/328/502 227/327/501 199/334/513 198/335/514
s 41
f 223/329/504 228/328/503 198/335/515 197/336/516
s 49
f 229/337/517 230/338/518 248/339/519 243/340/520
s 50
f 230/338/521 231/341/522 247/342/523 248/339/524
s 51
f 231/341/525 232/343/526 246/344/527 247/342/528
s 52
f 232/343/529 233/345/530 245/346/531 246/344/532
s 53
f 233/345/533 234/347/534 244/348/535 245/346/536
s 54
f 234/347/537 229/349/538 243/350/539 244/348/540
s 55
f 230/351/541 229/352/542 241/353/543
f 231/354/544 230/351/541 241/353/543
f 232/355/545 231/354/544 241/353/543
f 233/356/546 232/355/545 241/353/543
f 234/357/547 233/356/546 241/353/543
f 229/352/542 234/357/547 241/353/543
s 56
f 235/358/548 236/359/549 242/360/550
f 236/359/549 237/361/551 242/360/550
f 237/361/551 238/362/552 242/360/550
f 238/362/552 239/363/553 242/360/550
f 239/363/553 240/364/554 242/360/550
f 240/364/554 235/358/548 242/360/550
s 54
f 244/348/540 243/350/539 249/365/555 250/366/556
s 53
f 245/346/536 244/348/535 250/366/557 251/367/558
s 52
f 246/344/532 245/346/531 251/367/559 252/368/560
s 51
f 247/342/528 246/344/527 252/368/561 253/369/562
s 50
f 248/339/524 247/342/523 253/369/563 254/370/564
s 49
f 243/340/520 248/339/519 254/370/565 249/371/566
s 54
f 250/366/556 249/365/555 255/372/567 256/373/568
s 53
f 251/367/558 250/366/557 256/373/569 257/374/570
s 52
f 252/368/560 251/367/559 257/374/571 258/375/572
s 51
f 253/369/562 252/368/561 258/375/573 259/376/574
s 50
f 254/370/564 253/369/563 259/376/575 260/377/576
s 49
f 249/371/566 254/370/565 260/377/577 255/378/578
s 54
f 256/373/568 255/372/567 261/379/579 262/380/580
s 53
f 257/374/570 256/373/569 262/380/581 263/381/582
s 52
f 258/375/572 257/374/571 263/381/583 264/382/584
s 51
f 259/376/574 258/375/573 264/382/585 265/383/586
s 50
f 260/377/576 259/376/575 265/383/587 266/384/588
s 49
f 255/378/578 260/377/577 266/384/589 261/385/590
s 54
f 262/380/580 261/379/579 235/386/591 240/387/592
s 53
f 263/381/582 262/380/581 240/387/593 239/388/594
s 52
f 264/382/584 263/381/583 239/388/595 238/389/596
s 51
f 265/383/586 264/382/585 238/389/597 237/390/598
s 50
f 266/384/588 265/383/587 237/390/599 236/391/600
s 49
f 261/385/590 266/384/589 236/391/601 235/392/602
