# ProBuilder 5.0.6
# https://unity3d.com/unity/features/worldbuilding/probuilder
# 2022-10-15 8:47:37 PM

mtllib ./PolyShape_Building.mtl
o PolyShape Building

g PolyShape
v 1682.374 98.575 3600.413
v 1318.87 98.575 3597.284
v 1660.073 98.575 3610.876
v 1314.744 98.575 3608.06
v 1318.343 98.575 3764.792
v 1679.082 98.575 3767.4
v 1314.244 98.575 3758.823
v 1656.945 98.575 3761.17
v 1323.128 98.57494 3342.695
v 1316.527 98.57494 3378.922
v 1323.415 98.575 4066.373
v 1316.8 98.575 4030.255
v 475.8898 98.575 4067.473
v 511.6511 98.575 4031.245
v 1318.343 245.2581 3764.792
v 1323.415 245.2581 4066.373
v 1297.626 245.2581 3741.721
v 1289.988 245.2581 4023.905
v 475.8898 245.2581 4067.473
v 532.6135 245.2581 4024.895
v 1323.128 245.2581 3342.695
v 1318.87 245.2581 3597.284
v 1289.716 245.2581 3385.424
v 1298.128 245.2581 3621.673
v 1681.979 245.2581 3767.4
v 1668.543 245.2581 3744.068
v 1682.374 245.2581 3600.413
v 1668.408 245.2581 3624.49
v 960.2339 98.57494 3342.989
v 935.3273 98.57494 3379.187
v 961.3085 245.2581 3342.989
v 962.6201 245.2581 3385.688
v 839.7273 98.57494 3343.136
v 874.0454 98.57494 3379.319
v 471.2231 98.57494 3343.283
v 507.2178 98.57494 3379.452
v 471.2231 245.2581 3343.283
v 839.627 245.2581 3343.136
v 841.6071 245.2581 3385.821
v 528.1804 245.2581 3385.953
v 1680.728 98.575 3623.975
v 1658.509 98.575 3626.092
v 1682.176 245.2581 3623.975
v 1668.475 245.2581 3624.347
v 1679.904 98.575 3756.979
v 1657.727 98.575 3754.923
v 1682.077 245.2581 3756.979
v 1668.509 245.2581 3745.499
v 1682.197 245.2581 3624.347
v 1682.231 245.2581 3745.499
v 1292.649 208.5662 4027.482
v 1299.275 208.5662 3741.721
v 1300.291 96.43977 4040.353
v 1304.011 96.43977 3741.721
v 525.901 208.5662 4028.472
v 501.3899 96.43977 4041.343
v 1299.776 208.5662 3621.673
v 1292.376 208.5661 3380.157
v 1304.512 96.43977 3621.673
v 1300.018 96.43972 3367.124
v 1668.543 208.5662 3744.068
v 1668.543 96.43977 3744.068
v 1668.408 208.5662 3624.49
v 1668.408 96.43977 3624.49
v 959.9816 96.43972 3367.389
v 961.301 208.5661 3380.421
v 841.6071 208.5661 3380.554
v 841.6071 96.43972 3367.521
v 496.9565 96.43972 3367.654
v 521.4678 208.5661 3380.687
v 1668.475 96.43977 3624.347
v 1668.475 208.5662 3624.347
v 1668.509 96.43977 3745.499
v 1668.509 208.5662 3745.499
v 1682.197 208.5662 3624.347
v 1682.197 96.43977 3624.347
v 1682.231 208.5662 3745.499
v 1682.231 96.43977 3745.499
v 1323.415 202.4639 4066.373
v 1318.343 202.4639 3764.792
v 475.8898 202.4639 4067.473
v 1324.258 202.4639 3597.284
v 1323.128 202.4638 3342.695
v 1680.53 202.4639 3767.4
v 1682.374 202.4639 3600.413
v 960.7712 202.4638 3342.989
v 839.6772 202.4638 3343.136
v 471.2231 202.4638 3343.283
v 1681.452 202.4639 3623.975
v 1680.991 202.4639 3756.979
v 960.7712 207.5469 3378.147
v 839.6772 207.5469 3378.294
v 960.2339 98.57494 3365.114
v 839.7273 98.57494 3365.261
v 473.5565 98.57497 3949.096
v 509.4344 98.57497 3949.067
v 473.5565 245.2581 3949.096
v 530.397 245.2581 3949.143
v 557.8004 208.5662 4028.472
v 564.5129 245.2581 4024.895
v 562.2965 245.2581 3949.143
v 555.5839 208.5662 3948.298
v 523.6843 208.5662 3948.298
v 499.1732 96.43975 3948.217
v 473.5565 202.4638 3949.096
v 508.3262 98.57496 3695.591
v 472.3899 98.57496 3677.521
v 529.2888 245.2581 3698.88
v 472.3899 245.2581 3677.521
v 560.0798 245.2581 3385.953
v 553.3672 208.5661 3380.687
v 554.4756 208.5661 3695.824
v 561.1882 245.2581 3698.88
v 522.5762 208.5661 3695.824
v 498.0649 96.43974 3689.267
v 522.4115 96.43974 3689.267
v 523.5197 96.43975 3948.217
v 548.0309 208.5662 3948.298
v 546.9226 208.5661 3695.824
v 472.3899 202.4638 3677.521

vt -526.5732 -394.1484
vt -1384.569 -401.5342
vt -579.2112 -369.4502
vt -1394.307 -376.0977
vt -1385.813 -6.154297
vt -534.3435 0
vt -1395.489 -20.24316
vt -586.5938 -14.7041
vt -1374.519 -1002.454
vt -1390.098 -916.9434
vt -1373.841 705.6816
vt -1389.455 620.4312
vt -3374.298 708.2773
vt -3289.888 622.7671
vt 1385.813 -6.154297
vt 1373.841 705.6816
vt 1434.711 -60.61035
vt 1452.74 605.4424
vt 3374.298 708.2773
vt 3240.41 607.7793
vt 1374.518 -1002.454
vt 1384.569 -401.5341
vt 1453.383 -901.5976
vt 1433.528 -343.9667
vt 527.5056 0
vt 559.2178 -55.07227
vt 526.5732 -394.1484
vt 559.5376 -337.3184
vt -2231.076 -1001.759
vt -2289.864 -916.3188
vt 2228.539 -1001.759
vt 1453.383 -901.5977
vt 2225.444 -900.9736
vt -2515.514 -1001.412
vt -2434.511 -916.0063
vt -3385.313 -1001.064
vt -3300.353 -915.6934
vt 3385.313 -1001.064
vt 2515.75 -1001.412
vt 2511.077 -900.6606
vt 3250.874 -900.3477
vt -530.458 -338.5332
vt -582.9026 -333.5371
vt -527.0393 -338.5332
vt -559.3774 -337.6553
vt -559.5376 -337.3184
vt -532.4011 -24.59668
vt -584.7478 -29.4502
vt -527.2729 -24.59668
vt -559.2979 -51.69336
vt -527.5056 0
vt -559.2178 -55.07227
vt -526.989 -337.6553
vt -526.9097 -51.69336
vt -35.02737 427.7029
vt 631.2409 428.0546
vt 639.57 341.2229
vt -35.09675 341.0162
vt 669.624 75.93613
vt -35.29601 76.15234
vt 1453.525 280.5364
vt 3241.197 280.5349
vt 3257.052 193.5239
vt 1447.257 193.5224
vt 3314.946 -72.85406
vt 1429.259 -72.86615
vt -936.4167 450.2477
vt -378.4691 449.7793
vt -378.3752 363.1214
vt -948.6937 363.3926
vt -378.1053 98.35679
vt -979.0106 98.07087
vt 559.5557 346.2236
vt 1435.067 346.2236
vt 1431.175 259.6178
vt 559.5557 259.6178
vt 1419.996 -5.039871
vt 559.5557 -5.039871
vt -1436.131 346.1121
vt -562.1152 346.112
vt -562.1152 259.5062
vt -1432.24 259.5062
vt -562.1152 -5.151466
vt -1421.061 -5.151481
vt -1428.402 -129.2962
vt -2231.007 -129.2883
vt -2227.915 137.1168
vt -1446.46 137.1069
vt -2224.81 224.6057
vt -1452.749 224.5949
vt -2510.434 137.1319
vt -2510.443 224.6204
vt -2510.413 -129.273
vt -3323.909 -129.307
vt -3266.075 137.1032
vt -3250.24 224.5932
vt 198.9246 -5.039871
vt 198.5598 -5.039871
vt 198.5598 259.6178
vt 198.9246 259.6178
vt 198.5598 346.2236
vt 198.9246 346.2236
vt -75.93846 -5.039871
vt -79.24405 -5.039871
vt -79.24405 259.6178
vt -75.93846 259.6178
vt -79.24405 346.2236
vt -75.93846 346.2236
vt -559.3774 -5.039871
vt -559.3774 259.6178
vt -526.989 259.6178
vt -526.989 -5.039871
vt -559.3774 346.2236
vt -526.989 346.2236
vt 559.2979 346.2236
vt 559.2979 259.6178
vt 526.9097 259.6178
vt 526.9097 346.2236
vt 559.2979 -5.039871
vt 526.9097 -5.039871
vt 29.45761 0.0004923809
vt -682.479 0.0004923809
vt -682.479 245.2146
vt 29.45761 245.2146
vt -682.479 346.2241
vt 29.45761 346.2241
vt -1374.755 0
vt -3375.214 0
vt -3375.214 245.2142
vt -1374.755 245.2142
vt -3375.214 346.2236
vt -1374.755 346.2236
vt 994.0394 50.66724
vt 393.0697 50.90149
vt 393.1474 295.4837
vt 994.0394 295.7162
vt 393.0697 396.8919
vt 994.0394 396.6577
vt -534.3296 0
vt -1385.821 0
vt -1385.821 245.2142
vt -530.9105 245.2142
vt -1385.821 346.2236
vt -527.4919 346.2236
vt 1387.999 -7.023005E-06
vt 529.9717 -7.024006E-06
vt 529.971 245.2142
vt 1375.282 245.2142
vt 529.9717 346.2236
vt 1387.999 346.2236
vt 1373.791 -0.007196073
vt 1373.791 245.207
vt 2229.08 245.207
vt 2230.348 -0.007195562
vt 1373.791 346.2164
vt 2227.811 346.2165
vt 2515.023 346.2165
vt 2514.904 245.207
vt 2514.786 -0.00719457
vt 3384.585 245.207
vt 3384.585 -0.007196571
vt 3384.585 346.2164
vt 325.0983 341.4149
vt 380.7076 341.4065
vt 380.7076 240.4011
vt 325.0551 240.3942
vt 380.7076 -4.803208
vt 325.0119 -4.825392
vt 11.25628 341.4839
vt 11.19146 240.4556
vt -13.42486 240.4514
vt -13.33842 341.4874
vt 11.12661 -4.7717
vt -13.51132 -4.783519
vt -2229.765 -956.3079
vt -2515.589 -955.9571
vt -2229.762 -872.4592
vt -2515.587 -872.1089
vt -1001.759 -11.53744
vt -1001.759 233.68
vt -949.5352 -11.53744
vt -918.7734 245.6776
vt 1001.587 246.4262
vt 1001.587 1.212023
vt 918.602 258.424
vt 949.3637 1.212024
vt 2515.514 -1001.412
vt 2231.076 -1001.759
vt 2515.514 -949.1885
vt 2231.076 -949.5352
vt -3379.805 428.8672
vt -3295.121 428.7979
vt 3379.805 428.8672
vt 3245.642 428.9766
vt -522.9256 -317.7418
vt -514.9492 -229.6556
vt -336.0699 -229.6557
vt -333.6133 -317.6873
vt -607.4235 -676.2952
vt -577.7304 -405.3345
vt -388.4416 -405.9405
vt -387.567 -676.8281
vt 677.3233 1.118268E-05
vt 397.8744 -4.984273E-05
vt 397.8744 245.2141
vt 677.3233 245.2142
vt 397.8744 346.2236
vt 677.3233 346.2236
vt -3297.736 -169.4941
vt -3382.559 -212.1445
vt 3248.257 -161.7314
vt 3382.559 -212.1445
vt 911.5111 -228.7731
vt 923.9984 -316.8085
vt 180.1588 -316.8084
vt 172.8902 -228.7697
vt 207.4745 -405.0469
vt -390.6227 -317.9246
vt 200.0751 -317.0435
vt 951.2885 -403.8004
vt 982.7312 -674.6151
vt 223.6331 -675.8981
vt 198.3896 -701.1457
vt -412.8279 -701.1456
vt -413.2669 -430.2384
vt 182.6656 -430.2524
vt -243.1356 -8.037064E-05
vt -243.1366 245.2141
vt -1032.048 -0.000110903
vt -1032.049 245.2141
vt -243.1356 346.2236
vt -1032.048 346.2235
vt 3264.102 249.3123
vt 3321.957 -15.79748
vt 3206.635 249.3123
vt 3264.49 -15.79748
vt -3321.957 -184.4209
vt -3319.341 426.791
vt -3264.49 -184.4209
vt -3261.875 426.791
vt -3319.341 -4.731266
vt -3261.486 259.9265
vt -3261.875 -4.731266
vt -3204.02 259.9265
vt 3261.486 426.9825
vt 3264.102 -168.9443
vt 3204.02 426.9825
vt 3206.635 -168.9443
vt 3165.116 607.7794
vt 3170.348 428.9767
vt 3245.642 356.0066
vt 3261.486 269.3778
vt 3170.348 356.0066
vt 3186.192 269.3778
vt -3256.254 198.5996
vt -3240.41 285.616
vt -3180.96 198.5996
vt -3165.116 285.616
vt -3261.486 426.9825
vt -3256.254 616.2227
vt -3186.192 426.9825
vt -3180.96 616.2227
vt 3250.874 214.7837
vt 3266.718 127.2902
vt 3175.58 214.7837
vt 3191.424 127.2902
vt -3266.718 -912.7793
vt -3264.102 -168.9443
vt -3191.424 -912.7793
vt -3188.808 -168.9443
vt -3264.102 244.7001
vt -3248.257 331.6058
vt -3188.808 244.7001
vt -3172.963 331.6058
vt 3172.963 -161.7314
vt 3175.58 -900.3477

vn 0 -0.4236659 0
vn 0 0.4236659 0
vn 0 0 0
vn -0.4227231 -0.02537548 -0.01062149
vn -0.4223209 -0.0317356 -0.01143113
vn -0.4231252 -0.01901536 -0.009811852
vn -0.422893 -0.02364075 -0.007539286
vn -0.4226113 -0.02940689 -0.00526557
vn -0.4231749 -0.01787461 -0.009813002
vn -0.0005512148 -0.0411439 -0.421663
vn -0.0005325666 -0.0482763 -0.420906
vn -0.4225965 -0.02573735 0.01399816
vn -0.4229715 -0.01900249 0.01506012
vn -0.4222215 -0.03247221 0.0129362
vn -0.4230902 -0.01787182 0.01296281
vn -0.4228252 -0.02376841 0.01021194
vn -0.4225602 -0.02966501 0.007461074
vn 0.002679918 0 -0.4236574
vn -0.003229933 -7.271603E-05 0.4236536
vn 0.0003317572 -0.04890448 0.4208337
vn 0.000335143 -0.06020892 0.4193657
vn 0.3826341 0 0.1818898
vn 0.423547 0 0.01003782
vn 0 0 0.4236659
vn 0 0 -0.4236659
vn 0.423606 0 -0.007124437
vn 0.0005497294 -1.368307E-10 0.4236655
vn 0.4236066 0 0.007084762
vn 0.4233499 -0.01097122 0.0026035
vn 0.4230931 -0.02194243 -0.001877761
vn 0.4219757 0.02645763 0.002574492
vn 0.4202896 0.05291526 0.007029273
vn 0.4236617 0 -0.00188029
vn 0.003646838 -0.0001891321 -0.4236501
vn -0.0005133504 2.912866E-06 -0.4236656
vn 0.4234662 -0.003580246 0.0100568
vn 0.423651 3.071867E-06 0.003550263
vn 0.4232814 -0.007163565 0.01656334
vn 0.4233419 -1.264451E-06 0.01656572
vn 0.4229839 -0.001473557 0.02304322
vn 0.4226259 -0.00294585 0.02952074
vn 0.4235106 -0.01074809 0.00400609
vn 0.4232605 -0.01253252 0.01135775
vn 0.4230104 -0.01431694 0.0187094
vn 0.423229 -0.004426557 0.01871907
vn 0.4227696 -0.005157559 0.02603431
vn 0.4223102 -0.005888561 0.03334955
vn 7.363225E-05 -0.4193063 0.06062161
vn -0.4236602 0.002190858 0
vn 0.4236658 0.0002041565 -2.95163E-05
vn 0.4163953 -0.07729924 -0.01151208
vn 0.4165108 -0.07661944 -0.01185117
vn 0.4166262 -0.07593963 -0.01219027
vn 0.4135431 -0.09153131 -0.009843615
vn 0.413643 -0.09098406 -0.01064144
vn 0.4137428 -0.0904368 -0.01143927
vn -0.4235836 0 0.00834906
vn 0.4167761 -0.07608101 -0.001471054
vn 0.4167722 -0.07609461 -0.001829345
vn 0.4139157 -0.09035778 -0.001441161
vn 0.4139099 -0.0903784 -0.001771347
vn -0.423662 0 0.00181997
vn -0.4236633 5.889678E-09 0.001478894
vn 0 0.02473274 -0.4229434
vn 0 0.009752525 -0.4235536
vn 0 0.04110905 0.4216667
vn 0 0.06019713 -0.4193675
vn 0 -0.03516287 0.4222042

usemtl ProBuilderDefault
f 3/3/1 4/4/1 2/2/1 1/1/1
f 7/7/1 8/8/1 6/6/1 5/5/1
f 4/4/1 10/10/1 9/9/1 2/2/1
f 12/12/1 7/7/1 5/5/1 11/11/1
f 14/14/1 12/12/1 11/11/1 13/13/1
f 17/17/2 18/18/2 16/16/2 15/15/2
f 18/18/2 20/20/2 19/19/2 16/16/2
f 23/23/2 24/24/2 22/22/2 21/21/2
f 26/26/2 17/17/2 15/15/2 25/25/2
f 24/24/2 28/28/2 27/27/2 22/22/2
f 29/29/1 9/9/1 10/10/1 30/30/1
f 21/21/2 31/31/2 32/33/2 23/32/2
f 34/35/1 33/34/1 29/29/1 30/30/1
f 36/37/1 35/36/1 33/34/1 34/35/1
f 40/41/2 39/40/2 38/39/2 37/38/2
f 39/40/2 32/33/2 31/31/2 38/39/2
f 42/43/1 3/3/1 1/1/1 41/42/1
f 27/1/2 28/46/3 44/45/1 43/44/3
f 8/8/1 46/48/1 45/47/1 6/6/1
f 46/48/1 42/43/1 41/42/1 45/47/1
f 48/50/2 47/49/2 43/44/2 44/45/2
f 26/52/3 25/51/2 47/49/3 48/50/1
f 49/53/1 50/54/1 48/50/1 44/45/1
f 18/56/5 17/55/4 52/58/6 51/57/4
f 51/57/7 52/58/9 54/60/7 53/59/8
f 55/63/10 20/62/10 18/61/10 51/64/10
f 56/65/11 55/63/11 51/64/11 53/66/11
f 24/68/13 23/67/12 58/70/14 57/69/12
f 57/69/15 58/70/16 60/72/17 59/71/16
f 52/75/18 17/74/18 26/73/18 61/76/18
f 54/77/18 52/75/18 61/76/18 62/78/18
f 28/80/19 24/79/19 57/82/19 63/81/19
f 63/81/19 57/82/19 59/84/19 64/83/19
f 66/87/20 65/86/20 60/85/20 58/88/20
f 66/87/21 58/88/21 23/90/21 32/89/21
f 32/89/21 39/92/21 67/91/21 66/87/21
f 70/95/20 69/94/20 68/93/20 67/91/20
f 39/92/21 40/96/21 70/95/21 67/91/21
f 64/98/22 71/97/22 72/100/22 63/99/22
f 72/100/22 44/102/22 28/101/22 63/99/22
f 73/104/23 62/103/23 61/106/23 74/105/23
f 61/106/23 26/108/23 48/107/23 74/105/23
f 75/111/24 72/110/24 71/109/24 76/112/24
f 49/114/24 44/113/24 72/110/24 75/111/24
f 77/117/25 74/116/25 48/115/25 50/118/25
f 78/120/25 73/119/25 74/116/25 77/117/25
f 5/121/26 80/124/26 79/123/26 11/122/26
f 80/124/26 15/126/26 16/125/26 79/123/26
f 79/130/27 81/129/27 13/128/27 11/127/27
f 16/132/27 19/131/27 81/129/27 79/130/27
f 9/133/28 83/136/29 82/135/30 2/134/29
f 83/136/33 21/138/31 22/137/32 82/135/31
f 84/142/19 80/141/19 5/140/19 6/139/19
f 25/144/19 15/143/19 80/141/19 84/142/19
f 2/145/34 82/148/34 85/147/34 1/146/34
f 82/148/34 22/150/34 27/149/34 85/147/34
f 83/152/25 9/151/25 29/154/25 86/153/25
f 21/155/25 83/152/25 86/153/25 31/156/25
f 86/153/35 87/158/35 38/157/35 31/156/35
f 33/159/25 35/161/25 88/160/25 87/158/25
f 87/158/25 88/160/25 37/162/25 38/157/25
f 89/166/38 85/165/36 27/164/37 43/163/36
f 41/168/41 1/167/40 85/165/39 89/166/40
f 25/172/43 84/171/44 90/170/43 47/169/42
f 84/171/46 6/174/47 45/173/46 90/170/45
f 91/177/48 92/178/48 87/176/48 86/175/48
f 93/181/49 91/182/49 86/180/49 29/179/49
f 92/185/50 94/186/50 33/184/50 87/183/50
f 94/189/2 93/190/2 29/188/2 33/187/2
f 95/191/1 96/192/1 14/14/1 13/13/1
f 97/193/2 19/19/2 20/20/2 98/194/2
f 99/195/51 102/198/52 101/197/53 100/196/52
f 56/199/54 104/202/55 103/201/56 55/200/55
f 105/205/57 95/204/57 13/203/57 81/206/57
f 97/207/57 105/205/57 81/206/57 19/208/57
f 95/191/1 107/210/1 106/209/1 96/192/1
f 107/210/1 35/36/1 36/37/1 106/209/1
f 109/212/2 108/211/2 40/41/2 37/38/2
f 97/193/2 98/194/2 108/211/2 109/212/2
f 113/216/58 112/215/58 111/214/58 110/213/58
f 98/218/59 103/201/59 114/217/59 108/219/59
f 114/217/60 115/222/60 69/221/60 70/220/60
f 118/225/61 117/224/61 116/223/61 119/226/61
f 120/228/62 107/227/62 95/204/62 105/205/62
f 120/228/63 88/230/63 35/229/63 107/227/63
f 109/231/62 120/228/62 105/205/62 97/207/62
f 37/232/63 88/230/63 120/228/63 109/231/63
f 119/235/64 116/236/64 115/234/64 114/233/64
f 116/239/1 117/240/1 104/238/1 115/237/1
f 117/243/24 118/244/24 103/242/24 104/241/24
f 118/247/2 119/248/2 114/246/2 103/245/2
f 100/249/2 101/250/2 98/194/2 20/20/2
f 101/253/65 102/254/65 103/252/65 98/251/65
f 99/257/66 100/258/66 20/256/66 55/255/66
f 102/261/1 99/262/1 55/260/1 103/259/1
f 110/265/67 111/266/67 70/264/67 40/263/67
f 111/269/1 112/270/1 114/268/1 70/267/1
f 112/273/68 113/274/68 108/272/68 114/271/68
f 113/275/2 110/276/2 40/41/2 108/211/2

g Floor
v 2996.7 102.7063 4913.395
v 3003.76 102.7063 4035.263
v 3026.513 102.7063 4054.051
v 3033.487 102.7063 -682.2275
v 18.2522 102.7063 -639.9375
v 20.18213 102.7063 4916.228
v 1736.948 98.575 -682.2275
v 1729.974 98.575 4054.051
v 18.2522 98.575 -639.9375
v 20.18213 98.575 4916.228
v 2996.7 98.575 4913.395
v 3003.76 98.575 4035.263

vt -6.108256E-09 -2.513771E-09
vt -16.66504 -2072.697
vt -70.36963 -2028.353
vt -86.82959 -13207.63
vt 7030.181 -13107.81
vt 7025.625 6.686523
vt -2973.456 -13207.63
vt -2989.916 -2028.353
vt -7030.181 -13107.81
vt -7025.625 6.686523
vt 16.66504 -2072.697
vt -2973.441 -13207.63
vt -2989.901 -2028.353
vt 86.86023 -13207.63
vt 70.40035 -2028.353
vt 6705.622 0
vt 2647.669 0
vt 6705.622 9.751244
vt -411.6905 9.751251
vt 4.24625 0
vt -13110.25 0
vt 4.24625 9.751244
vt -13110.25 9.751244
vt -7025.629 0
vt 0 9.751244
vt -7025.629 9.751244
vt 2989.901 -1980.602
vt -16.66495 -2025.97
vt -70.40034 -1980.602
vt -16.69602 -2023.911
vt 2072.764 0
vt 2072.764 9.751244

vn 2.989575E-08 0 1.037173E-09
vn 5.978998E-08 -0.4236659 4.807273E-10
vn 1.472046E-08 0.2118329 5.18459E-10
vn -4.541768E-10 0.4236659 -6.687133E-13
vn 0.001349956 -0.4236638 1.987656E-06
vn -0.01042152 0 -0.4235377
vn -0.005868968 0.2065682 -0.2586982
vn -0.001316412 0.4131363 -0.09385869
vn -0.4236659 0 0.0001471557
vn 0.0004032169 0 0.4236657
vn -0.001319515 0.4141103 -0.08946339
vn -0.1355362 0.2070552 0.1186132
vn -0.2697529 0 0.3266897
vn 0.4236522 0 0.003406277

usemtl ProBuilderDefault
f 125/281/72 123/279/71 124/280/72
f 126/282/72 123/279/71 125/281/72
f 121/277/69 123/279/71 126/282/72
f 121/277/69 122/278/70 123/279/71
f 128/284/70 132/287/70 131/277/70
f 130/286/70 128/284/70 131/277/70
f 129/285/70 128/284/70 130/286/70
f 127/283/70 128/284/70 129/285/70
f 123/291/73 128/289/73 127/288/73
f 127/288/73 124/290/73 123/291/73
f 124/295/76 127/293/75 129/292/74
f 129/292/74 125/294/75 124/295/76
f 125/299/77 129/297/77 130/296/77
f 130/296/77 126/298/77 125/299/77
f 126/302/78 130/300/78 131/277/78
f 131/277/78 121/301/78 126/302/78
f 122/306/81 132/304/80 128/303/79
f 128/303/79 123/305/80 122/306/81
f 121/301/82 131/277/82 132/307/82
f 132/307/82 122/308/82 121/301/82

g PolyShape (3)
v 871 137.0619 3555
v 968.8548 137.0619 3557.552
v 972.6284 137.0619 3804.048
v 873.6475 137.0619 3804.965
v 871 99 3555
v 968.8548 99 3557.552
v 873.6475 99 3804.965
v 972.6284 99 3804.048

vt 0 0
vt -97.8548 2.551758
vt -101.6284 249.0483
vt -2.647461 249.9646
vt 97.8548 2.551758
vt 2.647461 249.9646
vt 101.6284 249.0483
vt -97.88807 0
vt 0 38.06192
vt -97.88807 38.06192
vt 249.9786 0
vt 249.9786 38.06192
vt -4.04932 0
vt -250.5748 0
vt -4.04932 38.06192
vt -250.5748 38.06192
vt 99.31867 0
vt 0.3335404 0
vt 99.31867 38.06192
vt 0.3335404 38.06192

vn 0 1 0
vn 0 -1 0
vn 0.02606812 0 -0.9996602
vn -0.999944 0 0.01059075
vn 0.9998829 0 -0.01530698
vn 0.009256539 0 0.9999571

usemtl ProBuilderDefault
f 136/312/83 135/311/83 134/310/83 133/309/83
f 139/314/84 137/309/84 138/313/84 140/315/84
f 133/317/85 134/318/85 138/316/85 137/309/85
f 136/320/86 133/317/86 137/309/86 139/319/86
f 134/323/87 135/324/87 140/322/87 138/321/87
f 135/327/88 136/328/88 139/326/88 140/325/88

g PolyShape (11)
v 867.4802 143.6068 2566.573
v 864.6739 143.6104 2629.55
v 672.5746 150.3813 2629.493
v 672.688 150.4738 2565.757
v 866.1395 105.5686 2566.516
v 863.3332 105.5721 2629.492
v 671.3473 112.4356 2565.699
v 671.2339 112.343 2629.436

vt 0 0
vt -97.8548 2.551758
vt -101.6284 249.0483
vt -2.647461 249.9646
vt 97.8548 2.551758
vt 2.647461 249.9646
vt 101.6284 249.0483
vt -97.88807 0
vt 0 38.06192
vt -97.88807 38.06192
vt 249.9786 0
vt 249.9786 38.06192
vt -4.04932 0
vt -250.5748 0
vt -4.04932 38.06192
vt -250.5748 38.06192
vt 99.31867 0
vt 0.3335404 0
vt 99.31867 38.06192
vt 0.3335404 38.06192

vn 0.03522459 0.9993783 0.001513898
vn -0.03522459 -0.9993783 -0.001513898
vn 0.7787077 -0.02748742 0.02686771
vn 0.0001065386 0.0009716616 -0.6439063
vn 0.003568811 -0.001101217 0.6439146
vn -0.7792344 0.02747154 -0.004127429

usemtl ProBuilderDefault
f 144/332/89 143/331/89 142/330/89 141/329/89
f 147/334/90 145/329/90 146/333/90 148/335/90
f 141/337/91 142/338/91 146/336/91 145/329/91
f 144/340/92 141/337/92 145/329/92 147/339/92
f 142/343/93 143/344/93 148/342/93 146/341/93
f 143/347/94 144/348/94 147/346/94 148/345/94

g PolyShape (10)
v 990.4802 143.6068 2292.573
v 987.6739 143.6104 2355.55
v 795.5746 150.3813 2355.493
v 795.688 150.4738 2291.757
v 989.1395 105.5686 2292.516
v 986.3332 105.5721 2355.492
v 794.3473 112.4356 2291.699
v 794.2339 112.343 2355.436

vt 0 0
vt -97.8548 2.551758
vt -101.6284 249.0483
vt -2.647461 249.9646
vt 97.8548 2.551758
vt 2.647461 249.9646
vt 101.6284 249.0483
vt -97.88807 0
vt 0 38.06192
vt -97.88807 38.06192
vt 249.9786 0
vt 249.9786 38.06192
vt -4.04932 0
vt -250.5748 0
vt -4.04932 38.06192
vt -250.5748 38.06192
vt 99.31867 0
vt 0.3335404 0
vt 99.31867 38.06192
vt 0.3335404 38.06192

vn 0.03522459 0.9993783 0.001513898
vn -0.03522459 -0.9993783 -0.001513898
vn 0.7787077 -0.02748742 0.02686771
vn 0.0001065386 0.0009716616 -0.6439063
vn 0.003568811 -0.001101217 0.6439146
vn -0.7792344 0.02747154 -0.004127429

usemtl ProBuilderDefault
f 152/352/95 151/351/95 150/350/95 149/349/95
f 155/354/96 153/349/96 154/353/96 156/355/96
f 149/357/97 150/358/97 154/356/97 153/349/97
f 152/360/98 149/357/98 153/349/98 155/359/98
f 150/363/99 151/364/99 156/362/99 154/361/99
f 151/367/100 152/368/100 155/366/100 156/365/100

g PolyShape (2)
v 630 137.0619 3449.918
v 727.8548 137.0619 3452.47
v 731.6284 137.0619 3698.966
v 632.6475 137.0619 3699.883
v 630 99 3449.918
v 727.8548 99 3452.47
v 632.6475 99 3699.883
v 731.6284 99 3698.966

vt 0 0
vt -97.8548 2.551758
vt -101.6284 249.0483
vt -2.647461 249.9646
vt 97.8548 2.551758
vt 2.647461 249.9646
vt 101.6284 249.0483
vt -97.88807 0
vt 0 38.06192
vt -97.88807 38.06192
vt 249.9786 0
vt 249.9786 38.06192
vt -4.04932 0
vt -250.5748 0
vt -4.04932 38.06192
vt -250.5748 38.06192
vt 99.31867 0
vt 0.3335404 0
vt 99.31867 38.06192
vt 0.3335404 38.06192

vn 0 1 0
vn 0 -1 0
vn 0.02606812 0 -0.9996602
vn -0.999944 0 0.01059075
vn 0.9998829 0 -0.01530698
vn 0.009256539 0 0.9999571

usemtl ProBuilderDefault
f 160/372/101 159/371/101 158/370/101 157/369/101
f 163/374/102 161/369/102 162/373/102 164/375/102
f 157/377/103 158/378/103 162/376/103 161/369/103
f 160/380/104 157/377/104 161/369/104 163/379/104
f 158/383/105 159/384/105 164/382/105 162/381/105
f 159/387/106 160/388/106 163/386/106 164/385/106

g Lobby
v 2224.808 102.71 3940.415
v 2605.56 102.71 3938.887
v 2215.302 102.71 3921.213
v 2583.603 102.71 3919.953
v 2606.663 102.71 3475.156
v 2584.583 102.71 3497.677
v 1672.412 102.71 3941.434
v 2056.17 102.71 3940.957
v 1696.381 102.71 3922.054
v 2075.002 102.71 3921.66
v 2057.717 102.7101 4185.875
v 2076.376 102.7101 4163.058
v 2057.717 245.6508 4185.875
v 2056.17 245.6508 3940.957
v 2100.13 245.6508 4163.058
v 2092.575 245.6508 3877.773
v 1672.412 245.6508 3950.161
v 1723.285 245.6508 3878.167
v 2606.663 245.6508 3475.156
v 2605.56 245.6508 3938.887
v 2557.348 245.6508 3514.017
v 2556.368 245.6508 3876.066
v 2224.808 245.6508 3940.415
v 2186.717 245.6508 3877.326
v 2094.392 102.71 4186.038
v 2105.367 102.71 4163.191
v 2100.764 245.6508 4186.038
v 2100.739 245.6508 4177.396
v 2189.593 102.2733 4185.272
v 2180.813 102.71 4163.258
v 2224.348 102.71 4186.2
v 2214.893 102.71 4163.325
v 2180.342 245.6508 4177.462
v 2189.711 245.6508 4186.119
v 2186.308 245.6508 4163.325
v 2224.348 245.6508 4186.2
v 2056.17 174.1804 3940.957
v 2057.717 174.1805 4185.875
v 1672.412 174.1804 3941.434
v 2605.56 174.1804 3938.887
v 2606.663 174.1804 3475.156
v 2224.808 174.1804 3940.415
v 2093.756 217.95 4184.805
v 2224.348 174.1804 4186.2
v 2189.711 217.95 4186.119
v 2084.075 171.5284 3899.183
v 2075.002 97.40604 3921.66
v 2093.139 97.4061 4163.058
v 2085.45 171.5285 4163.058
v 1709.78 171.5284 3899.577
v 1696.381 97.40604 3922.054
v 2569.105 171.5284 3897.476
v 2583.603 97.40604 3919.953
v 2584.583 97.40604 3497.677
v 2570.085 171.5284 3508.652
v 2195.347 171.5284 3898.737
v 2206.045 97.40604 3921.213
v 2094.713 97.40607 4185.947
v 2094.077 217.8207 4185.293
v 2189.799 217.8207 4186.523
v 2190.244 97.40606 4185.606
v 2190.921 97.40604 4163.325
v 2194.939 171.5284 4163.325
v 2189.796 102.71 4186.119
v 2189.351 217.95 4186.457
v 2249.912 102.71 3476.948
v 2250.844 102.71 3499.156
v 2249.912 245.6508 3476.948
v 2250.678 245.6508 3515.496
v 2249.912 174.1804 3476.948
v 2584.583 97.40604 3561.693
v 2250.844 97.40604 3563.171
v 2250.294 171.5284 3574.146
v 2570.085 171.5284 3572.667
v 2015.06 102.71 3477.844
v 2027.498 102.71 3499.896
v 1672.644 102.71 3478.741
v 1696.588 102.71 3500.635
v 1672.644 245.6508 3487.467
v 2015.06 245.6508 3477.844
v 2016.046 245.6508 3516.235
v 1723.491 245.6508 3516.974
v 2015.06 174.1804 3477.844
v 1672.644 174.1804 3478.741
v 1709.986 171.5284 3575.625
v 2022.156 171.5284 3574.885
v 2027.498 97.40604 3563.911
v 1696.588 97.40604 3564.65
v 2022.156 171.5284 3546.466
v 2250.294 171.5284 3545.727
v 2250.844 97.40604 3534.752
v 2027.498 97.40604 3535.491
v 2022.156 171.5284 3510.87
v 2250.294 171.5284 3510.131
v 2250.844 97.40604 3499.156
v 2027.498 97.40604 3499.896
v 1723.491 245.6508 3552.802
v 2016.046 245.6508 3552.062
v 1709.986 171.5284 3511.61
v 2022.156 171.5284 3546.697
v 1709.986 171.5284 3547.437
v 2570.085 171.5284 3544.217
v 2250.294 171.5284 3545.696
v 2250.678 245.6508 3551.061
v 2557.348 245.6508 3549.582
v 1696.588 97.40604 3500.635
v 1672.528 102.71 3643.363
v 1696.485 102.71 3636.392
v 1672.528 245.6508 3643.861
v 1723.388 245.6508 3641.266
v 1672.528 174.1804 3643.363
v 1709.883 171.5284 3642.156
v 1696.485 97.40604 3643.52
v 1696.433 102.71 3711.603
v 1672.47 102.71 3726.236
v 1672.47 245.6508 3729.392
v 1723.336 245.6508 3727.218
v 1672.47 174.1804 3727.382
v 1696.433 97.40604 3728.099
v 1709.831 171.5284 3726.511
v 2092.79 208.5897 4163.058
v 2088.325 208.5896 3888.478
v 1716.532 208.5896 3888.872
v 2563.717 208.5896 3511.334
v 2562.737 208.5896 3886.771
v 2191.032 208.5896 3888.031
v 2097.408 231.7358 4181.344
v 2185.071 231.7357 4181.993
v 2190.623 208.5896 4163.325
v 2250.486 208.5896 3548.378
v 2563.717 208.5896 3546.9
v 2250.486 208.5896 3512.813
v 2019.101 208.5896 3513.553
v 2019.101 208.5896 3549.38
v 1716.739 208.5896 3550.119
v 1716.739 208.5896 3514.292
v 1716.635 214.5709 3641.711
v 1716.583 214.5709 3726.865
v 2056.17 209.9156 3940.957
v 2057.717 209.9156 4185.875
v 1672.412 209.9156 3945.798
v 2605.56 209.9156 3938.887
v 2606.663 209.9156 3475.156
v 2224.808 209.9156 3940.415
v 2097.26 231.8004 4185.421
v 2224.348 209.9156 4186.2
v 2189.711 231.8004 4186.119
v 2249.912 209.9156 3476.948
v 2015.06 209.9156 3477.844
v 1672.644 209.9156 3483.104
v 1672.528 209.9156 3643.612
v 1672.47 209.9156 3728.387
v 1671.388 215.435 3643.007
v 1672.217 171.8738 3643.452
v 1671.337 215.4259 3728.16
v 1671.901 96.55096 3644.816
v 1671.851 96.54202 3729.395
v 1672.166 171.8648 3727.807
v 2224.578 102.71 4018.262
v 2215.097 102.71 3997.223
v 2224.578 245.6508 4018.262
v 2186.512 245.6508 3975.28
v 2224.578 174.1804 4018.262
v 2198.483 97.40604 3997.223
v 2195.143 171.5284 3985.985
v 2190.828 208.5896 3980.632
v 2224.578 209.9156 4018.262
v 2224.463 102.71 4104.114
v 2214.995 102.71 4082.157
v 2186.41 245.6508 4071.185
v 2224.463 245.6508 4104.114
v 2224.463 174.1804 4104.114
v 2194.702 97.40604 4082.157
v 2195.041 171.5284 4076.537
v 2215.662 97.40604 4082.157
v 2219.444 97.40604 3997.223
v 2216.104 171.5284 3985.985
v 2216.002 171.5284 4076.537
v 2190.725 208.5896 4073.861
v 2217.718 208.5896 3980.632
v 2217.616 208.5896 4073.861
v 2224.463 209.9156 4104.114

vt 1.085938 -580.1387
vt 899.7937 -583.7451
vt -21.35303 -625.4619
vt 847.967 -628.437
vt 902.3972 -1678.314
vt 850.2805 -1625.156
vt -1302.763 -577.7334
vt -396.9597 -578.8608
vt -1246.187 -623.4775
vt -352.5093 -624.4077
vt -393.3083 -0.7661133
vt -349.2649 -54.625
vt 393.3083 -0.7660068
vt 396.9597 -578.8607
vt 293.1992 -54.62489
vt 311.0314 -727.9965
vt 1302.763 -557.1357
vt 311.0315 -727.9966
vt 1182.685 -727.0664
vt -902.3972 -1678.314
vt -899.7937 -583.7451
vt -785.9963 -1586.589
vt -783.6829 -732.0259
vt -1.085938 -580.1387
vt 88.82349 -729.0508
vt -393.3069 -0.7687533
vt -306.7418 -0.3848721
vt -280.8369 -54.3108
vt -349.2636 -54.62718
vt 291.7085 -0.3827151
vt 393.3162 -0.7660159
vt 293.207 -54.6249
vt 291.77 -20.78164
vt -82.03593 -2.188897
vt -102.7589 -54.15189
vt 0 0
vt -22.31779 -53.99314
vt 103.877 -20.62393
vt 81.76319 -0.1913089
vt 89.79615 -53.99306
vt 0.007817866 9.737322E-05
vt -3.250266 0.0001220703
vt -581.3565 0
vt -581.3565 168.6952
vt -3.250266 168.6953
vt -394.0405 0
vt -1299.838 0
vt -1299.838 168.6952
vt -394.0405 168.6952
vt 1680.456 0
vt 585.8837 0
vt 585.8837 168.6952
vt 1680.456 168.6952
vt 902.1289 0
vt 3.413962 0
vt 3.413962 168.6952
vt 902.1289 168.6952
vt -308.2444 272.0108
vt -306.743 0.0004141278
vt -393.3086 0.0009421803
vt -393.3086 168.696
vt 0 168.695
vt -82.03429 -1.027986
vt -81.75544 272.0067
vt 682.6626 147.5911
vt 629.9587 -28.19993
vt 59.56492 -26.65548
vt 59.85481 147.2841
vt 1213.848 346.7265
vt 1245.528 163.9216
vt 351.8502 163.918
vt 330.378 346.7259
vt -683.5093 15.63688
vt -630.5418 -162.6374
vt -1627.263 -162.6085
vt -1601.274 15.63096
vt 66.15038 347.3528
vt 41.08018 164.5135
vt -850.0932 164.5002
vt -816.0536 347.3482
vt 327.883 170.1306
vt 309.7348 11.89063
vt 305.9854 -11.15123
vt 307.4866 246.582
vt 81.54736 245.4046
vt 80.49818 -10.74722
vt 78.93491 11.6831
vt 69.45053 169.9305
vt 21.22447 -0.9742665
vt 19.21515 272.0634
vt 19.16867 0.05663287
vt 18.63772 272.0642
vt 60.34058 -1674.083
vt 62.54028 -1621.665
vt -60.34058 -1674.083
vt -62.14868 -1583.098
vt -915.867 -45.05194
vt -915.867 123.5819
vt -73.80359 123.5134
vt -73.80359 -45.12048
vt 856.8029 -226.4875
vt 69.05499 -226.4875
vt 67.64237 -49.62634
vt 822.4688 -49.64774
vt -493.9939 -1671.968
vt -464.636 -1619.92
vt -1302.215 -1669.852
vt -1245.699 -1618.174
vt 1302.215 -1649.255
vt 493.9939 -1671.968
vt 491.6672 -1581.353
vt 1182.198 -1579.607
vt 480.53 123.4502
vt 480.53 -45.18366
vt 1288.742 123.332
vt 1288.742 -45.30188
vt -1210.657 -50.57631
vt -473.824 -50.57629
vt -461.1537 -227.434
vt -1242.219 -227.4494
vt -472.3484 -60.66789
vt 66.1413 -60.66789
vt 67.5231 -237.5294
vt -459.6561 -237.524
vt 477.2444 -1594.016
vt -61.24243 -1595.761
vt 477.2444 -1509.997
vt -61.24243 -1511.742
vt 1595.761 161.9768
vt 1621.665 -12.98278
vt 1511.742 161.9768
vt 1537.646 -12.98278
vt -1619.92 20.91132
vt -1594.016 196.3198
vt -1535.901 20.91132
vt -1509.997 196.3198
vt 62.54028 -1537.646
vt -464.636 -1535.901
vt 1182.198 -1495.043
vt 491.6672 -1496.788
vt -477.2444 -1594.016
vt -1214.075 -1592.27
vt -477.2444 -1509.451
vt -1214.075 -1507.706
vt 816.0608 -1599.251
vt 61.24243 -1595.761
vt 816.0608 -1515.305
vt 61.24243 -1511.814
vt -62.14868 -1499.151
vt -785.9963 -1502.642
vt 1594.015 196.3199
vt 1619.919 20.9114
vt 1442.916 196.3199
vt 1468.821 20.91136
vt 1214.075 -1592.27
vt 1214.076 -1441.171
vt 477.2446 -1442.917
vt -464.6357 -1468.821
vt -1245.699 -1467.075
vt -1618.174 -233.8958
vt -1592.27 -56.10593
vt -1467.075 -233.8958
vt -1441.171 -56.10602
vt 850.2803 -1474.057
vt 62.54004 -1470.566
vt 1599.253 2.76899
vt 1625.157 -175.5009
vt 1448.155 2.768989
vt 1474.058 -175.5009
vt -1621.665 -12.98274
vt -1595.761 161.9768
vt -1470.567 -12.98274
vt -1444.662 161.9768
vt -816.0608 -1599.251
vt -61.24219 -1444.662
vt -816.0605 -1448.153
vt -1302.489 -1281.287
vt -1245.943 -1297.741
vt 1302.489 -1280.11
vt 1182.441 -1286.235
vt -1280.608 -0.01752285
vt -1669.173 -0.01752189
vt -1669.173 168.6776
vt -1280.608 168.6777
vt 1282.98 -65.21949
vt 1591.115 -65.22861
vt 1616.989 -243.0184
vt 1279.731 -243.0042
vt -1246.064 -1120.216
vt -1302.626 -1085.678
vt 1302.626 -1078.229
vt 1182.563 -1083.358
vt -577.054 -0.0175216
vt -1084.998 -0.01752332
vt -1082.292 168.6777
vt -577.054 168.6777
vt 1080.094 -242.9916
vt 622.2925 -242.9336
vt 675.3753 -65.15771
vt 1083.871 -65.20705
vt 59.57808 235.4633
vt 707.7672 235.4547
vt 59.30135 323.6426
vt 732.8718 323.3183
vt 310.2631 528.8256
vt 1181.917 528.8227
vt 1197.882 437.7746
vt 320.3205 437.7758
vt -1594.905 104.3846
vt -708.74 104.4045
vt -1588.537 193.1383
vt -733.9706 193.1721
vt -801.1071 438.4151
vt 76.25054 438.4151
vt -786.1607 529.4821
vt 86.35072 529.4774
vt 293.2336 328.3848
vt 310.5583 249.2577
vt 299.631 280.2665
vt 291.7752 313.9511
vt 92.71474 279.6695
vt 103.8821 313.9343
vt 79.63644 249.0502
vt 89.82236 328.1698
vt 823.1329 54.11696
vt 68.30643 54.11434
vt 68.72996 141.8207
vt 808.0713 141.8181
vt 69.15349 229.527
vt 793.0096 229.5193
vt 67.24316 222.2191
vt 66.81041 134.5128
vt -479.3438 134.5119
vt -486.5755 222.2165
vt 66.37766 46.80655
vt -472.112 46.80741
vt -487.9441 228.6784
vt -480.717 140.9735
vt -1194.4 140.9714
vt -1178.477 228.6805
vt -473.4898 53.26858
vt -1210.323 53.26236
vt 1581.353 376.6445
vt 1587.684 288.8704
vt 1503.12 288.8704
vt 1496.788 376.6445
vt 1594.016 201.0963
vt 1509.451 201.0963
vt -1592.27 -57.8217
vt -1585.939 31.09587
vt -1501.374 31.09587
vt -1507.706 -57.8217
vt -1579.607 120.0134
vt -1495.043 120.0134
vt 1586.589 199.4011
vt 1592.92 110.6415
vt 1508.973 110.6415
vt 1502.642 199.4011
vt 1599.251 21.88193
vt 1515.305 21.88193
vt -1595.761 162.7506
vt -1589.429 250.2292
vt -1505.483 250.2292
vt -1511.814 162.7506
vt -1583.098 337.7078
vt -1499.151 337.7078
vt 1578.483 112.6057
vt 1584.799 23.68857
vt 1284.046 37.57076
vt 1285.111 112.6123
vt 1083.053 37.58354
vt 1082.234 112.6253
vt 700.6586 23.75392
vt 725.9417 112.6655
vt -581.3565 253.0428
vt -3.250266 253.0429
vt -581.3565 337.3904
vt -3.250266 337.3905
vt -1299.89 253.0428
vt -394.0405 253.0428
vt -1299.942 337.3904
vt -394.0405 337.3904
vt 585.8837 253.0428
vt 1680.456 253.0428
vt 585.8837 337.3904
vt 1680.456 337.3904
vt 3.413962 253.0428
vt 902.1289 253.0428
vt 3.413962 337.3904
vt 902.1289 337.3904
vt -291.7008 337.3905
vt -299.9726 304.7007
vt -393.3086 253.0435
vt -393.3086 337.3911
vt 0 337.39
vt 0 253.0425
vt -81.75544 304.6985
vt -81.75544 337.3903
vt -915.867 207.8988
vt -73.80359 207.8303
vt -915.867 292.2158
vt -73.80359 292.1472
vt 480.53 207.7671
vt 480.53 292.084
vt 1288.907 292.5211
vt 1288.825 207.9265
vt -1279.431 337.3728
vt -1280.019 253.0252
vt -1658.874 253.0252
vt -1648.576 337.3728
vt -556.4563 337.3728
vt -566.7551 253.0252
vt -1079.921 253.0253
vt -1077.549 337.3728
vt -1160.952 271.7168
vt -1176.914 170.1196
vt -1267.795 273.7562
vt -1265.87 170.9319
vt -1203.277 -1084.196
vt -1203.155 -1285.188
vt -1310.094 -1081.138
vt -1309.974 -1282.13
vt 1245.625 -1280.915
vt 1245.747 -1081.279
vt 1303.686 -1277.857
vt 1303.806 -1078.22
vt 1176.552 147.1427
vt 1160.652 248.7475
vt 1265.508 147.9368
vt 1267.492 250.7573
vt -1169.302 178.5266
vt -1201.018 3.558863
vt -1258.259 179.3419
vt -1259.114 1.527909
vt 1187.899 1.160865
vt 1156.122 176.1281
vt 1246.003 -0.8786955
vt 1245.064 176.9411
vt 0.5429688 -396.3936
vt -21.83545 -446.0518
vt -0.5429688 -396.3936
vt 89.30615 -497.8467
vt 396.3939 168.6952
vt 580.1397 168.6952
vt 580.1397 0
vt 396.3939 0
vt -444.5995 -6.54263
vt -624.3592 -7.706074
vt -676.8431 168.8458
vt -470.9459 168.5066
vt -701.8809 256.9152
vt -483.3534 256.5527
vt -726.9185 344.9846
vt -495.7598 344.5989
vt 396.3939 253.0428
vt 580.1397 253.0428
vt 396.3939 337.3904
vt 580.1397 337.3904
vt 0.2714844 -193.7529
vt -22.07666 -245.5791
vt 89.78833 -53.99316
vt 89.54834 -271.4766
vt -0.2714844 -193.7529
vt 193.7531 168.6952
vt 193.7531 0
vt -52.24301 -5.771188
vt -243.979 -6.165099
vt -257.2571 168.1328
vt -52.45182 167.7754
vt -244.4243 -12.5569
vt -445.0956 -12.5569
vt -471.2451 162.3869
vt -257.7105 162.398
vt -263.3477 256.1673
vt -52.22757 255.7982
vt -258.8204 161.414
vt -472.5559 161.414
vt -485.1949 248.9737
vt -265.1411 248.974
vt -269.4393 344.2019
vt -52.00331 343.821
vt 193.7531 253.0428
vt 193.7531 337.3904
vt 69.97607 -245.5791
vt 61.05127 -446.0518
vt 20.50146 -245.5791
vt 11.57666 -446.0518
vt 69.17529 181.538
vt 69.97607 6.081196
vt 19.70068 181.538
vt 20.50146 6.081196
vt -61.05127 54.48775
vt -68.93408 231.442
vt -11.57666 54.48775
vt -19.45996 231.442
vt 79.36182 268.3604
vt 69.17529 180.6553
vt 15.89063 268.3604
vt 19.70068 180.6553
vt -68.93408 228.323
vt -79.12012 316.7081
vt -19.45996 228.323
vt -15.64893 316.7081
vt -79.12012 -485.2129
vt -79.36182 -265.1592
vt -15.64893 -485.2129
vt -15.89063 -265.1592

vn 0 -0.4236659 0
vn -7.195089E-08 0.4236659 -1.337373E-07
vn -0.001951225 -0.4236603 -0.0009373267
vn -0.0009719261 -0.4236214 -0.004672088
vn 7.372946E-06 -0.4235825 -0.008406849
vn 0.002699637 -0.4236041 -0.005317719
vn 0.005382894 -0.4236259 -0.002224999
vn -0.4236574 0 0.002675909
vn 0.0005273308 0 0.4236656
vn 0.4236647 0 0.001007719
vn 0.001700125 0 0.4236625
vn 0.005353019 0.002261422 0.4235583
vn -0.00187581 0.004522844 0.4236376
vn 0.01258185 0 0.423479
vn -0.008108418 -0.001548653 0.4235705
vn -0.01131107 0 0.4235149
vn -0.004905762 -0.003097306 0.4236262
vn 0.4197573 -0.008497697 -0.01680444
vn 0.4181155 -0.06070744 -0.03141379
vn 0.4213991 0.04371205 -0.002195102
vn -0.0004244495 -0.122884 -0.405453
vn -0.4157731 -0.08139054 -0.001006565
vn -0.415731 -0.08160619 -0.0009649502
vn -0.001360173 -0.1231542 -0.405369
vn 0.3612361 0.0374713 -0.2181678
vn 0.3919494 0.01977218 -0.1236164
vn 0.4226626 0.002073065 -0.02906498
vn -0.4139874 -0.0008447985 -0.09003612
vn -0.418419 0.01103906 -0.05143598
vn -0.4228505 0.02292291 -0.01283585
vn 0.4120299 0.0003025119 -0.09861049
vn 0.3508682 0.000257607 0.105261
vn 0.2897064 0.0002127021 0.3091325
vn -0.002128704 0 -0.4236605
vn 0.001857106 -0.06169433 0.4191457
vn -0.001109049 0 -0.4236645
vn 0.0009650092 -0.06210034 0.4190888
vn 0.00137279 -0.06199849 0.4191027
vn 0.4236542 0.003142757 0
vn -0.42257 -0.03045319 0
vn 0.42257 0.03045309 6.827759E-07
vn -0.4169099 0.07535873 -9.512654E-10
vn 0.4157873 0.0813245 6.718188E-07
vn -0.4236542 -0.003142656 -6.845277E-07
vn -0.4236658 0 -0.0002986708
vn 0.4169108 -0.07535283 0.0003296646
vn 0.4155885 -0.08230638 -0.002164803
vn 0.4181066 -0.06625686 -0.004502129
vn 0.4206248 -0.05020735 -0.006839455
vn 0.415541 -0.08229699 -0.006756783
vn 0.4179638 -0.06685856 -0.008944738
vn 0.4203865 -0.05142013 -0.01113269
vn -0.0004343672 -0.1175244 -0.4070388
vn -0.0004314512 -0.1174978 -0.4070465
vn -0.4174936 -0.07204664 -0.00105241
vn -0.4175256 -0.07186068 -0.001071258
vn -0.00137242 -0.1177875 -0.4069607
vn 0.4130625 -0.0927591 -0.009102044
vn 0.4155932 -0.08230732 -0.0007722995
vn 0.4105319 -0.1032109 -0.01743179
vn 0.4140985 -0.08836342 0.01270947
vn 0.4154756 -0.08228403 0.0101059
vn 0.4127213 -0.09444279 0.01531305
vn 0.0003420557 -0.1157337 -0.4075517
vn 0.001661755 -0.122984 -0.4053465
vn 0.002981455 -0.1302343 -0.4031413
vn 0.003012755 -0.1163221 -0.4073731
vn 0.004097399 -0.1229365 -0.4053562
vn 0.005182044 -0.1295509 -0.4033392
vn -0.3573285 -0.1705106 -0.1507821
vn -0.3866849 -0.1094773 -0.1072328
vn -0.4160413 -0.04844407 -0.06368349
vn -0.403116 -0.1253978 0.035577
vn -0.4119572 -0.08719788 0.02006195
vn -0.4207984 -0.04899799 0.004546899
vn 0.001954258 -0.03024901 0.4225801
vn 0.001995072 -0.03059336 0.4225551
vn 0.002016472 -0.03041778 0.4225677
vn 0.002037752 -0.03059356 0.4225549
vn 0.00134115 -0.03053271 0.4225621
vn 0.001331912 -0.03047521 0.4225663
vn 0.4222336 0.03480792 0
vn -0.4168038 0.07594328 0
vn 0.4175458 0.0717516 0
vn -0.4236602 0.002194522 0
vn 0.4153717 -0.08308091 0.002129738
vn 0.4167359 -0.07621431 0.003915634
vn 0.4140074 -0.08994751 0.0003438428
vn 0.4176689 -0.07079601 0.001874808
vn 0.4167995 -0.07596634 0.0003295766
vn 0.4185384 -0.06562567 0.00342004
vn 0.4153317 -0.08332504 -0.001279075
vn 0.4166571 -0.0766963 -0.002699427
vn 0.4185433 -0.06564304 -0.002290741
vn 0.4176767 -0.07077582 -0.001083343
vn 0.002915928 -0.02567209 0.4220876
vn 0.005304526 -0.05134418 0.4205097
vn 0.007713747 -0.02566682 0.4220279
vn 0.01008358 -0.05133365 0.4204235
vn 0.005343914 0 0.4236322
vn -0.001596712 -0.01843811 0.4232615
vn 0.001634505 -0.009219055 0.4234497
vn 0.004865721 0 0.423638
vn 0.01775309 -0.02330659 0.4226516
vn 0.01516747 -0.01165329 0.4230653
vn -0.0009918868 0 0.4236647
vn -0.0003862542 0 0.4236657
vn -0.001790191 -0.009017163 0.4234678
vn -0.003194128 -0.01803433 0.4232698
vn -0.003197021 0 0.4236538
vn -0.004497133 -0.008687858 0.4234618
vn -0.005797245 -0.01737572 0.4232697
vn -0.009160198 0.02566352 -0.4219976
vn -0.01181364 0.05132703 -0.4203793
vn -0.006506758 0 -0.4236159
vn -0.006458804 0.05134104 -0.420494
vn -0.003783926 0.02567052 -0.4220792
vn 0.01217519 0.002469941 0.4234837
vn 0.0133916 0.003537335 0.4234363
vn 0.01460801 0.004604728 0.4233889
vn -0.008004478 -0.4235902 -4.861428E-06
vn -0.01472781 0.4234098 -8.969479E-06
vn -0.01451439 0.005748432 -0.4233782
vn -0.01329102 0.004474878 -0.42343
vn -0.01206764 0.003201324 -0.4234819
vn 0.01461277 0.00514789 0.4233825
vn 0.01832389 0.006357135 0.4232036
vn 0.02203501 0.007566379 0.4230248
vn -0.02212275 -0.005062035 -0.4230576
vn -0.01838281 -0.006961347 -0.4231888
vn -0.01464287 -0.00886066 -0.4233201
vn -0.4208315 -0.02530927 -0.04186932
vn -0.4200547 -0.04305957 -0.02142576
vn -0.4192779 -0.06080988 -0.0009821902
vn -0.4208051 -0.04914173 -0.0009857676
vn 0.4236655 0 0.0005936352
vn -0.4225878 0.02290867 -0.01968575
vn -0.4231246 0.01240499 -0.01009231
vn -0.4236613 0.00190131 -0.0004988623
vn -0.4232464 0.0005087487 -0.01884243
vn -0.4232397 -0.009317004 -0.00965955
vn -0.4232329 -0.01914276 -0.0004766724
vn -0.4208224 -0.04900078 -0.0004955194
vn -0.4232658 0.01840083 -0.0004767095
vn 0 -0.03202705 -0.4224536
vn 0 0.06350972 0.4188786
vn 0 -0.03051185 -0.4225658
vn 0 0.06056358 0.4193147

usemtl ProBuilderDefault
f 167/391/107 168/392/107 166/390/107 165/389/107
f 168/392/107 170/394/107 169/393/107 166/390/107
f 173/397/107 174/398/107 172/396/107 171/395/107
f 174/398/107 176/400/107 175/399/107 172/396/107
f 179/403/108 180/404/108 178/402/108 177/401/108
f 180/406/108 182/407/108 181/405/108 178/402/108
f 185/410/108 186/411/108 184/409/108 183/408/108
f 186/411/108 188/413/108 187/412/108 184/409/108
f 175/414/107 176/417/107 190/416/107 189/415/107
f 177/419/108 191/418/108 192/421/108 179/420/108
f 194/423/111 193/422/110 189/415/109 190/416/110
f 193/422/112 194/423/111 196/425/112 195/424/113
f 191/418/108 198/427/108 197/426/108 192/421/108
f 198/427/108 200/429/108 199/428/108 197/426/108
f 202/433/114 201/432/114 172/431/114 175/430/114
f 201/437/115 203/436/115 171/435/115 172/434/115
f 169/438/116 205/441/116 204/440/116 166/439/116
f 204/445/117 206/444/117 165/443/117 166/442/117
f 202/449/120 175/448/118 189/447/119 207/446/118
f 209/452/123 193/451/121 195/424/122 208/450/121
f 211/454/125 210/453/124 213/456/126 212/455/124
f 215/458/127 214/457/127 210/460/127 211/459/127
f 216/461/128 219/464/128 218/463/128 217/462/129
f 221/466/130 220/465/130 216/468/130 217/467/130
f 223/472/132 222/471/133 212/470/132 213/469/131
f 227/476/135 226/475/136 225/474/135 224/473/134
f 229/480/139 228/479/138 193/477/137 209/478/138
f 231/482/107 230/481/107 169/393/107 170/394/107
f 183/408/108 232/483/108 233/484/108 185/410/108
f 230/488/140 234/487/140 205/486/140 169/485/140
f 238/492/141 237/491/141 236/490/141 235/489/141
f 240/494/107 239/493/107 230/481/107 231/482/107
f 242/496/107 241/495/107 239/493/107 240/494/107
f 246/500/108 245/499/108 244/498/108 243/497/108
f 245/499/108 233/484/108 232/483/108 244/498/108
f 239/502/140 247/501/140 234/487/140 230/488/140
f 239/502/142 241/504/142 248/503/142 247/501/142
f 249/505/143 252/508/143 251/507/143 250/506/143
f 256/512/144 255/511/144 254/510/144 253/509/144
f 253/515/108 254/516/108 258/514/108 257/513/108
f 254/519/145 255/520/145 259/518/145 258/517/145
f 256/523/146 253/524/146 257/522/146 260/521/146
f 255/525/107 256/526/107 260/494/107 259/482/107
f 261/527/108 262/528/108 245/499/108 246/500/108
f 264/531/107 265/532/107 263/530/107 257/529/107
f 266/535/107 267/536/107 258/534/107 219/533/107
f 268/537/108 269/538/108 185/410/108 233/484/108
f 250/541/147 251/542/147 260/540/147 257/539/147
f 249/544/108 250/545/108 257/513/108 263/543/108
f 251/546/107 252/547/107 270/496/107 260/494/107
f 252/550/148 249/551/148 263/549/148 270/548/148
f 235/552/107 236/553/107 259/482/107 218/394/107
f 238/556/149 235/557/149 218/555/149 219/554/149
f 236/560/150 237/561/150 258/559/150 259/558/150
f 237/563/108 238/564/108 219/562/108 258/514/108
f 271/565/107 241/495/107 242/496/107 272/566/107
f 273/567/108 274/568/108 246/500/108 243/497/108
f 275/572/151 248/571/151 241/570/151 271/569/151
f 276/573/152 277/576/152 270/575/152 263/574/152
f 171/395/107 279/578/107 278/577/107 173/397/107
f 279/578/107 271/565/107 272/566/107 278/577/107
f 182/407/108 281/580/108 280/579/108 181/405/108
f 281/580/108 274/568/108 273/567/108 280/579/108
f 282/583/151 279/582/151 171/581/151 203/584/151
f 214/587/152 215/586/152 283/585/152 284/588/152
f 285/589/154 213/456/153 210/453/154 286/590/155
f 179/591/157 285/589/156 286/590/157 180/592/158
f 180/593/159 286/596/159 287/595/160 182/594/159
f 286/596/159 210/460/159 214/457/160 287/595/159
f 288/597/162 219/464/162 216/461/161 289/598/162
f 185/599/162 288/597/162 289/598/161 186/600/162
f 289/601/163 216/468/163 220/465/163 290/602/163
f 186/603/163 289/601/163 290/602/163 188/604/163
f 192/608/166 291/607/164 285/606/165 179/605/164
f 223/472/167 213/469/168 285/606/167 291/607/169
f 292/609/172 291/607/171 192/608/170 197/610/171
f 224/473/175 223/472/174 291/607/173 292/609/174
f 293/611/178 292/609/177 197/610/176 199/612/177
f 292/609/179 293/611/180 227/476/181 224/473/180
f 295/616/182 294/615/183 267/614/182 266/613/182
f 269/618/184 268/617/185 294/615/184 295/616/182
f 245/622/187 297/621/186 296/620/186 233/619/186
f 297/621/187 257/624/186 258/623/186 296/620/186
f 299/627/186 298/626/186 262/625/187 261/628/186
f 265/630/186 264/629/186 298/626/187 299/627/186
f 262/634/188 298/633/188 297/632/188 245/631/188
f 298/633/188 264/636/188 257/635/188 297/632/188
f 300/638/189 263/637/189 265/640/189 299/639/189
f 246/641/189 300/638/189 299/639/189 261/642/189
f 269/646/190 295/645/190 288/644/190 185/643/190
f 295/645/190 266/648/190 219/647/190 288/644/190
f 296/650/191 258/649/191 267/652/191 294/651/191
f 233/653/191 296/650/191 294/651/191 268/654/191
f 274/658/194 301/657/192 300/656/193 246/655/192
f 301/657/197 276/573/195 263/574/196 300/656/195
f 281/660/194 302/659/194 301/657/194 274/658/194
f 182/662/198 287/661/199 302/659/198 281/660/194
f 287/661/201 214/587/196 284/588/201 302/659/200
f 304/664/114 303/663/114 201/432/114 202/433/114
f 177/666/114 178/665/114 303/663/114 304/664/114
f 305/667/203 203/436/202 201/437/115 303/668/202
f 181/669/205 305/667/204 303/668/206 178/670/204
f 205/441/116 307/672/116 306/671/116 204/440/116
f 307/672/116 183/674/116 184/673/116 306/671/116
f 306/676/117 308/675/117 206/444/117 204/445/117
f 184/678/117 187/677/117 308/675/117 306/676/117
f 191/679/207 177/682/208 304/681/209 309/680/208
f 207/446/211 309/680/210 304/681/211 202/449/120
f 198/686/212 311/685/212 310/684/212 200/683/212
f 310/684/212 311/685/212 209/452/212 208/450/212
f 309/680/215 311/685/214 198/686/213 191/679/214
f 207/446/218 209/452/217 311/685/216 309/680/217
f 234/487/140 312/688/140 307/687/140 205/486/140
f 312/688/140 232/690/140 183/689/140 307/687/140
f 247/501/140 313/691/140 312/688/140 234/487/140
f 313/691/140 244/692/140 232/690/140 312/688/140
f 244/692/219 313/691/221 314/694/219 243/693/220
f 313/691/223 247/501/142 248/503/223 314/694/222
f 243/698/151 314/697/151 315/696/151 273/695/151
f 314/697/151 248/571/151 275/572/151 315/696/151
f 280/702/151 316/701/151 305/700/151 181/699/151
f 316/701/151 282/583/151 203/584/151 305/700/151
f 273/695/151 315/696/151 316/701/151 280/702/151
f 317/705/225 318/706/226 276/704/225 301/703/224
f 319/709/227 317/710/227 301/708/227 302/707/227
f 320/713/228 321/714/228 283/712/228 277/711/228
f 322/717/230 319/718/231 302/716/230 284/715/229
f 318/721/233 320/722/234 277/720/233 276/719/232
f 321/725/236 322/726/237 284/724/236 283/723/235
f 324/728/107 167/391/107 165/389/107 323/727/107
f 325/729/108 187/412/108 188/413/108 326/730/108
f 165/733/116 206/732/116 327/731/116 323/734/116
f 329/738/239 220/737/240 221/736/239 328/735/238
f 330/740/241 290/739/241 220/737/241 329/738/241
f 326/742/241 188/741/241 290/739/241 330/740/241
f 206/732/116 308/744/116 331/743/116 327/731/116
f 308/744/116 187/746/116 325/745/116 331/743/116
f 196/425/107 333/748/107 332/747/107 195/424/107
f 333/748/107 324/728/107 323/727/107 332/747/107
f 200/424/108 335/751/108 334/750/108 199/749/108
f 335/751/108 325/729/108 326/730/108 334/750/108
f 208/450/242 195/424/242 332/753/242 336/752/242
f 323/734/242 327/731/242 336/752/242 332/753/242
f 227/757/244 338/756/245 337/755/244 226/754/243
f 342/761/247 341/760/248 340/759/247 339/758/246
f 293/763/249 343/762/249 338/756/249 227/757/249
f 345/767/250 344/766/250 341/765/250 342/764/250
f 199/769/249 334/768/249 343/762/249 293/763/249
f 334/768/249 326/742/249 330/740/249 343/762/249
f 310/684/242 208/450/242 336/752/242 346/770/242
f 346/770/242 336/752/242 327/731/242 331/743/242
f 310/684/242 346/770/242 335/771/242 200/683/242
f 346/770/242 331/743/242 325/745/242 335/771/242
f 339/774/108 340/775/108 328/773/108 337/772/108
f 342/778/251 339/779/251 337/777/251 338/776/251
f 340/782/252 341/783/252 329/781/252 328/780/252
f 345/786/253 342/787/253 338/785/253 343/784/253
f 341/790/254 344/791/254 330/789/254 329/788/254
f 344/794/107 345/795/107 343/793/107 330/792/107

g PolyShape (8)
v 855.6651 223.0016 1319.86
v 842.1555 223.0016 1320.285
v 842.3218 223.0016 1307.37
v 855.5987 223.0016 1307.541
v 842.3218 96.99843 1307.37
v 855.5987 96.99843 1307.541
v 855.6651 96.99843 1319.86
v 842.1555 96.99843 1320.285
v 855.5987 214.6144 1307.541
v 842.3219 214.6144 1307.37
v 855.6651 214.6144 1319.86
v 842.1555 214.6144 1320.285
v 632.9183 223.0016 1318.031
v 619.4088 223.0016 1318.456
v 619.5751 223.0016 1305.541
v 632.8519 223.0016 1305.712
v 619.5751 96.99843 1305.541
v 632.8519 96.99843 1305.712
v 632.9183 96.99843 1318.031
v 619.4088 96.99843 1318.456
v 632.8519 214.6144 1305.712
v 619.5751 214.6144 1305.541
v 632.9183 214.6144 1318.031
v 841.9894 214.6144 1320.725
v 841.9894 223.0016 1320.725
v 841.923 223.0016 1308.406
v 841.923 214.6144 1308.406
v 619.4088 214.6144 1318.456

vt 0 0
vt 49.81329 1.661133
vt 49.81329 -34.13428
vt 0.8303223 -34.13428
vt -49.81329 -34.13428
vt -0.8303223 -34.13428
vt -49.81329 1.661133
vt 49.81329 0
vt 0.8303223 0
vt 0.8303223 82.3964
vt 49.81323 82.3964
vt 0.8303223 88.27208
vt 49.81329 88.27208
vt 34.14437 0
vt 0 82.3964
vt 34.14437 82.3964
vt 0 88.27208
vt 34.14437 88.27208
vt -49.84098 1.705303E-13
vt -49.84092 82.3964
vt -49.84098 88.27208
vt 1.661133 0.0002402747
vt -34.13428 0.0002402747
vt -34.13428 82.39664
vt 1.661133 82.39664
vt -34.13428 88.27232
vt 1.661133 88.27232
vt 871.5546 0
vt 822.5718 0
vt 822.5718 82.3964
vt 871.5546 82.3964
vt 822.5718 88.27207
vt 871.5546 88.27207
vt 51.24394 0
vt 17.09946 0
vt 17.09946 82.3964
vt 51.24394 82.3964
vt -18.75735 82.39639
vt -18.75735 88.27206
vt 15.38703 88.27206
vt 15.38703 82.39639
vt -821.3811 3.814697E-06
vt -871.222 3.814697E-06
vt -871.222 82.39639
vt -821.3811 82.39639
vt -871.222 88.27207
vt -821.3811 88.27207
vt 4.545974 0.002101898
vt -31.24942 0.002101898
vt -31.24942 82.39851
vt 4.545974 82.39851
vt -31.24942 88.27418
vt 4.545973 88.27418
vt -771.3367 0
vt -770.5063 -34.13428
vt -770.5063 88.27207
vt -770.5063 82.39639
vt 770.5063 -34.13441
vt 771.3367 1.907349E-06
vt 771.3367 82.39639
vt 771.3367 88.27207

vn 0 1.427441 0
vn 0 -1.427441 0
vn 0.004648549 0 -0.3608126
vn 0.2710833 0 -0.005283176
vn 0.004387784 -1.856314E-08 0.3607286
vn -0.2710504 1.057377E-06 -0.003492092
vn -0.004648549 0 0.3608126

usemtl ProBuilderDefault
f 348/797/255 347/796/255 350/799/255 349/798/255
f 351/800/256 352/801/256 353/796/256 354/802/256
f 351/803/257 356/806/257 355/805/257 352/804/257
f 356/806/257 349/808/257 350/807/257 355/805/257
f 353/796/258 352/809/258 355/811/258 357/810/258
f 357/810/258 355/811/258 350/813/258 347/812/258
f 357/810/259 358/815/259 354/814/259 353/796/259
f 347/812/259 348/816/259 358/815/259 357/810/259
f 358/820/260 356/819/260 351/818/260 354/817/260
f 348/822/260 349/821/260 356/819/260 358/820/260
f 360/797/255 359/796/255 362/799/255 361/798/255
f 363/800/256 364/801/256 365/796/256 366/802/256
f 363/823/257 368/826/257 367/825/257 364/824/257
f 368/826/257 361/828/257 362/827/257 367/825/257
f 365/830/258 364/829/258 367/832/258 369/831/258
f 370/833/258 373/836/258 372/835/258 371/834/258
f 369/840/259 374/839/259 366/838/259 365/837/259
f 359/842/259 360/841/259 374/839/259 369/840/259
f 374/846/260 368/845/260 363/844/260 366/843/260
f 360/848/260 361/847/260 368/845/260 374/846/260
f 371/849/255 372/850/255 362/799/255 359/796/255
f 372/851/257 373/852/257 367/805/257 362/807/257
f 373/853/256 370/854/256 369/796/256 367/801/256
f 370/855/261 371/856/261 359/812/261 369/810/261

g PolyShape (9)
v 1352.5 99.75839 2945.5
v 1353.5 99.75843 1941.5
v 1286.109 99.75839 2897.323
v 1286.977 99.75843 1990.962
v 1049.5 99.75839 2944.5
v 1012.398 99.75839 2896.394
v 351.5 99.75839 1947.5
v 350.5 99.75839 2940.5
v 417.8905 99.75839 1996.539
v 417.0231 99.75839 2892.677
v 750.5 99.75839 2941.5
v 786 99.75839 2893.606
v 750.5 99.75839 3342.5
v 786 99.75839 3293.038
v 1055.5 99.75839 3339.5
v 1017.602 99.75839 3290.25
v 1049.5 244.8512 2944.5
v 1055.5 244.8512 3339.5
v 1012.398 244.8512 2896.394
v 1017.602 244.8512 3290.25
v 750.5 244.8512 3342.5
v 750.5 244.8512 2941.5
v 786 244.8512 3293.038
v 786 244.8512 2893.606
v 350.5 244.8512 2940.5
v 351.5 244.8512 1947.5
v 417.0231 244.8512 2892.677
v 417.8905 244.8512 1996.539
v 1353.5 244.8513 1941.5
v 1352.5 244.8512 2945.5
v 1286.977 244.8513 1990.962
v 1286.109 244.8512 2897.323
v 839.5995 99.75839 3341
v 838.4005 99.75839 3291.644
v 839.5995 244.8512 3341
v 838.4005 244.8512 3291.644
v 959.7251 99.75839 3290.947
v 964.2748 99.75839 3340.25
v 962.7251 244.8512 3290.947
v 964.2748 244.8512 3340.25
v 1055.5 205 3339.5
v 1049.5 205 2944.5
v 750.5 205 2941.5
v 750.5 205 3342.5
v 351.5 205 1947.5
v 350.5 205 2940.5
v 1352.5 205 2945.5
v 1353.5 205 1941.5
v 839.5995 205 3341
v 964.2748 205 3340.25
v 1017.602 205 3290.25
v 1012.398 205 2896.394
v 1017.602 99.14874 3290.25
v 1012.398 99.14874 2896.394
v 786 205 2893.606
v 786 205 3293.038
v 786 99.14874 2893.606
v 786 99.14874 3293.038
v 417.8905 205 1996.539
v 417.0231 205 2892.677
v 417.8905 99.14874 1996.539
v 417.0231 99.14874 2892.677
v 1286.109 205 2897.323
v 1286.977 205 1990.962
v 1286.109 99.14874 2897.323
v 1286.977 99.14878 1990.962
v 838.4005 99.14874 3291.644
v 838.4005 205 3291.644
v 961.7251 205 3290.947
v 960.7251 99.14874 3290.947
v 960.7251 99.14874 3336.651
v 961.7251 205 3336.651
v 838.4005 205 3337.348
v 838.4005 99.14874 3337.348
v 929.0332 99.75841 1944.5
v 928.9669 99.75841 1993.75
v 929.0332 244.8512 1944.5
v 928.9669 244.8512 1993.75
v 929.0332 205 1944.5
v 928.9669 205 1993.75
v 928.9669 99.14876 1993.75
v 806 99.7584 1995.145
v 801.4189 99.7584 1946
v 801.4189 244.8512 1946
v 804 244.8512 1995.145
v 801.4189 205 1946
v 804 205 1995.145
v 804 99.14875 1995.145
v 928.9669 99.14876 1946.303
v 804 99.14875 1947.697
v 928.9669 205 1946.303
v 804 205 1947.697

vt 602 -397
vt 603 -1401
vt 535.6095 -445.1765
vt 536.4769 -1351.538
vt 299 -398
vt 261.8979 -446.106
vt -399 -1395
vt -400 -402
vt -332.6095 -1345.961
vt -333.4769 -449.8235
vt 0 -401
vt 35.5 -448.8943
vt 0 0
vt 35.5 -49.46216
vt 305 -3
vt 267.1021 -52.25024
vt -299 -398
vt -305 -2.999994
vt -261.8979 -446.106
vt -267.1021 -52.25024
vt -35.5 -49.46216
vt -35.5 -448.8943
vt 400 -402
vt 399 -1395
vt 333.4769 -449.8235
vt 332.6095 -1345.961
vt -603 -1401
vt -602 -397
vt -536.4769 -1351.538
vt -535.6095 -445.1765
vt 89.09949 -1.5
vt 87.90051 -50.8562
vt -89.09949 -1.5
vt -87.90051 -50.8562
vt 209.2251 -51.55322
vt 213.7748 -2.25
vt -212.2251 -51.55322
vt -213.7748 -2.25
vt 393.4128 0
vt -1.632723 0
vt -1.632723 172.6309
vt 393.4128 172.6309
vt -1.632729 238
vt 393.4128 238
vt -401 0
vt -401 172.6309
vt 0 172.6309
vt -401 238
vt 6.020262E-06 238
vt -401.597 0
vt -1394.598 0
vt -1394.598 172.6309
vt -401.597 172.6309
vt -1394.598 238
vt -401.597 238
vt -1.002497 0
vt -401.0038 0
vt -401.0038 172.6309
vt -1.002497 172.6309
vt -401.0038 238
vt -1.002504 238
vt 1401.6 6.103516E-05
vt 397.5994 0
vt 397.5994 172.6309
vt 1401.6 172.6309
vt 397.5994 238
vt 1401.6 238.0001
vt 600.6865 0
vt 297.6848 0
vt 297.6848 172.6309
vt 600.6865 172.6309
vt 297.6848 238
vt 600.6865 238
vt 89.11072 0
vt 89.11072 172.6309
vt 89.11072 238
vt 305.0145 0
vt 213.7866 0
vt 213.7866 172.6309
vt 305.0145 172.6309
vt 213.7866 238
vt 305.0145 238
vt -442.6068 238
vt -48.71672 238
vt -48.71672 172.6309
vt -442.6068 172.6309
vt -48.71672 -1.000031
vt -442.6068 -1.000031
vt 49.46216 238
vt 448.8943 238
vt 448.8943 172.6309
vt 49.46216 172.6309
vt 448.8943 -1.000031
vt 49.46216 -1.000031
vt 449.5005 238
vt 1345.639 238
vt 1345.639 172.6309
vt 449.5005 172.6309
vt 1345.639 -1.000031
vt 449.5005 -1.000031
vt -34.36944 238
vt 334.6086 238
vt 334.6086 172.6309
vt -34.36944 172.6309
vt 334.6086 -1.000031
vt -34.36944 -1.000031
vt -1352.051 238.0001
vt -445.6889 238
vt -445.6889 172.6309
vt -1352.051 172.6309
vt -445.6889 -1.000031
vt -1352.051 -0.9999695
vt -534.0948 238
vt -260.3816 238
vt -260.3816 172.6309
vt -534.0948 172.6309
vt -260.3816 -1.000031
vt -534.0948 -1.000031
vt -88.7378 -1.003459
vt -88.7378 172.6274
vt -36.32131 172.6275
vt -36.32131 -1.003423
vt -88.7378 237.9966
vt -36.32131 237.9966
vt -267.9376 -1.003348
vt -267.9376 172.6275
vt -212.0568 172.6275
vt -211.057 -1.003366
vt -267.9376 237.9967
vt -213.0567 237.9967
vt -51.55322 0.2107246
vt -51.55322 173.8445
vt -5.848633 0.2107246
vt -5.848633 173.8445
vt 211.2251 -51.55322
vt 211.2251 -5.848633
vt 87.90051 -5.151611
vt 50.8562 172.6309
vt 50.8562 -1.000031
vt 5.151611 172.6309
vt 5.151611 -1.000031
vt -210.2251 -51.55322
vt -87.90051 -5.151611
vt -210.2251 -5.848633
vt 178.5332 -1398
vt 178.4669 -1348.75
vt -178.5332 -1398
vt -178.4669 -1348.75
vt -612.1095 6.103516E-05
vt -612.1095 172.6309
vt -187.6322 172.6309
vt -187.6322 3.051758E-05
vt -612.1095 238.0001
vt -187.6322 238
vt 545.642 172.6309
vt 187.6214 172.6309
vt 187.6214 238
vt 545.642 238.0001
vt 545.642 -0.9999735
vt 187.6214 -1.000004
vt 55.5 -1347.355
vt 50.91895 -1396.5
vt 332.6095 -1345.961
vt 399 -1395
vt -50.91897 -1396.5
vt -53.50003 -1347.355
vt -60.01086 172.6309
vt 389.9083 172.6309
vt 389.9083 0
vt -60.01086 1.525879E-05
vt -60.01086 238
vt 389.9083 238
vt 62.64793 172.6309
vt 62.64793 238
vt -323.4621 172.6309
vt -323.4621 238
vt 62.64793 -1.000019
vt -323.4621 -1.000035
vt -178.4669 -1396.197
vt -53.5 -1394.803
vt -1348.75 172.6308
vt -1348.75 -1.000063
vt -1396.197 172.6308
vt -1396.197 -1.000063
vt 1347.355 -1.000015
vt 1347.355 172.6309
vt 1394.803 -1.000015
vt 1394.803 172.6309
vt 53.5 -1347.355
vt 53.5 -1394.803
vt 178.4669 -1396.197

vn 4.408207E-08 -0.6096337 -6.074808E-08
vn 0 0.6096337 0
vn 0.9998847 0 -0.01518812
vn -1 0 0
vn -0.9999995 0 -0.001007049
vn -0.002499992 0 0.9999969
vn 0.9999995 0 0.0009960155
vn -0.003300312 0 0.9999946
vn 0.01683273 0 0.9998583
vn 0.008221138 0 0.9999662
vn 0.006015515 0 0.9999819
vn -0.9999127 0 0.01321207
vn 1 0 0
vn 0.002518305 0 -0.9999968
vn 0.003395684 0 -0.9999943
vn -0.0265942 0 -0.9996464
vn -0.01236362 2.151242E-05 -0.9999236
vn -0.01258688 5.816288E-05 -0.9999208
vn -0.005606377 5.228518E-05 -0.9999843
vn -0.9999834 0.003511032 0
vn -0.007067515 0 -0.999975
vn 0.007787838 -3.806369E-09 0.9999697
vn -0.003333915 0 -0.9999945
vn 0.01115558 -3.174959E-09 0.9999378
vn 0.003610462 0 0.9999935

usemtl ProBuilderDefault
f 377/859/262 378/860/262 376/858/262 375/857/262
f 380/862/262 377/859/262 375/857/262 379/861/262
f 383/865/262 384/866/262 382/864/262 381/863/262
f 384/866/262 386/868/262 385/867/262 382/864/262
f 386/868/262 388/870/262 387/869/262 385/867/262
f 390/872/262 380/862/262 379/861/262 389/871/262
f 393/875/263 394/876/263 392/874/263 391/873/263
f 397/877/263 398/878/263 396/867/263 395/869/263
f 401/881/263 402/882/263 400/880/263 399/879/263
f 398/878/263 401/881/263 399/879/263 396/867/263
f 405/885/263 406/886/263 404/884/263 403/883/263
f 406/886/263 393/875/263 391/873/263 404/884/263
f 388/870/262 408/888/262 407/887/262 387/869/262
f 395/869/263 409/889/263 410/890/263 397/877/263
f 412/892/262 411/891/262 390/872/262 389/871/262
f 407/887/262 408/888/262 411/891/262 412/892/262
f 409/889/263 414/894/263 413/893/263 410/890/263
f 414/894/263 392/874/263 394/876/263 413/893/263
f 379/895/264 416/898/264 415/897/264 389/896/264
f 416/898/264 391/900/264 392/899/264 415/897/264
f 418/903/265 417/902/265 385/901/265 387/869/265
f 395/905/265 396/904/265 417/902/265 418/903/265
f 420/909/266 419/908/266 381/907/266 382/906/266
f 399/911/266 400/910/266 419/908/266 420/909/266
f 420/914/267 382/913/267 385/912/267 417/915/267
f 399/916/267 420/914/267 417/915/267 396/917/267
f 421/920/268 375/919/268 376/918/268 422/921/268
f 404/922/268 421/920/268 422/921/268 403/923/268
f 421/927/269 416/926/269 379/925/269 375/924/269
f 404/929/269 391/928/269 416/926/269 421/927/269
f 423/931/270 418/903/270 387/869/270 407/930/270
f 395/905/270 418/903/270 423/931/270 409/932/270
f 415/936/271 424/935/271 412/934/271 389/933/271
f 392/938/271 414/937/271 424/935/271 415/936/271
f 414/937/272 409/932/272 423/931/272 424/935/272
f 394/940/273 393/939/273 426/942/273 425/941/273
f 425/941/273 426/942/273 428/944/273 427/943/273
f 429/947/274 398/946/274 397/945/274 430/948/274
f 431/949/274 429/947/274 430/948/274 432/950/274
f 433/953/268 402/952/268 401/951/268 434/954/268
f 435/955/268 433/953/268 434/954/268 436/956/268
f 434/959/275 401/958/275 398/957/275 429/960/275
f 436/961/275 434/959/275 429/960/275 431/962/275
f 405/963/266 438/966/266 437/965/266 406/964/266
f 438/966/266 440/968/266 439/967/266 437/965/266
f 426/971/276 393/970/276 406/969/276 437/972/276
f 428/973/276 426/971/276 437/972/276 439/974/276
f 441/975/277 432/978/277 430/977/277 442/976/277
f 442/976/277 430/977/277 397/980/277 410/979/277
f 425/982/278 427/981/278 444/984/278 443/983/278
f 394/985/279 425/982/279 443/983/278 413/986/279
f 442/976/280 410/979/280 413/986/280 443/983/280
f 445/989/281 446/990/281 443/988/281 444/987/281
f 446/992/262 447/993/262 442/888/262 443/991/262
f 447/996/274 448/997/274 441/995/274 442/994/274
f 448/999/263 445/1000/263 444/998/263 441/890/263
f 450/1002/262 449/1001/262 376/858/262 378/860/262
f 405/885/263 403/883/263 451/1003/263 452/1004/263
f 449/1008/282 453/1007/282 422/1006/282 376/1005/282
f 453/1007/282 451/1010/282 403/1009/282 422/1006/282
f 452/1013/283 454/1012/283 438/1011/283 405/1014/283
f 438/1011/283 454/1012/283 455/1016/283 440/1015/283
f 383/865/262 381/863/262 457/1018/262 456/1017/262
f 457/1018/262 449/1001/262 450/1002/262 456/1017/262
f 402/1019/263 459/1022/263 458/1021/263 400/1020/263
f 452/1004/263 451/1003/263 458/1021/263 459/1022/263
f 381/1025/284 419/1024/284 460/1023/284 457/1026/284
f 460/1023/278 458/1027/278 451/1010/278 453/1007/278
f 419/1024/284 400/1028/284 458/1027/284 460/1023/284
f 459/1030/285 461/1029/285 454/1012/285 452/1013/285
f 459/1030/286 402/1032/286 433/1031/286 461/1029/286
f 433/1031/286 435/1034/286 462/1033/286 461/1029/286
f 463/1035/263 464/1036/263 462/1022/263 455/1004/263
f 465/1039/265 463/1040/265 455/1038/265 454/1037/265
f 464/1043/274 466/1044/274 461/1042/274 462/1041/274
f 466/1046/262 465/1047/262 454/1002/262 461/1045/262

g PolyShape (4)
v 989.8653 250.5545 1154.911
v 1022.143 250.5545 1156.038
v 1018.807 250.5545 1458.865
v 985.7325 250.5545 1455.803
v 985.7325 101 1455.803
v 989.8653 101 1154.911
v 1022.143 101 1156.038
v 1018.807 101 1458.865

vt 0 0
vt -96.5647 0.7115479
vt -98.25452 303.5564
vt 0.7662964 300.9209
vt -0.7662964 300.9209
vt 96.5647 0.7115479
vt 98.25452 303.5564
vt 300.9219 0
vt 300.9219 235.3516
vt 0 235.3516
vt -96.56732 0
vt -96.56732 235.3516
vt -1.250342 0
vt -304.0999 0
vt -1.250342 235.3516
vt -304.0999 235.3516
vt 106.2962 0
vt 7.240329 0
vt 106.2962 235.3516
vt 7.240329 235.3516

vn 0 0.6354513 0
vn 0 -0.6354513 0
vn -0.3343199 0 -0.006853936
vn 0.01534579 0 -0.9998581
vn 0.3344204 0 -0.001271671
vn -0.0217738 0 0.9994484

usemtl ProBuilderDefault
f 469/1050/287 468/1049/287 467/1048/287 470/1051/287
f 471/1052/288 472/1048/288 473/1053/288 474/1054/288
f 470/1056/289 467/1057/289 472/1048/289 471/1055/289
f 467/1057/290 468/1059/290 473/1058/290 472/1048/290
f 468/1062/291 469/1063/291 474/1061/291 473/1060/291
f 469/1066/292 470/1067/292 471/1065/292 474/1064/292

g PolyShape (1)
v 951.5505 98.575 1965.652
v 958.1332 98.575 1675.515
v 941.2986 98.575 1947.821
v 947.3961 98.575 1672.19
v 790.632 98.575 1674.606
v 784.5975 98.575 1962.537
v 796.6398 98.575 1671.352
v 791.0373 98.575 1944.886
v 1212.725 98.57494 1678.745
v 1176.536 98.57494 1671.931
v 489.0568 98.575 1674.77
v 525.2128 98.575 1668.368
v 492.9477 98.575 827.2532
v 528.9643 98.575 863.2273
v 790.632 245.2581 1674.606
v 489.0568 245.2581 1674.77
v 813.8393 245.2581 1663.234
v 515.2125 245.2581 1651.799
v 492.9477 245.2581 827.2532
v 518.9272 245.2581 852.9067
v 1212.725 245.2581 1678.745
v 958.1332 245.2581 1675.515
v 1188.431 245.2581 1655.491
v 933.8807 245.2581 1663.984
v 784.57 245.2581 1964.85
v 808.0294 245.2581 1954.194
v 951.5505 245.2581 1965.652
v 927.607 245.2581 1954.434
v 1214.801 98.57494 1276.252
v 1178.516 98.57494 1290.736
v 1214.801 245.2581 1276.252
v 1190.393 245.2581 1277.42
v 1215.077 98.57494 1204.322
v 1178.745 98.57494 1229.454
v 1217.152 98.57494 826.8511
v 1180.772 98.57494 862.6321
v 1217.152 245.2581 826.8511
v 1215.077 245.2581 1204.322
v 1190.612 245.2581 1217.7
v 1192.631 245.2581 852.4404
v 928.0046 98.575 1964.269
v 926.0991 98.575 1946.528
v 927.9907 245.2581 1965.425
v 927.749 245.2581 1954.489
v 795.0103 98.575 1963.225
v 797.2772 98.575 1945.529
v 794.9896 245.2581 1964.959
v 806.5983 245.2581 1954.163
v 806.5983 96.43977 1954.163
v 927.749 96.43977 1954.489
v 806.468 96.43977 1965.115
v 927.6185 96.43977 1965.441
v 927.6185 245.2581 1965.441
v 806.468 245.2581 1965.115
v 489.0568 216.0286 1674.77
v 790.6321 216.0286 1674.606
v 492.9477 216.0286 827.2529
v 958.1332 216.0286 1675.515
v 1212.725 216.0286 1678.744
v 784.5839 216.0286 1963.693
v 951.5505 216.0286 1965.652
v 515.2125 214.961 1651.799
v 813.8394 214.961 1663.234
v 518.9272 214.961 852.9063
v 933.8807 214.961 1663.984
v 1188.432 214.961 1655.491
v 808.0294 214.961 1954.194
v 927.607 214.961 1954.434
v 1214.801 216.0286 1276.252
v 1190.393 214.961 1277.42
v 1215.077 216.0286 1204.322
v 1217.153 216.0286 826.8507
v 1190.613 214.961 1217.7
v 1192.631 214.961 852.4402
v 927.9977 216.0286 1964.847
v 927.749 214.961 1954.489
v 795.0001 216.0286 1964.092
v 806.5983 214.961 1954.162
v 927.6185 214.961 1965.441
v 806.468 214.961 1965.115
v 618.1089 98.57498 862.1272
v 600.1916 98.57498 826.2015
v 613.5458 245.2581 851.8389
v 600.1916 245.2581 826.2015
v 600.1916 216.0286 826.2013
v 613.5458 214.961 851.8385
v 622.0101 98.57498 861.615
v 608.6174 98.57498 825.7014
v 673.763 98.57497 861.7203
v 664.8951 98.57497 825.8186
v 664.8951 245.2581 825.8186
v 671.9366 245.2581 851.4482
v 618.8153 245.2581 851.335
v 608.6174 245.2581 825.7014
v 608.6176 216.0286 825.7013
v 664.8953 216.0286 825.8184
v 671.9368 214.961 851.4478
v 618.8154 214.961 851.3347
v 671.6561 214.961 873.2374
v 618.5348 214.961 873.1241
v 613.2651 214.961 873.6282
v 613.2651 96.43977 873.6285
v 618.5346 96.43976 873.1248
v 618.8153 96.43976 851.335
v 613.5458 96.43977 851.8389
v 671.656 96.43976 873.2378
v 671.9366 96.43976 851.4482
v 726.059 98.57497 861.8317
v 721.7159 98.57497 825.9419
v 729.417 98.57497 861.3132
v 729.5988 98.57497 825.4355
v 729.5988 245.2581 825.4355
v 730.3276 245.2581 851.0574
v 725.6011 245.2581 851.5677
v 721.7159 245.2581 825.9419
v 721.716 216.0286 825.9418
v 729.5989 216.0286 825.4354
v 730.3278 214.961 851.057
v 725.6013 214.961 851.5673
v 730.0471 214.961 872.8468
v 725.3206 214.961 873.3571
v 725.3205 96.43975 873.3574
v 725.6011 96.43975 851.5677
v 730.0469 96.43975 872.8472
v 730.3276 96.43975 851.0574
v 813.8394 207.1528 1663.234
v 515.2125 207.1528 1651.799
v 518.9272 207.1528 852.9063
v 1188.432 207.1527 1655.491
v 933.8807 207.1528 1663.984
v 808.0294 207.1528 1954.194
v 927.607 207.1528 1954.434
v 1190.393 207.1527 1277.42
v 1190.613 207.1527 1217.7
v 1192.631 207.1527 852.4402
v 927.749 207.1528 1954.489
v 806.5983 207.1528 1954.162
v 927.6185 207.1528 1965.441
v 806.468 207.1528 1965.115
v 613.5458 207.1528 851.8383
v 730.3278 207.1528 851.057
v 730.047 207.1528 872.8466
v 613.2651 207.1528 873.6282
v 618.5346 207.1528 873.1241
v 671.656 207.1528 873.2375
v 725.3206 207.1528 873.3568
v 671.6212 207.1528 875.9384
v 725.2858 207.1528 876.0575
v 618.4998 207.1528 875.8248
v 725.2858 96.43975 876.0581
v 671.6212 96.43976 875.9387
v 618.4998 96.43976 875.8256
v 515.2125 96.43977 1651.799
v 813.8393 96.43977 1663.234
v 813.8394 167.0484 1663.234
v 515.2125 167.0484 1651.799
v 518.9272 167.0484 852.9063
v 518.9272 96.43977 852.9067
v 933.8807 96.43977 1663.984
v 1188.431 96.43972 1655.491
v 1188.432 167.0483 1655.491
v 933.8807 167.0484 1663.984
v 808.0294 167.0484 1954.194
v 808.0294 96.43977 1954.194
v 927.607 167.0484 1954.434
v 927.607 96.43977 1954.434
v 1163.81 207.1527 1655.174
v 1163.81 167.0483 1655.174
v 1165.772 167.0483 1277.103
v 1165.772 207.1527 1277.103
v 1190.393 96.43972 1277.42
v 1190.393 167.0483 1277.42
v 1190.613 167.0483 1217.7
v 1190.612 96.43972 1217.7
v 1192.631 96.43972 852.4404
v 1192.631 167.0483 852.4402
v 1168.01 167.0483 852.1227
v 1168.01 207.1527 852.1227
v 1165.991 207.1527 1217.383
v 1165.991 167.0483 1217.383
v 927.749 167.0484 1954.489
v 806.5983 167.0484 1954.162
v 927.6185 167.0484 1965.441
v 806.468 167.0484 1965.115
v 613.5458 167.0483 851.8383
v 730.3278 167.0483 851.057
v 730.0469 167.0483 872.8466
v 613.2651 167.0483 873.6282
v 618.5345 167.0483 873.1241
v 671.6212 167.0483 875.9384
v 618.4998 167.0483 875.8248
v 725.2858 167.0483 876.0575
v 725.3205 167.0483 873.3568
v 839.1179 98.57496 860.4783
v 857.3989 98.57496 824.6489
v 845.5024 245.2581 850.2546
v 857.3989 245.2581 824.6489
v 857.399 216.0286 824.6488
v 845.5026 214.961 850.2544
v 845.5026 207.1528 850.2544
v 845.5026 167.0483 850.2544
v 845.5024 96.43974 850.2546
v 1069.576 98.57495 862.3231
v 1096.907 98.57495 826.5179
v 1078.698 245.2581 852.1154
v 1096.907 245.2581 826.5179
v 1096.907 216.0286 826.5176
v 1078.698 214.961 852.115
v 1078.698 207.1528 852.115
v 1078.698 167.0483 852.115
v 1078.698 96.43973 852.1154
v 1078.335 96.43973 880.2539
v 845.1401 96.43974 878.3934
v 845.1402 167.0483 878.3932
v 1078.336 167.0483 880.2534

vt -693.6992 -389.9896
vt -1378.603 -401.4943
vt -735.6428 -365.5442
vt -1386.301 -376.1052
vt -1378.42 -6.126953
vt -698.7302 4.114502
vt -1386.185 -20.26208
vt -740.4805 -10.84009
vt -1374.519 -1002.454
vt -1390.098 -916.9434
vt -1373.841 705.6816
vt -1389.455 620.4312
vt -3374.298 708.2773
vt -3289.888 622.7671
vt 1378.42 -6.126953
vt 1373.841 705.6816
vt 1405.584 -60.74524
vt 1428.423 644.2651
vt 3374.298 708.2773
vt 3314.108 646.6011
vt 1374.518 -1002.454
vt 1378.603 -401.4942
vt 1429.067 -944.791
vt 1405.483 -344.0905
vt 693.2715 4.147217
vt 718.7485 -51.07617
vt 693.6992 -389.9896
vt 1405.483 -344.0906
vt 719.8435 -333.3196
vt -2324.554 -1001.759
vt -2289.864 -916.3188
vt 2324.554 -1001.759
vt 1429.067 -944.791
vt 2321.458 -944.1665
vt -2494.335 -1001.412
vt -2434.511 -916.0063
vt -3385.313 -1001.064
vt -3300.353 -915.6934
vt 3385.313 -1001.064
vt 2494.335 -1001.412
vt 2462.418 -943.854
vt 3324.573 -943.541
vt -696.6357 -334.3947
vt -738.4827 -329.6506
vt -693.906 -334.3781
vt -719.7168 -333.6554
vt -719.8435 -333.3196
vt -697.251 -20.47241
vt -739.051 -25.57715
vt -693.158 -20.44788
vt -718.8022 -47.69775
vt -693.2715 4.147217
vt -718.7485 -51.07617
vt 718.8022 -47.69775
vt 719.7168 -333.6554
vt 692.949 -47.54236
vt 693.8635 -333.4998
vt -693.8635 -333.4998
vt -692.949 -47.54236
vt 14.99302 -0.002745048
vt -696.8303 -0.002745047
vt -696.8303 277.2289
vt 14.99315 277.2289
vt -696.8303 346.2209
vt 14.99302 346.2209
vt -1374.755 -0.0004639001
vt -3375.214 -0.0004639
vt -3375.214 277.2312
vt -1374.756 277.2312
vt -3375.214 346.2232
vt -1374.755 346.2232
vt 993.0898 -0.0001220703
vt 392.1165 0
vt 392.1165 277.2317
vt 993.0899 277.2316
vt 392.1165 346.2236
vt 993.0898 346.2235
vt -698.5892 9.74819E-06
vt -1378.356 9.73993E-06
vt -1378.356 277.2317
vt -695.8598 277.2317
vt -1378.356 346.2236
vt -693.1306 346.2236
vt 1385.151 -1.761453E-05
vt 700.1513 -1.761453E-05
vt 700.1508 277.2317
vt 1385.151 277.2317
vt 700.1513 346.2236
vt 1385.151 346.2236
vt -15.20279 346.2236
vt 690.1775 346.2236
vt 690.1776 274.7118
vt -15.20292 274.7118
vt 1429.22 346.2235
vt 3314.907 346.2235
vt 3314.908 274.7116
vt 1429.22 274.7116
vt -1000.126 346.2224
vt -398.9629 346.2224
vt -398.963 274.7106
vt -1000.126 274.7105
vt 719.3963 346.2236
vt 1406.3 346.2236
vt 1406.3 274.7118
vt 719.3958 274.7118
vt -1410.715 346.2235
vt -724.9904 346.2235
vt -724.9904 274.7117
vt -1410.715 274.7117
vt 1373.46 -0.001683704
vt 1373.461 277.2301
vt 2323.496 277.2301
vt 2323.496 -0.001684183
vt 1373.46 346.222
vt 2323.496 346.222
vt -2320.319 274.7096
vt -2320.319 346.2214
vt -1427.927 346.2214
vt -1427.927 274.7096
vt 2493.279 277.2301
vt 2493.278 -0.001683922
vt 2493.278 346.222
vt 3384.255 277.2301
vt 3384.254 -0.001684844
vt 3384.254 346.222
vt -2461.279 274.7096
vt -2461.278 346.2214
vt -3323.433 274.7096
vt -3323.433 346.2214
vt 322.3669 339.7322
vt 377.9738 339.7253
vt 377.9738 270.7363
vt 322.352 270.7307
vt 377.9738 -6.483503
vt 322.3365 -6.501812
vt 192.5807 274.7112
vt 192.5807 346.223
vt 192.9343 346.223
vt 192.9343 274.7112
vt 8.496297 339.7893
vt 8.473588 270.7813
vt -16.12755 270.7779
vt -16.0971 339.7922
vt 8.450274 -6.45741
vt -16.15849 -6.467179
vt -87.79045 274.7112
vt -87.79041 346.2231
vt -84.46173 346.2231
vt -84.46164 274.7112
vt -721.7123 274.7118
vt -721.7123 346.2236
vt -695.8586 346.2236
vt -695.8586 274.7118
vt 719.0758 346.2236
vt 719.076 274.7118
vt 693.2221 274.7118
vt 693.2221 346.2236
vt -3293.724 412.3733
vt -3378.271 455.1632
vt 3317.944 423.2869
vt 3378.271 455.1632
vt 635.725 277.2209
vt 635.725 -0.01083301
vt 382.5839 -0.01085886
vt 382.5839 277.2209
vt 382.5839 346.2127
vt 635.725 346.2128
vt -362.4832 274.6985
vt -585.8305 274.6985
vt -585.8304 346.2103
vt -362.4834 346.2103
vt -3294.987 403.1726
vt -3379.568 435.2825
vt -3295.458 281.0182
vt -3380.074 302.4481
vt 3380.074 302.4481
vt 3319.678 285.4717
vt 3319.207 410.8561
vt 3379.568 435.2825
vt 362.6799 -0.01086165
vt 362.6797 277.2209
vt 229.8652 -0.01086941
vt 229.865 277.2209
vt 362.6799 346.2127
vt 229.8652 346.2127
vt -224.6596 346.2103
vt -224.6593 274.6985
vt -350.0313 274.6985
vt -350.0316 346.2103
vt 3319.679 285.4715
vt 3268.244 285.8311
vt 3267.773 411.2155
vt 3319.207 410.8559
vt 3266.511 423.6464
vt 3317.945 423.2868
vt -3266.51 423.6465
vt -3267.772 411.2158
vt -3319.207 410.8561
vt -3317.944 423.2869
vt -3268.243 285.8314
vt -3319.678 285.4717
vt -3295.922 157.582
vt -3380.572 168.3318
vt -3297.192 149.6632
vt -3381.877 149.7329
vt 3381.877 149.7329
vt 3321.412 147.6565
vt 3320.142 158.8053
vt 3380.572 168.3318
vt 95.76907 -0.01087707
vt 95.76881 277.2209
vt 77.14648 -0.01087996
vt 77.14611 277.2209
vt 95.76907 346.2128
vt 77.14648 346.2128
vt -86.83572 346.2103
vt -86.83534 274.6985
vt -98.00564 274.6985
vt -98.00591 346.2103
vt 3321.413 147.6562
vt 3269.978 148.0158
vt 3268.708 159.1647
vt 3320.143 158.8051
vt -3268.707 159.1649
vt -3320.142 158.8053
vt -3269.977 148.0162
vt -3321.412 147.6565
vt -15.20292 256.2816
vt 690.1776 256.2816
vt 1429.22 256.2815
vt 3314.908 256.2815
vt -1000.126 256.2804
vt -398.963 256.2805
vt 719.3958 256.2817
vt 1406.3 256.2817
vt -1410.715 256.2816
vt -724.9904 256.2816
vt -2320.319 256.2794
vt -1427.927 256.2795
vt -2461.279 256.2794
vt -3323.433 256.2795
vt 192.9343 256.281
vt 192.5807 256.281
vt -84.46164 256.2811
vt -87.79045 256.2811
vt -721.7123 256.2817
vt -695.8586 256.2817
vt 719.076 256.2817
vt 693.2221 256.2817
vt -585.8305 256.2684
vt -362.4834 256.2683
vt 3320.299 274.7116
vt 3320.299 256.2815
vt 3268.863 256.2815
vt 3268.863 274.7116
vt -3314.905 256.2815
vt -3314.905 274.7117
vt -3263.469 274.7117
vt -3263.469 256.2815
vt -156.5082 274.7001
vt -144.0158 274.7001
vt -144.0162 256.2699
vt -156.5082 256.2699
vt -19.00867 274.7001
vt -19.00894 256.27
vt 107.2756 274.7001
vt 107.2756 256.27
vt 118.4909 274.7001
vt 118.4908 256.27
vt 3261.869 285.876
vt 3262.333 159.2092
vt 3261.398 411.2605
vt -3262.332 159.2094
vt -3261.868 285.876
vt -3261.397 411.2605
vt 690.1775 -5.0399
vt -15.20279 -5.0399
vt -15.20292 161.6211
vt 690.1776 161.6211
vt 3314.908 161.621
vt 1429.22 161.621
vt 3314.907 -5.04003
vt 1429.22 -5.040029
vt -398.9629 -5.041042
vt -1000.126 -5.041164
vt -1000.126 161.6198
vt -398.963 161.62
vt 1406.3 161.6212
vt 719.3958 161.6212
vt 1406.3 -5.039865
vt 719.3963 -5.039865
vt -724.9904 161.6211
vt -1410.715 161.6211
vt -724.9904 -5.039949
vt -1410.715 -5.039949
vt -1428.853 256.2816
vt -1428.853 161.621
vt -2321.245 161.621
vt -2321.245 256.2815
vt -1427.927 161.6189
vt -1427.927 -5.042079
vt -2320.319 -5.042096
vt -2320.319 161.6189
vt -2461.28 161.6189
vt -2461.278 -5.042096
vt -3323.433 -5.042082
vt -3323.433 161.6189
vt -3324.658 161.621
vt -3324.658 256.2816
vt -2462.504 256.2815
vt -2462.504 161.621
vt 192.9343 161.6206
vt 192.5807 161.6206
vt 192.9343 -5.04049
vt 192.5807 -5.04049
vt -84.46164 161.6206
vt -87.79045 161.6206
vt -84.46173 -5.040447
vt -87.79041 -5.040447
vt -695.8586 161.6212
vt -721.7123 161.6212
vt -695.8586 -5.039871
vt -721.7123 -5.039871
vt 719.076 161.6212
vt 693.2221 161.6212
vt 719.0758 -5.039863
vt 693.2221 -5.039863
vt -362.4834 161.6078
vt -585.8305 161.6079
vt -362.4834 -5.053192
vt -585.8304 -5.053162
vt 3320.299 161.621
vt 3268.863 161.621
vt 3320.298 -5.040055
vt 3268.862 -5.040055
vt -3263.468 -5.040005
vt -3314.904 -5.040005
vt -3314.905 161.621
vt -3263.469 161.621
vt -144.0163 161.6094
vt -156.5082 161.6094
vt -144.0163 -5.051608
vt -156.5084 -5.051592
vt -273.6288 256.2912
vt -273.6289 161.6307
vt -399.0143 161.6307
vt -399.0142 256.2912
vt -273.6288 -5.030361
vt -399.0142 -5.030361
vt -273.9163 256.296
vt -147.2487 256.296
vt -147.2487 161.6354
vt -273.9164 161.6354
vt -147.2488 -5.025598
vt -273.9163 -5.025582
vt 118.4905 161.6095
vt 107.2755 161.6095
vt 118.4903 -5.051555
vt 107.2753 -5.051553
vt 3267.518 256.2814
vt 3267.518 161.6209
vt 3261.143 161.6209
vt 3261.143 256.2814
vt 3267.517 -5.040111
vt 3261.142 -5.040111
vt -3264.81 -5.040025
vt -3264.811 161.621
vt -3258.436 161.621
vt -3258.435 -5.040025
vt -3264.811 256.2815
vt -3258.436 256.2815
vt -3300.688 -109.2533
vt -3385.51 -151.9041
vt 3324.907 -124.1805
vt 3385.51 -151.904
vt -224.499 -0.0109014
vt -224.4994 277.2209
vt -224.499 346.2127
vt 185.0201 274.6984
vt 185.0197 346.2103
vt 185.0201 256.2683
vt -86.83534 256.2683
vt 185.0201 161.6078
vt -86.83534 161.6078
vt 185.0197 -5.053241
vt -86.83572 -5.053216
vt -3299.536 -653.2323
vt -3384.427 -717.2428
vt 3323.756 -674.6193
vt 3384.427 -717.2428
vt -789.6844 -0.01087443
vt -789.6849 277.2209
vt -1073.46 -0.01087305
vt -1073.46 277.2209
vt -789.6844 346.2128
vt -1073.46 346.2127
vt 1004.237 346.2103
vt 1004.237 274.6985
vt 735.3459 274.6985
vt 735.3452 346.2104
vt 735.3459 256.2684
vt 1004.237 256.2683
vt 735.3459 161.6078
vt 1004.237 161.6078
vt 1004.237 -5.05321
vt 735.3452 -5.053211
vt 667.3516 -5.020833
vt 116.9119 -5.020818
vt 116.9121 161.6402
vt 667.3528 161.6402
vt 3328.388 161.6238
vt 3328.387 -5.037142
vt 3261.966 161.6239
vt 3261.965 -5.037142
vt 3324.908 -124.1809
vt 3323.757 -674.62
vt 3258.486 -123.7167
vt 3257.337 -674.1561
vt -3323.756 -674.6193
vt -3324.907 -124.1805
vt -3257.336 -674.1549
vt -3258.486 -123.7164
vt -3325.694 -5.039743
vt -3325.694 161.6213
vt -3259.271 -5.039743
vt -3259.271 161.6212
vt 934.767 256.2816
vt 934.767 161.621
vt 876.6472 256.2816
vt 876.6472 161.621
vt -1429.067 -944.7911
vt -2321.458 -944.1669
vt -1429.474 -886.6727
vt -2321.865 -886.0487
vt -927.9171 161.621
vt -927.9171 256.2815
vt -869.7975 161.621
vt -869.7975 256.2815
vt 2321.458 -944.1669
vt 2321.865 -886.0487
vt 1429.474 -886.6727
vt -2462.419 -943.8546
vt -3324.573 -943.5414
vt -2462.826 -885.7365
vt -3324.98 -885.4232
vt 926.5988 256.2688
vt 926.5988 161.6083
vt 868.4791 256.2688
vt 868.4791 161.6082
vt -920.2239 161.621
vt -920.2239 256.2816
vt -862.1044 161.621
vt -862.1044 256.2816
vt 3324.573 -943.5414
vt 2462.419 -943.8546
vt 3324.98 -885.4232
vt 2462.826 -885.7365

vn 0 -0.4236659 0
vn 0 0.4236659 0
vn 0 0 0
vn 0.0002304541 -1.199952E-09 0.4236659
vn -0.4236615 -9.214352E-08 -0.001945005
vn -0.005373877 7.474425E-07 0.4236318
vn -0.423573 1.912851E-05 -0.008869631
vn 0.4235569 0 0.009609772
vn 0.01621083 5.951003E-10 -0.4233557
vn 0.4236614 -7.240824E-07 0.001969922
vn -0.01412729 6.931746E-07 -0.4234303
vn 0.4235815 4.211337E-08 0.008458045
vn 0.4236603 -3.736596E-07 0.002185162
vn -0.009264194 -0.004184822 0.4234914
vn -0.004070052 2.99851E-06 0.4236464
vn -0.01445834 -0.008372643 0.4233364
vn -0.01446116 -7.459795E-07 0.423419
vn -0.0196493 -0.001042782 0.4231756
vn -0.02483744 -0.002084818 0.4229321
vn -0.1518956 0 0.3955004
vn -0.004448249 -0.01256265 0.4234563
vn -0.01031896 -0.01465193 0.4232408
vn -0.01618966 -0.01674121 0.4230253
vn -0.01620188 -0.00312616 0.4233445
vn -0.02206689 -0.003645561 0.4230341
vn -0.02793189 -0.004164963 0.4227237
vn -0.009274907 7.230989E-07 0.4235644
vn -0.4236359 0 -0.005045122
vn 0.4236359 -8.632158E-09 0.005041122
vn -0.004154116 -1.122078E-06 -0.4236456
vn 0.004780934 -5.772295E-06 0.423639
vn -0.02509869 -7.446083E-07 -0.4229218
vn 0.0008813597 -7.45537E-07 -0.423665
vn -0.0009018111 -4.333701E-06 0.423665
vn 0.04031533 -2.731874E-06 0.4217434
vn -0.02715763 -7.182059E-07 -0.4227946
vn 0.04547212 -5.543942E-06 0.4212186
vn -0.002607469 -7.393982E-07 -0.4236579
vn 0.002952163 -2.864647E-06 0.4236556
vn 0.003305963 -7.472622E-07 -0.4236531
vn 0.001173322 -1.490049E-06 -0.4236643
vn -0.003380159 -5.794614E-06 0.4236524
vn 0.00545601 0 -0.4236308

usemtl ProBuilderDefault
f 477/1070/293 478/1071/293 476/1069/293 475/1068/293
f 481/1074/293 482/1075/293 480/1073/293 479/1072/293
f 478/1071/293 484/1077/293 483/1076/293 476/1069/293
f 486/1079/293 481/1074/293 479/1072/293 485/1078/293
f 488/1081/293 486/1079/293 485/1078/293 487/1080/293
f 491/1084/294 492/1085/294 490/1083/294 489/1082/294
f 492/1085/294 494/1087/294 493/1086/294 490/1083/294
f 497/1090/294 498/1091/294 496/1089/294 495/1088/294
f 500/1093/294 491/1084/294 489/1082/294 499/1092/294
f 498/1095/294 502/1096/294 501/1094/294 496/1089/294
f 503/1097/293 483/1076/293 484/1077/293 504/1098/293
f 495/1088/294 505/1099/294 506/1101/294 497/1100/294
f 508/1103/293 507/1102/293 503/1097/293 504/1098/293
f 510/1105/293 509/1104/293 507/1102/293 508/1103/293
f 514/1109/294 513/1108/294 512/1107/294 511/1106/294
f 513/1108/294 506/1101/294 505/1099/294 512/1107/294
f 516/1111/293 477/1070/293 475/1068/293 515/1110/293
f 501/1068/294 502/1114/295 518/1113/293 517/1112/295
f 482/1075/293 520/1116/293 519/1115/293 480/1073/293
f 520/1116/293 516/1111/293 515/1110/293 519/1115/293
f 522/1118/294 521/1117/294 517/1112/294 518/1113/294
f 500/1120/295 499/1119/294 521/1117/295 522/1118/293
f 525/1123/294 526/1124/294 524/1122/294 523/1121/294
f 527/1125/293 528/1126/293 522/1118/293 518/1113/293
f 479/1127/296 530/1130/296 529/1129/296 485/1128/296
f 530/1130/296 489/1132/296 490/1131/296 529/1129/296
f 529/1136/297 531/1135/297 487/1134/297 485/1133/297
f 490/1138/297 493/1137/297 531/1135/297 529/1136/297
f 483/1139/298 533/1142/298 532/1141/298 476/1140/298
f 533/1142/298 495/1144/298 496/1143/298 532/1141/298
f 534/1148/299 530/1147/299 479/1146/299 480/1145/299
f 499/1150/299 489/1149/299 530/1147/299 534/1148/299
f 476/1151/300 532/1154/300 535/1153/300 475/1152/300
f 532/1154/300 496/1156/300 501/1155/300 535/1153/300
f 492/1158/301 491/1157/301 537/1160/301 536/1159/301
f 538/1163/302 494/1162/302 492/1161/302 536/1164/302
f 498/1166/303 497/1165/303 540/1168/303 539/1167/303
f 537/1171/304 491/1170/304 500/1169/304 541/1172/304
f 502/1174/299 498/1173/299 539/1176/299 542/1175/299
f 503/1180/305 543/1179/305 533/1178/305 483/1177/305
f 543/1179/305 505/1182/305 495/1181/305 533/1178/305
f 497/1185/297 506/1184/297 544/1183/297 540/1186/297
f 503/1180/302 507/1188/302 545/1187/302 543/1179/302
f 543/1179/302 545/1187/302 512/1189/302 505/1182/302
f 509/1191/305 546/1190/305 545/1187/305 507/1188/305
f 546/1190/305 511/1192/305 512/1189/305 545/1187/305
f 506/1184/297 513/1194/297 547/1193/297 544/1183/297
f 513/1194/297 514/1196/297 548/1195/297 547/1193/297
f 549/1200/308 535/1199/306 501/1198/307 517/1197/306
f 515/1202/311 475/1201/310 535/1199/309 549/1200/310
f 550/1206/312 518/1205/312 502/1204/312 542/1203/312
f 499/1210/314 534/1209/315 551/1208/314 521/1207/313
f 534/1209/317 480/1212/318 519/1211/317 551/1208/316
f 541/1216/319 500/1215/319 522/1214/319 552/1213/319
f 527/1219/320 518/1218/320 550/1217/320 553/1220/320
f 554/1223/321 552/1222/321 522/1221/321 528/1224/321
f 556/1226/293 555/1225/293 488/1081/293 487/1080/293
f 493/1086/294 494/1087/294 557/1227/294 558/1228/294
f 531/1229/322 559/1232/322 556/1231/322 487/1230/322
f 559/1232/322 531/1229/322 493/1234/322 558/1233/322
f 494/1237/323 538/1236/323 560/1235/323 557/1238/323
f 562/1240/293 561/1239/293 555/1225/293 556/1226/293
f 564/1242/293 563/1241/293 561/1239/293 562/1240/293
f 568/1246/294 567/1245/294 566/1244/294 565/1243/294
f 558/1228/294 557/1227/294 567/1245/294 568/1246/294
f 559/1232/324 569/1248/324 562/1247/324 556/1231/324
f 570/1250/325 564/1249/325 562/1247/325 569/1248/325
f 568/1251/324 569/1248/324 559/1232/324 558/1233/324
f 565/1252/325 570/1250/325 569/1248/325 568/1251/325
f 567/1256/326 572/1255/326 571/1254/326 566/1253/326
f 557/1238/327 560/1235/327 572/1255/327 567/1256/327
f 572/1260/294 574/1259/294 573/1258/294 571/1257/294
f 560/1262/294 575/1261/294 574/1259/294 572/1260/294
f 579/1266/293 578/1265/293 577/1264/293 576/1263/293
f 578/1265/293 581/1268/293 580/1267/293 577/1264/293
f 583/1270/293 582/1269/293 563/1241/293 564/1242/293
f 585/1272/293 584/1271/293 582/1269/293 583/1270/293
f 589/1276/294 588/1275/294 587/1274/294 586/1273/294
f 565/1243/294 566/1244/294 588/1275/294 589/1276/294
f 590/1278/325 583/1277/325 564/1249/325 570/1250/325
f 591/1280/328 585/1279/328 583/1277/328 590/1278/328
f 589/1281/325 590/1278/325 570/1250/325 565/1252/325
f 586/1282/328 591/1280/328 590/1278/328 589/1281/328
f 588/1286/329 593/1285/329 592/1284/329 587/1283/329
f 566/1253/326 571/1254/326 593/1285/326 588/1286/326
f 593/1290/294 595/1289/294 594/1288/294 592/1287/294
f 571/1257/294 573/1258/294 595/1289/294 593/1290/294
f 581/1268/293 597/1292/293 596/1291/293 580/1267/293
f 597/1292/293 599/1294/293 598/1293/293 596/1291/293
f 537/1160/301 600/1295/301 601/1296/301 536/1159/301
f 536/1164/302 601/1297/302 602/1298/302 538/1163/302
f 539/1167/303 540/1168/303 603/1299/303 604/1300/303
f 605/1301/304 600/1302/304 537/1171/304 541/1172/304
f 542/1175/299 539/1176/299 604/1303/299 606/1304/299
f 544/1183/297 607/1305/297 603/1306/297 540/1186/297
f 547/1193/297 608/1307/297 607/1305/297 544/1183/297
f 547/1193/297 548/1195/297 609/1308/297 608/1307/297
f 542/1203/312 606/1310/312 610/1309/312 550/1206/312
f 552/1213/319 611/1312/319 605/1311/319 541/1216/319
f 610/1313/320 612/1314/320 553/1220/320 550/1217/320
f 613/1316/321 611/1315/321 552/1222/321 554/1223/321
f 602/1317/323 614/1318/323 560/1235/323 538/1236/323
f 594/1322/321 616/1321/321 615/1320/321 592/1319/321
f 575/1325/320 560/1324/320 614/1323/320 617/1326/320
f 575/1327/327 617/1330/327 618/1329/327 574/1328/327
f 574/1328/326 618/1329/326 619/1332/326 573/1331/326
f 619/1332/326 620/1334/326 595/1333/326 573/1331/326
f 595/1333/329 620/1334/329 616/1336/329 594/1335/329
f 621/1337/294 622/1338/294 620/1289/294 619/1258/294
f 623/1339/294 621/1337/294 619/1258/294 618/1259/294
f 624/1340/293 625/1341/293 580/1267/293 596/1291/293
f 625/1341/293 626/1342/293 577/1264/293 580/1267/293
f 629/1345/301 628/1344/301 627/1343/301 630/1346/301
f 600/1295/301 629/1345/301 630/1346/301 601/1296/301
f 601/1297/302 630/1348/302 631/1347/302 602/1298/302
f 630/1348/302 627/1350/302 632/1349/302 631/1347/302
f 636/1354/303 635/1353/303 634/1352/303 633/1351/303
f 604/1300/303 603/1299/303 635/1353/303 636/1354/303
f 605/1301/304 637/1356/304 629/1355/304 600/1302/304
f 638/1358/304 628/1357/304 629/1355/304 637/1356/304
f 606/1304/299 604/1303/299 636/1360/299 639/1359/299
f 639/1359/299 636/1360/299 633/1362/299 640/1361/299
f 644/1366/297 643/1365/297 642/1364/297 641/1363/297
f 646/1370/297 645/1369/297 634/1368/297 635/1367/297
f 608/1307/297 647/1371/297 646/1370/297 607/1305/297
f 647/1371/297 648/1372/297 645/1369/297 646/1370/297
f 647/1371/297 650/1374/297 649/1373/297 648/1372/297
f 653/1377/297 652/1376/297 651/1375/297 654/1378/297
f 606/1310/312 639/1380/312 655/1379/312 610/1309/312
f 639/1380/312 640/1382/312 524/1381/312 655/1379/312
f 611/1312/319 656/1384/319 637/1383/319 605/1311/319
f 656/1384/319 523/1386/319 638/1385/319 637/1383/319
f 610/1313/320 655/1388/320 657/1387/320 612/1314/320
f 524/1390/320 526/1389/320 657/1387/320 655/1388/320
f 658/1392/321 656/1391/321 611/1315/321 613/1316/321
f 525/1394/321 523/1393/321 656/1391/321 658/1392/321
f 659/1395/323 614/1318/323 602/1317/323 631/1396/323
f 632/1398/323 579/1397/323 659/1395/323 631/1396/323
f 616/1321/321 661/1400/321 660/1399/321 615/1320/321
f 661/1400/321 598/1402/321 599/1401/321 660/1399/321
f 662/1406/320 659/1405/320 579/1404/320 576/1403/320
f 617/1326/320 614/1323/320 659/1405/320 662/1406/320
f 617/1330/327 662/1408/327 663/1407/327 618/1329/327
f 576/1410/327 577/1409/327 663/1407/327 662/1408/327
f 623/1414/326 665/1413/326 664/1412/326 621/1411/326
f 626/1416/326 625/1415/326 664/1412/326 665/1413/326
f 664/1420/326 666/1419/326 622/1418/326 621/1417/326
f 625/1422/326 624/1421/326 666/1419/326 664/1420/326
f 620/1334/329 667/1424/329 661/1423/329 616/1336/329
f 667/1424/329 596/1426/329 598/1425/329 661/1423/329
f 622/1430/321 666/1429/321 667/1428/321 620/1427/321
f 666/1429/321 624/1432/321 596/1431/321 667/1428/321
f 665/1435/320 663/1434/320 577/1433/320 626/1436/320
f 623/1438/320 618/1437/320 663/1434/320 665/1435/320
f 585/1272/293 669/1440/293 668/1439/293 584/1271/293
f 586/1273/294 587/1274/294 670/1441/294 671/1442/294
f 591/1280/330 672/1444/330 669/1443/330 585/1279/330
f 671/1445/330 672/1444/330 591/1280/330 586/1282/330
f 587/1283/331 592/1284/331 673/1446/331 670/1447/331
f 674/1448/331 673/1446/331 592/1284/331 615/1449/331
f 675/1450/331 674/1448/331 615/1449/331 660/1451/331
f 660/1451/331 599/1453/331 676/1452/331 675/1450/331
f 669/1440/293 678/1455/293 677/1454/293 668/1439/293
f 678/1455/293 509/1104/293 510/1105/293 677/1454/293
f 679/1456/294 514/1109/294 511/1106/294 680/1457/294
f 670/1441/294 679/1456/294 680/1457/294 671/1442/294
f 672/1444/332 681/1459/332 678/1458/332 669/1443/332
f 681/1459/333 546/1461/333 509/1460/333 678/1458/333
f 680/1462/332 681/1459/332 672/1444/332 671/1445/332
f 511/1463/333 546/1461/333 681/1459/333 680/1462/333
f 679/1467/326 682/1466/326 548/1465/326 514/1464/326
f 670/1447/334 673/1446/334 682/1466/334 679/1467/334
f 683/1468/334 682/1466/334 673/1446/334 674/1448/334
f 609/1469/326 548/1465/326 682/1466/326 683/1468/326
f 684/1470/334 683/1468/334 674/1448/334 675/1450/334
f 650/1471/326 609/1469/326 683/1468/326 684/1470/326
f 684/1470/326 685/1473/326 649/1472/326 650/1471/326
f 688/1476/334 687/1475/334 686/1474/334 689/1477/334
f 689/1480/321 686/1481/321 685/1479/321 684/1478/321
f 688/1484/294 689/1485/294 684/1483/294 675/1482/294
f 686/1488/293 687/1489/293 676/1487/293 685/1486/293
f 687/1492/320 688/1493/320 675/1491/320 676/1490/320
f 641/1496/298 642/1497/298 635/1495/298 603/1494/298
f 642/1500/293 643/1501/293 646/1499/293 635/1498/293
f 643/1504/335 644/1505/335 607/1503/335 646/1502/335
f 644/1507/294 641/1508/294 603/1100/294 607/1506/294
f 654/1511/293 651/1512/293 650/1510/293 647/1509/293
f 653/1515/298 654/1516/298 647/1514/298 608/1513/298
f 651/1519/335 652/1520/335 609/1518/335 650/1517/335
f 652/1523/294 653/1524/294 608/1522/294 609/1521/294

g PolyShape (7)
v 2028.348 149.4935 3725.4
v 2244.278 149.4935 3725.4
v 2244.991 149.4935 3692.375
v 2071.819 149.4935 3693.576
v 2071.819 149.4935 3661.151
v 2029.061 149.4935 3660.551
v 2029.061 102.5065 3660.551
v 2071.819 102.5065 3661.151
v 2071.819 102.5065 3693.576
v 2028.348 102.5065 3725.4
v 2244.278 102.5065 3725.4
v 2244.991 102.5065 3692.375
v 2029.061 102.5065 3630.7
v 2071.819 102.5065 3631.3
v 2029.061 149.4935 3630.7
v 2071.819 149.4935 3631.3

vt 0 0
vt -303 9.094947E-13
vt -304 -55
vt -61 -53
vt -61 -107
vt -0.9999999 -108
vt 1 -108
vt 61 -107
vt 61 -53
vt 303 1.019323E-12
vt 304 -55
vt 1.627066 0
vt -58.38102 -3.051758E-05
vt 1.627066 38
vt -58.38102 37.99998
vt 107 -3.051758E-05
vt 53 3.051758E-05
vt 107 37.99997
vt 53.00001 38.00003
vt -108.0046 0
vt -6.276577E-06 38
vt -108.0046 38
vt 303 38
vt -61.43414 4.105706E-05
vt -304.4424 1.053948E-05
vt -61.43414 38.00004
vt -304.4424 38.00001
vt 60.51727 -1.105714E-06
vt 5.508181 -1.105714E-06
vt 60.51728 38
vt 5.508187 38
vt 1 -157.7139
vt 60.99976 -156.7144
vt -108 38
vt -108 1.882255E-08
vt -157.7139 38
vt -157.7139 1.882256E-08
vt 106.9997 -3.051752E-05
vt 106.9997 37.99997
vt 156.7141 -3.051752E-05
vt 156.7141 37.99998
vt -60.99974 -156.7144
vt -0.9999807 -157.7139

vn -1.797084E-07 1.2365 1.714694E-07
vn -8.237666E-09 -1.2365 3.407421E-07
vn 0.01186994 0 -0.6003695
vn 0.71264 0 0
vn -0.7126095 2.332171E-08 -0.00555951
vn 0 2.040118E-07 0.6004528
vn -0.005865151 -2.482481E-07 -0.6004325
vn 0.7125223 4.513009E-09 0.01091552
vn -0.71264 2.327405E-08 8.638986E-09

usemtl ProBuilderDefault
f 693/1528/336 694/1529/336 695/1530/336
f 693/1528/336 695/1530/336 690/1525/336
f 691/1526/336 693/1528/336 690/1525/336
f 691/1526/336 692/1527/336 693/1528/336
f 698/1533/337 701/1535/337 700/1534/337
f 699/1525/337 698/1533/337 700/1534/337
f 699/1525/337 696/1531/337 698/1533/337
f 696/1531/337 697/1532/337 698/1533/337
f 705/1539/338 703/1537/338 702/1536/338
f 702/1536/338 704/1538/338 705/1539/338
f 693/1543/339 698/1541/339 697/1540/339
f 697/1540/339 694/1542/339 693/1543/339
f 695/1546/340 696/1544/340 699/1525/340
f 699/1525/340 690/1545/340 695/1546/340
f 690/1545/341 699/1525/341 700/1534/341
f 700/1534/341 691/1547/341 690/1545/341
f 692/1551/342 701/1549/342 698/1548/342
f 698/1548/342 693/1550/342 692/1551/342
f 691/1555/343 700/1553/343 701/1552/343
f 701/1552/343 692/1554/343 691/1555/343
f 703/1557/337 697/1532/337 696/1531/337
f 696/1531/337 702/1556/337 703/1557/337
f 702/1561/344 696/1559/344 695/1558/344
f 695/1558/344 704/1560/344 702/1561/344
f 705/1565/339 694/1563/339 697/1562/339
f 697/1562/339 703/1564/339 705/1565/339
f 704/1567/336 695/1530/336 694/1529/336
f 694/1529/336 705/1566/336 704/1567/336

g PolyShape (5)
v 834.951 139.6089 1153.125
v 832.1024 139.6325 1197.016
v 640.022 146.4042 1194.956
v 640.1786 146.4764 1150.506
v 833.6107 101.5706 1153.058
v 830.7621 101.5943 1196.95
v 638.8383 108.4381 1150.439
v 638.6817 108.366 1194.89

vt 0 0
vt -97.8548 2.551758
vt -101.6284 249.0483
vt -2.647461 249.9646
vt 97.8548 2.551758
vt 2.647461 249.9646
vt 101.6284 249.0483
vt -97.88807 0
vt 0 38.06192
vt -97.88807 38.06192
vt 249.9786 0
vt 249.9786 38.06192
vt -4.04932 0
vt -250.5748 0
vt -4.04932 38.06192
vt -250.5748 38.06192
vt 99.31867 0
vt 0.3335404 0
vt 99.31867 38.06192
vt 0.3335404 38.06192

vn 0.03521385 0.9993783 0.001746416
vn -0.03521385 -0.9993783 -0.001746416
vn 0.7786129 -0.02748207 0.02692965
vn 0.0005418304 0.0007656699 -0.4490761
vn 0.003133152 -0.0008952382 0.4491205
vn -0.7791549 0.02747346 -0.01107552

usemtl ProBuilderDefault
f 709/1571/345 708/1570/345 707/1569/345 706/1568/345
f 712/1573/346 710/1568/346 711/1572/346 713/1574/346
f 706/1576/347 707/1577/347 711/1575/347 710/1568/347
f 709/1579/348 706/1576/348 710/1568/348 712/1578/348
f 707/1582/349 708/1583/349 713/1581/349 711/1580/349
f 708/1586/350 709/1587/350 712/1585/350 713/1584/350

g PolyShape (6)
v 830.8961 143.6068 1426.039
v 828.1196 143.6344 1466.244
v 636.0421 150.4063 1464.042
v 636.1256 150.4745 1423.32
v 829.5557 105.5686 1425.973
v 826.7794 105.5962 1466.178
v 634.7853 112.4362 1423.254
v 634.7018 112.368 1463.975

vt 0 0
vt -97.8548 2.551758
vt -101.6284 249.0483
vt -2.647461 249.9646
vt 97.8548 2.551758
vt 2.647461 249.9646
vt 101.6284 249.0483
vt -97.88807 0
vt 0 38.06192
vt -97.88807 38.06192
vt 249.9786 0
vt 249.9786 38.06192
vt -4.04932 0
vt -250.5748 0
vt -4.04932 38.06192
vt -250.5748 38.06192
vt 99.31867 0
vt 0.3335404 0
vt 99.31867 38.06192
vt 0.3335404 38.06192

vn 0.03521385 0.9993783 0.001746416
vn -0.03521385 -0.9993783 -0.001746416
vn 0.7786321 -0.02748103 0.02594746
vn -0.000196144 0.0007258348 -0.4114005
vn 0.00387108 -0.0008554056 0.4114472
vn -0.779148 0.02747383 -0.01142429

usemtl ProBuilderDefault
f 717/1591/351 716/1590/351 715/1589/351 714/1588/351
f 720/1593/352 718/1588/352 719/1592/352 721/1594/352
f 714/1596/353 715/1597/353 719/1595/353 718/1588/353
f 717/1599/354 714/1596/354 718/1588/354 720/1598/354
f 715/1602/355 716/1603/355 721/1601/355 719/1600/355
f 716/1606/356 717/1607/356 720/1605/356 721/1604/356

